<?xml version='1.0' encoding='utf-8'?>
<svg xmlns="http://www.w3.org/2000/svg" xmlns:xlink="http://www.w3.org/1999/xlink" fill="none" viewBox="0 0 2200 2200" width="2200" height="2200"><defs><clipPath id="assetClipPath_VVOBq1TB"><path d="m0 0 h 1634.049 v 1595.483 h -1634.049 v -1595.483 z" id="path_uSHoDw8M" fill="#ffffff" /></clipPath><clipPath id="assetClipPath_pYONHEV2"><path d="m0 0 h 1436.702 v 1482.537 h -1436.702 v -1482.537 z" id="path_hUEna2bh" fill="#ffffff" /></clipPath><clipPath id="assetClipPath_z0NHMJQB"><path d="m0 0 h 570.057 v 574.359 h -570.057 v -574.359 z" id="path_STsDUPCN" fill="#ffffff" /></clipPath><clipPath id="assetClipPath_MkIxdNJY"><path d="m0 0 h 1175.023 v 1132.723 h -1175.023 v -1132.723 z" id="path_4eWaLwFf" fill="#ffffff" /></clipPath><clipPath id="assetClipPath_KyYKPwy9"><path d="m0 0 h 552.625 v 650.108 h -552.625 v -650.108 z" id="path_jPt10vLM" fill="#ffffff" /></clipPath><clipPath id="assetClipPath_yy-GIpks"><path d="m0 0 h 297.621 v 354.933 h -297.621 v -354.933 z" id="path_Krr704Ak" fill="#ffffff" /></clipPath></defs><g transform="translate(329 348)" data-asset-index="0"><g clip-path="url(#assetClipPath_VVOBq1TB)" transform="scale(0.9999700131391409 0.9990705009078755)" data-asset-index="0"><defs>
    <linearGradient id="linearGradient_t1wXb8nK" x1="718.385" y1="567.737" x2="1401.175" y2="146.49" gradientUnits="userSpaceOnUse">
      <stop offset="0" stop-color="#CCD9FF" />
      <stop offset="1" stop-color="#A8B5E0" />
    </linearGradient>
    <linearGradient id="linearGradient_1ZYzXrKL" x1="627.147" y1="523.427" x2="1384.002" y2="55.889" gradientUnits="userSpaceOnUse">
      <stop offset="0" stop-color="#E3EFFF" />
      <stop offset="1" stop-color="#CCD9FF" />
    </linearGradient>
    <linearGradient id="linearGradient_yMiyBs-F" x1="758.334" y1="1386.453" x2="1637.86" y2="692.09" gradientUnits="userSpaceOnUse">
      <stop offset="0" stop-color="#A6B2DD" />
      <stop offset="1" stop-color="#66749B" />
    </linearGradient>
    <linearGradient id="linearGradient_Vul3tBPk" x1="717.836" y1="1223.898" x2="1638.839" y2="648.566" gradientUnits="userSpaceOnUse">
      <stop offset="0" stop-color="#CFDCFF" />
      <stop offset="1" stop-color="#A6B2DD" />
    </linearGradient>
    <linearGradient id="linearGradient_p39H8Jgk" x1="229.65" y1="507.465" x2="942.529" y2="907.881" gradientUnits="userSpaceOnUse">
      <stop offset="0" stop-color="#A0ADD7" />
      <stop offset="1" stop-color="#7885AE" />
    </linearGradient>
    <linearGradient id="linearGradient_ECOWRBiW" x1="118.385" y1="1167.607" x2="1099.751" y2="322.799" gradientUnits="userSpaceOnUse">
      <stop offset="0" stop-color="#C4D0FD" />
      <stop offset="1" stop-color="#A0ADD7" />
    </linearGradient>
  </defs><g id="c_n2bXcGrktutdc6fFquX">
    <g id="KQaa5U8ncIev3zBoUT1">
      <path d="M1470.328,291.222l-24.286-87.992c-96.266-90.841-224.349-92.03-372.152-116.42l-259.2,582.291,25.232,85.253,630.407-463.132Z" fill="url(#linearGradient_t1wXb8nK)" id="xeK-C0YqDJ7xLSfqzFToj" />
      <path d="M839.922,755.854c-.161,0-.322-.025-.479-.078-.463-.156-.821-.527-.96-.996l-25.231-85.253c-.102-.343-.077-.71.068-1.036L1072.519,86.2c.276-.624.94-.984,1.614-.87,26.346,4.347,52.149,7.969,77.104,11.472,116.112,16.297,216.391,30.372,295.833,105.337.199.188.344.427.417.692l24.286,87.993c.165.6-.057,1.239-.559,1.608l-630.406,463.132c-.261.191-.572.291-.888.291ZM816.286,669.206l24.468,82.676,627.854-461.256-23.899-86.592c-78.7-74.06-178.431-88.056-293.887-104.261-24.611-3.454-50.049-7.024-76.032-11.294l-258.503,580.728Z" fill="#011938" id="z31Mk9tCSlVTGRq_YYMGH" />
    </g>
    <g id="d_54DqmiSCr3sA8r4z1S">
      <path d="M1446.042,203.23C1346.923,99.663,1210.225,27.112,1048.686,1.5l-233.996,667.601,631.352-465.871Z" fill="url(#linearGradient_1ZYzXrKL)" id="cQXShx0xJc0_aa_Hclr2J" />
      <path d="M814.69,670.601c-.313,0-.626-.098-.892-.293-.529-.392-.742-1.082-.524-1.703L1047.269,1.004c.24-.684.946-1.101,1.65-.985,79.454,12.597,154.326,36.747,222.537,71.779,66.39,34.096,125.493,77.968,175.669,130.395.298.312.447.736.41,1.166-.037.43-.257.823-.604,1.079l-631.352,465.872c-.265.195-.578.293-.891.293ZM1049.686,3.178l-231.971,661.826,626.062-461.968c-101.774-105.779-237.984-174.857-394.091-199.858Z" fill="#011938" id="iV3A46XZF2UiKVGKJpsX2" />
    </g>
  </g><g id="h78X11U1ea28BqkZSI7hz">
    <g id="DyeJe84NDVcg6Uz3q1Xd">
      <path d="M1599.236,1032.779c43.462-135.917,42.913-270.012,6.99-390.487l-11.64-42.534c-29.324-75.561-77.713-149.91-133.419-209.496l-633.532,464.029-41.763,653.104,24.799,86.588c347.943-2.982,681.144-225.266,788.566-561.205Z" fill="url(#linearGradient_yMiyBs-F)" id="lspYH-0HSEhhHio9ryq-G" />
      <path d="M810.67,1595.483c-.669,0-1.258-.443-1.442-1.087l-24.799-86.588c-.047-.165-.065-.337-.055-.509l41.764-653.104c.028-.443.252-.852.61-1.114l633.531-464.029c.614-.45,1.465-.369,1.982.186,57.589,61.6,105.079,136.172,133.723,209.978.019.048.035.098.049.147l11.639,42.533c37.288,125.05,34.867,260.384-7.008,391.34l-1.429-.457,1.429.457c-26.29,82.216-66.608,159.411-119.837,229.443-51.282,67.472-113.465,126.952-184.82,176.79-70.421,49.185-147.797,87.619-229.979,114.235-83.315,26.984-169.226,41.04-255.345,41.778h-.013ZM787.385,1507.232l24.413,85.24c358.536-3.545,681.638-233.752,786.009-560.15,41.69-130.378,44.104-265.1,6.981-389.602l-11.629-42.491c-28.359-73.046-75.276-146.851-132.182-207.97l-631.891,462.828-41.702,652.145Z" fill="#011938" id="SU6IH-b4VjuDPNDX3_vYM" />
    </g>
    <g id="Q3pNnUm2fAFQusDKZ42St">
      <path d="M1575.729,942.811c77.467-242.262,14.846-477.949-138.803-640.665l-634.487,466.774-16.567,738.475c348.629-4.841,682.415-228.576,789.858-564.584Z" fill="url(#linearGradient_Vul3tBPk)" id="g5L_p4ad9948EEMOI67Jg" />
      <path d="M785.871,1508.895c-.399,0-.783-.159-1.065-.444-.286-.289-.443-.683-.435-1.09l16.567-738.474c.011-.466.236-.899.611-1.175l634.487-466.774c.608-.45,1.46-.373,1.979.179,77.398,81.965,131.495,182.659,156.441,291.196,12.786,55.631,17.958,113.21,15.37,171.139-2.675,59.889-13.667,120.388-32.67,179.816l-1.429-.457,1.429.457c-26.295,82.231-66.652,159.526-119.951,229.739-51.349,67.643-113.626,127.367-185.101,177.512-70.537,49.487-148.049,88.277-230.383,115.294-83.47,27.39-169.544,41.884-255.832,43.082h-.021ZM803.922,769.692l-16.517,736.181c359.095-5.65,682.546-237.187,786.896-563.519,73.533-229.959,22.105-468.436-137.556-638.212l-632.823,465.55Z" fill="#011938" id="xpPDI5CMQsh-YQhc7OBcB" />
    </g>
  </g><g id="E3Ynq8skq_kUg_uUISYCR">
    <g id="NoHYmE4TO-AwcOWufsazq">
      <path d="M983.461,136.541l-25.339-84.882C585.352.879,202.934,306.836,73.098,648.769c-136.245,358.809,43.945,742.384,427.615,854.577,74.282,21.722,150.757,31.626,227.114,30.669l20.22-730.946,235.414-666.528Z" fill="url(#linearGradient_p39H8Jgk)" id="rTVEttz3vu2mZ6I2_Wau" />
      <path d="M717.769,1535.579c-74.451,0-147.558-10.348-217.478-30.794-183.181-53.565-328.157-171.684-408.223-332.596-39.145-78.671-61.018-163.634-65.012-252.529-4.102-91.294,10.917-182.613,44.639-271.423,64.756-170.54,193.035-333.288,351.944-446.512,82.013-58.436,168.401-101.404,256.766-127.712,94.343-28.088,187.851-36.109,277.919-23.839.584.08,1.066.493,1.235,1.057l25.339,84.881c.091.304.083.629-.023.929l-235.335,666.306-20.214,730.71c-.021.805-.676,1.449-1.48,1.459-3.357.042-6.724.063-10.076.063ZM873.756,47.464c-354.849,0-683.922,298.098-799.256,601.837-66.779,175.868-59.586,361.092,20.254,521.551,79.689,160.155,224.01,277.726,406.379,331.054,72.333,21.152,148.106,31.483,225.233,30.626l20.181-729.505c.004-.155.032-.311.085-.458l235.251-666.067-24.922-83.486c-27.814-3.743-55.615-5.552-83.206-5.552Z" fill="#011938" id="OxJOV8bIsS3iJdCbAxslt" />
    </g>
    <g id="Eq-kCa5MWS7LD6yJDVypY">
      <path d="M958.122,51.66C576.81-10.795,179.413,218.362,46.632,568.048c-136.245,358.809,44.369,740.621,428.684,850.532,74.419,21.283,151.032,30.759,227.525,29.394l19.84-729.734L958.122,51.66Z" fill="url(#linearGradient_ECOWRBiW)" id="sIVq84_qyEjOJWQe-bEFS" />
      <path d="M688.438,1449.602c-73.084,0-144.843-9.936-213.534-29.58-183.464-52.47-328.708-169.551-408.977-329.678C26.675,1012.04,4.719,927.36.67,838.656c-4.159-91.095,10.833-182.319,44.56-271.141C109.79,397.491,238.779,250.634,408.435,153.998,578.92,56.889,774.223,20.019,958.364,50.179c.438.072.822.334,1.049.716.226.382.271.845.123,1.264l-235.361,666.356-19.834,729.499c-.021.802-.67,1.444-1.473,1.459-4.812.086-9.628.129-14.43.129ZM832.329,43.005c-336.615,0-665.829,213.59-784.294,525.575-66.789,175.894-59.482,360.716,20.575,520.421,79.888,159.366,224.472,275.901,407.119,328.137,72.469,20.726,148.392,30.592,225.652,29.36l19.802-728.3c.004-.156.032-.312.085-.459L956.11,52.853c-41.104-6.632-82.524-9.848-123.781-9.848Z" fill="#011938" id="mYGwb1gV5hGVcTz-uDunv" />
    </g>
    <g id="OmqqwhEGH5IKUg2uTxT6">
      <polygon points="748.047 803.069 722.681 718.239 958.122 51.66 983.461 136.541 748.047 803.069" fill="#7885AE" id="efZZibo1Epf7pou85JikI" />
      <path d="M748.047,804.569c-.012,0-.024,0-.037,0-.648-.016-1.214-.447-1.4-1.069l-25.365-84.83c-.091-.305-.083-.63.023-.93L956.708,51.16c.216-.612.768-1.024,1.451-1,.649.016,1.215.448,1.4,1.07l25.339,84.881c.091.304.083.629-.023.929l-235.414,666.527c-.212.602-.779,1.001-1.414,1.001ZM724.259,718.278l23.906,79.951,233.719-661.727-23.882-80-233.743,661.775Z" fill="#011938" id="xVEtL61QSHPP0MmeoPGMp" />
    </g>
    <g id="LlLBhESZmTar1u279eHGz">
      <polygon points="727.827 1534.015 702.842 1447.974 722.681 718.239 748.047 803.069 727.827 1534.015" fill="#7885AE" id="V0NKT6bJesClKgfWxvCaA" />
      <path d="M727.826,1535.515c-.659,0-1.252-.435-1.439-1.082l-24.985-86.042c-.043-.148-.063-.304-.059-.459l19.84-729.734c.02-.736.571-1.35,1.302-1.446.727-.098,1.423.352,1.635,1.058l25.365,84.83c.045.152.066.312.062.471l-20.22,730.947c-.021.738-.575,1.352-1.309,1.446-.064.008-.128.012-.191.012ZM704.347,1447.78l22.245,76.606,19.948-721.118-22.614-75.63-19.579,720.142Z" fill="#011938" id="s1JKavCdhcGcRG-2UUtbm" />
    </g>
  </g></g></g><g transform="translate(464 201)" data-asset-index="1"><g clip-path="url(#assetClipPath_pYONHEV2)" transform="scale(1.001599496624909 1.0016613413358317)" data-asset-index="1"><g id="rh3aO3EFWSKhIdOjNQyy">
    <g id="YDbWohNYPzfKbCO2Znewr">
      <path d="M470.351,1114.553c.923-22.446-18.136-43.435-42.506-46.471-24.284-3.025-43.971,13.02-44.048,35.431-.075,21.984,18.816,41.973,42.265,45.031,23.529,3.069,43.384-11.975,44.288-33.991Z" fill="#E9ECFF" id="zgKia1qcYdlI3VMS4DnF" />
      <path d="M432.021,1150.433c-2.033,0-4.089-.132-6.152-.401-24.102-3.144-43.647-24.014-43.57-46.523.036-10.722,4.403-20.452,12.296-27.398,8.654-7.616,20.845-11.086,33.438-9.516,25.121,3.13,44.778,24.672,43.819,48.021h0c-.429,10.412-4.996,19.795-12.862,26.42-7.247,6.104-16.833,9.398-26.968,9.398ZM422.103,1069.224c-9.705,0-18.789,3.208-25.526,9.138-7.239,6.372-11.245,15.306-11.278,25.156-.072,21.053,18.302,40.584,40.959,43.539,11.516,1.5,22.741-1.53,30.799-8.316,7.214-6.077,11.404-14.688,11.797-24.249.896-21.828-17.582-41.979-41.192-44.921-1.866-.232-3.724-.347-5.558-.347ZM470.352,1114.553h.01-.01Z" fill="#071838" id="Da-l__ip6571NRRGYgBIc" />
    </g>
    <g id="DYx-yOT8iQhIVOl3U9ws">
      <path d="M479.991,1155.578l-107.437-14.013c-20.278-2.645-36.408,10.251-36.086,28.526l2.256,128.2c.136,7.708,7.506,14.956,16.475,16.24h0c8.98,1.286,16.255-3.879,16.239-11.588l-.232-109.17c-.004-1.95,1.753-3.298,3.926-3.007h0c2.173.291,3.933,2.111,3.93,4.062l-.35,247.082c-.012,8.267,8.356,16.203,18.704,17.79h0c10.364,1.589,18.913-3.771,19.084-12.037l2.841-137.507c.03-1.469,1.459-2.461,3.191-2.215h0c1.733.246,3.109,1.638,3.075,3.106l-3.252,137.507c-.195,8.265,8.078,16.208,18.491,17.804h0c10.429,1.599,19.182-3.751,19.538-12.015l10.664-247.168c.084-1.953,1.939-3.299,4.143-3.004h0c2.205.296,3.919,2.121,3.828,4.074l-5.112,109.267c-.361,7.713,6.754,14.985,15.898,16.295h0c9.157,1.311,16.98-3.836,17.465-11.55l8.071-128.402c1.152-18.319-14.693-35.583-35.351-38.278Z" fill="#E9ECFF" id="vLdWFte1-q7pXh6VI6bR" />
      <path d="M444.506,1468.142c-1.272,0-2.572-.099-3.889-.301-11.109-1.703-19.975-10.371-19.764-19.322l3.252-137.507c.016-.627-.745-1.438-1.785-1.586-.493-.074-.959.028-1.239.267-.157.134-.236.296-.24.494l-2.841,137.507c-.078,3.771-1.756,7.222-4.723,9.716-3.99,3.354-9.855,4.729-16.089,3.772-11.027-1.691-19.989-10.338-19.977-19.274l.35-247.082c.002-1.203-1.202-2.382-2.63-2.573-.689-.087-1.328.066-1.747.433-.314.275-.48.65-.479,1.085l.232,109.17c.008,3.737-1.533,7.139-4.341,9.578-3.422,2.971-8.384,4.249-13.61,3.497-9.647-1.381-17.615-9.32-17.762-17.698l-2.257-128.199c-.152-8.666,3.239-16.544,9.55-22.184,7.159-6.397,17.451-9.263,28.23-7.855l107.437,14.013c21.417,2.793,37.86,20.674,36.654,39.858l-8.071,128.402c-.231,3.678-1.986,7.026-4.941,9.431-3.687,2.998-8.871,4.274-14.233,3.512-9.87-1.415-17.579-9.423-17.184-17.851l5.112-109.268c.055-1.173-1.104-2.325-2.529-2.517-.729-.094-1.418.071-1.888.464-.241.203-.535.561-.559,1.118l-10.664,247.167c-.162,3.748-1.913,7.178-4.932,9.658-3.236,2.658-7.637,4.075-12.444,4.075ZM422.013,1306.403c.241,0,.484.018.729.052,2.5.355,4.416,2.388,4.363,4.628l-3.252,137.506c-.178,7.498,7.547,14.804,17.219,16.287,5.444.832,10.538-.305,13.974-3.128,2.385-1.96,3.712-4.542,3.838-7.469l10.664-247.168c.057-1.287.636-2.455,1.632-3.289,1.112-.932,2.646-1.347,4.21-1.136,3.004.401,5.257,2.874,5.128,5.629l-5.112,109.269c-.324,6.927,6.231,13.539,14.613,14.74,4.526.646,8.874-.396,11.914-2.87,2.332-1.896,3.66-4.418,3.841-7.29l8.071-128.402c1.108-17.642-14.165-34.103-34.049-36.696l-107.437-14.013c-9.912-1.29-19.334,1.3-25.843,7.118-5.649,5.049-8.686,12.114-8.549,19.894l2.257,128.199c.122,6.969,6.935,13.601,15.188,14.782,4.364.622,8.454-.393,11.217-2.793,2.171-1.886,3.314-4.413,3.309-7.308l-.232-109.17c-.003-1.307.53-2.495,1.501-3.347,1.071-.938,2.573-1.358,4.124-1.149,2.938.393,5.235,2.831,5.231,5.55l-.35,247.082c-.011,7.516,7.809,14.83,17.432,16.306,5.374.824,10.374-.307,13.703-3.104,2.33-1.958,3.593-4.545,3.653-7.481l2.841-137.507c.022-1.06.482-2.025,1.298-2.718.767-.652,1.787-1.003,2.874-1.003Z" fill="#071838" id="MSIUCe01HWMgbONy20JWq" />
    </g>
  </g><g id="MnIYwKRsaSS6dbypBB6B">
    <g id="AsVXDrNvgyJsQ3pSv6GS">
      <path d="M595.306,117.081c1.581-20.878-15.57-41.536-38.343-45.663-22.774-4.127-41.71,9.992-42.282,31.052-.558,20.547,16.653,40.038,38.43,43.984,21.777,3.946,40.653-9.005,42.196-29.374Z" fill="#E9ECFF" id="WXRBXxN1o4T7wsK6aI-rL" />
      <path d="M560.772,148.649c-2.612,0-5.267-.237-7.929-.719-22.441-4.067-40.233-24.478-39.661-45.5.273-10.077,4.601-19.018,12.183-25.177,8.372-6.799,19.986-9.461,31.865-7.311,23.471,4.253,41.223,25.451,39.572,47.252-.729,9.62-5.246,18.1-12.721,23.877-6.412,4.955-14.624,7.578-23.31,7.578ZM549.208,72.212c-8.284,0-16.021,2.551-21.952,7.369-6.893,5.599-10.826,13.742-11.076,22.93-.532,19.604,16.154,38.654,37.198,42.467,10.679,1.937,21.2-.354,28.868-6.28,6.794-5.251,10.9-12.968,11.563-21.73h0c1.539-20.315-15.111-40.086-37.115-44.074-2.521-.457-5.028-.682-7.486-.682Z" fill="#071838" id="Z9oG86t2voFyLNYoyU4W5" />
    </g>
    <g id="zEt-gO3uzGa7aQ2gbV-Cq">
      <path d="M602.912,155.479l-99.603-18.05c-18.975-3.438-34.357,7.78-34.357,24.734v116.809c0,6.907,6.67,13.668,14.899,15.16h0c8.228,1.491,15.009-2.833,15.147-9.715l1.978-98.846c.036-1.79,1.7-2.948,3.718-2.582h0c2.017.366,3.617,2.115,3.573,3.903l-5.406,219.857c-.175,7.133,7.208,14.226,16.489,15.908h0c9.282,1.682,17.087-2.658,17.438-9.76l5.939-120.197c.064-1.305,1.394-2.133,2.97-1.848h0c1.576.286,2.797,1.576,2.728,2.88l-6.398,120.114c-.378,7.097,6.843,14.16,16.124,15.842h0c9.282,1.682,17.25-2.629,17.803-9.694l17.06-217.745c.139-1.771,1.887-2.914,3.904-2.548h0c2.017.366,3.533,2.1,3.386,3.87l-8.114,97.734c-.565,6.805,5.651,13.484,13.879,14.975h0c8.228,1.491,15.463-2.75,16.166-9.53l11.883-114.655c1.725-16.641-12.232-33.177-31.207-36.615Z" fill="#E9ECFF" id="W-uMg_kVxq5aKt_YP5BCf" />
      <path d="M562.145,431.555c-1.389,0-2.816-.129-4.263-.391-10.153-1.84-17.775-9.482-17.354-17.397l6.398-120.114c.025-.482-.623-1.167-1.497-1.325-.501-.092-.876.026-1.055.169-.125.099-.146.196-.15.277l-5.939,120.197c-.158,3.201-1.685,6.106-4.298,8.182-3.703,2.939-9.136,4.025-14.905,2.98-10.132-1.836-17.916-9.488-17.722-17.421l5.406-219.857c.026-1.043-1.067-2.16-2.34-2.39-.624-.113-1.188-.003-1.556.296-.255.209-.388.491-.395.84l-1.979,98.846c-.066,3.317-1.515,6.298-4.076,8.394-3.238,2.65-7.916,3.658-12.838,2.767-9.045-1.639-16.131-8.946-16.131-16.635v-116.809c0-7.992,3.271-15.125,9.209-20.083,6.882-5.747,16.694-7.976,26.915-6.127l99.604,18.05c19.699,3.57,34.247,20.727,32.431,38.246l-11.883,114.655c-.335,3.226-2.009,6.122-4.714,8.153-3.473,2.607-8.288,3.59-13.212,2.698-8.953-1.622-15.73-9.058-15.107-16.575l8.114-97.734c.082-.986-.926-2.046-2.158-2.27-.643-.117-1.25,0-1.665.32-.289.223-.449.516-.478.87l-17.061,217.745c-.251,3.216-1.812,6.016-4.514,8.099-2.842,2.191-6.636,3.345-10.789,3.345ZM545.084,289.296c.289,0,.584.026.879.08,2.33.422,4.068,2.371,3.959,4.436l-6.398,120.114c-.337,6.328,6.344,12.737,14.894,14.286,4.871.885,9.61-.007,12.686-2.378,2.011-1.55,3.171-3.61,3.354-5.957l17.061-217.745c.094-1.201.675-2.27,1.637-3.011,1.086-.837,2.557-1.161,4.03-.896,2.801.507,4.827,2.91,4.614,5.47l-8.114,97.733c-.5,6.021,5.176,12.02,12.652,13.375,4.103.744,8.068-.038,10.875-2.145,2.06-1.546,3.28-3.644,3.531-6.064l11.883-114.655c1.658-15.994-11.791-31.688-29.981-34.984l-99.604-18.05c-9.348-1.695-18.26.302-24.457,5.478-5.244,4.379-8.132,10.693-8.132,17.781v116.809c0,6.18,6.131,12.318,13.666,13.683,4.053.735,7.846-.043,10.403-2.136,1.897-1.553,2.927-3.673,2.976-6.132l1.979-98.846c.025-1.232.556-2.333,1.495-3.102,1.049-.859,2.505-1.196,3.99-.927,2.756.5,4.866,2.878,4.805,5.416l-5.406,219.857c-.157,6.384,6.688,12.842,15.257,14.395,4.846.877,9.523-.01,12.504-2.377,1.956-1.553,3.052-3.622,3.168-5.981l5.939-120.197c.048-.98.503-1.86,1.28-2.478.701-.557,1.609-.852,2.576-.852Z" fill="#071838" id="vHSsby7OXFXzQJz4vKPrk" />
    </g>
  </g><g id="XEFDvPEuCTyxC3dZL2vUY">
    <g id="QqAY8Ckdk_cY3jPKmdPN6">
      <path d="M1402.622,559.302c3.788-20.358-11.596-40.837-34.396-45.272-22.746-4.424-43.45,8.963-46.228,29.43-2.712,19.975,12.734,39.31,34.486,43.626,21.801,4.325,42.442-7.918,46.138-27.785Z" fill="#E9ECFF" id="Kh3HqeyobCfCdqGMN8bG" />
      <path d="M1365.174,589.443c-2.98,0-5.991-.292-8.982-.885-22.46-4.456-38.466-24.777-35.68-45.3,1.309-9.637,6.501-18.149,14.62-23.97,9.22-6.609,21.388-9.061,33.381-6.731,23.591,4.589,39.554,25.681,35.584,47.019h0c-1.722,9.255-7.105,17.356-15.159,22.813-6.824,4.624-15.164,7.054-23.764,7.054ZM1359.611,514.695c-8.319,0-16.306,2.426-22.731,7.032-7.442,5.334-12.199,13.125-13.396,21.936-2.577,18.979,12.357,37.8,33.291,41.952,10.838,2.15,21.948.07,30.479-5.709,7.386-5.004,12.319-12.419,13.894-20.879,3.669-19.725-11.228-39.25-33.207-43.524-2.782-.541-5.575-.808-8.329-.808ZM1402.622,559.302h.01-.01Z" fill="#071838" id="Zhq68pIF0OpQmUEAGgC7" />
    </g>
    <g id="oIuGZZcB9C9TCsxT4QEVX">
      <path d="M1406.414,596.993l-99.602-19.761c-18.858-3.741-35.584,6.831-37.361,23.3l-12.256,113.625c-.726,6.728,5.311,13.506,13.483,15.195h0c8.179,1.691,15.508-2.332,16.37-9.043l12.363-96.281c.224-1.742,2.032-2.83,4.04-2.427h0c2.008.403,3.448,2.144,3.216,3.885l-28.547,214.456c-.928,6.973,5.825,14.172,15.082,16.145h0c9.267,1.975,17.672-2.004,18.775-8.953l18.65-117.485c.202-1.274,1.644-2.046,3.22-1.721h0c1.576.325,2.686,1.622,2.478,2.896l-19.108,117.424c-1.13,6.945,5.491,14.128,14.786,16.109h0c9.305,1.983,17.903-1.966,19.209-8.887l40.201-212.956c.327-1.73,2.235-2.805,4.261-2.398h0c2.027.407,3.399,2.141,3.064,3.87l-18.499,95.53c-1.289,6.656,4.38,13.393,12.657,15.104h0c8.284,1.713,16.154-2.234,17.582-8.872l24.139-112.18c3.501-16.27-9.112-32.785-28.204-36.573Z" fill="#E9ECFF" id="l5rfJMCVMZeZgoEWMudMd" />
      <path d="M1336.818,866.373c-1.676,0-3.397-.182-5.129-.551-10.048-2.141-17.205-10.133-15.954-17.816l19.108-117.424c.059-.361-.418-1.004-1.3-1.186-.465-.095-.916-.031-1.209.171-.199.138-.221.272-.228.316l-18.649,117.485c-.496,3.126-2.257,5.807-5.091,7.752-4.048,2.78-9.691,3.668-15.479,2.433-9.988-2.128-17.281-10.118-16.257-17.811l28.547-214.456c.128-.955-.799-1.97-2.023-2.216-.656-.131-1.284-.023-1.729.296-.21.151-.472.421-.527.853l-12.363,96.281c-.408,3.181-2.137,6.006-4.866,7.953-3.532,2.521-8.377,3.383-13.295,2.366-8.892-1.838-15.473-9.386-14.67-16.824l12.256-113.626c.824-7.642,4.771-14.417,11.114-19.079,7.555-5.55,17.771-7.565,28.029-5.531l99.603,19.762h0c10.432,2.07,19.517,7.977,24.926,16.206,4.479,6.814,6.061,14.683,4.453,22.154l-24.14,112.181c-1.593,7.405-10.269,11.908-19.353,10.025-9.061-1.873-15.263-9.436-13.826-16.858l18.499-95.529c.176-.905-.688-1.874-1.887-2.114-.688-.139-1.368-.023-1.869.314-.238.161-.54.445-.624.891l-40.201,212.956c-.584,3.098-2.422,5.752-5.313,7.676-2.916,1.941-6.603,2.95-10.553,2.95ZM1333.13,726.353c.336,0,.678.035,1.019.105,2.39.491,3.996,2.515,3.656,4.604l-19.108,117.425c-.998,6.128,5.111,12.588,13.618,14.4,4.953,1.056,9.962.322,13.395-1.963,2.204-1.467,3.597-3.449,4.028-5.735l40.201-212.955c.215-1.141.888-2.144,1.895-2.822,1.161-.783,2.668-1.065,4.136-.769,2.83.568,4.733,3.093,4.242,5.626l-18.499,95.529c-1.126,5.819,4.027,11.809,11.488,13.351,7.474,1.547,14.565-1.918,15.812-7.719l24.14-112.181c1.438-6.68.008-13.738-4.026-19.876-4.971-7.562-13.354-12.996-23.003-14.91l-99.603-19.762c-9.438-1.875-18.791-.048-25.669,5.006-5.656,4.156-9.175,10.188-9.908,16.983l-12.256,113.626c-.641,5.945,4.874,12.03,12.295,13.564,4.097.846,8.088.165,10.945-1.871,2.071-1.478,3.328-3.516,3.633-5.894l12.363-96.281c.15-1.171.773-2.203,1.753-2.906,1.118-.804,2.605-1.097,4.069-.801,2.812.564,4.748,3.005,4.407,5.554l-28.546,214.456c-.823,6.175,5.416,12.671,13.907,14.48,4.918,1.049,9.833.311,13.155-1.972,2.139-1.469,3.462-3.457,3.826-5.75l18.649-117.485c.147-.932.675-1.754,1.484-2.313.708-.489,1.584-.746,2.501-.746Z" fill="#071838" id="RTjJ4P5q9CJcVfuGLbwG2" />
    </g>
  </g><g id="QfKbkMRcopt5jWPuzoDlp">
    <g id="gNVyz-XDAYauf_47EOW0">
      <path d="M1260.935,1018.965c4.431-19.681-10.309-40.173-32.953-45.275-22.559-5.083-43.566,7.239-46.916,27.029-3.264,19.282,11.52,38.574,33.016,43.549,21.573,4.993,42.536-6.13,46.853-25.303Z" fill="#E9ECFF" id="gwoN3lFU0j0LUnibvUkyN" />
      <path d="M1224.376,1046.949c-3.524,0-7.097-.402-10.632-1.221-22.189-5.136-37.513-25.439-34.157-45.26,1.552-9.167,6.828-17.181,14.858-22.565,9.44-6.331,21.782-8.399,33.866-5.677,23.448,5.283,38.739,26.398,34.086,47.067h0c-1.976,8.777-7.456,16.371-15.432,21.382-6.572,4.129-14.453,6.273-22.59,6.273ZM1217.852,974.053c-7.921,0-15.517,2.172-21.735,6.342-7.339,4.922-12.159,12.229-13.572,20.574-3.095,18.285,11.205,37.053,31.876,41.838,10.925,2.526,22.203.826,30.949-4.671,7.295-4.583,12.303-11.508,14.103-19.5,4.289-19.057-9.984-38.562-31.82-43.483-3.272-.737-6.563-1.1-9.8-1.1ZM1260.935,1018.965h.01-.01Z" fill="#071838" id="TTqHuYQgD8PWhUzJ-ZPj" />
    </g>
    <g id="GUuyoOjwmvINYNca0b7gg">
      <path d="M1263.532,1055.712l-98.496-22.797c-18.582-4.301-35.417,5.318-37.611,21.156l-15.058,108.713c-.887,6.406,4.868,13.135,12.858,15.088h0c8,1.955,15.321-1.592,16.35-7.98l14.831-92.035c.269-1.672,2.089-2.653,4.064-2.189h0c1.976.465,3.352,2.198,3.074,3.869l-33.935,204.008c-1.094,6.574,5.332,13.708,14.352,16.001h0c9.035,2.296,17.392-1.096,18.667-7.643l21.667-111.269c.236-1.213,1.682-1.893,3.23-1.516h0c1.548.376,2.607,1.666,2.366,2.878l-22.146,111.202c-1.303,6.543,5,13.664,14.078,15.971h0c9.092,2.311,17.666-1.044,19.152-7.56l46.181-202.392c.379-1.659,2.311-2.625,4.317-2.153h0c2.006.472,3.318,2.201,2.931,3.859l-21.315,91.24c-1.479,6.329,3.933,13.027,12.084,15.019h0c8.162,1.994,16.093-1.457,17.72-7.766l27.629-107.188c4.03-15.634-8.041-32.129-26.988-36.515Z" fill="#E9ECFF" id="r3YY4I4lVpE39KaMd_YyO" />
      <path d="M1187.498,1311.39c-1.979,0-4.022-.253-6.046-.767-9.985-2.538-16.653-10.32-15.18-17.718l22.146-111.201c.062-.313-.404-.923-1.249-1.129-.552-.133-.989-.025-1.216.119-.163.104-.181.197-.187.228l-21.667,111.269c-.563,2.892-2.301,5.332-5.025,7.059-4.011,2.541-9.799,3.196-15.483,1.752-9.903-2.517-16.694-10.292-15.462-17.701l33.935-204.008c.146-.875-.76-1.886-1.938-2.163-.648-.152-1.299-.066-1.742.229-.281.188-.449.437-.498.738l-14.83,92.034c-.48,2.985-2.208,5.599-4.862,7.36-3.567,2.365-8.422,3.035-13.325,1.838-8.697-2.125-14.972-9.639-13.987-16.75l15.059-108.714c1.001-7.229,4.976-13.566,11.192-17.846,7.67-5.28,17.965-6.945,28.241-4.564l98.496,22.796h0c10.55,2.441,19.525,8.661,24.626,17.064,4.058,6.685,5.292,14.244,3.477,21.286l-27.628,107.188c-1.821,7.065-10.577,11.037-19.528,8.85-8.929-2.182-14.845-9.726-13.188-16.816l21.315-91.24c.196-.839-.634-1.781-1.813-2.059-.687-.16-1.402-.069-1.911.247-.225.14-.511.389-.601.78l-46.182,202.393c-.651,2.858-2.468,5.269-5.25,6.971-2.669,1.632-6.07,2.476-9.688,2.476ZM1186.676,1177.515c.396,0,.801.048,1.203.146,2.356.574,3.886,2.608,3.481,4.631l-22.146,111.2c-1.142,5.734,4.68,12.115,12.977,14.224,4.958,1.259,9.978.751,13.43-1.36,2.077-1.271,3.423-3.026,3.891-5.079l46.183-202.393c.249-1.09.937-2.034,1.938-2.658,1.188-.74,2.711-.969,4.185-.621,2.808.66,4.624,3.199,4.049,5.661l-21.315,91.239c-1.284,5.497,3.641,11.428,10.979,13.221,7.356,1.798,14.498-1.2,15.911-6.685l27.628-107.187c1.611-6.253.497-12.994-3.137-18.981-4.684-7.716-12.971-13.438-22.737-15.699l-98.496-22.796c-9.46-2.189-18.887-.689-25.864,4.113-5.515,3.796-9.038,9.402-9.923,15.787l-15.059,108.714c-.779,5.631,4.482,11.653,11.729,13.424,4.086.999,8.081.481,10.954-1.424,1.978-1.312,3.208-3.157,3.56-5.337l14.83-92.035c.181-1.125.816-2.103,1.79-2.754,1.138-.762,2.631-1.001,4.099-.656,2.772.652,4.622,3.102,4.21,5.575l-33.935,204.008c-.962,5.786,4.978,12.201,13.241,14.301,4.899,1.245,9.812.729,13.14-1.378,2.01-1.273,3.284-3.036,3.686-5.098l21.667-111.27c.174-.892.711-1.665,1.513-2.18.672-.431,1.487-.653,2.341-.653Z" fill="#071838" id="O-POigfx2Pjseb2llJKCD" />
    </g>
  </g><g id="gBIG6iVBhAX6Nx4FAgLue">
    <g id="dob0CMnvnidwFE3V3rOXb">
      <path d="M1074.44,740.479c2.624-20.869-13.754-41.793-36.569-46.23-22.731-4.421-42.405,9.377-43.981,30.313-1.536,20.413,14.781,40.109,36.48,44.462,21.775,4.368,41.51-8.201,44.069-28.545Z" fill="#E9ECFF" id="pCmlBkZbUhmlM54p13Ni" />
      <path d="M1038.891,771.377c-2.912,0-5.865-.29-8.814-.882-22.351-4.483-39.255-25.139-37.682-46.045.753-10.001,5.507-18.819,13.385-24.83,8.722-6.655,20.525-9.146,32.378-6.844,23.57,4.584,40.513,26.068,37.771,47.891h0c-1.204,9.58-6.168,17.952-13.977,23.573-6.499,4.678-14.596,7.137-23.061,7.137ZM1029.524,694.936c-8.15,0-15.858,2.439-21.924,7.068-7.188,5.484-11.525,13.535-12.213,22.67-1.464,19.448,14.362,38.684,35.279,42.879,10.708,2.148,21.472.053,29.532-5.749,7.124-5.128,11.653-12.768,12.753-21.513h0c2.552-20.288-13.313-40.282-35.366-44.57-2.706-.526-5.407-.785-8.062-.785Z" fill="#071838" id="vQxFvi65KLNnmbgh1q0YO" />
    </g>
    <g id="x3BjIk_dy-ZhGJ5Hfopzi">
      <path d="M1080.281,779.036l-99.423-19.944c-18.761-3.763-34.585,7.056-35.379,23.83l-5.464,115.392c-.323,6.814,5.975,13.69,14.073,15.42h0c8.108,1.731,15.06-2.33,15.522-9.13l6.641-97.809c.12-1.774,1.836-2.884,3.833-2.476h0c1.997.408,3.512,2.179,3.383,3.952l-15.777,217.29c-.51,7.029,6.502,14.331,15.67,16.378h0c9.182,2.051,17.188-1.912,17.877-8.92l11.683-118.851c.127-1.293,1.501-2.073,3.068-1.74h0c1.568.333,2.732,1.652,2.6,2.945l-12.154,118.802c-.717,7.005,6.176,14.298,15.401,16.358h0c9.239,2.064,17.459-1.87,18.356-8.854l27.772-216.127c.227-1.765,2.053-2.864,4.079-2.45h0c2.027.414,3.479,2.183,3.244,3.948l-12.974,97.255c-.902,6.758,5.06,13.618,13.317,15.381h0c8.268,1.765,15.82-2.222,16.866-8.966l17.736-114.335c2.581-16.639-10.829-33.511-29.95-37.346Z" fill="#E9ECFF" id="C3CV1Ns7w0Nvs8PV_aPKs" />
      <path d="M1026.722,1052.585c-1.692,0-3.443-.194-5.215-.59-10.09-2.254-17.367-10.149-16.566-17.975l12.154-118.802c.047-.464-.562-1.144-1.419-1.325-.515-.111-.901.002-1.093.144-.138.1-.164.2-.171.275l-11.683,118.852c-.314,3.188-1.918,5.915-4.639,7.884-3.835,2.776-9.324,3.636-15.06,2.354-10.01-2.236-17.406-10.121-16.839-17.95l15.777-217.29c.073-1.012-.949-2.121-2.188-2.374-.618-.126-1.198-.029-1.588.27-.272.207-.423.489-.447.839l-6.641,97.809c-.222,3.271-1.796,6.169-4.433,8.158-3.343,2.522-8.046,3.372-12.899,2.337-8.915-1.903-15.617-9.352-15.257-16.957l5.464-115.392c.374-7.906,3.958-14.896,10.092-19.685,7.11-5.55,16.976-7.572,27.081-5.545l99.423,19.944h0c19.891,3.99,33.858,21.507,31.138,39.047l-17.735,114.335c-.494,3.181-2.308,5.995-5.108,7.924-3.644,2.51-8.586,3.342-13.555,2.28-8.987-1.92-15.488-9.566-14.491-17.046l12.975-97.256c.132-.981-.811-2.024-2.057-2.279-.662-.133-1.299-.027-1.75.295-.216.154-.484.431-.541.877l-27.773,216.126c-.405,3.155-2.086,5.852-4.861,7.799-2.74,1.921-6.265,2.918-10.095,2.918ZM1015.275,910.85c.336,0,.68.036,1.023.108,2.331.495,3.992,2.5,3.781,4.565l-12.154,118.802c-.638,6.233,5.749,12.847,14.236,14.742,4.883,1.09,9.719.397,12.933-1.856,2.065-1.449,3.313-3.43,3.609-5.726l27.772-216.126c.151-1.184.78-2.227,1.771-2.935,1.126-.806,2.623-1.094,4.096-.794,2.827.577,4.773,3.044,4.431,5.615l-12.975,97.256c-.796,5.963,4.652,12.115,12.144,13.716,4.165.888,8.258.227,11.226-1.817,2.146-1.478,3.475-3.521,3.846-5.913l17.735-114.334c2.479-15.977-10.425-31.968-28.763-35.646l-99.423-19.944c-9.24-1.852-18.224-.043-24.646,4.969-5.434,4.241-8.609,10.442-8.941,17.462l-5.464,115.392c-.287,6.075,5.494,12.303,12.888,13.881,4.003.855,7.817.199,10.466-1.798,1.959-1.479,3.082-3.542,3.247-5.967l6.641-97.809c.082-1.215.658-2.288,1.621-3.022,1.08-.821,2.536-1.122,4.007-.822,2.753.562,4.765,2.992,4.58,5.53l-15.777,217.29c-.455,6.276,6.05,12.918,14.501,14.806,4.825,1.076,9.552.383,12.646-1.856,2.005-1.45,3.185-3.438,3.411-5.746l11.683-118.852c.095-.966.587-1.819,1.384-2.403.688-.503,1.551-.767,2.465-.767Z" fill="#071838" id="LLSuibfxp6vo9eykp1CVm" />
    </g>
  </g><g id="qI7DHI9DAYFO3bSPAe7e2">
    <g id="qJf142pm9z9Bj0Es0Te3-">
      <path d="M947.423,1177.392c1.789-20.395-15.215-41.73-37.925-47.152-22.604-5.397-41.479,7.226-42.238,27.697-.74,19.965,16.106,40.088,37.696,45.408,21.687,5.345,40.722-6.066,42.467-25.953Z" fill="#E9ECFF" id="TGUmSKQvGaGl2Q-DKQaEp" />
      <path d="M915.451,1206.148c-3.544,0-7.191-.443-10.854-1.347-22.546-5.556-39.604-26.165-38.836-46.92.356-9.621,4.588-17.985,11.914-23.551,8.421-6.398,20.147-8.42,32.171-5.55,23.411,5.591,40.938,27.456,39.071,48.742-.806,9.185-5.245,17.101-12.501,22.29-5.834,4.173-13.146,6.335-20.965,6.335ZM899.25,1130.504c-7.475,0-14.376,2.125-19.76,6.216-6.598,5.012-10.409,12.567-10.731,21.273-.706,19.063,15.693,38.755,36.556,43.896,10.893,2.684,21.591,1.038,29.356-4.517,6.532-4.671,10.53-11.813,11.258-20.111h0c1.742-19.864-14.757-40.304-36.78-45.562-3.354-.801-6.68-1.195-9.898-1.195Z" fill="#071838" id="gg0mIPl5uEzahCVOPEJGi" />
    </g>
    <g id="Br0YjiciJKrNXWiY-jHPG">
      <path d="M954.697,1215.604l-98.974-24.392c-18.626-4.59-33.798,5.269-33.949,21.689l-1.042,113.065c-.062,6.682,6.402,13.764,14.449,15.878h0c8.06,2.117,14.764-1.523,14.962-8.189l2.844-95.821c.052-1.736,1.701-2.743,3.685-2.245h0c1.985.498,3.546,2.312,3.486,4.048l-7.326,213.021c-.237,6.901,6.966,14.476,16.101,16.988h0c9.154,2.518,16.918-.96,17.331-7.837l7.005-116.53c.076-1.267,1.404-1.965,2.966-1.557h0c1.563.408,2.764,1.767,2.683,3.033l-7.47,116.472c-.441,6.873,6.658,14.442,15.866,16.974h0c9.227,2.538,17.216-.901,17.836-7.749l19.153-211.665c.156-1.727,1.922-2.718,3.943-2.211h0c2.023.508,3.529,2.322,3.364,4.048l-9.083,95.181c-.632,6.618,5.54,13.691,13.791,15.859h0c8.265,2.171,15.599-1.372,16.374-7.973l13.13-111.847c1.91-16.267-12.04-33.538-31.126-38.242Z" fill="#E9ECFF" id="brx8yLY6YgwjKShzaJgYn" />
      <path d="M913.204,1482.526c-2.022,0-4.149-.289-6.288-.877-10.003-2.752-17.455-10.886-16.966-18.517l7.47-116.472c.027-.422-.583-1.229-1.564-1.486-.472-.122-.852-.06-1.017.06-.054.039-.069.066-.073.136l-7.005,116.529c-.187,3.098-1.635,5.701-4.188,7.528-3.722,2.664-9.205,3.268-15.038,1.665-9.909-2.726-17.465-10.846-17.202-18.486l7.326-213.021c.031-.914-.927-2.183-2.353-2.541-.604-.151-1.163-.09-1.499.164-.207.157-.312.377-.321.672l-2.844,95.82c-.095,3.184-1.514,5.96-3.996,7.816-3.241,2.424-7.925,3.07-12.846,1.779-8.798-2.312-15.637-9.93-15.568-17.343l1.041-113.065c.07-7.64,3.259-14.291,8.978-18.729,6.845-5.312,16.623-6.921,26.832-4.402l98.973,24.393c19.796,4.877,34.267,22.764,32.258,39.872l-13.129,111.847c-.361,3.069-2.004,5.745-4.626,7.533-3.562,2.429-8.527,3.052-13.62,1.716-9.063-2.381-15.609-10.046-14.903-17.452l9.084-95.181c.083-.873-.814-2.094-2.236-2.45-.654-.165-1.283-.095-1.684.19-.243.173-.375.401-.401.7l-19.153,211.665c-.276,3.056-1.796,5.622-4.395,7.424-2.394,1.659-5.565,2.514-9.045,2.514ZM895.36,1342.107c.408,0,.83.055,1.253.165,2.258.59,3.928,2.602,3.801,4.58l-7.47,116.472c-.395,6.161,6.229,13.084,14.767,15.433,4.971,1.366,9.765.913,12.828-1.21,1.846-1.278,2.923-3.087,3.116-5.228l19.153-211.665c.106-1.175.693-2.196,1.653-2.878,1.122-.795,2.633-1.034,4.149-.653,2.756.691,4.729,3.172,4.493,5.646l-9.084,95.181c-.561,5.882,5.127,12.281,12.679,14.265,4.255,1.118,8.325.646,11.169-1.292,1.921-1.311,3.074-3.179,3.335-5.404l13.129-111.847c1.839-15.658-11.616-32.081-29.994-36.61h0l-98.974-24.393c-9.312-2.294-18.157-.887-24.274,3.86-4.979,3.864-7.755,9.684-7.816,16.387l-1.041,113.065c-.056,6.002,5.925,12.468,13.33,14.413,4.034,1.061,7.784.595,10.288-1.279,1.76-1.316,2.726-3.22,2.794-5.504l2.844-95.82c.036-1.209.572-2.266,1.51-2.975,1.068-.81,2.541-1.059,4.04-.682,2.674.673,4.703,3.112,4.619,5.555l-7.326,213.021c-.214,6.208,6.516,13.156,14.999,15.49,4.888,1.345,9.558.89,12.498-1.212,1.792-1.283,2.809-3.105,2.939-5.269l7.005-116.529c.058-.969.521-1.816,1.306-2.385.635-.461,1.43-.698,2.283-.698Z" fill="#071838" id="wv0t6GapxefNZoAjFj2X" />
    </g>
  </g><g id="cOAix7vlLk09S1iqpf6DW">
    <g id="Za-1Gj5AufDH04f3-GrnH">
      <path d="M1151.416,46.48c1.604-21.286-15.763-41.474-38.707-44.579-22.811-3.088-41.679,12.011-42.248,33.22-.555,20.688,16.585,39.64,38.38,42.801,21.915,3.179,41.011-10.685,42.575-31.442Z" fill="#E9ECFF" id="rhcDeASyWrJ5qMrmRJuHV" />
      <path d="M1114.969,79.867c-2.099,0-4.22-.152-6.343-.46-22.819-3.31-40.241-22.781-39.663-44.326.274-10.25,4.662-19.499,12.355-26.042,8.318-7.073,19.837-10.215,31.592-8.625,23.734,3.212,41.679,23.928,40.002,46.178-.745,9.883-5.379,18.712-13.048,24.86-6.829,5.475-15.654,8.414-24.896,8.414ZM1106.927,3.009c-8.905,0-17.311,2.912-23.664,8.315-7.036,5.983-11.05,14.449-11.302,23.836-.528,19.716,16.112,38.233,37.096,41.277,10.653,1.543,21.197-1.125,28.932-7.326,7.013-5.622,11.25-13.7,11.932-22.745h0c1.561-20.696-15.223-39.977-37.412-42.98-1.872-.253-3.737-.378-5.581-.378Z" fill="#071838" id="YdK20owrplrtpFQPNikKZ" />
    </g>
    <g id="dE6C1T9ge7qN0oNFIciwR">
      <path d="M1159.14,85.218l-99.964-14.5c-18.759-2.721-33.9,9.089-33.9,26.043v116.809c0,6.907,6.558,13.546,14.664,14.888h0c8.122,1.345,14.829-3.118,14.965-10.029l1.959-99.285c.035-1.798,1.684-3.015,3.684-2.713h0c2,.302,3.587,2.008,3.544,3.807l-5.361,220.972c-.174,7.165,7.149,14.271,16.372,15.942h0c9.246,1.676,17.039-2.716,17.389-9.88l5.94-121.343c.065-1.319,1.396-2.18,2.974-1.921h0c1.579.259,2.803,1.539,2.733,2.857l-6.408,121.348c-.378,7.163,6.854,14.282,16.169,15.97h0c9.338,1.692,17.372-2.685,17.93-9.847l17.259-221.24c.141-1.804,1.913-3.019,3.96-2.71h0c2.048.309,3.587,2.025,3.438,3.829l-8.233,99.522c-.573,6.921,5.733,13.605,14.094,14.989h0c8.379,1.387,15.761-3.052,16.479-9.976l12.157-117.294c1.768-17.054-12.513-33.432-31.846-36.237Z" fill="#E9ECFF" id="JWfGy5N-ET-z6pIua6WIG" />
      <path d="M1117.895,366.049c-1.389,0-2.815-.129-4.261-.391-10.179-1.845-17.82-9.542-17.398-17.525l6.407-121.348c.026-.484-.613-1.157-1.478-1.298-.429-.071-.824.003-1.061.194-.145.117-.168.233-.173.32l-5.94,121.343c-.159,3.249-1.703,6.195-4.347,8.296-3.694,2.935-9.089,4.022-14.809,2.987-10.064-1.824-17.797-9.491-17.604-17.455l5.36-220.972c.025-1.033-1.034-2.101-2.268-2.287-.603-.092-1.164.037-1.534.348-.275.232-.419.539-.426.912l-1.958,99.284c-.066,3.365-1.528,6.402-4.115,8.552-3.196,2.656-7.788,3.725-12.596,2.928-8.927-1.479-15.919-8.668-15.919-16.368v-116.809c0-8.099,3.299-15.414,9.288-20.598,6.761-5.851,16.365-8.376,26.326-6.93l99.965,14.5h0c20.125,2.919,34.984,19.911,33.122,37.876l-12.156,117.294c-.341,3.291-2.05,6.262-4.81,8.368-3.527,2.69-8.413,3.758-13.406,2.933-9.094-1.505-15.977-8.949-15.344-16.593l8.233-99.521c.084-1.015-.909-2.032-2.167-2.222-.662-.1-1.285.042-1.72.387-.218.173-.485.479-.522.956l-17.259,221.24c-.255,3.268-1.838,6.111-4.578,8.224-2.864,2.209-6.682,3.373-10.854,3.373ZM1100.858,222.461c.262,0,.526.021.793.065,2.348.385,4.1,2.326,3.988,4.418l-6.407,121.347c-.338,6.395,6.362,12.861,14.938,14.415,4.883.886,9.647-.014,12.749-2.405,2.049-1.581,3.231-3.684,3.419-6.082l17.259-221.24c.094-1.212.679-2.303,1.646-3.071,1.086-.862,2.559-1.225,4.033-1.005,2.81.424,4.923,2.862,4.711,5.436l-8.233,99.522c-.508,6.125,5.254,12.129,12.844,13.386,4.179.693,8.224-.167,11.097-2.358,2.126-1.622,3.386-3.798,3.645-6.292l12.156-117.294c1.698-16.384-12.017-31.904-30.568-34.598h0l-99.964-14.5c-9.106-1.32-17.83.95-23.932,6.229-5.321,4.605-8.252,11.114-8.252,18.329v116.809c0,6.168,6.016,12.184,13.409,13.408,3.953.654,7.663-.175,10.188-2.275,1.934-1.608,2.982-3.788,3.032-6.304l1.958-99.285c.025-1.238.555-2.355,1.492-3.146,1.03-.869,2.459-1.241,3.915-1.021,2.766.417,4.883,2.757,4.82,5.327l-5.36,220.973c-.156,6.415,6.636,12.888,15.14,14.429,4.795.87,9.435-.021,12.407-2.384,1.986-1.578,3.099-3.685,3.217-6.093l5.94-121.343c.048-.986.504-1.876,1.283-2.506.715-.579,1.647-.887,2.639-.887Z" fill="#071838" id="FOrto_9m00hwVHmXldtvx" />
    </g>
  </g><g id="qOwIYFDTnBQAohynpYBDb">
    <g id="X13W3Sdz25ZsSG6K1hEWY">
      <path d="M946.389,274.927c1.58-20.982-15.769-41.387-38.656-45.073-22.747-3.663-41.549,10.726-42.108,31.645-.546,20.412,16.556,39.602,38.301,43.326,21.874,3.746,40.922-9.43,42.463-29.898Z" fill="#E9ECFF" id="EU36upksFVjVideyenN4N" />
      <path d="M911.221,306.951c-2.49,0-5.016-.213-7.548-.647-22.745-3.895-40.116-23.593-39.548-44.845.268-10.02,4.569-18.981,12.113-25.235,8.32-6.897,19.889-9.758,31.732-7.851,23.658,3.81,41.563,24.745,39.914,46.667h0c-.727,9.648-5.267,18.195-12.783,24.065-6.56,5.123-14.988,7.845-23.881,7.845ZM900.806,230.794c-8.555,0-16.565,2.692-22.652,7.739-6.868,5.694-10.785,13.864-11.03,23.006-.521,19.464,16.103,38.219,37.056,41.808,10.747,1.842,21.345-.567,29.076-6.605,6.843-5.344,10.976-13.131,11.638-21.927h0c1.536-20.406-15.241-39.911-37.398-43.479-2.25-.362-4.487-.541-6.688-.541ZM946.389,274.927h.01-.01Z" fill="#071838" id="i1MVVlj4S350JQKpzXtni" />
    </g>
    <g id="R1yHyNDy2arKH-v7K8bkG">
      <path d="M954.139,313.424l-99.756-17.083c-18.702-3.203-33.793,8.044-33.793,24.79v115.5c0,6.836,6.545,13.595,14.635,15.155h0c8.107,1.564,14.802-2.664,14.936-9.502l1.93-98.16c.035-1.777,1.679-2.933,3.674-2.579h0c1.995.354,3.579,2.084,3.536,3.861l-5.288,218.663c-.172,7.102,7.148,14.368,16.368,16.299h0c9.244,1.936,17.032-2.193,17.379-9.292l5.868-120.123c.064-1.304,1.393-2.119,2.97-1.818h0c1.577.301,2.801,1.604,2.732,2.908l-6.331,120.121c-.374,7.098,6.862,14.377,16.179,16.328h0c9.341,1.956,17.375-2.152,17.928-9.246l17.048-218.753c.139-1.781,1.908-2.933,3.953-2.57h0c2.046.363,3.585,2.104,3.438,3.885l-8.126,98.307c-.566,6.842,5.745,13.648,14.106,15.26h0c8.38,1.616,15.758-2.572,16.467-9.415l12.003-115.813c1.744-16.822-12.544-33.415-31.855-36.722Z" fill="#E9ECFF" id="SIW-Et7pntWp2Ii7n6JA3" />
      <path d="M913.793,590.484c-1.594,0-3.246-.173-4.923-.524-10.155-2.126-17.785-9.979-17.369-17.875l6.33-120.121c.026-.488-.63-1.187-1.515-1.356-.508-.097-.874.018-1.049.155-.117.093-.138.181-.142.262l-5.868,120.124c-.156,3.2-1.679,6.072-4.287,8.087-3.702,2.86-9.135,3.807-14.898,2.6-10.037-2.102-17.751-9.922-17.561-17.803l5.288-218.663c.025-1.029-1.048-2.126-2.297-2.348-.604-.107-1.161,0-1.521.297-.253.208-.385.489-.392.835l-1.931,98.159c-.065,3.312-1.506,6.272-4.057,8.337-3.204,2.593-7.82,3.545-12.663,2.608-8.888-1.714-15.851-9.019-15.851-16.628v-115.5c0-7.938,3.24-15.042,9.123-20.003,6.76-5.699,16.394-7.983,26.423-6.266l99.757,17.083c20.084,3.439,34.93,20.645,33.095,38.355l-12.004,115.812c-.335,3.228-2.015,6.115-4.729,8.131-3.541,2.628-8.467,3.578-13.514,2.602-9.069-1.749-15.939-9.311-15.316-16.856l8.126-98.307c.082-.994-.948-2.061-2.205-2.284-.665-.118-1.287.004-1.714.334-.292.227-.454.521-.482.876l-17.048,218.752c-.25,3.215-1.81,5.983-4.509,8.008-2.73,2.047-6.335,3.114-10.299,3.114ZM895.953,447.573c.304,0,.614.029.926.088,2.323.444,4.058,2.404,3.948,4.461l-6.33,120.12c-.335,6.35,6.389,12.98,14.988,14.781,4.926,1.032,9.715.263,12.807-2.055,1.989-1.491,3.137-3.511,3.318-5.84l17.048-218.753c.093-1.199.675-2.27,1.637-3.015,1.093-.846,2.578-1.181,4.072-.916,2.833.502,4.886,2.912,4.673,5.485l-8.126,98.306c-.502,6.066,5.283,12.196,12.895,13.664,4.228.813,8.291.062,11.157-2.066,2.062-1.53,3.283-3.615,3.533-6.031l12.004-115.812c1.676-16.17-12.059-31.911-30.616-35.089h0l-99.757-17.083c-9.157-1.567-17.9.473-23.982,5.602-5.196,4.382-8.058,10.671-8.058,17.709v115.5c0,6.118,6.02,12.255,13.419,13.683,3.976.768,7.695.04,10.207-1.995,1.879-1.52,2.896-3.617,2.944-6.063l1.931-98.16c.024-1.228.553-2.327,1.486-3.094,1.04-.854,2.48-1.193,3.949-.933,2.737.486,4.834,2.847,4.773,5.375l-5.288,218.663c-.154,6.373,6.653,13.01,15.176,14.795,4.832,1.01,9.487.251,12.449-2.038,1.93-1.49,3.01-3.517,3.125-5.859l5.868-120.123c.048-.981.503-1.86,1.282-2.474.693-.545,1.587-.833,2.541-.833Z" fill="#071838" id="q3fqfdVZGEab8vYowTGGD" />
    </g>
  </g><g id="AwdnGUCZgmAplN9_fbN4A">
    <g id="PuyZdww85J4Exr8BGkE44">
      <path d="M203.627,314.266c.382-21.526-17.852-42.757-40.664-46.89-22.733-4.12-40.549,10.468-39.878,32.054.654,21.038,18.708,40.985,40.406,45.043s39.764-9.232,40.136-30.207Z" fill="#E9ECFF" id="A2jJUe1NPEn2apuAisX8u" />
      <path d="M171.127,346.691c-2.596,0-5.245-.246-7.911-.744-22.666-4.239-40.951-24.652-41.63-46.471-.328-10.553,3.567-19.876,10.968-26.253,7.965-6.864,18.854-9.467,30.677-7.324,23.499,4.258,42.294,25.967,41.896,48.393l-1.5-.026,1.5.026c-.179,10.074-4.305,18.905-11.616,24.867-6.042,4.927-13.926,7.532-22.384,7.532ZM155.316,268.17c-7.999,0-15.213,2.507-20.804,7.326-6.7,5.774-10.227,14.257-9.928,23.887.626,20.125,18.203,39.691,39.183,43.615,10.645,1.992,20.532-.198,27.849-6.164,6.616-5.395,10.35-13.419,10.512-22.595.373-21.02-17.316-41.38-39.432-45.388-2.515-.456-4.983-.681-7.38-.681Z" fill="#071838" id="kJcYFxDC859n8H0vtPQQ-" />
    </g>
    <g id="F_xpchS-hnem8w-FmLzoP">
      <path d="M213.381,353.805l-99.406-18.594c-18.768-3.511-33.114,7.923-32.111,25.187l6.89,118.592c.406,6.993,7.29,13.92,15.389,15.535h0c8.108,1.616,14.474-2.683,14.208-9.664l-3.84-100.521c-.07-1.825,1.492-2.999,3.489-2.618h0c1.997.381,3.667,2.171,3.728,3.995l7.502,223.03c.242,7.197,7.855,14.522,17.017,16.433h0c9.176,1.914,16.572-2.295,16.509-9.473l-1.071-121.889c-.012-1.328,1.249-2.154,2.815-1.843h0c1.567.311,2.843,1.64,2.85,2.967l.598,121.844c.035,7.175,7.525,14.491,16.741,16.414h0c9.229,1.925,16.837-2.257,16.983-9.412l4.526-221.955c.037-1.817,1.708-2.981,3.733-2.595h0c2.025.386,3.631,2.175,3.585,3.991l-2.513,100.012c-.174,6.942,6.365,13.852,14.613,15.496h0c8.259,1.646,15.218-2.586,15.538-9.515l5.42-117.622c.79-17.141-14.087-34.22-33.195-37.795Z" fill="#E9ECFF" id="TPFzeAWxTXqB0z7f2vYH9" />
      <path d="M189.116,635.171c-1.527,0-3.114-.166-4.732-.503-10.018-2.09-17.896-9.94-17.935-17.874l-.599-121.844c-.003-.545-.721-1.321-1.642-1.503-.462-.092-.788.007-.925.12-.061.05-.1.109-.099.239l1.07,121.89c.029,3.288-1.345,6.239-3.869,8.31-3.495,2.867-8.761,3.829-14.446,2.645-9.944-2.074-17.943-9.916-18.21-17.852l-7.502-223.03c-.038-1.123-1.211-2.325-2.51-2.572-.573-.109-1.077-.019-1.388.248-.227.195-.335.478-.321.84l3.84,100.521c.131,3.436-1.167,6.498-3.655,8.62-3.041,2.592-7.542,3.529-12.344,2.572-8.856-1.765-16.145-9.197-16.593-16.919l-6.891-118.592c-.484-8.335,2.426-15.723,8.193-20.802,6.401-5.635,15.767-7.803,25.69-5.947l99.405,18.594c19.808,3.705,35.247,21.352,34.418,39.338l-5.421,117.623c-.152,3.331-1.687,6.301-4.32,8.361-3.331,2.607-8.075,3.538-13.008,2.556-9.065-1.808-16.015-9.277-15.82-17.006l2.513-100.011c.027-1.076-1.078-2.234-2.365-2.479-.616-.118-1.181-.015-1.548.283-.262.212-.398.504-.405.869l-4.526,221.954c-.066,3.252-1.52,6.17-4.091,8.218-2.588,2.061-6.08,3.136-9.966,3.136ZM163.857,490.41c.307,0,.62.031.937.094,2.265.449,4.047,2.395,4.058,4.431l.599,121.844c.031,6.464,7.006,13.171,15.548,14.952,4.788,1,9.355.237,12.216-2.043,1.889-1.503,2.912-3.554,2.96-5.931l4.526-221.955c.026-1.251.564-2.366,1.517-3.138,1.056-.854,2.514-1.182,3.997-.9,2.759.526,4.869,2.943,4.805,5.503l-2.513,100.011c-.157,6.208,5.857,12.482,13.406,13.988,4.075.812,7.93.093,10.573-1.977,1.962-1.535,3.059-3.657,3.173-6.137l5.421-117.623c.763-16.549-13.58-32.811-31.973-36.251l-99.405-18.594c-9.011-1.685-17.453.227-23.157,5.249-5.061,4.456-7.61,10.982-7.182,18.377l6.891,118.592c.367,6.317,6.73,12.665,14.185,14.15,3.9.778,7.475.08,9.812-1.913,1.8-1.536,2.7-3.687,2.604-6.223l-3.84-100.521c-.049-1.284.436-2.431,1.364-3.229,1.007-.866,2.43-1.199,3.904-.92,2.688.512,4.861,2.892,4.946,5.418l7.502,223.03c.219,6.506,7.318,13.241,15.825,15.016,4.724.985,9.184.227,11.931-2.026,1.834-1.505,2.793-3.567,2.771-5.964l-1.07-121.89c-.009-1.021.412-1.935,1.185-2.576.668-.554,1.543-.846,2.486-.846Z" fill="#071838" id="DWpBvebeTEekh-wQnN29F" />
    </g>
  </g><g id="OZlSAEGnRhgAqHSXt1bJT">
    <g id="S2Lm7rzgvHbvhH_0uOW3E">
      <path d="M469.864,507.523c1.556-20.787-15.792-41.405-38.641-45.545-22.691-4.112-41.414,9.753-41.949,30.472-.521,20.216,16.542,39.613,38.231,43.791,21.832,4.205,40.841-8.441,42.359-28.717Z" fill="#E9ECFF" id="a8CixXLrHRLtg9eg0WOS_" />
      <path d="M435.736,538.535c-2.801,0-5.654-.271-8.516-.822-22.663-4.364-39.989-24.263-39.446-45.302.254-9.864,4.485-18.625,11.916-24.668,8.308-6.758,19.898-9.397,31.8-7.241,23.609,4.279,41.495,25.423,39.869,47.134-.711,9.488-5.18,17.833-12.584,23.496-6.339,4.848-14.44,7.403-23.039,7.403ZM423.412,462.766c-8.266,0-15.958,2.528-21.829,7.304-6.739,5.482-10.579,13.444-10.811,22.418-.497,19.286,16.107,38.253,37.015,42.279,10.811,2.078,21.441-.111,29.166-6.019,6.715-5.136,10.769-12.714,11.414-21.338h0c1.515-20.225-15.269-39.945-37.412-43.958-2.542-.461-5.069-.688-7.543-.688Z" fill="#071838" id="uk9se1hzVLHL7MjKw9_" />
    </g>
    <g id="klATitr_Ous5Sh4mP6ZV">
      <path d="M477.648,545.898l-99.533-19.171c-18.623-3.587-33.627,7.215-33.608,23.797l.128,114.357c.008,6.768,6.526,13.621,14.578,15.367h0c8.071,1.749,14.731-2.272,14.857-9.042l1.815-97.19c.033-1.759,1.669-2.867,3.656-2.471h0c1.988.396,3.567,2.147,3.526,3.907l-5.028,216.48c-.163,7.03,7.134,14.423,16.321,16.584h0c9.213,2.167,16.972-1.714,17.31-8.74l5.722-118.905c.062-1.291,1.387-2.066,2.96-1.728h0c1.573.338,2.795,1.66,2.728,2.951l-6.185,118.901c-.365,7.025,6.858,14.434,16.153,16.62h0c9.322,2.193,17.335-1.663,17.88-8.682l16.794-216.556c.137-1.763,1.903-2.866,3.946-2.458h0c2.044.408,3.584,2.171,3.439,3.935l-8.016,97.342c-.558,6.774,5.752,13.684,14.108,15.495h0c8.377,1.816,15.748-2.154,16.45-8.929l11.886-114.681c1.727-16.663-12.58-33.463-31.886-37.181Z" fill="#E9ECFF" id="NUsMMPPuAYISN4EX10HS" />
      <path d="M438.21,819.735c-1.772,0-3.624-.218-5.508-.661-10.11-2.378-17.713-10.354-17.308-18.159l6.185-118.9c.022-.434-.567-1.196-1.545-1.406-.506-.108-.864-.008-1.032.121-.09.068-.11.133-.114.213l-5.722,118.905c-.151,3.151-1.648,5.952-4.216,7.888-3.698,2.786-9.139,3.602-14.936,2.239-9.98-2.347-17.658-10.288-17.478-18.079l5.028-216.479c.024-1.027-1.06-2.148-2.319-2.4-.604-.119-1.152-.029-1.501.254-.233.188-.355.448-.361.774l-1.814,97.19c-.062,3.268-1.481,6.164-3.999,8.155-3.197,2.529-7.814,3.38-12.676,2.324-8.83-1.913-15.752-9.307-15.76-16.831l-.129-114.356c-.009-7.821,3.177-14.766,8.971-19.556,6.736-5.569,16.367-7.653,26.421-5.716l99.533,19.171c20.066,3.864,34.912,21.274,33.095,38.809l-11.886,114.681c-.329,3.175-1.984,5.991-4.66,7.931-3.549,2.571-8.508,3.414-13.6,2.31-9.195-1.993-15.909-9.498-15.285-17.084l8.016-97.342c.082-.993-.964-2.087-2.237-2.341-.666-.13-1.289-.027-1.708.289-.272.207-.424.48-.45.814l-16.794,216.556c-.245,3.162-1.779,5.859-4.436,7.802-2.603,1.902-6.012,2.886-9.775,2.886ZM419.627,677.563c.339,0,.688.036,1.037.111,2.299.494,4.017,2.469,3.911,4.496l-6.185,118.9c-.327,6.294,6.401,13.061,14.999,15.083,4.957,1.165,9.752.521,12.825-1.728,1.928-1.408,3.04-3.35,3.216-5.611l16.794-216.556c.092-1.191.671-2.247,1.629-2.973,1.104-.835,2.602-1.142,4.104-.841,2.812.561,4.851,2.989,4.643,5.528l-8.016,97.343c-.495,6.015,5.306,12.253,12.93,13.906,4.261.922,8.344.265,11.204-1.808,2.005-1.452,3.193-3.462,3.437-5.81l11.886-114.681c1.662-16.026-12.101-31.977-30.677-35.555l-99.534-19.171c-9.168-1.762-17.898.085-23.941,5.083-5.091,4.208-7.891,10.331-7.883,17.239l.129,114.356c.006,6.067,6.015,12.304,13.395,13.903,3.978.862,7.688.226,10.18-1.745,1.826-1.445,2.815-3.471,2.86-5.859l1.814-97.19c.023-1.221.549-2.306,1.481-3.056,1.044-.841,2.489-1.155,3.968-.857,2.711.54,4.79,2.918,4.732,5.412l-5.028,216.479c-.147,6.319,6.656,13.088,15.165,15.089,4.853,1.141,9.504.5,12.442-1.715,1.869-1.409,2.916-3.358,3.025-5.637l5.722-118.905c.047-.979.502-1.848,1.281-2.446.673-.518,1.533-.788,2.454-.788Z" fill="#071838" id="QJmawG_gKsjwZm4B-wRoa" />
    </g>
  </g><g id="eGN2oxJsxBCfutWjmpNFn">
    <g id="w4f7YaI8hDfcOoYedQJCe">
      <path d="M121.303,787.103c-.342-20.725-19.124-42.183-41.905-47.43-22.739-5.237-39.999,7.864-38.621,28.761,1.343,20.373,19.986,40.617,41.703,45.683,21.756,5.075,39.156-6.812,38.822-27.014Z" fill="#E9ECFF" id="f7yHbvCj4PN1sqNjEJP" />
      <path d="M92.228,816.774c-3.265,0-6.65-.395-10.088-1.196-22.643-5.282-41.469-25.947-42.859-47.046-.656-9.954,2.734-18.629,9.546-24.427,7.647-6.508,18.915-8.655,30.909-5.894,23.391,5.387,42.709,27.31,43.067,48.867h0c.156,9.441-3.449,17.621-10.151,23.03-5.43,4.383-12.574,6.664-20.424,6.665ZM69.69,740.033c-7.386,0-14.008,2.178-18.919,6.357-6.071,5.167-9.089,12.961-8.496,21.944,1.286,19.523,19.476,39.406,40.547,44.321,10.799,2.52,20.981.739,27.946-4.881,5.967-4.816,9.176-12.149,9.035-20.647h0c-.334-20.264-18.61-40.896-40.741-45.992-3.208-.739-6.354-1.103-9.372-1.103Z" fill="#071838" id="OXwvCAx8rg9W942QrUnzF" />
    </g>
    <g id="cMJS3JEkEp1LC0cIwUlK">
      <path d="M132.29,825.737l-99.421-23.194c-18.85-4.397-32.816,5.912-31.25,22.692l10.766,115.367c.635,6.808,7.748,13.862,15.898,15.814h0c8.154,1.953,14.37-1.914,13.874-8.698l-7.141-97.598c-.13-1.77,1.39-2.827,3.395-2.355h0c2.005.471,3.729,2.29,3.85,4.059l14.848,216.639c.48,7.002,8.322,14.446,17.526,16.695h0c9.211,2.25,16.441-1.52,16.138-8.488l-5.126-118.208c-.056-1.286,1.171-2.027,2.74-1.652h0c1.569.375,2.883,1.723,2.934,3.008l4.659,118.121c.275,6.963,7.975,14.381,17.208,16.636h0c9.24,2.257,16.658-1.476,16.562-8.404l-2.965-214.467c-.024-1.752,1.593-2.791,3.612-2.316h0c2.02.475,3.67,2.282,3.686,4.033l.872,96.482c.061,6.704,6.777,13.689,15.006,15.66h0c8.235,1.972,14.98-1.795,15.061-8.473l1.378-113.214c.201-16.476-15.082-33.7-34.112-38.139Z" fill="#E9ECFF" id="AIqhzgMyCzZbepW53k_kb" />
      <path d="M118.443,1096.741c-1.782,0-3.669-.233-5.609-.708-9.988-2.44-18.049-10.362-18.352-18.035l-4.659-118.12c-.019-.476-.739-1.359-1.783-1.608-.541-.129-.844-.005-.889.053l5.122,118.282c.136,3.142-1.084,5.935-3.436,7.864-3.403,2.793-8.709,3.575-14.559,2.146-9.939-2.428-18.139-10.355-18.665-18.049l-14.849-216.639c-.068-.994-1.192-2.348-2.697-2.701-.679-.161-1.143-.029-1.35.148-.059.05-.238.202-.206.638l7.141,97.597c.24,3.285-.907,6.183-3.231,8.158-2.977,2.527-7.527,3.295-12.488,2.108-8.856-2.122-16.343-9.647-17.041-17.134L.127,825.375c-.738-7.909,1.793-14.827,7.129-19.482,6.243-5.448,15.702-7.203,25.954-4.81l99.421,23.193c19.659,4.586,35.482,22.358,35.271,39.618l-1.378,113.214c-.039,3.158-1.404,5.944-3.845,7.846-3.242,2.525-8.003,3.278-13.066,2.067-8.992-2.153-16.089-9.667-16.156-17.105l-.871-96.481c-.009-.944-1.05-2.237-2.529-2.586-.618-.144-1.176-.078-1.496.18-.188.151-.278.366-.274.655l2.966,214.468c.043,3.097-1.25,5.85-3.64,7.753-2.349,1.871-5.544,2.837-9.169,2.837ZM87.598,955.214c.369,0,.752.045,1.14.138,2.25.538,4.006,2.433,4.084,4.407l4.659,118.121c.248,6.299,7.455,13.136,16.065,15.239,4.905,1.198,9.466.614,12.197-1.562,1.672-1.331,2.539-3.187,2.509-5.365l-2.966-214.468c-.017-1.222.479-2.299,1.396-3.035,1.05-.844,2.531-1.121,4.06-.761,2.694.633,4.822,3.039,4.844,5.479l.871,96.481c.055,6.021,6.27,12.398,13.855,14.215,4.168.999,8.004.445,10.523-1.517,1.731-1.348,2.661-3.255,2.688-5.516l1.378-113.214c.194-15.93-14.588-32.375-32.953-36.659l-99.421-23.193c-9.3-2.171-17.792-.657-23.301,4.148-4.589,4.004-6.76,10.021-6.114,16.942l10.766,115.367c.577,6.183,7.196,12.685,14.754,14.495,4.021.963,7.608.425,9.846-1.477,1.6-1.359,2.354-3.313,2.183-5.653l-7.141-97.597c-.092-1.258.353-2.373,1.251-3.14,1.007-.858,2.46-1.146,3.983-.785,2.64.619,4.838,2.999,5.003,5.416l14.849,216.639c.436,6.358,7.786,13.239,16.385,15.34,4.852,1.186,9.314.606,11.943-1.551,1.627-1.336,2.438-3.209,2.341-5.415l-5.126-118.208c-.043-.993.358-1.914,1.102-2.527.627-.518,1.448-.786,2.347-.786Z" fill="#071838" id="o3_FD1WoxHXGJ6aykgqiD" />
    </g>
  </g></g></g><g transform="translate(580 980)" data-asset-index="2"><g clip-path="url(#assetClipPath_z0NHMJQB)" transform="scale(0.9999000099990001 0.9993749553850466)" data-asset-index="2"><defs>
    <linearGradient id="linearGradient_E1a9P-00" x1="-128.637" y1="643.279" x2="980.899" y2="-311.864" gradientUnits="userSpaceOnUse">
      <stop offset="0" stop-color="#C4D0FD" />
      <stop offset="1" stop-color="#A0ADD7" />
    </linearGradient>
  </defs><g id="PjBsf4XqyEH6lor9ajah">
    <path d="M496.666,86.623c-104.192-112.355-283.408-113.659-400.304-2.886C-20.521,194.498-30.81,375.381,73.382,487.736c104.203,112.367,283.42,113.647,400.304,2.886,116.896-110.773,127.184-291.632,22.981-403.999Z" fill="#F1FEFF" id="GucgcPevkLW1rbYldyUoo" />
    <path d="M270.972,574.362c-3.1,0-6.2-.051-9.307-.15-73.215-2.364-140.473-32.713-189.383-85.456C21.61,434.114-3.893,361.771.472,285.054c4.362-76.69,38.051-148.572,94.858-202.405,29.646-28.093,63.666-49.527,101.115-63.708C232.625,5.24,270.279-1.08,308.381.147c73.217,2.365,140.475,32.713,189.385,85.456,50.678,54.648,76.184,126.991,71.819,203.703-4.361,76.684-38.053,148.566-94.867,202.405-29.645,28.092-63.664,49.525-101.114,63.707-33.23,12.583-67.714,18.944-102.632,18.944ZM298.974,2.996c-74.416,0-145.67,28.85-201.579,81.831C-18.712,194.851-28.99,375.138,74.481,486.717c48.362,52.149,114.873,82.158,187.28,84.496,77.791,2.521,152.658-26.497,210.892-81.68,116.105-110.024,126.385-290.312,22.913-401.89C447.205,35.493,380.693,5.484,308.284,3.146c-3.104-.1-6.217-.15-9.311-.15Z" fill="#011938" id="Ie1RZkoWI1GpbP-p_GpUJ" />
  </g><g id="HsS7ky7LQ7_3K7vSQBz">
    <g id="psj4gzju46aafhAzbaB64">
      <g id="U9yix7u8OdhO4tFBLe7zl">
        <path d="M96.363,83.737C-20.521,194.498-30.81,375.381,73.382,487.736c104.203,112.367,283.42,113.647,400.304,2.886,6.15-5.828,11.986-11.86,17.545-18.056l10.345-380.499c-1.607-1.831-3.243-3.647-4.909-5.443-104.192-112.355-283.408-113.659-400.304-2.886Z" fill="url(#linearGradient_E1a9P-00)" id="CtUJCNpqcHZ0kIdSeX2dJ" />
        <path d="M270.972,574.362c-3.101,0-6.201-.05-9.308-.15-73.215-2.364-140.472-32.713-189.382-85.456C21.61,434.114-3.893,361.771.472,285.054c4.362-76.686,38.058-148.573,94.859-202.405h0c29.646-28.093,63.666-49.527,101.115-63.708C232.627,5.24,270.287-1.08,308.38.147c73.217,2.364,140.476,32.713,189.386,85.456,1.643,1.771,3.304,3.613,4.937,5.475.25.284.383.652.372,1.03l-10.345,380.5c-.009.355-.145.696-.383.961-5.711,6.365-11.643,12.469-17.629,18.143-29.645,28.092-63.664,49.525-101.114,63.707-33.231,12.584-67.714,18.944-102.632,18.944ZM298.974,2.996c-74.415,0-145.67,28.85-201.578,81.831C-18.712,194.851-28.99,375.138,74.481,486.717c48.361,52.149,114.871,82.158,187.279,84.497,3.104.1,6.217.15,9.312.15,74.417.003,145.672-28.85,201.582-81.831,5.8-5.496,11.548-11.401,17.092-17.56l10.313-379.358c-1.49-1.691-3-3.361-4.493-4.972C447.205,35.493,380.693,5.484,308.283,3.146c-3.104-.1-6.216-.15-9.31-.15ZM96.363,83.737h.01-.01Z" fill="#011938" id="ml49YUpXaLcOInolpTXD" />
      </g>
      <g id="z_AvMKyFiP2_fRtzlvpda">
        <path d="M530.739,170.119l8.121-22.993c-7.837-15.413-17.217-30.203-28.192-44.131l20.071,67.124Z" fill="#7885AE" id="csf_uIe1p6Wn7updIcjOr" />
        <path d="M530.739,171.619h-.037c-.648-.017-1.214-.448-1.4-1.07l-20.071-67.124c-.206-.69.107-1.429.746-1.761.641-.332,1.425-.163,1.869.403,10.824,13.736,20.363,28.667,28.352,44.379.187.366.214.792.077,1.18l-8.121,22.993c-.212.601-.779,1-1.414,1ZM514.459,110.438l16.398,54.841,6.374-18.046c-6.588-12.878-14.228-25.222-22.772-36.795Z" fill="#011938" id="L35ZTpxbHQdoaIfA5qPFm" />
      </g>
      <g id="bofVgrh8Dgu5D7vmbfr0q">
        <path d="M491.23,472.566c12.21-13.609,22.996-28.053,32.335-43.126l7.174-259.321-20.071-67.124c-2.919-3.705-5.95-7.349-9.093-10.928l-10.345,380.499Z" fill="#7885AE" id="kCZFxLoIX9PH3IfW8Ae2-" />
        <path d="M491.23,474.066c-.187,0-.375-.035-.556-.106-.584-.233-.961-.806-.943-1.435l10.345-380.5c.017-.617.409-1.16.989-1.37.581-.209,1.229-.042,1.637.421,3.129,3.564,6.206,7.261,9.144,10.99.117.148.205.317.26.499l20.071,67.124c.045.152.066.312.062.471l-7.174,259.32c-.007.266-.084.523-.224.749-9.462,15.271-20.395,29.853-32.494,43.339-.29.323-.699.498-1.116.498ZM502.97,95.971l-10.128,372.511c10.812-12.383,20.634-25.648,29.235-39.489l7.156-258.675-19.921-66.619c-2.057-2.604-4.181-5.192-6.343-7.728Z" fill="#011938" id="dvly3AyaYk0Z_BpqUP5ix" />
      </g>
    </g>
    <g id="FPBAnC1DLmnDbY-m5nzmv">
      <g id="m7vKyHD4tu-u_wHjIe_">
        <path d="M362.87,237.489c1.29-31.613-24.099-63.483-56.807-70.682-32.796-7.218-59.645,13.281-59.885,45.276-.236,31.426,25.376,62.053,57.129,68.893,31.671,6.822,58.295-12.434,59.563-43.488Z" fill="#E0EDFF" id="LOY4cl691I_x52FBzqONP" />
        <path d="M315.993,283.865c-4.231,0-8.583-.471-13.001-1.422-32.394-6.979-58.553-38.547-58.313-70.372.116-15.521,6.316-28.962,17.457-37.849,11.798-9.411,27.514-12.562,44.25-8.88,33.298,7.328,59.309,39.72,57.983,72.208-.609,14.925-6.974,27.813-17.921,36.291-8.534,6.609-19.054,10.023-30.455,10.023ZM293.001,166.845c-10.943,0-20.954,3.31-28.995,9.724-10.419,8.311-16.218,20.928-16.327,35.526-.229,30.479,24.867,60.721,55.944,67.415,15.442,3.327,29.998.471,40.989-8.04,10.235-7.927,16.187-20.016,16.759-34.042h0c1.27-31.103-23.687-62.125-55.63-69.155-4.341-.955-8.608-1.428-12.74-1.428Z" fill="#011938" id="VLHuH4emQSCHmNTYZRpxB" />
      </g>
      <g id="W-StKiCTag6T4WWrmyPsN">
        <path d="M375.616,296.552l-123.89-26.687c-7.04-1.517-13.698-6-18.151-12.234l-36.332-50.857,9.268-81.924c1.175-13.645-9.169-28.295-23.138-32.637-13.993-4.35-26.161,3.34-27.149,17.089l-8.624,94.506c-.446,6.038,1.285,12.532,4.894,18.399l79.415,108.609c4.686,6.408,7.219,13.712,7.179,20.658l-1.259,219.421c17.923,2.127,36.096,2.509,54.256,1.144l1.374-60.219c.048-2.112,1.995-3.433,4.347-2.948,2.352.485,4.214,2.59,4.16,4.699l-1.469,57.712c18.458-1.937,36.855-5.675,54.912-11.228l8.142-191.186c.118-2.768,2.601-4.507,5.545-3.881h0c2.943.626,5.226,3.377,5.099,6.142l-7.106,155.275c-.444,9.695,6.886,19.305,16.994,23.172,9.311-3.961,18.479-8.437,27.471-13.41.018-.198.041-.394.052-.594l10.841-181.425c1.538-25.745-19.395-51.685-46.832-57.595Z" fill="#E0EDFF" id="A9SzRuorVuHbCYx7Ej3Sx" />
        <path d="M270.83,574.337c-11.123,0-22.22-.651-33.177-1.952-.758-.09-1.327-.734-1.323-1.498l1.258-219.422c.039-6.616-2.407-13.635-6.889-19.764l-79.415-108.608c-.023-.032-.046-.065-.066-.1-3.765-6.12-5.58-12.973-5.112-19.295l8.625-94.533c.49-6.819,3.613-12.536,8.793-16.071,5.515-3.765,12.912-4.609,20.295-2.314,14.571,4.529,25.422,19.871,24.188,34.199l-9.206,81.392,35.996,50.388c4.252,5.952,10.538,10.195,17.246,11.64l123.889,26.688c28.063,6.045,49.603,32.58,48.014,59.151l-10.84,181.425c-.009.152-.023.304-.038.455l-.018.183c-.044.496-.332.938-.769,1.18-9.009,4.982-18.298,9.517-27.609,13.478-.357.153-.759.159-1.123.021-10.867-4.158-18.419-14.521-17.956-24.642l7.107-155.275c.092-2.026-1.7-4.136-3.914-4.606-1.054-.223-2.06-.04-2.761.504-.602.467-.938,1.149-.974,1.974l-8.142,191.187c-.027.635-.451,1.184-1.059,1.37-17.995,5.534-36.566,9.331-55.196,11.286-.432.039-.857-.098-1.174-.391-.317-.293-.493-.708-.481-1.14l1.469-57.711c.035-1.393-1.322-2.854-2.964-3.192-.787-.16-1.513-.036-1.991.345-.355.283-.542.677-.553,1.168l-1.374,60.219c-.018.771-.618,1.403-1.388,1.462-7.112.534-14.246.802-21.368.802ZM239.338,569.561c16.909,1.923,34.147,2.287,51.279,1.081l1.343-58.855c.031-1.383.63-2.607,1.685-3.446,1.176-.937,2.801-1.282,4.465-.936,3.076.633,5.43,3.359,5.357,6.206l-1.426,55.998c17.519-1.945,34.969-5.533,51.916-10.677l8.096-190.126c.073-1.711.831-3.208,2.134-4.218,1.4-1.087,3.303-1.477,5.222-1.066,3.687.783,6.448,4.155,6.287,7.677l-7.107,155.275c-.397,8.695,6.08,17.642,15.475,21.481,8.785-3.76,17.546-8.033,26.062-12.713l10.826-181.185c1.504-25.153-18.976-50.293-45.65-56.038l-123.889-26.688c-7.431-1.601-14.376-6.276-19.057-12.829l-36.331-50.856c-.215-.302-.312-.673-.27-1.041l9.268-81.924c1.115-12.961-8.794-26.902-22.094-31.036-6.595-2.052-12.889-1.366-17.714,1.927-4.406,3.008-7.068,7.921-7.493,13.836l-8.625,94.536c-.419,5.656,1.23,11.852,4.646,17.426l79.379,108.559c4.857,6.645,7.51,14.299,7.467,21.553l-1.25,218.078ZM411.555,536.167h.01-.01Z" fill="#011938" id="Bm7bBwKs0_CDWy5LqgBS0" />
      </g>
    </g>
    <g id="QkcjhEc7BaImxFL6xQEo_">
      <g id="OES9GRgDSgToenuGDvpM4">
        <path d="M293.657,75.244l3.547-73.717c-14.772.106-29.595,1.36-44.327,3.783l-1.396,60.097c-.205,8.816,8.947,18.088,20.468,20.798,11.554,2.717,21.284-2.15,21.708-10.961Z" fill="#E0EDFF" id="dydkU6uzwJJBD0xeGA7MY" />
        <path d="M278.254,88.465c-2.134,0-4.368-.264-6.648-.8-12.348-2.904-21.846-12.696-21.623-22.292l1.395-60.097c.018-.721.545-1.328,1.257-1.445,14.688-2.417,29.681-3.696,44.561-3.804h.011c.408,0,.799.167,1.082.461.285.297.437.699.416,1.111l-3.548,73.717c-.188,3.893-1.963,7.214-5.136,9.606-3.098,2.334-7.201,3.542-11.766,3.542ZM254.348,6.591l-1.365,58.851c-.188,8.095,8.474,16.754,19.311,19.303,6.192,1.457,12.146.627,15.921-2.218,2.438-1.837,3.802-4.38,3.945-7.354h0l3.472-72.129c-13.789.177-27.663,1.37-41.283,3.548Z" fill="#011938" id="lbITRFtFwIi-3-qmgGyIf" />
      </g>
      <g id="Cx5PC3ZJEON7Z_xDjPTX3">
        <path d="M304.122,1.562l-3.912,75.21c-.458,8.81,8.6,18.102,20.257,20.843,11.691,2.75,21.74-2.085,22.423-10.888l6.261-80.731c-14.826-2.701-29.888-4.171-45.029-4.434Z" fill="#E0EDFF" id="zSXr5LGuxDx449qM0OMrv" />
        <path d="M326.945,99.895c-2.194,0-4.487-.27-6.822-.819-12.506-2.941-21.911-12.772-21.412-22.381l3.912-75.211c.043-.807.688-1.415,1.524-1.422,15.253.264,30.484,1.764,45.271,4.458.757.138,1.286.825,1.227,1.592l-6.261,80.731c-.298,3.851-2.168,7.137-5.406,9.504-3.198,2.338-7.395,3.547-12.033,3.547ZM305.544,3.091l-3.837,73.76c-.42,8.068,8.15,16.729,19.104,19.305,6.321,1.487,12.451.654,16.397-2.229,2.51-1.834,3.957-4.364,4.187-7.315l6.155-79.378c-13.74-2.432-27.857-3.824-42.006-4.142Z" fill="#011938" id="on6EXjxyAMrG3a48TJgcY" />
      </g>
    </g>
    <g id="bp_W2yPuc_jbfU-XiKAii">
      <g id="BufA9r0itjEXL_1TnZHf">
        <path d="M41.806,428.757l-3.725-269.415c-48.01,87.975-49.126,194.033-1.116,278.648,3.076-2.079,4.896-5.257,4.841-9.233Z" fill="#E0EDFF" id="m1S0BZGh_MlqtRfXhmqQ1" />
        <path d="M36.965,439.49c-.114,0-.229-.013-.342-.039-.407-.096-.757-.356-.963-.721C12.056,397.129-.27,349.129.016,299.918c.284-48.901,12.991-97.76,36.749-141.294.325-.598,1.015-.9,1.677-.737.662.164,1.13.754,1.14,1.436l3.725,269.413c.061,4.33-1.893,8.058-5.501,10.497-.25.17-.543.258-.84.258ZM36.662,165.193c-44.885,86.221-44.686,189.186.75,270.534,1.938-1.803,2.933-4.177,2.894-6.95h0l-3.644-263.584Z" fill="#011938" id="ahk8o_w4hwSicWrDIpTY2" />
      </g>
      <g id="gVSBY7Ov4Wk5Ye9yPta4_">
        <path d="M88.386,284.707l1.82-149.507c.134-10.969-4.934-22.185-13.207-31.366-11.479,13.026-21.667,26.799-30.547,41.14.657.867,1.069,1.851,1.078,2.83l1.151,127.411c.08,8.853,8.949,18.077,19.816,20.68,10.874,2.605,19.782-2.37,19.889-11.189Z" fill="#E0EDFF" id="BhFDQVpf6-U_ksx32qiiI" />
        <path d="M74.149,298.09c-1.929,0-3.946-.243-6.003-.735-11.67-2.795-20.88-12.514-20.967-22.125l-1.15-127.412c-.005-.6-.28-1.287-.773-1.938-.375-.494-.406-1.168-.08-1.696,8.997-14.527,19.325-28.437,30.698-41.342.282-.321.688-.506,1.117-.508h.008c.425,0,.83.18,1.114.496,8.899,9.875,13.727,21.378,13.593,32.389l-1.82,149.507c-.049,4.021-1.786,7.568-4.892,9.986-2.856,2.226-6.641,3.378-10.845,3.378ZM48.229,144.954c.518.922.791,1.888.8,2.836l1.15,127.412c.074,8.159,8.447,16.787,18.666,19.234,5.643,1.353,10.86.592,14.306-2.091,2.405-1.874,3.696-4.521,3.734-7.657l1.5.019-1.5-.019,1.82-149.507c.119-9.79-4.026-20.058-11.707-29.072-10.608,12.175-20.279,25.232-28.77,38.845Z" fill="#011938" id="ZTTNmVE3pQOitPd5m1vRz" />
      </g>
    </g>
  </g></g></g><g transform="translate(56 920)" data-asset-index="3"><g clip-path="url(#assetClipPath_MkIxdNJY)" transform="scale(1.0016825202570503 1.0020102001989895)" data-asset-index="3"><defs>
    <linearGradient id="linearGradient_K3BE5T1R" x1="522.559" y1="584.3" x2="569.17" y2="635.573" gradientUnits="userSpaceOnUse">
      <stop offset=".495" stop-color="#7ED6FF" />
      <stop offset="1" stop-color="#4CAADD" />
    </linearGradient>
    <linearGradient id="linearGradient_k6bC7ql1" x1="231.726" y1="838.814" x2="300.811" y2="910.84" gradientUnits="userSpaceOnUse">
      <stop offset=".61" stop-color="#7ED6FF" />
      <stop offset="1" stop-color="#4CAADD" />
    </linearGradient>
    <linearGradient id="linearGradient_fSyB5JqW" x1="553.67" y1="488.404" x2="876.844" y2="67.346" gradientUnits="userSpaceOnUse">
      <stop offset="0" stop-color="#7ED6FF" />
      <stop offset="1" stop-color="#4CAADD" />
    </linearGradient>
    <linearGradient id="linearGradient_pPONbh_p" x1="1156.945" y1="230.536" x2="714.135" y2="699.76" xlink:href="#linearGradient_fSyB5JqW" />
    <linearGradient id="linearGradient_ux3sRCum" x1="496.608" y1="561.758" x2="1125.864" y2="126.717" gradientUnits="userSpaceOnUse">
      <stop offset="0" stop-color="#7ED6FF" />
      <stop offset=".454" stop-color="#A2F8FF" />
      <stop offset="1" stop-color="#7ED6FF" />
    </linearGradient>
  </defs><g id="npF1ofebLNIjLzbERjElP">
    <g id="yJSb7imgXu1S7CT6EVjJ">
      <path d="M493.91,616.752l64.534-60.943c-1.311,1.238,2.891,8.17,11.293,18.088,10.968,12.945,24.938,26.075,31.204,29.327,1.466.76,2.38.913,2.78.535l-64.534,60.943c-.4.378-1.315.225-2.78-.535-6.266-3.251-20.237-16.381-31.204-29.327-8.402-9.918-12.605-16.85-11.293-18.088Z" fill="url(#linearGradient_K3BE5T1R)" id="HAl0GlbXBt_bxpsIYFtaB" />
      <path d="M538.589,666.399c-1.136,0-2.312-.61-2.873-.902-6.4-3.32-20.603-16.639-31.657-29.688-14.451-17.059-12.074-19.304-11.179-20.148l64.534-60.943h0c.601-.568,1.551-.542,2.12.061.481.51.535,1.269.176,1.834.106,1.101,2.213,5.741,11.171,16.314,10.845,12.801,24.64,25.794,30.75,28.965.77.398,1.186.516,1.368.551.587-.319,1.335-.222,1.812.286.568.602.541,1.551-.061,2.12h0l-.004.004-64.529,60.939c-.474.446-1.046.607-1.629.607ZM495.183,617.612c.17,1.196,2.353,5.855,11.165,16.258,10.844,12.801,24.639,25.794,30.75,28.965.697.361,1.104.492,1.311.539l62.13-58.673c-.108-.054-.205-.104-.288-.147-6.399-3.32-20.602-16.639-31.657-29.688-7.05-8.32-10.095-13.116-11.26-15.944l-62.15,58.69ZM494.942,617.841l-.002.002h0s.002-.002.003-.002ZM493.909,616.752h.01-.01ZM559.474,556.899h0s.003-.002.004-.003l-.003.003h0Z" fill="#002148" id="ZzDdD5uNljXGz8F4t4QXw" />
    </g>
    <g id="oP45wzEYE-3q_1GmLagpD">
      <path d="M592.429,585.67c10.968,12.945,14.779,20.804,8.513,17.553-6.266-3.251-20.237-16.381-31.204-29.327-10.968-12.945-14.779-20.804-8.513-17.553,6.266,3.251,20.237,16.381,31.204,29.327Z" fill="#A2F8FF" id="OTTmm4VrfpQICyNZwwXiD" />
      <path d="M603.141,605.455c-1.154,0-2.363-.628-2.891-.901-6.399-3.32-20.602-16.639-31.657-29.688-14.049-16.582-12.041-19.101-11.381-19.928,1.334-1.673,3.871-.358,4.703.074,6.4,3.32,20.603,16.639,31.658,29.688h0c14.049,16.583,12.04,19.102,11.38,19.929-.49.614-1.143.826-1.812.826ZM559.92,557.381c.708,1.9,3.382,6.6,10.962,15.546,10.845,12.801,24.64,25.794,30.75,28.965.237.122.44.219.613.294-.708-1.901-3.384-6.603-10.961-15.546h0c-10.845-12.801-24.64-25.794-30.75-28.965-.237-.123-.441-.219-.614-.294Z" fill="#002148" id="p_IgFldt2rl8N6l0MlG3p" />
    </g>
    <g id="jDmxKNaX2kx_ZJR4vzR4">
      <path d="M1.878,1054.232l463.612-437.811c-2.097,1.98,4.623,13.065,18.058,28.923,17.538,20.7,39.877,41.696,49.897,46.895,2.344,1.216,3.806,1.46,4.446.856l-463.612,437.811c-.64.605-2.102.36-4.446-.856-10.02-5.199-32.359-26.194-49.897-46.895-13.436-15.859-20.155-26.943-18.058-28.923Z" fill="url(#linearGradient_k6bC7ql1)" id="LdhwjLBYiANit1wqFT7zD" />
      <path d="M73.324,1132.721c-1.383,0-2.953-.701-4.183-1.34-10.146-5.264-32.734-26.463-50.351-47.256-6.551-7.732-11.732-14.595-14.984-19.846-3.816-6.162-4.701-9.493-2.96-11.138l463.612-437.812c.602-.568,1.553-.542,2.121.061.538.57.543,1.45.031,2.025-.373,1.763,4.155,10.521,18.081,26.959,17.403,20.542,39.583,41.416,49.442,46.533,1.877.973,2.638,1.004,2.835,1.003.603-.472,1.477-.413,2.012.154.568.602.541,1.551-.061,2.12l-463.612,437.811c-.553.522-1.241.725-1.984.725ZM2.997,1055.237c-.354,1.786,4.184,10.543,18.083,26.948,17.405,20.544,39.586,41.419,49.443,46.533,1.837.953,2.628,1.004,2.822,1.004l461.05-435.391c-.58-.229-1.14-.501-1.642-.762-10.149-5.267-32.736-26.466-50.351-47.256-6.551-7.732-11.732-14.595-14.984-19.846-1.69-2.73-2.806-4.904-3.373-6.622L2.997,1055.237ZM2.908,1055.322h0,0ZM1.877,1054.232h.01-.01Z" fill="#002148" id="R_MF5C5ry_eWdrJ79hpId" />
    </g>
    <g id="arKnL3QxSeEXMRthvmn">
      <path d="M466.498,616.104c9.348.15,18.695.3,28.043.449-2.811-.045,1.341,7.283,10.663,18.286,10.968,12.945,24.938,26.075,31.204,29.327,1.999,1.037,2.972.944,3.015-.085h0c-.385,9.341-.771,18.681-1.156,28.022-.068,1.645-1.624,1.795-4.821.136-10.02-5.199-32.359-26.194-49.897-46.895-14.906-17.595-21.546-29.313-17.05-29.241Z" fill="#4CAADD" id="lORTFTlnn9QS5V-UyJrPE" />
      <path d="M536.927,694.918c-1.078,0-2.431-.442-4.173-1.348-10.149-5.267-32.737-26.466-50.351-47.256-7.858-9.276-20.712-25.537-18.498-30.217.458-.969,1.41-1.5,2.615-1.494h0l28.036.45h.007c.828.014,1.489.696,1.476,1.524-.01.566-.332,1.055-.8,1.303.414,1.539,2.851,6.244,11.107,15.989,10.844,12.801,24.639,25.794,30.75,28.965.487.252.832.392,1.066.469.286-.441.796-.744,1.343-.694.817.048,1.447.716,1.414,1.533h0v.005l-1.156,28.018c-.059,1.433-.845,2.098-1.309,2.366-.441.257-.945.386-1.529.387ZM466.591,617.605c-.056,2.138,4.618,10.854,18.102,26.77,17.403,20.542,39.583,41.416,49.442,46.533,1.486.771,2.278.956,2.638.995l1.056-25.585c-.731-.15-1.467-.486-2.111-.821-6.401-3.32-20.604-16.639-31.658-29.688-7.298-8.613-11.245-14.577-11.782-17.792l-25.686-.412ZM494.516,618.054h0Z" fill="#002148" id="af9_d37fXLwF1JSoD245G" />
    </g>
  </g><g id="I0zngqUrNXLc9avcxHrA8" style="isolation:isolate;">
    <g id="Vn-LmKhS2urGzPa7SYRY4">
      <path d="M620.08,142.519c109.17-103.452,272.697-109.151,378.703-17.934l22.913,19.716c-106.007-91.217-269.533-85.518-378.704,17.934-116.883,110.76-127.172,291.645-22.981,403.999,6.886,7.426,14.1,14.366,21.602,20.822l-22.913-19.716c-7.502-6.455-14.716-13.396-21.602-20.822-104.192-112.354-93.902-293.239,22.981-403.999Z" fill="url(#linearGradient_fSyB5JqW)" id="ETv6siiJrj-DUtrUOwe" />
      <path d="M641.613,588.557c-.346,0-.694-.119-.978-.363l-22.913-19.717c-7.576-6.519-14.885-13.564-21.723-20.939-50.672-54.641-76.175-126.983-71.811-203.701,4.362-76.69,38.051-148.573,94.858-202.406,52.808-50.041,120.819-79.297,191.506-82.378,70.206-3.047,137.394,19.81,189.208,64.396l22.913,19.717c.628.54.699,1.487.158,2.115-.538.627-1.486.701-2.115.158-106.911-91.994-268.854-84.305-376.692,17.887-116.106,110.023-126.385,290.312-22.913,401.891,6.729,7.256,13.917,14.188,21.369,20.609l.111.096s0,0,0,0c.628.54.699,1.487.158,2.115-.297.345-.716.521-1.138.521ZM620.079,142.519l1.031,1.089c-116.105,110.024-126.384,290.312-22.912,401.891,4.18,4.507,8.536,8.89,13.023,13.102-45.549-53.512-68.258-122.314-64.12-195.048,4.362-76.69,38.051-148.573,94.858-202.405,52.808-50.041,120.818-79.297,191.505-82.378,55.974-2.443,110.036,11.604,155.916,40-106.846-84.576-263.228-74.701-368.271,24.839l-1.031-1.089Z" fill="#002148" id="DUsnyaDt3tPIRgKGw92qq" />
    </g>
    <g id="L53pmMZ6nc8InsaM27TqK">
      <path d="M1036.224,591.268c140.939-133.556,153.345-351.653,27.71-487.131-8.302-8.953-17-17.321-26.044-25.104l22.913,19.716c9.045,7.783,17.742,16.151,26.045,25.103,125.635,135.478,113.229,353.575-27.71,487.132-131.625,124.73-328.807,131.614-456.631,21.624l-22.913-19.716c127.824,109.99,325.007,103.106,456.631-21.624Z" fill="url(#linearGradient_pPONbh_p)" id="XjItW3i2p2ptUu70" />
      <path d="M814.455,711.642c-79.104.003-154.209-27.371-212.928-77.897l-22.913-19.716c-.628-.54-.699-1.487-.158-2.115.539-.627,1.487-.7,2.115-.158,60.271,51.861,135.039,77.475,210.866,77.476,86.51.002,174.4-33.331,243.754-99.053,140.121-132.779,152.521-350.359,27.643-485.022-8.165-8.804-16.887-17.21-25.923-24.986-.628-.54-.699-1.487-.158-2.115.541-.627,1.487-.7,2.115-.158l22.912,19.716c9.125,7.852,17.929,16.337,26.166,25.221,61.043,65.825,91.765,152.974,86.508,245.392-5.255,92.39-45.843,178.99-114.285,243.849-63.617,60.284-145.551,95.528-230.708,99.241-5.012.219-10.022.328-15.006.328ZM616.064,641.755c128.886,100.034,316.058,87.523,442.041-31.859,140.12-132.78,152.52-350.361,27.643-485.023-4.343-4.683-8.844-9.253-13.468-13.678,56.217,64.794,84.307,148.63,79.263,237.313-5.256,92.391-45.844,178.991-114.286,243.849l-1.032-1.089,1.032,1.089c-63.616,60.284-145.55,95.529-230.708,99.242-68.512,2.993-134.651-14.524-190.484-49.844Z" fill="#002148" id="QKzQISxZCWJlQuf1YuM6a" />
    </g>
    <g id="ZOwOGeTgZSHYzlnpDvCHg">
      <path d="M1036.224,591.268c-140.939,133.556-357.041,131.998-482.676-3.48-125.635-135.478-113.229-353.575,27.71-487.131,140.939-133.556,357.041-131.998,482.676,3.48,125.635,135.478,113.229,353.575-27.71,487.131ZM597.099,546.519c104.204,112.368,283.421,113.646,400.304,2.886,116.896-110.772,127.185-291.632,22.981-403.999-104.191-112.354-283.409-113.658-400.304-2.886-116.883,110.76-127.172,291.645-22.981,403.999" fill="url(#linearGradient_ux3sRCum)" id="ZdRyCrmPAihSfOXv8SJ0I" />
      <path d="M791.798,691.929c-3.734,0-7.47-.061-11.212-.182-88.2-2.849-169.222-39.406-228.138-102.939-61.043-65.824-91.765-152.973-86.508-245.391,5.256-92.391,45.843-178.991,114.285-243.849,35.715-33.844,76.699-59.666,121.816-76.75C745.63,6.313,790.991-1.295,836.895.178c88.2,2.849,169.222,39.406,228.139,102.939,61.043,65.824,91.765,152.973,86.508,245.391-5.256,92.391-45.843,178.991-114.285,243.849l-1.032-1.089,1.032,1.089c-35.715,33.844-76.7,59.666-121.817,76.751-40.033,15.159-81.575,22.821-123.641,22.821ZM825.562,2.995c-89.811,0-175.802,34.814-243.271,98.751-140.121,132.78-152.521,350.36-27.643,485.022,58.368,62.94,138.642,99.158,226.035,101.98,3.746.121,7.503.181,11.237.182,89.811.004,175.802-34.815,243.272-98.752,140.119-132.78,152.52-350.36,27.642-485.022C1004.466,42.216,924.192,5.999,836.798,3.177c-3.746-.121-7.503-.182-11.236-.182ZM794.689,633.145c-3.1,0-6.2-.05-9.307-.15-73.215-2.364-140.473-32.713-189.383-85.456-50.672-54.641-76.175-126.984-71.811-203.702,4.362-76.69,38.051-148.573,94.858-202.406,29.646-28.093,63.666-49.526,101.115-63.708,36.18-13.7,73.837-20.024,111.935-18.792,73.218,2.364,140.477,32.713,189.387,85.455,50.678,54.647,76.184,126.991,71.819,203.703-4.362,76.685-38.054,148.566-94.868,202.405-29.645,28.092-63.664,49.525-101.113,63.707-33.231,12.584-67.715,18.944-102.633,18.944ZM822.691,61.778c-74.416,0-145.671,28.85-201.579,81.83-116.106,110.024-126.385,290.312-22.913,401.892,48.361,52.15,114.872,82.158,187.28,84.497,3.104.1,6.217.15,9.311.15,74.417.003,145.672-28.851,201.582-81.831,116.105-110.024,126.385-290.312,22.913-401.892-48.362-52.149-114.874-82.158-187.284-84.496-3.104-.101-6.216-.15-9.31-.15Z" fill="#002148" id="SUnqbZv8flCI1vQLy1QkZ" />
    </g>
    <path d="M794.689,633.145c-3.101,0-6.2-.051-9.307-.15-73.215-2.364-140.473-32.713-189.384-85.456-50.672-54.642-76.175-126.984-71.811-203.702,4.362-76.69,38.051-148.572,94.858-202.405,29.646-28.093,63.666-49.527,101.115-63.708,36.181-13.701,73.838-20.014,111.936-18.794,73.217,2.365,140.476,32.714,189.386,85.457,50.677,54.647,76.183,126.99,71.819,203.702-4.362,76.684-38.054,148.566-94.868,202.405-29.645,28.092-63.664,49.525-101.113,63.707-33.231,12.583-67.715,18.944-102.632,18.944ZM822.69,61.778c-74.415,0-145.67,28.85-201.579,81.831-116.105,110.023-126.384,290.312-22.913,401.891,48.362,52.15,114.873,82.158,187.281,84.496,77.792,2.523,152.658-26.496,210.891-81.68,116.105-110.024,126.385-290.312,22.914-401.891-48.362-52.15-114.874-82.159-187.283-84.497-3.104-.101-6.216-.15-9.311-.15Z" fill="#002148" id="jFD_XX2cq_Nm8yEye0NAO" />
  </g></g></g><g transform="translate(1598 1383)" data-asset-index="4"><g clip-path="url(#assetClipPath_KyYKPwy9)" transform="scale(1.0006785795068989 0.9982956677967354)" data-asset-index="4"><defs>
    <linearGradient id="linearGradient_ftwaAIcN" x1="40.45" y1="558.933" x2="530.547" y2="99.615" gradientUnits="userSpaceOnUse">
      <stop offset="0" stop-color="#5C7DE5" />
      <stop offset="1" stop-color="#2F48B2" />
    </linearGradient>
    <linearGradient id="linearGradient_2iBdejSi" x1="153.474" y1="-17.37" x2="420.326" y2="623.791" gradientUnits="userSpaceOnUse">
      <stop offset="0" stop-color="#9FBAFC" />
      <stop offset="1" stop-color="#5C7DE5" />
    </linearGradient>
  </defs><g id="LXDLDb6uqc-mB0ZosJjWs">
    <path d="M397.768,450.639c22.38-30.651,121.099-91.17,145.856-193.974,13.251-55.025,9.656-108.806-16.505-151.337-2.269-3.689-11.079-17.905-11.079-17.905-19.91-26.775-46.14-41.157-87.858-54.453C323.783-.302,211.029,37.875,157.879,91.552c-43.141,43.569-49.926,81.76-59.12,111.316-8.376,26.926-45.349,53.34-70.953,77.932-7.766,7.459-23.036,5-24.694,10.064,0,0,10.014,16.119,11.783,19.064,4.744,7.898,19.197,12.219,35.297,16.504-7.567,29.461-38.014,84.205-33.337,97.584,0,0,10.31,16.548,10.916,17.634,14.463,25.947,83.502,31.18,95.513,47.677,12.586,17.288-23.839,78.585-23.839,78.585,0,0,9.577,15.611,12.073,19.541,26.371,41.527,221.85,84.166,226.542,46.77,6.719-53.55,15.733-123.359,59.708-183.584Z" fill="url(#linearGradient_ftwaAIcN)" id="E0VM0DBAU_H1kzIynNH6F" />
    <path d="M299.378,650.094c-24.598,0-58.385-5.147-93.168-14.555-49.846-13.481-85.717-31.157-95.958-47.282-2.474-3.895-11.989-19.405-12.085-19.562-.291-.475-.296-1.072-.011-1.55.358-.604,35.78-60.64,23.915-76.937-4.938-6.782-21.064-11.857-38.139-17.231-22.975-7.23-49.014-15.426-57.472-30.598-.481-.866-8.017-12.978-10.879-17.571-.059-.094-.106-.194-.143-.298-2.956-8.457,6.533-30.774,16.58-54.402,6.447-15.164,13.105-30.824,16.339-42.615-16.223-4.354-29.903-8.725-34.749-16.793-1.743-2.903-11.671-18.884-11.771-19.045-.233-.376-.289-.837-.151-1.258,1.057-3.229,5.359-4.04,10.343-4.979,5.133-.967,10.951-2.064,14.737-5.701,6.214-5.968,12.934-11.9,20.048-18.182,21.772-19.222,44.286-39.099,50.512-59.114,1.134-3.645,2.22-7.383,3.369-11.34,8.042-27.685,18.05-62.14,56.118-100.585C209.935,36.849,323.259-2.043,428.639,31.541c45.004,14.343,69.847,29.76,88.606,54.987.024.034.049.069.071.105,0,0,8.812,14.219,11.08,17.909,25.108,40.817,30.879,93.542,16.687,152.474-18.32,76.075-76.698,128.946-115.328,163.932-13.938,12.625-24.949,22.596-30.775,30.575h0c-44.052,60.331-52.94,131.166-59.431,182.887-.831,6.626-6.771,11.223-17.654,13.662-6.074,1.361-13.708,2.022-22.517,2.022ZM101.196,567.895c1.959,3.191,9.445,15.378,11.59,18.754,21.77,34.283,160.71,69.198,208.453,58.496,9.518-2.133,14.677-5.87,15.334-11.108,6.531-52.046,15.476-123.325,59.985-184.282h0c6.007-8.227,17.117-18.29,31.184-31.029,38.356-34.739,96.321-87.236,114.426-162.411,14-58.139,8.355-110.077-16.325-150.2-2.187-3.555-10.449-16.889-11.042-17.846-18.341-24.641-42.76-39.747-87.071-53.869-104.251-33.225-216.29,5.193-268.784,58.208-37.531,37.904-47.421,71.953-55.368,99.312-1.153,3.971-2.243,7.722-3.385,11.394-6.476,20.817-29.31,40.976-51.392,60.472-7.09,6.26-13.787,12.172-19.955,18.097-4.431,4.255-10.989,5.492-16.26,6.485-3.271.616-6.641,1.251-7.735,2.451,1.993,3.209,9.796,15.781,11.332,18.338,4.41,7.344,18.187,11.513,34.396,15.826.796.212,1.271,1.025,1.067,1.823-3.122,12.156-10.109,28.587-16.865,44.478-9.319,21.917-18.953,44.574-16.559,52.089,1.097,1.761,10.269,16.486,10.86,17.548,7.876,14.129,33.311,22.134,55.751,29.197,18.321,5.766,34.145,10.746,39.664,18.327,12.376,16.999-18.889,71.892-23.302,79.452ZM397.769,450.639h.01-.01Z" fill="#071838" id="oaXK2E-Yjuxm5UhT5DfFF" />
  </g><g id="SX4h7fzc2Ym4-qn2Jtf1R">
    <g id="NxqYRkznted7farM2V1d">
      <path d="M386.009,431.615c22.38-30.651,121.099-91.17,145.856-193.974,23.16-96.172-5.14-188.542-115.441-223.695-104.401-33.273-217.155,4.904-270.305,58.581-43.141,43.569-49.926,81.76-59.12,111.316-8.376,26.926-45.349,53.34-70.953,77.932-31.049,29.821-7.092,37.787,22.386,45.632-7.567,29.461-28.619,98.468-23.942,111.847,10.102,28.9,84.521,33.861,97.035,51.049,12.586,17.288-14.404,86.434-14.404,86.434-9.703,44.431,224.044,99.398,229.18,58.463,6.719-53.55,15.733-123.359,59.708-183.584Z" fill="url(#linearGradient_2iBdejSi)" id="zQK3PNthiF8cuXyxNoMfj" />
      <path d="M287.473,631.067c-20.225,0-46.749-3.485-75.801-10.227-46.798-10.861-87.048-27.188-105.042-42.608-8.797-7.54-12.49-14.879-10.976-21.815.018-.077.04-.152.068-.226.267-.684,26.551-68.575,14.589-85.006-4.938-6.782-21.064-11.857-38.139-17.231-24.828-7.814-52.97-16.67-59.099-34.205-3.894-11.136,8.786-57.292,18.044-90.994,2.146-7.812,4.023-14.645,5.49-20.283-18.352-4.928-33.562-9.976-36.207-20.225-1.882-7.293,2.896-16.306,14.605-27.554,6.214-5.968,12.934-11.9,20.048-18.182,21.772-19.222,44.286-39.099,50.512-59.113,1.135-3.646,2.22-7.384,3.369-11.342,8.042-27.685,18.049-62.139,56.118-100.584C198.176,17.825,311.501-21.067,416.879,12.517c52.654,16.781,89.22,46.985,108.679,89.773,17.299,38.038,19.984,84.963,7.765,135.701-18.319,76.075-76.697,128.947-115.327,163.933-13.939,12.625-24.949,22.596-30.774,30.575h0c-44.052,60.331-52.94,131.165-59.431,182.887-.648,5.17-4.442,9.131-11.276,11.771-6.79,2.624-16.752,3.91-29.04,3.91ZM98.562,557.167c-1.193,5.745,2.177,12.064,10.021,18.786,17.65,15.126,57.412,31.206,103.769,41.964,46.146,10.709,85.643,13.178,103.081,6.441,5.724-2.211,8.88-5.356,9.381-9.347,6.531-52.046,15.476-123.325,59.984-184.282l1.212.885-1.212-.885c6.008-8.227,17.118-18.29,31.185-31.029,38.356-34.739,96.321-87.236,114.425-162.412,25.972-107.841-16.81-190.8-114.438-221.914-104.251-33.226-216.29,5.193-268.784,58.207-37.531,37.904-47.421,71.952-55.367,99.311-1.154,3.972-2.244,7.723-3.386,11.396-6.476,20.816-29.31,40.976-51.392,60.472-7.09,6.26-13.787,12.172-19.955,18.097-10.858,10.429-15.366,18.489-13.778,24.64,2.309,8.946,17.448,13.654,35.512,18.46.796.212,1.271,1.025,1.067,1.823-1.521,5.924-3.539,13.267-5.874,21.769-8.638,31.442-21.69,78.957-18.105,89.209,5.633,16.115,33.012,24.731,57.167,32.333,18.321,5.766,34.145,10.746,39.664,18.327,12.781,17.557-12.551,83.569-14.176,87.749Z" fill="#071838" id="M-p8_ybV3COUgJKYC6cyo" />
    </g>
    <g id="UkaDgCeXdpyv6KTFL2PuL">
      <path d="M414.252,269.766c5.418-9.929,9.277-20.122,11.722-30.321l36.986-9.689-1.347-47.235-37.176-.53c-5.963-19.131-17.44-36.083-33.703-48.635l12.632-34.056-42.909-17.045-21.963,29.992c-21.071-2.627-42.74.634-62.71,8.772l-22.496-23.415-40.168,28.297,13.23,29.692c-7.112,7.839-13.394,16.584-18.556,26.182-5.159,9.593-8.865,19.416-11.255,29.236l-34.164,9.383.528,45.275,34.409.971c5.382,18.779,16.056,35.684,31.469,48.529l-12.41,33.496,41.476,18.899,21.839-29.559c21.074,3.43,43.041.869,63.521-6.825l23.544,25.196,42.421-28.19-14.431-31.48c7.487-8.016,14.098-17.014,19.514-26.939ZM307.478,277.345c-52.455,1.097-70.198-57.523-28.387-92.168,9.058-7.505,20.37-11.913,31.69-12.33,53.063-1.956,71.875,57.375,28.808,92.447-9.225,7.512-20.7,11.812-32.111,12.051Z" fill="#9FBAFC" id="vgcgl8V5MUWDOksSPUzpy" />
      <path d="M257.844,369.063c-.209,0-.421-.044-.621-.135l-41.477-18.898c-.715-.326-1.058-1.149-.784-1.886l12.045-32.508c-14.629-12.459-25.262-28.852-30.83-47.528l-33.318-.94c-.805-.023-1.448-.677-1.458-1.482l-.527-45.275c-.008-.682.445-1.284,1.103-1.464l33.316-9.149c2.486-9.896,6.245-19.558,11.179-28.733,4.929-9.163,11.019-17.822,18.11-25.751l-12.833-28.802c-.292-.654-.08-1.424.506-1.836l40.169-28.297c.608-.429,1.435-.347,1.946.187l21.793,22.684c20.068-8.003,41.335-10.971,61.64-8.596l21.445-29.284c.404-.552,1.128-.76,1.764-.508l42.909,17.045c.758.301,1.136,1.151.853,1.916l-12.25,33.027c15.49,12.232,26.879,28.67,33.018,47.658l36.095.514c.804.012,1.455.654,1.478,1.457l1.347,47.235c.021.698-.443,1.317-1.119,1.494l-36.12,9.462c-2.546,10.283-6.464,20.308-11.651,29.815-5.169,9.474-11.575,18.387-19.049,26.506l14.014,30.569c.308.671.082,1.466-.533,1.875l-42.421,28.19c-.612.407-1.427.31-1.926-.226l-22.862-24.466c-20.511,7.535-42.06,9.844-62.442,6.696l-21.298,28.826c-.29.393-.742.608-1.207.608ZM218.26,347.878l39.101,17.816,21.117-28.581c.334-.452.891-.677,1.447-.589,20.442,3.328,42.146.993,62.753-6.75.569-.211,1.208-.063,1.623.38l22.677,24.267,40.295-26.778-13.897-30.314c-.254-.553-.148-1.205.268-1.649,7.596-8.132,14.087-17.092,19.293-26.633l1.316.718-1.316-.718c5.207-9.544,9.104-19.621,11.58-29.952.129-.538.544-.961,1.079-1.102l35.832-9.387-1.271-44.607-35.739-.509c-.648-.009-1.218-.435-1.41-1.054-5.982-19.192-17.459-35.753-33.188-47.894-.52-.401-.718-1.094-.489-1.709l12.122-32.681-40.469-16.076-21.278,29.056c-.321.439-.852.669-1.396.602-20.377-2.538-41.8.459-61.958,8.673-.571.23-1.222.092-1.648-.35l-21.604-22.486-38.107,26.845,12.728,28.566c.242.543.141,1.178-.259,1.618-7.21,7.946-13.382,16.655-18.346,25.884-4.956,9.216-8.697,18.933-11.119,28.881-.129.529-.534.947-1.06,1.091l-33.048,9.076.497,42.676,32.969.93c.653.019,1.22.458,1.4,1.086,5.41,18.879,16.125,35.405,30.986,47.79.488.407.667,1.078.446,1.673l-11.926,32.189ZM306.101,278.86c-22.941,0-41.521-11.814-48.692-31.074-8.053-21.63.082-46.659,20.726-63.764,9.345-7.743,20.919-12.244,32.591-12.675,24.02-.887,43.568,10.945,51.073,30.873,8.214,21.814-.132,47.029-21.263,64.237-9.507,7.741-21.235,12.141-33.026,12.387l-.031-1.5.031,1.5c-.471.01-.941.015-1.408.015ZM313.218,174.302c-.789,0-1.583.015-2.382.044-11.016.406-21.949,4.663-30.788,11.986-19.646,16.279-27.43,39.991-19.828,60.408,6.962,18.698,24.598,29.578,47.227,29.106,11.125-.233,22.204-4.393,31.194-11.714,20.114-16.38,28.102-40.266,20.35-60.854-6.787-18.022-24.2-28.976-45.772-28.976Z" fill="#071838" id="piBHK5dXjGpwrQmltJ6Ak" />
    </g>
  </g></g></g><g transform="translate(461 89)" data-asset-index="5"><g clip-path="url(#assetClipPath_yy-GIpks)" transform="scale(1.004633409604833 1.0001887680210069)" data-asset-index="5"><defs>
    <linearGradient id="linearGradient_KqzcDviC" x1="-7.707" y1="-17.836" x2="311.987" y2="274.992" gradientUnits="userSpaceOnUse">
      <stop offset="0" stop-color="#62BDF1" />
      <stop offset="1" stop-color="#007DAE" />
    </linearGradient>
  </defs><g id="IsRo02Sp_3bQ-VV92ukOA">
    <path d="M84.215,28.672C41.957,39.131,15.16,57.285,6.111,91.99c0,0-2.251,12.83-2.577,14.403-4.965,23.922-.987,50.764,13.569,77.229,36.989,67.249,211.791,180.979,245.252,168.924,11.682-4.208,20.459-28.178,25.367-60.116.512-3.334,2.281-13.164,2.281-13.164,6.963-56.985,1.548-130.58-19.265-168.419C236.424,48.46,154.044,11.39,84.215,28.672ZM170.413,185.388c-23.597,7.092-52.827-5.004-64.985-27.109-12.158-22.105-2.39-45.391,21.513-51.928,23.571-6.446,52.05,5.866,63.905,27.419,11.855,21.553,2.837,44.624-20.432,51.618Z" fill="#005683" id="LlwkwMmYUMwaib06Fltdx" />
    <path d="M256.211,354.956c-24.133,0-75.969-28.953-115.997-55.888-47.066-31.671-104.47-78.44-124.426-114.723C1.556,158.468-3.19,131.407,2.065,106.089c.317-1.533,2.546-14.23,2.568-14.358.007-.04.016-.08.026-.119C13.294,58.495,37.718,38.635,83.854,27.216c33.967-8.408,72.164-4.396,107.549,11.296,35.191,15.605,63.834,41.038,80.65,71.611,21.556,39.192,26.096,114.847,19.439,169.325-.03.182-1.784,9.933-2.288,13.21-3.147,20.483-10.756,55.685-26.341,61.299-1.879.677-4.115.998-6.652.998ZM7.577,92.31c-.188,1.067-2.256,12.85-2.575,14.389-5.107,24.609-.469,50.958,13.415,76.201,19.697,35.812,76.697,82.204,123.472,113.679,55.72,37.493,105.058,59.929,119.957,54.557,10.318-3.717,19.209-25.197,24.394-58.933.51-3.314,2.215-12.799,2.287-13.202,6.586-53.917,2.147-128.796-19.103-167.431C234.897,48.795,153.706,13.022,84.575,30.129h0C39.664,41.244,15.914,60.422,7.577,92.31ZM156.228,188.917c-20.669,0-42.068-11.65-52.114-29.914-6.141-11.165-7.119-22.989-2.755-33.296,4.296-10.147,13.24-17.535,25.187-20.802,24.026-6.574,53.465,6.053,65.614,28.143,6.045,10.99,7.068,22.682,2.884,32.924-4.08,9.983-12.674,17.39-24.198,20.854-4.717,1.418-9.647,2.092-14.617,2.092ZM139.95,106.151c-4.288,0-8.531.531-12.613,1.647-11.04,3.02-19.285,9.794-23.215,19.078-3.998,9.442-3.067,20.338,2.621,30.68,11.816,21.483,40.187,33.324,63.239,26.395l.432,1.437-.432-1.437c10.64-3.198,18.554-9.987,22.284-19.116,3.836-9.387,2.864-20.163-2.735-30.342-9.456-17.192-29.949-28.343-49.581-28.343Z" fill="#002148" id="WgAUqrzVuNNr6429zKLdJ" />
  </g><g id="yfL2mT49YBmzZYRa4bup">
    <path d="M88.165,5.746C15.381,23.76-15.936,93.448,21.053,160.696c36.989,67.249,211.791,180.979,245.252,168.924,32.788-11.812,42.698-179.313,8.384-241.699C240.374,25.534,157.995-11.536,88.165,5.746ZM174.363,162.462c-23.597,7.092-52.827-5.004-64.985-27.109-12.158-22.105-2.39-45.391,21.513-51.928,23.571-6.446,52.05,5.866,63.905,27.419,11.855,21.553,2.837,44.624-20.432,51.618Z" fill="url(#linearGradient_KqzcDviC)" id="MQbZTnbNcMCJBxhfm1kE" />
    <path d="M260.16,332.029c-24.132,0-75.968-28.953-115.996-55.888-47.066-31.671-104.47-78.44-124.426-114.722C1.696,128.616-1.031,94.084,12.059,64.183,25.086,34.425,51.987,13.155,87.804,4.29,121.77-4.116,159.966-.106,195.353,15.587c35.191,15.605,63.834,41.038,80.65,71.611,12.776,23.229,20.624,63.614,21.532,110.802.834,43.375-4.424,85.617-13.722,110.238-4.834,12.803-10.554,20.472-17,22.794-1.879.677-4.115.998-6.653.998ZM88.164,5.746l.36,1.456C53.633,15.838,27.452,36.502,14.807,65.386c-12.708,29.027-10.022,62.619,7.561,94.587,19.697,35.812,76.697,82.204,123.472,113.679,50.21,33.786,95.233,55.344,114.556,55.347,2.12,0,3.928-.259,5.401-.79,5.505-1.983,10.765-9.255,15.211-21.031,9.172-24.289,14.355-66.101,13.528-109.121-.898-46.717-8.611-86.597-21.161-109.414C238.847,25.867,157.648-9.905,88.525,7.202l-.36-1.456ZM160.177,165.991c-20.669,0-42.067-11.65-52.113-29.915-6.141-11.164-7.119-22.989-2.755-33.295,4.296-10.148,13.241-17.535,25.187-20.802,24.029-6.572,53.464,6.053,65.614,28.143,6.045,10.989,7.068,22.682,2.883,32.923-4.08,9.984-12.674,17.39-24.198,20.854-4.717,1.418-9.647,2.092-14.617,2.092ZM143.9,83.225c-4.288,0-8.531.531-12.613,1.647-11.04,3.019-19.285,9.794-23.215,19.078-3.998,9.442-3.067,20.338,2.621,30.68,11.817,21.484,40.188,33.326,63.238,26.396h0c10.64-3.198,18.554-9.986,22.285-19.115,3.836-9.387,2.864-20.163-2.735-30.343-9.456-17.192-29.949-28.342-49.581-28.342Z" fill="#002148" id="fSOy0-2i6_I_HyqWUXtSr" />
  </g></g></g></svg>