<?xml version='1.0' encoding='utf-8'?>
<svg xmlns="http://www.w3.org/2000/svg" fill="none" viewBox="0 0 1800 1100" width="1800" height="1100"><defs><clipPath id="assetClipPath_hPffaygt"><path d="m0 0 h 1243 v 694 h -1243 v -694 z" id="path_lxZDg2wV" fill="#ffffff" /></clipPath><clipPath id="assetClipPath__7QmANVh"><path d="m0 0 h 1191.568 v 780.77 h -1191.568 v -780.77 z" id="path_anhYU3HS" fill="#ffffff" /></clipPath><clipPath id="assetClipPath_6_HpOsSx"><path d="m0 0 h 639.033 v 593.151 h -639.033 v -593.151 z" id="path_VoNsuIx-" fill="#ffffff" /></clipPath><clipPath id="assetClipPath_W4uLvhVu"><path d="m0 0 h 282.676 v 175.923 h -282.676 v -175.923 z" id="path_mwjscsKW" fill="#ffffff" /></clipPath><clipPath id="assetClipPath_DyBXKOiw"><path d="m0 0 h 250.089 v 313.84 h -250.089 v -313.84 z" id="path_FfjvUfeW" fill="#ffffff" /></clipPath><clipPath id="clipPath_SswGHjN4"><rect width="1243" height="694" stroke="#000000" style="stroke-width:6;vector-effect:non-scaling-stroke;" /></clipPath></defs><g transform="translate(338 947) scale(1 -1)" data-asset-index="0"><g clip-path="url(#assetClipPath_hPffaygt)" transform="scale(1 1)" data-asset-index="0"><rect width="1243" height="694" fill="#5BB6EA" clip-path="url(#clipPath_SswGHjN4)" id="hGLV7H-zYg0ll34tU9mOH" stroke="#000000" style="stroke-width:6;vector-effect:non-scaling-stroke;" /></g></g><g transform="translate(230 253)" data-asset-index="1"><g clip-path="url(#assetClipPath__7QmANVh)" transform="scale(1.0045586991258577 1.0041369417370032)" data-asset-index="1"><defs>
    <linearGradient id="linearGradient_4Hnf0sDe" x1="507.549" y1="168.425" x2="1016.607" y2="652.332" gradientUnits="userSpaceOnUse">
      <stop offset="0" stop-color="#C5C9E8" />
      <stop offset="1" stop-color="#939ED8" />
    </linearGradient>
  </defs><g id="BjKfu5_N1Hu8aLabrXP">
    <g id="gdcXondL4caoFNXtpmC2P">
      <g id="eCQ340mWBShSQXUcqqTHg">
        <path d="M566.495,127.119l567.331,146.757c17.812,4.608,27.338,20.822,21.12,36.275l-162.159,402.959c-7.346,18.254-28.648,27.466-47.391,20.512l-590.003-218.896c-14.067-5.219-18.683-21.615-10.445-36.574l183.944-334.021c7.134-12.955,23.918-20.552,37.604-17.011Z" fill="#6B79B2" id="wFRunzLgUrv5cWIE9ltA3" />
        <path d="M958.35,737.448c-4.493,0-9.05-.778-13.476-2.42l-590.004-218.896c-6.566-2.436-11.503-7.328-13.9-13.775-2.835-7.622-1.863-16.708,2.664-24.93l183.942-334.021c7.419-13.468,25.042-21.426,39.295-17.74l567.331,146.757c9.57,2.476,17.332,8.397,21.296,16.247,3.483,6.901,3.782,14.728.84,22.04l-162.16,402.959c-5.921,14.712-20.494,23.777-35.828,23.778ZM559.49,127.752c-11.437,0-23.608,6.793-29.286,17.102l-183.943,334.021c-4.105,7.456-5.009,15.633-2.479,22.437,2.089,5.616,6.397,9.88,12.132,12.008l590.004,218.896c4.088,1.517,8.301,2.235,12.449,2.235,14.144.001,27.574-8.347,33.028-21.901l162.16-402.959c2.615-6.5,2.354-13.449-.735-19.568-3.573-7.079-10.634-12.435-19.369-14.694l-567.331-146.757c-2.143-.554-4.373-.819-6.629-.819Z" fill="#071838" id="wBMN6zKmTM1UYJnUzU4CL" />
      </g>
      <g id="H8bqu_-CbSnj4eGaBKmX">
        <path d="M559.515,121.69l567.331,146.757c17.812,4.608,27.338,20.822,21.12,36.275l-162.159,402.959c-7.346,18.254-28.648,27.466-47.391,20.512l-590.003-218.896c-14.067-5.219-18.683-21.615-10.445-36.574l183.944-334.021c7.134-12.955,23.918-20.552,37.604-17.011Z" fill="url(#linearGradient_4Hnf0sDe)" id="whnmnI3qGFUB0ePgMK7jt" />
        <path d="M951.369,732.019c-4.493,0-9.05-.778-13.476-2.42l-590.003-218.896c-6.566-2.436-11.504-7.328-13.901-13.775-2.835-7.622-1.863-16.708,2.664-24.929l183.943-334.021c7.416-13.467,25.036-21.427,39.294-17.74l567.331,146.757c9.571,2.476,17.333,8.398,21.297,16.248,3.483,6.9,3.781,14.727.839,22.039l-162.159,402.959c-5.92,14.712-20.494,23.777-35.829,23.778ZM552.509,122.322c-11.436,0-23.607,6.793-29.284,17.102l-183.944,334.021c-4.105,7.456-5.009,15.633-2.479,22.436,2.089,5.616,6.397,9.88,12.133,12.008l590.003,218.896c18.028,6.688,38.425-2.137,45.479-19.666l162.159-402.959c2.615-6.499,2.354-13.448-.734-19.566-3.574-7.08-10.634-12.436-19.37-14.696L559.139,123.142c-2.144-.555-4.373-.819-6.63-.819Z" fill="#071838" id="dSAdJRPjS6AsvCKif0Kkw" />
      </g>
      <g id="MG2Udu5-vi5272MFLj3Es">
        <polygon points="500.095 270.377 1033.827 429.86 945.148 643.405 401.835 452.292 500.095 270.377" fill="#071838" id="H42Oi33bGoOd6Ij9Qf" />
        <path d="M945.148,644.906c-.165,0-.333-.028-.498-.085l-543.313-191.113c-.414-.146-.743-.465-.901-.875s-.129-.867.08-1.253l98.26-181.915c.337-.625,1.067-.93,1.749-.724l533.732,159.483c.406.122.743.41.925.793.183.384.193.827.031,1.219l-88.679,213.545c-.239.575-.796.925-1.386.925ZM403.989,451.459l540.318,190.06,87.496-210.698-530.969-158.657-96.846,179.295Z" fill="#071838" id="UD8JT27yQDyOwnhBYNvwx" />
      </g>
      <g id="xGi2KG_fk0GPa7EZ-k6it">
        <polygon points="717.026 181.056 921.475 234.827 866.346 355.775 659.511 295.088 717.026 181.056" fill="#6B79B2" id="p1mosXswih3IqOcI1-4eZ" />
        <path d="M866.346,357.275c-.14,0-.282-.02-.422-.061l-206.834-60.688c-.428-.125-.777-.434-.954-.843-.178-.409-.164-.875.037-1.272l57.515-114.032c.316-.632,1.033-.957,1.721-.775l204.449,53.771c.428.112.784.408.974.808.189.4.193.863.01,1.265l-55.13,120.948c-.249.546-.79.878-1.365.878ZM661.662,294.156l203.858,59.814,53.852-118.145-201.553-53.01-56.157,111.341Z" fill="#071838" id="gaK_9qeGC8iaisc-QpaB1" />
      </g>
    </g>
    <g id="OIgVuZp7Sf8pCFNS-Mzw">
      <g id="RuQ5xJLGh9BrAkBlI3fmW">
        <path d="M349.125,519.561l590.209,218.972c10.316,3.827,21.339.068,25.436,2.614l-.026,10.03c.133.482-.235.806-1.163.94l-156.506,27.004c-8.391,1.22-34.624-5.254-58.216-14.413L15.474,474.6c-9.687-3.761-14.369-6.559-13.948-7.926l-.026-9.944,304.012,50.693c9.73,1.362,29.158,6.775,43.613,12.138Z" fill="#6B79B2" id="RgpPmajTnI4TIZzgEHGUP" />
        <path d="M804.775,780.758c-10.578,0-34.615-6.17-56.46-14.65L14.922,475.995C.927,470.563-.345,468.194.025,466.486L0,456.734c0-.441.192-.861.529-1.147.335-.287.779-.41,1.218-.336l304.012,50.693c9.7,1.357,29.405,6.838,43.888,12.211l590.209,218.972c5.448,2.021,11.274,1.812,15.955,1.644,4.214-.151,7.54-.271,9.751,1.103.441.274.709.758.708,1.278l-.026,9.88c.079.506-.024,1.004-.3,1.426-.602.92-1.766,1.089-2.147,1.145l-156.467,26.997c-.73.106-1.586.158-2.554.158ZM3.026,466.691c.382.463,2.495,2.437,12.99,6.511l733.394,290.113c23.03,8.941,49.337,15.502,57.448,14.323l156.386-26.983.022-8.556c-1.608-.536-4.302-.439-7.348-.329-4.944.179-11.1.399-17.106-1.83l-590.209-218.972c-14.314-5.311-33.738-10.72-43.3-12.059L3.005,458.501l.021,8.169v.021ZM963.296,751.572s0,.003,0,.005c0-.002,0-.004,0-.005ZM963.698,750.559h0,0Z" fill="#071838" id="RbJcBVBTdtRboc5hNMwE8" />
      </g>
      <g id="j4WVboAL51eEQZAugFGv">
        <path d="M349.125,509.561l590.209,218.972c18.25,6.771,29.192,12.866,24.247,13.585l-154.355,22.443c-8.391,1.22-34.624-5.254-58.216-14.413L15.474,464.6c-17.371-6.744-18.648-10.394-3.262-8.24l293.3,41.063c9.73,1.362,29.158,6.775,43.613,12.138Z" fill="#2F48B2" id="mPFxHROFdehEKFCSLU6eN" />
        <path d="M806.909,766.203c-10.542,0-34.59-6.171-56.442-14.655L14.931,465.999c-14.567-5.655-15.311-7.96-14.863-9.678.479-1.839,2.764-2.789,12.353-1.446l293.3,41.063c9.739,1.363,29.444,6.844,43.927,12.217l590.209,218.972c7.563,2.806,14.042,5.551,18.737,7.939,7.314,3.72,7.792,5.311,7.665,6.509-.067.633-.476,1.739-2.462,2.028l-154.354,22.443c-.724.105-1.572.156-2.532.156ZM3.707,457.305c1.225.933,4.366,2.813,12.31,5.896l735.536,285.549c23.038,8.943,49.352,15.501,57.457,14.327l153.408-22.306c-2.465-1.874-9.808-5.713-23.605-10.833l-590.209-218.972c-14.314-5.311-33.738-10.72-43.3-12.059L12.004,457.846c-4.747-.664-7.136-.657-8.297-.541Z" fill="#071838" id="XOVFPqs169I5G8qGFnlnT" />
      </g>
    </g>
  </g><g id="XqDf_m5532sko9ngZBOC">
    <g id="a1yt-LO2ePtlPj4E0aefh">
      <path d="M918.006,221.032c-11.155,6.178-61.927,32.443-72.491,40.684-12.695,9.902-37.115,34.603-41.69,41.243-4.575,6.64-2.557,16.766-13.067,33.717-6.355,10.25,13.087,21.054,27.256,2.137,5.125-6.842,8.95-15.857,8.95-15.857l31.948-19.653s70.695,20.577,117.18-32.924c36.55-42.067-37.542-60.723-58.086-49.346Z" fill="#FFD9C0" id="hNrFp5LfQdWev9xEmAcf9" />
      <path d="M800.483,350.729c-3.061,0-5.868-.856-8.141-2.407-4.442-3.033-5.592-8.031-2.859-12.437,6.127-9.883,7.886-17.309,9.299-23.275.964-4.069,1.797-7.583,3.808-10.502,4.867-7.065,29.535-31.85,42.002-41.575,8.23-6.42,40.417-23.567,59.647-33.812,5.854-3.119,10.478-5.582,13.04-7h0c14.794-8.194,51.575-1.826,65.005,14.759,5.938,7.334,9.881,19.687-5.061,36.882-24.351,28.027-55.344,35.611-77.055,37.038-21.256,1.397-37.581-2.558-41.027-3.478l-30.989,19.064c-.85,1.931-4.354,9.605-8.938,15.726-5.802,7.746-12.749,11.018-18.73,11.018ZM918.006,221.032l.727,1.312c-2.583,1.431-7.217,3.899-13.082,7.024-19.146,10.199-51.188,27.27-59.213,33.53-12.834,10.011-37.127,34.743-41.377,40.912-1.692,2.456-2.428,5.561-3.358,9.491-1.387,5.853-3.285,13.867-9.67,24.165-2.252,3.632-.442,6.709,2.002,8.378,4.479,3.058,14.24,3.469,22.779-7.931,4.951-6.61,8.732-15.455,8.77-15.543.122-.287.33-.528.595-.692l31.948-19.653c.362-.222.8-.28,1.205-.163.174.051,17.769,5.068,40.745,3.538,21.11-1.404,51.238-8.791,74.884-36.005,10.899-12.545,12.579-23.657,4.992-33.027-13.287-16.41-48.879-20.857-61.22-14.023l-.727-1.312Z" fill="#071838" id="RIaTx3w3RVXH8KsdkqlzF" />
    </g>
    <g id="za9LvbrNUTfRSFnyJtxyO">
      <path d="M853.921,283.661c-7.243,3.972-11.683,8.805-15.809,14.031-14.8,18.744,71.881,78.68,103.428,67.137,2.034,19.061,41.886,21.561,46.444,12.777,15.98-30.793,63.047-98.83,67.16-154.732,14.359-33.645-80.676-64.121-96.404-37.41-9.498,16.132-51.95,42.694-75.206,54.054" fill="#FFD9C0" id="Ij1-h7zjl_nEezCBRyhTC" />
      <path d="M972.734,383.942c-3.226,0-6.582-.313-9.755-.911-12.492-2.354-20.783-8.359-22.628-16.249-2.496.693-5.262,1.019-8.229,1.019-28.406.003-75.777-29.764-91.639-51.673-7.448-10.29-6.042-16.21-3.55-19.366,4.594-5.819,9.118-10.498,16.265-14.417.727-.398,1.637-.133,2.037.594.398.727.132,1.638-.594,2.037-6.704,3.676-10.986,8.113-15.354,13.646-3.353,4.245.121,10.906,3.626,15.747,15.141,20.915,62.048,50.457,89.122,50.46,3.329,0,6.353-.445,8.986-1.409.434-.157.916-.109,1.309.135.392.244.649.655.698,1.114,1.167,10.938,15.989,14.563,20.505,15.414,11.524,2.171,21.435.073,23.117-3.168,3.333-6.423,7.97-14.386,13.339-23.606,20.079-34.481,50.423-86.59,53.656-130.544.013-.165.052-.327.116-.479,4.862-11.391-3.993-24.131-23.686-34.079-25.383-12.822-61.511-16.48-70.046-1.981-10.151,17.24-55.134,44.526-75.841,54.641-.744.364-1.643.055-2.006-.689-.363-.744-.055-1.643.689-2.006,24.722-12.076,65.503-38.065,74.571-53.468,9.777-16.6,46.838-12.888,73.984.826,21.138,10.678,30.533,24.753,25.19,37.7-3.378,44.592-33.856,96.933-54.037,131.589-5.35,9.187-9.97,17.121-13.27,23.479-2.018,3.888-8.934,5.646-16.58,5.646Z" fill="#071838" id="S0rlBR85hV_toD5FrxGdu" />
    </g>
    <g id="XpZ31aIzSjeoflUcdffTl">
      <path d="M987.984,377.606c-13.482,24.939-19.431,42.844-22.077,56.077-2.646,13.232-2.62,43.343-7.929,56.54-6.14,15.263-22.344,18.133-23.226,6.665-.882-11.468-8.274-58.399-3.863-72.513,4.411-14.115,13.007-49.986,10.651-59.545" fill="#FFD9C0" id="BAIT3yGeOt1sciL7qvuk4" />
      <path d="M941.836,505.395c-.524,0-1.034-.038-1.527-.114-4.065-.626-6.702-3.721-7.053-8.279-.194-2.515-.702-6.735-1.345-12.079-2.237-18.592-5.981-49.711-2.454-60.997,4.947-15.835,12.739-50.163,10.626-58.739-.198-.804.293-1.617,1.097-1.815.804-.197,1.617.292,1.815,1.098,2.535,10.283-6.609,47.34-10.675,60.351-3.335,10.672.361,41.391,2.569,59.744.647,5.379,1.158,9.627,1.356,12.207.244,3.164,1.849,5.133,4.52,5.544,4.965.764,12.241-3.758,15.82-12.653,3.223-8.012,4.455-22.75,5.543-35.752.664-7.945,1.292-15.449,2.307-20.521,3.285-16.425,10.556-34.905,22.229-56.497.394-.729,1.304-1,2.032-.606.729.394,1.001,1.304.606,2.033-11.528,21.325-18.7,39.531-21.926,55.658-.98,4.905-1.602,12.326-2.259,20.183-1.104,13.214-2.357,28.191-5.749,36.622-3.94,9.794-11.628,14.613-17.533,14.613Z" fill="#071838" id="rNUecCi2F7geQohHpHZ0" />
    </g>
    <g id="CmXQWwWHuDeob-hDySqSG">
      <path d="M838.111,297.692c-8.796,12.045-44.181,53.886-49.006,63.022-4.136,7.832-34.525,80.055-35.562,87.126-1.856,12.649,23.64,14.401,32.142-3.819,2.505-5.368,29.587-49.774,34.488-63.203,0,0,50.011-42.437,57.168-49.166" fill="#FFD9C0" id="LABhT2GkureUBAUjgYZsp" />
      <path d="M764.982,459.022c-1.861,0-3.653-.248-5.304-.743-5.426-1.625-8.346-5.709-7.62-10.657,1.051-7.164,31.155-78.962,35.721-87.608,3.071-5.815,17.856-24.102,30.901-40.235,7.672-9.489,14.919-18.452,18.22-22.971.487-.67,1.429-.814,2.096-.327.669.489.815,1.427.326,2.096-3.343,4.579-10.612,13.569-18.309,23.088-12.317,15.234-27.647,34.193-30.582,39.75-4.345,8.228-34.422,79.944-35.404,86.643-.723,4.924,3.614,6.779,5.512,7.348,6.438,1.926,18.441-.561,23.787-12.019.816-1.75,3.943-7.142,8.271-14.604,9.101-15.69,22.854-39.401,26.167-48.479.089-.245.24-.461.438-.629.5-.424,50.064-42.49,57.111-49.116.602-.567,1.553-.539,2.12.065.567.604.538,1.553-.065,2.12-6.893,6.481-52.382,45.107-56.926,48.964-3.628,9.578-17.218,33.007-26.25,48.581-4.128,7.116-7.389,12.738-8.148,14.367-4.491,9.625-13.927,14.366-22.062,14.366Z" fill="#071838" id="AkIn1qQvEZzWbk1fJnZ4U" />
    </g>
    <g id="GIAVxL2W8iarczL8z7i_x">
      <path d="M875.888,319.559c-8.72,8.15-50.091,62.942-53.536,71.742-4.896,12.503-18.19,86.837-21.448,103.306-3.73,18.852,19.332,21.859,29.385,0,7.295-15.862,22.116-57.857,26.044-79.88,0,0,37.861-45.864,52.779-61.197" fill="#FFD9C0" id="SB6f-iQYjpldj7Mj-QoYv" />
      <path d="M811.189,511.4c-1.439,0-2.821-.213-4.107-.629-4.954-1.604-9.565-6.77-7.649-16.455.663-3.352,1.733-9.053,3.087-16.27,5.419-28.877,14.488-77.208,18.437-87.292,3.622-9.252,45.148-64.105,53.908-72.291.604-.565,1.555-.535,2.12.072.565.605.534,1.554-.071,2.12-8.335,7.789-49.749,62.472-53.164,71.193-3.846,9.822-13.235,59.866-18.28,86.752-1.356,7.225-2.427,12.932-3.093,16.299-1.304,6.588.802,11.455,5.631,13.019,6.121,1.982,15.534-2.227,20.92-13.937,7.549-16.415,22.084-57.957,25.93-79.517.045-.254.155-.493.319-.692.38-.459,38.072-46.087,52.861-61.288.578-.594,1.529-.606,2.121-.029.594.578.606,1.527.029,2.121-14.074,14.465-49.134,56.796-52.448,60.804-3.986,21.882-18.521,63.4-26.087,79.854-5.122,11.134-13.466,16.166-20.463,16.166Z" fill="#071838" id="Qqi3EcvUNJh1yYJ5d86C6" />
    </g>
    <g id="YRNllY43ZwUFyOulS1sc_">
      <path d="M945.988,359.476c-5.399,5.482-34.352,58.136-39.22,68.934-4.869,10.799-17.239,60.528-22.992,70.49-8.759,15.167-31.551,19.311-26.797-2.616,3.494-16.116,6.389-68.398,13.076-83.206,6.688-14.808,26.016-62.783,34.522-71.859" fill="#FFD9C0" id="G2nFaUDEe41jdYipp6jvV" />
      <path d="M864.952,513.015c-1.437,0-2.807-.229-4.062-.714-2.475-.956-7.952-4.461-5.378-16.334,1.268-5.846,2.498-16.901,3.802-28.606,2.364-21.241,5.045-45.316,9.373-54.899,1.417-3.137,3.423-7.815,5.746-13.232,8.829-20.587,22.172-51.699,29.049-59.036.568-.605,1.518-.635,2.12-.068.604.566.636,1.516.069,2.12-6.518,6.953-20.267,39.012-28.481,58.167-2.329,5.431-4.34,10.122-5.769,13.284-4.133,9.152-6.901,34.017-9.126,53.997-1.369,12.295-2.552,22.913-3.852,28.91-1.488,6.865-.235,11.447,3.527,12.9,5.38,2.076,15.297-2.334,20.505-11.353,3.151-5.456,8.573-23.964,13.356-40.293,3.805-12.986,7.398-25.253,9.567-30.064,5.054-11.208,34.022-63.79,39.52-69.37.58-.59,1.531-.597,2.121-.016.59.582.598,1.531.016,2.122-5.17,5.25-34.04,57.672-38.922,68.498-2.083,4.621-5.648,16.79-9.423,29.674-5.066,17.297-10.307,35.183-13.638,40.95-4.587,7.943-13.142,13.365-20.122,13.365Z" fill="#071838" id="qYgJ9JAuAGX9JZ8j-rr_8" />
    </g>
    <g id="ao9v1PQp8cjAVvx-bN9QQ">
      <path d="M958.739,185.465c21.323-39.5,55.156-183.965,55.156-183.965h176.173s-110.749,179.556-134.925,221.374" fill="#FFD9C0" id="OhO417jS7r7zQ5vhCXQQT" />
      <path d="M1055.142,224.375c-.255,0-.514-.065-.75-.202-.717-.415-.962-1.333-.548-2.05,22.431-38.798,120.562-198.074,133.537-219.123h-172.299c-3.271,13.799-34.863,145.832-55.023,183.177-.395.729-1.308,1-2.033.607-.729-.394-1.001-1.303-.607-2.032,20.986-38.874,54.678-182.151,55.016-183.594C1012.594.48,1013.199,0,1013.895,0h176.173c.544,0,1.045.294,1.31.769.266.475.253,1.056-.033,1.519-1.107,1.795-111.014,180.016-134.902,221.337-.278.48-.782.749-1.3.75Z" fill="#071838" id="fDhu7c4w7d3M8iqsDwR3E" />
    </g>
    <g id="kxgAD2xiDqeyozGAQ-Xdz">
      <line x1="876.448" y1="243.378" x2="883.534" y2="239.519" id="gOStXsV2fnQBhvL-Mh8ux" fill="#FFD9C0" />
      <path d="M876.448,244.878c-.531,0-1.046-.283-1.318-.783-.396-.728-.128-1.638.6-2.035l7.086-3.859c.729-.395,1.638-.128,2.035.6.396.728.128,1.638-.6,2.035l-7.086,3.859c-.229.124-.474.183-.717.183Z" fill="#071838" id="xpij6kO96N6PxCOgsCl97" />
    </g>
  </g><g id="KS1JTgPeJdlOPI2hiMKh8">
    <g id="xgbn3tADAmUsNmUXLahA4">
      <path d="M708.134,97.286c-3.179,36.355,14.845,108.616,11.741,130.101-2.611,18.069-20.049,58.72-22.666,67.063-2.876,9.168-23.823,33.106-27.248,38.634-14.735,23.783-30.929,11.646-29.402-11.706.842-12.881,15.743-29.359,17.023-34.983,1.912-8.399,13.846-52.664,7.634-61.218" fill="#FFD9C0" id="a9DJIK0UoA3S0XsoA5TB" />
      <path d="M653.556,347.498c-1.122,0-2.231-.172-3.32-.521-7.53-2.412-12.021-12.739-11.173-25.697.565-8.641,7.109-18.732,11.887-26.101,2.453-3.783,4.77-7.355,5.171-9.117.225-.984.585-2.457,1.038-4.306,2.949-12.046,11.925-48.703,6.845-55.698-.486-.67-.338-1.608.332-2.095.673-.487,1.608-.338,2.096.333,5.196,7.156-.299,33.423-6.359,58.174-.447,1.828-.804,3.285-1.025,4.258-.521,2.281-2.753,5.724-5.579,10.083-4.599,7.091-10.896,16.804-11.41,24.665-.744,11.379,2.995,20.69,9.094,22.644,5.416,1.734,11.806-2.577,17.536-11.826,1.132-1.827,3.948-5.391,7.514-9.902,7.047-8.918,17.697-22.396,19.577-28.391.73-2.326,2.566-7.055,4.891-13.042,5.928-15.268,15.85-40.822,17.723-53.787,1.401-9.698-1.728-30.843-5.039-53.23-3.955-26.733-8.438-57.034-6.711-76.788.073-.825.806-1.437,1.625-1.363.825.072,1.436.799,1.363,1.625-1.696,19.402,2.759,49.517,6.69,76.087,3.49,23.591,6.504,43.966,5.04,54.098-1.922,13.303-11.534,38.061-17.895,54.444-2.305,5.935-4.125,10.623-4.824,12.854-2.046,6.523-12.474,19.718-20.087,29.353-3.367,4.261-6.275,7.941-7.316,9.623-5.477,8.84-11.76,13.623-17.682,13.623Z" fill="#071838" id="rBPma3k0XFPVCFCPNChGQ" />
    </g>
    <g id="hQrptYueuc3fHXvIGTNnZ">
      <path d="M708.134,97.286c8.044-32.286-99.276-38.579-112.873-14.342-13.598,24.238-82.794,118.364-88.644,134.809-5.85,16.445,134.145,43.605,146.253,25.625,17.255-25.625,27.073-13.921,27.073-13.921" fill="#FFD9C0" id="q9f2E2V9u3sT7yJCTIeJE" />
      <path d="M626.799,250.874c-34.803,0-91.718-12.233-112.092-22.511-7.677-3.873-10.785-7.507-9.503-11.113,3.398-9.553,27.011-43.729,49.846-76.781,17.015-24.626,33.085-47.887,38.903-58.259,4.687-8.354,19.779-13.899,41.408-15.214,20.051-1.219,41.408,1.557,55.745,7.246,14.477,5.744,20.868,13.837,18.483,23.407-.2.804-1.019,1.293-1.817,1.093-.804-.2-1.294-1.014-1.093-1.818,2.487-9.985-7.697-16.33-16.68-19.894-28.306-11.231-84.324-9.586-93.43,6.648-5.888,10.494-21.997,33.811-39.053,58.497-21.665,31.358-46.222,66.901-49.487,76.081-.638,1.794,2.363,4.571,8.027,7.428,31.869,16.075,126.661,30.081,135.568,16.855,7.466-11.086,14.615-16.884,21.249-17.234,5.257-.263,8.099,3.045,8.218,3.187.532.634.449,1.581-.186,2.113-.636.532-1.581.449-2.113-.186-.075-.087-2.07-2.345-5.836-2.114-3.868.236-10.277,3.189-18.844,15.91-3.188,4.733-13.515,6.658-27.315,6.658Z" fill="#071838" id="PViJPzf7aK3_0Waqs8esQ" />
    </g>
    <g id="lLFapRlRFDc2N76XWc475">
      <path d="M506.617,217.753c-7.623,21.183-22.509,55.772-23.385,67.593s4.394,47.751,5.254,57.795c1.673,19.545,19.873,9.55,20.578-8.757.541-14.028.074-44.632.074-44.632l27.736-57.87" fill="#FFD9C0" id="Dt--ucE4uXO5Pk_5LwsDJ" />
      <path d="M495.828,355.291c-2.014,0-7.891-.97-8.836-12.022-.241-2.813-.845-7.788-1.544-13.547-1.836-15.134-4.351-35.861-3.712-44.486.643-8.674,8.29-28.401,15.686-47.478,2.889-7.452,5.617-14.491,7.784-20.513.28-.78,1.142-1.183,1.919-.904.779.281,1.184,1.14.903,1.919-2.179,6.056-4.914,13.111-7.81,20.581-6.975,17.993-14.881,38.387-15.49,46.616-.617,8.332,1.877,28.891,3.698,43.903.702,5.788,1.309,10.786,1.554,13.653.512,5.972,2.695,9.346,5.92,9.277,4.479-.105,11.249-7.155,11.666-17.963.532-13.827.077-44.246.072-44.552-.003-.232.047-.462.147-.671l27.736-57.87c.358-.748,1.256-1.063,2.001-.704.747.358,1.062,1.254.704,2.001l-27.584,57.552c.05,3.459.425,31.265-.079,44.359-.467,12.095-8.065,20.694-14.594,20.848-.045,0-.093.001-.143.001Z" fill="#071838" id="Hen59Bsumolm1vzpQCMBw" />
    </g>
    <g id="wfxkiy6qfPMt1gTvmP4K0">
      <path d="M527.454,217.753c-4.378,9.361-27.44,61.944-29.263,77.904-1.823,15.96-4.744,75.521-6.201,88.641-2.189,19.703,21.016,16.2,27.146-4.816,6.13-21.016,16.2-77.935,16.2-77.935l31.221-69.178" fill="#FFD9C0" id="qyMSxsK6e6YMYFewITKQF" />
      <path d="M500.572,398.818c-.752,0-1.486-.07-2.193-.211-5.812-1.162-8.759-6.573-7.881-14.475.679-6.105,1.681-22.396,2.74-39.644,1.224-19.898,2.488-40.474,3.462-49.002,1.908-16.701,25.849-70.785,29.396-78.369.351-.75,1.241-1.075,1.994-.724.75.351,1.074,1.244.723,1.994-5.684,12.154-27.415,62.41-29.132,77.439-.965,8.45-2.228,28.986-3.448,48.846-1.062,17.286-2.065,33.612-2.752,39.791-.698,6.283,1.301,10.366,5.486,11.202,6.321,1.267,15.374-5.102,18.728-16.604,6.038-20.698,16.063-77.208,16.163-77.776.022-.123.059-.242.11-.356l31.221-69.178c.341-.754,1.23-1.09,1.984-.75.755.341,1.091,1.229.75,1.984l-31.144,69.007c-.642,3.607-10.297,57.654-16.204,77.909-3.573,12.25-12.666,18.917-20.003,18.917Z" fill="#071838" id="IbiAEBv-CxK5BZtcnUBbc" />
    </g>
    <g id="vwcu0usSAYK7bCyFDISIt">
      <path d="M555.401,225.178c-7.067,12.819-22.643,72.348-24.853,88.364-2.209,16.016.468,93.265,0,108.254-.701,22.485,24.3,21.532,28.718-2.216,4.418-23.748,8.284-92.899,9.941-100.021l34.241-80.04" fill="#FFD9C0" id="ePUSm_02-57dDu2nQwhc0" />
      <path d="M542.313,439.546c-.466,0-.927-.025-1.384-.074-5.717-.617-12.257-5.629-11.88-17.723.163-5.223-.062-18.267-.323-33.371-.496-28.75-1.113-64.531.336-75.041,2.143-15.529,17.652-75.511,25.025-88.884.4-.726,1.312-.989,2.038-.589.725.4.989,1.312.589,2.038-6.661,12.082-22.382,71.186-24.68,87.846-1.418,10.28-.803,45.932-.309,74.579.261,15.142.486,28.22.321,33.516-.312,10.033,4.549,14.144,9.203,14.647,6.512.697,14.27-4.976,16.542-17.185,2.651-14.254,5.068-44.518,7.01-68.834,1.264-15.822,2.262-28.319,2.944-31.251.02-.086.047-.169.082-.25l34.241-80.041c.325-.761,1.206-1.117,1.969-.789.762.326,1.115,1.207.789,1.969l-34.187,79.913c-.634,2.964-1.661,15.828-2.848,30.688-1.947,24.386-4.371,54.736-7.052,69.145-2.454,13.189-10.879,19.692-18.429,19.692Z" fill="#071838" id="JAdS8u0VcqsgN8v4VVqNr" />
    </g>
    <g id="IpSMS1dY3BpCtYkSTN03">
      <path d="M652.87,243.378c-11.924,22.475-31.67,60.732-34.755,70.605-3.085,9.873,3.583,65.989,3.085,83.919-.631,22.741-19.408,33.195-27.061,13.538-5.114-13.138-19.181-85.167-16.096-101.211,3.085-16.043,18.881-74.203,28.136-82.842" fill="#FFD9C0" id="Iq4l2k3gblvdqoC1KG_Dj" />
      <path d="M605.581,423.296c-5.32,0-10.03-4.098-12.839-11.312-4.872-12.514-19.402-85.233-16.17-102.039,2.549-13.259,18.429-74.176,28.585-83.655.604-.564,1.554-.533,2.12.073.565.605.532,1.555-.073,2.12-8.655,8.079-24.403,64.957-27.687,82.028-2.897,15.064,10.639,86.561,16.02,100.384,2.609,6.7,6.746,10.085,11.367,9.285,5.932-1.029,12.434-9.202,12.798-22.321.2-7.228-.777-20.745-1.812-35.056-1.533-21.211-3.119-43.146-1.206-49.269,2.893-9.255,20.588-43.956,34.861-70.86.389-.732,1.297-1.009,2.028-.622.731.388,1.01,1.296.622,2.028-14.214,26.791-31.816,61.29-34.648,70.349-1.743,5.581-.108,28.201,1.335,48.158,1.041,14.388,2.023,27.978,1.818,35.355-.412,14.871-8.001,23.93-15.283,25.193-.619.107-1.231.16-1.836.16Z" fill="#071838" id="UXH_FY2bTybUE0-buV3kO" />
    </g>
    <g id="DOF8oIdYX45z0DHU4fdQ">
      <path d="M595.261,82.944c7.473-12.145,5.46-81.444,5.46-81.444h131.715s-21.021,73.105-24.301,95.786c-1.377,9.519.589,28.965.589,28.965" fill="#FFD9C0" id="F6-XY97C42PiU1_x5sqA" />
      <path d="M708.722,127.751c-.761,0-1.412-.576-1.49-1.349-.081-.801-1.969-19.739-.581-29.331,2.959-20.461,20.461-82.366,23.797-94.071h-128.187c.259,10.579,1.355,69.228-5.722,80.73-.435.707-1.358.924-2.063.491-.705-.434-.926-1.358-.491-2.063,5.725-9.305,5.929-56.8,5.237-80.614-.012-.405.141-.798.423-1.088.282-.291.671-.455,1.076-.455h131.715c.471,0,.915.221,1.198.598s.373.864.243,1.317c-.21.73-21.029,73.265-24.258,95.586-1.334,9.226.577,28.407.597,28.599.084.824-.518,1.56-1.342,1.643-.051.005-.102.008-.152.008Z" fill="#071838" id="fhLJGzFj6NUptjx8vh" />
    </g>
  </g></g></g><g transform="translate(30 68)" data-asset-index="2"><g clip-path="url(#assetClipPath_6_HpOsSx)" transform="scale(1.0015132238867164 1.0014313387316216)" data-asset-index="2"><linearGradient id="linearGradient_mVKgkZcC" gradientUnits="userSpaceOnUse" x1="509.634" x2="317.597" y1="-8.598" y2="343.237"><stop offset="0" stop-color="#F1FEFF" /><stop offset="1" stop-color="#E0EDFF" /></linearGradient><linearGradient id="linearGradient_Ah3RXNLL" gradientUnits="userSpaceOnUse" x1="284.58" x2="299.999" y1="88.608" y2="555.384"><stop offset="0" stop-color="#E3EFFF" /><stop offset="1" stop-color="#CCD9FF" /></linearGradient><path d="m205.503 570.361-204.003-276.219 396.237-292.642 225.478 305.296c7.907 10.706 5.638 25.795-5.068 33.701l-79.111 58.428c-5.503 4.064-12.474 5.598-19.174 4.219l-31.794-6.543c-3.35-.689-6.836.077-9.587 2.11l-239.276 176.718c-10.706 7.907-25.795 5.638-33.701-5.068z" fill="#CCD9FF" id="m31BluAxZuh11OsLvdLz3" /><path d="m224.941 581.648c-1.281 0-2.57-.096-3.861-.29-6.762-1.017-12.723-4.605-16.785-10.106l-204.001-276.219c-.492-.667-.351-1.605.315-2.098l396.236-292.641c.32-.237.721-.336 1.114-.277.394.059.747.272.983.592l225.478 305.296c4.062 5.5 5.739 12.253 4.722 19.014-1.017 6.762-4.605 12.723-10.105 16.785l-79.11 58.428c-5.838 4.311-13.259 5.944-20.368 4.482l-31.795-6.543c-2.931-.603-5.988.07-8.393 1.847l-239.276 176.718c-4.45 3.287-9.722 5.013-15.154 5.013zm-221.343-287.191 203.111 275.013c3.586 4.855 8.849 8.024 14.817 8.922 5.97.897 11.931-.583 16.787-4.169l239.276-176.718c3.089-2.282 7.02-3.146 10.78-2.372l31.795 6.543c6.271 1.291 12.825-.151 17.98-3.957l79.109-58.428c4.856-3.586 8.024-8.848 8.923-14.817.897-5.969-.583-11.931-4.17-16.786l-224.585-304.09z" fill="#011938" id="wwXxOAYWf34nbFw6gVLgz" /><path d="m258.737 590.508-217.776-281.924 378.796-291.949 217.776 281.924z" fill="url(#linearGradient_mVKgkZcC)" id="XTicz1IdKO0yqZr0p85SR" /><path d="m258.737 592.008c-.449 0-.893-.201-1.188-.583l-217.775-281.924c-.244-.315-.352-.714-.301-1.109s.257-.753.572-.996l378.796-291.949c.654-.506 1.597-.385 2.103.271l217.777 281.924c.243.315.351.714.3 1.109s-.256.753-.571.996l-378.797 291.949c-.272.21-.595.312-.915.312zm-215.671-283.152 215.941 279.55 376.42-290.118-215.941-279.55z" fill="#011938" id="cjbVvHll68yNto8JEk6wL" /><path d="m68.624 128.176h478.253v356.241h-478.253z" fill="#E0EDFF" transform="matrix(.80439637 -.59409298 .59409298 .80439637 -121.771 242.744)" id="fxmxvGg7TI2yLRxWWBeir" /><path d="m221.218 593.139c-.459 0-.914-.21-1.208-.609l-211.638-286.559c-.236-.32-.336-.721-.277-1.114s.272-.747.592-.983l384.706-284.126c.32-.237.721-.336 1.114-.277.394.059.747.272.983.592l211.639 286.559c.492.667.351 1.605-.316 2.098l-384.705 284.125c-.268.198-.581.293-.89.293zm-209.542-287.744 209.857 284.146 382.292-282.343-209.856-284.146z" fill="#011938" id="bsbu8treAxw2YWd0H8DzR" /><path d="m200.637 581.284-199.137-287.142 396.237-292.642 178.583 259.264c7.374 10.706 4.928 25.332-5.529 33.055l-79.74 58.892c-5.503 4.064-9.019 10.275-9.672 17.085l-3.098 32.312c-.326 3.405-2.085 6.51-4.836 8.543l-238.69 176.285c-10.932 8.074-26.374 5.516-34.119-5.652z" fill="url(#linearGradient_Ah3RXNLL)" id="CvDx6-imoGkrJO1yL52I4" /><path d="m220.507 593.157c-1.41 0-2.831-.116-4.251-.352-6.888-1.141-12.873-4.93-16.852-10.667l-199.136-287.141c-.462-.667-.311-1.58.341-2.062l396.236-292.641c.327-.242.736-.339 1.139-.273.401.067.757.294.988.628l178.583 259.264c7.879 11.438 5.299 26.861-5.874 35.112l-79.738 58.892c-5.152 3.805-8.459 9.645-9.07 16.021l-3.098 32.312c-.366 3.823-2.349 7.324-5.438 9.606l-238.689 176.285c-4.458 3.292-9.716 5.015-15.14 5.015zm-216.944-298.673 198.307 285.945c3.513 5.065 8.796 8.409 14.877 9.417 6.082 1.01 12.161-.454 17.119-4.116l238.689-176.285c2.406-1.776 3.949-4.502 4.234-7.479l3.098-32.312c.693-7.224 4.438-13.838 10.274-18.148l79.739-58.892c9.863-7.284 12.141-20.899 5.185-30.997l-177.705-257.989z" fill="#011938" id="MpYnShZ3SdZskrz9__NKQ" /></g></g><g transform="translate(382 470)" data-asset-index="3"><g clip-path="url(#assetClipPath_W4uLvhVu)" transform="scale(1.0011461885692454 1.0004376914900268)" data-asset-index="3"><path d="m32.711 171.13-13.451-22.582 226.789-137.31 14.823 26.607z" fill="#5C7DE5" id="ixjQmn5iPI3AwqFVp-tUJ" /><path d="m32.713 172.63c-.512 0-1.01-.262-1.29-.732l-13.451-22.583c-.422-.708-.193-1.624.512-2.051l226.789-137.309c.348-.211.767-.271 1.161-.167s.728.364.926.721l14.822 26.606c.397.714.151 1.614-.554 2.025l-228.16 133.285c-.238.14-.499.205-.755.205zm-11.402-23.571 11.928 20.026 225.607-131.794-13.351-23.965z" fill="#071838" id="jCm7B3igKkWDyopQaUr6Q" /><path d="m1.5 174.423 17.76-25.875 12.032-.17-5.297 11.477 12.602.819-5.886 10.456z" fill="#FFF0C2" id="hTo_-6yV2rvCFt1h-gVbg" /><g fill="#071838" id="D8yz3PuPTrW2WA-qglbMH"><path d="m1.499 175.923c-.524 0-1.016-.275-1.288-.732-.3-.503-.279-1.134.052-1.616l17.76-25.876c.275-.401.729-.645 1.216-.651l12.032-.169c.515-.007.998.252 1.279.683.281.433.32.979.104 1.446l-4.381 9.492 10.421.678c.515.033.976.329 1.222.782s.241 1.001-.012 1.45l-5.886 10.456c-.238.424-.667.705-1.15.757l-31.211 3.293c-.053.005-.105.008-.158.008zm18.558-25.886-15.48 22.554 27.207-2.87 4.336-7.704-10.222-.664c-.493-.032-.939-.306-1.192-.73s-.28-.946-.073-1.396l4.298-9.314-8.875.125z" fill="#071838" id="E38kZbawL7UsmRngv9QM3" /><path d="m1.5 174.423 7.941-11.569c-2.097 3.055 3.033 10.411 6.036 10.094l-13.977 1.475z" fill="#071838" id="nuPz9SGHDUrh2J3Vl_w-M" /><path d="m1.499 175.923c-.524 0-1.016-.275-1.288-.732-.3-.503-.279-1.134.052-1.616l7.939-11.565s.001-.003.002-.004c.469-.683 1.402-.857 2.085-.388s.857 1.402.388 2.085c-.519.758-.133 2.542.938 4.34 1.42 2.384 3.132 3.513 3.705 3.414.825-.076 1.562.511 1.649 1.335s-.511 1.562-1.334 1.649l-13.977 1.475c-.053.005-.105.008-.158.008zm6.545-8.383-3.467 5.051 6.206-.654c-.678-.742-1.274-1.567-1.746-2.358-.41-.689-.742-1.373-.993-2.038z" fill="#071838" id="hZJXisqPYKKwN39i1J3pt" /><path d="m248.928 9.495-12.372 7.491c-3.261 1.975-2.589 9.479 1.484 16.756 4.065 7.264 10.005 11.596 13.285 9.68l12.442-7.268-14.838-26.659z" fill="#071838" id="RqWuIKSiun64fnx-g0jHe" /><path d="m249.56 45.374c-.561 0-1.147-.082-1.75-.246-3.724-1.015-7.969-5.097-11.079-10.653-4.611-8.239-5.02-16.31-.952-18.772l12.372-7.491c.349-.21.768-.271 1.161-.167.394.104.728.365.926.721l14.839 26.659c.397.713.151 1.613-.554 2.024l-12.442 7.269c-.748.437-1.601.657-2.521.657zm-1.186-33.791-11.041 6.686c-2.198 1.331-1.802 7.918 2.017 14.741 3.058 5.464 6.849 8.569 9.25 9.224.809.22 1.471.184 1.969-.106l11.174-6.527-13.368-24.017z" fill="#071838" id="K-1zej2NjEF76YAJkkIAi" /></g><path d="m279.213 9.255c-4.136-7.482-13.409-9.977-20.648-5.594l-12.516 7.578c-3.299 1.997-2.645 9.558 1.443 16.883 4.08 7.311 10.062 11.662 13.379 9.724l12.586-7.352c7.279-4.252 9.885-13.77 5.756-21.238z" fill="#E9ECFF" id="KzVCF1NfhiyM37HDKc7mK" /><path d="m259.079 39.804c-.568 0-1.162-.083-1.772-.25-3.749-1.023-8.012-5.124-11.125-10.702-4.625-8.287-5.017-16.411-.91-18.897l12.516-7.577c3.84-2.325 8.316-2.978 12.604-1.831 4.327 1.154 7.926 3.989 10.133 7.982 4.509 8.157 1.678 18.592-6.312 23.259l-12.585 7.353c-.756.441-1.618.664-2.549.664zm7.144-36.807c-2.391 0-4.754.659-6.881 1.947l-12.516 7.577c-2.23 1.351-1.86 7.996 1.976 14.868 2.652 4.752 6.387 8.478 9.295 9.271.827.225 1.505.188 2.018-.11l12.585-7.353c6.596-3.853 8.928-12.474 5.2-19.218-1.809-3.272-4.749-5.593-8.281-6.535-1.123-.3-2.263-.448-3.396-.448z" fill="#071838" id="eRBL0H3xtmKXw2V01r3Fk" /></g></g><g transform="translate(1487 554)" data-asset-index="4"><g clip-path="url(#assetClipPath_DyBXKOiw)" transform="scale(1.0036427031976616 1.00050981391792)" data-asset-index="4"><linearGradient id="linearGradient_pPbTqYht" gradientUnits="userSpaceOnUse" x1="9.976" x2="188.878" y1="216.895" y2="252.892"><stop offset="0" stop-color="#FFCFE7" /><stop offset=".706" stop-color="#FF92C4" /></linearGradient><path d="m172.506 232.803c8.079 38.185-19.399 73.487-61.373 78.85-41.974 5.362-82.549-21.246-90.628-59.431s19.399-73.487 61.373-78.85c41.974-5.362 82.549 21.246 90.628 59.431z" fill="#C5C9E8" id="eL_4srQFrZts_kaOCRG_" /><path d="m100.382 313.836c-38.589 0-73.827-25.769-81.344-61.303-3.774-17.838-.062-35.813 10.452-50.615 11.6-16.331 30.625-27.277 52.198-30.033 42.661-5.451 84.062 21.738 92.285 60.608 3.774 17.838.062 35.813-10.452 50.615-11.6 16.331-30.625 27.277-52.198 30.033-3.661.468-7.318.695-10.941.695zm-7.729-139.648c-3.506 0-7.041.22-10.584.672-20.744 2.65-39.016 13.146-50.132 28.794-10.023 14.11-13.562 31.249-9.963 48.257 7.908 37.378 47.815 63.505 88.971 58.253 20.744-2.65 39.016-13.146 50.132-28.795 10.023-14.11 13.561-31.248 9.963-48.256-7.227-34.159-41.183-58.926-78.386-58.926z" fill="#071838" id="BokUaax2EuUhvIX0lAyv7" /><path d="m19.28 243.704-1.487-19.467c.232 3.035.669 6.1 1.321 9.182 8.709 41.164 52.449 69.848 97.697 64.067 26.133-3.339 47.053-17.443 58.387-36.695l-9.903 16.821c-10.514 17.858-29.92 30.942-54.162 34.039-41.974 5.362-82.549-21.246-90.628-59.431-.605-2.859-1.01-5.702-1.225-8.517" fill="#FFFFFF" id="whaWJriaOGS-bHGK65DAe" /><path d="m100.382 313.836c-38.589.002-73.827-25.769-81.344-61.303-.611-2.89-1.033-5.821-1.253-8.714l-1.484-19.426-.003-.041c-.063-.826.556-1.547 1.381-1.61.832-.065 1.547.556 1.61 1.381.228 2.981.662 6.005 1.293 8.986 8.537 40.353 51.615 68.565 96.04 62.89 24.814-3.17 45.693-16.28 57.285-35.968.42-.713 1.339-.952 2.054-.531.714.42.952 1.34.531 2.054-.006.011-.013.022-.02.033l-9.884 16.788c-11.209 19.04-31.352 31.711-55.265 34.766-3.661.468-7.318.695-10.941.695zm-79.514-69.159c.227 2.407.597 4.836 1.104 7.235 7.907 37.377 47.814 63.505 88.97 58.253 22.563-2.882 41.614-14.636 52.46-32.315-12.161 11.36-28.276 18.809-46.402 21.125-3.941.504-7.881.749-11.781.749-37.465.003-71.995-22.562-84.352-55.046z" fill="#071838" id="gSlVOpVU-gHpplqzTjlZE" /><path d="m223.422 133.961c11.144 52.677-26.761 101.376-84.664 108.774-57.903 7.397-113.877-29.309-125.021-81.986-11.145-52.676 26.761-101.376 84.664-108.773s113.877 29.309 125.021 81.986z" fill="#C5C9E8" id="jqHxuogEZQ8FVjGOQ463" /><path d="m123.923 245.178c-52.969.001-101.338-35.36-111.653-84.118-5.173-24.45-.085-49.088 14.326-69.375 15.91-22.399 42.013-37.415 71.615-41.196 58.557-7.482 115.39 29.829 126.679 83.163 5.173 24.45.085 49.088-14.326 69.376-15.91 22.399-42.013 37.415-71.615 41.196-5.029.643-10.049.955-15.025.955zm-10.663-192.647c-4.861 0-9.756.305-14.669.932-28.773 3.676-54.123 18.24-69.549 39.958-13.92 19.596-18.834 43.397-13.837 67.017 10.024 47.382 57.113 81.738 108.695 81.741 4.861 0 9.755-.305 14.669-.932 28.773-3.676 54.123-18.24 69.55-39.958 13.92-19.597 18.833-43.397 13.836-67.018-10.023-47.382-57.112-81.74-108.694-81.74z" fill="#071838" id="eUUcxpBIoQeTFmni6zESC" /><path d="m223.422 133.961c11.144 52.677-26.761 101.376-84.664 108.774-57.903 7.397-113.877-29.309-125.021-81.986-11.145-52.676 26.761-101.376 84.664-108.773s113.877 29.309 125.021 81.986z" fill="#C5C9E8" id="ucmq4SQZKWcFh1xDeA4Sp" /><path d="m123.923 245.178c-52.969.001-101.338-35.36-111.653-84.118-5.173-24.45-.085-49.088 14.326-69.375 15.91-22.399 42.013-37.415 71.615-41.196 58.557-7.482 115.39 29.829 126.679 83.163 5.173 24.45.085 49.088-14.326 69.376-15.91 22.399-42.013 37.415-71.615 41.196-5.029.643-10.049.955-15.025.955zm-10.663-192.647c-4.861 0-9.756.305-14.669.932-28.773 3.676-54.123 18.24-69.549 39.958-13.92 19.596-18.834 43.397-13.837 67.017 10.024 47.382 57.113 81.738 108.695 81.741 4.861 0 9.755-.305 14.669-.932 28.773-3.676 54.123-18.24 69.55-39.958 13.92-19.597 18.833-43.397 13.836-67.018-10.023-47.382-57.112-81.74-108.694-81.74z" fill="#071838" id="tKsFB8ntZ5cbUu5-TM9T" /><path d="m14.029 224.303-5.754-75.237c.307 4.019.886 8.076 1.75 12.157 11.539 54.542 69.495 92.547 129.448 84.888 34.623-4.423 62.34-23.108 77.358-48.612l-38.282 65.01c-11.847 20.119-33.712 34.859-61.024 38.348-47.294 6.042-93.012-23.939-102.115-66.964-.681-3.219-1.138-6.42-1.38-9.59" fill="url(#linearGradient_pPbTqYht)" id="cj9oRjaPy1VHvKCyf3gf-" /><g fill="#071838" id="QBbOzPFWqNI0jlkd4J6p"><path d="m105.409 303.127c-43.393 0-83.015-28.972-91.467-68.923-.686-3.24-1.16-6.533-1.409-9.787l-5.754-75.236s0 0 0 0c-.063-.826.555-1.547 1.381-1.61.821-.067 1.547.556 1.61 1.381l.002.03c.304 3.962.882 7.976 1.719 11.931 11.362 53.708 68.688 91.258 127.791 83.711 33.026-4.219 60.82-21.673 76.255-47.886.422-.713 1.344-.95 2.054-.531.714.42.952 1.34.532 2.054l-38.283 65.01c-12.601 21.398-35.245 35.64-62.126 39.074-4.117.526-8.232.782-12.305.782zm-89.884-78.939c.239 3.122.694 6.283 1.352 9.394 8.931 42.211 53.996 71.725 100.458 65.787 25.955-3.316 47.795-17.028 59.921-37.621l26.231-44.545c-16.308 16.408-38.588 27.173-63.825 30.397-5.205.665-10.401.988-15.551.988-50.746.001-97.413-31.358-112.537-76.044l3.95 51.645z" fill="#071838" id="ZZWNo09dH6bHsKUqCxReB" /><path d="m227.134 133.487c11.539 54.542-27.708 104.965-87.662 112.625-59.953 7.659-117.909-30.347-129.448-84.888-11.538-54.542 27.709-104.966 87.662-112.625s117.909 30.347 129.448 84.888zm-3.712.474c-11.144-52.677-67.118-89.383-125.021-81.986-57.903 7.398-95.809 56.098-84.664 108.774 11.144 52.677 67.118 89.383 125.021 81.986s95.808-56.097 84.664-108.774" fill="#071838" id="uMq7U_6DYRtl3xDXVj9wK" /><path d="m124.112 248.588c-54.82.002-104.879-36.594-115.554-87.054-5.353-25.301-.088-50.797 14.825-71.791 16.465-23.18 43.479-38.719 74.114-42.632 60.611-7.747 119.427 30.865 131.105 86.065 5.353 25.301.088 50.797-14.825 71.791-16.465 23.18-43.479 38.719-74.114 42.632-5.205.665-10.401.988-15.551.988zm-11.041-199.467c-5.035 0-10.105.315-15.195.965-29.806 3.808-56.067 18.896-72.048 41.394-14.421 20.303-19.513 44.961-14.336 69.433 10.384 49.083 59.164 84.673 112.596 84.676 5.035 0 10.104-.315 15.194-.965 29.806-3.808 56.067-18.896 72.048-41.394 14.422-20.303 19.513-44.961 14.335-69.433-10.383-49.083-59.162-84.676-112.595-84.676zm10.852 196.057c-52.969.001-101.338-35.36-111.653-84.118-5.173-24.45-.085-49.088 14.326-69.375 15.91-22.399 42.013-37.415 71.615-41.196 58.557-7.482 115.39 29.829 126.679 83.163 5.173 24.45.085 49.088-14.326 69.376-15.91 22.399-42.013 37.415-71.615 41.196-5.029.643-10.049.955-15.025.955zm-10.663-192.647c-4.861 0-9.756.305-14.669.932-28.773 3.676-54.123 18.24-69.549 39.958-13.92 19.596-18.834 43.397-13.837 67.017 10.024 47.382 57.113 81.738 108.695 81.741 4.861 0 9.755-.305 14.669-.932 28.773-3.676 54.123-18.24 69.55-39.958 13.92-19.597 18.833-43.397 13.836-67.018-10.023-47.382-57.112-81.74-108.694-81.74z" fill="#071838" id="UZBYo7CN7mS0Fm-kkbl82" /></g><path d="m12.046 148.999-2.119-27.736c.321 4.197.925 8.435 1.827 12.697 12.042 56.921 72.526 96.584 135.094 88.591 36.136-4.617 65.065-24.12 80.737-50.741l-14.111 23.967c-14.504 24.636-41.275 42.685-74.717 46.957-57.903 7.397-113.877-29.309-125.021-81.986-.834-3.944-1.394-7.866-1.691-11.75" fill="#FFFFFF" id="lPZzgCuP3rcQlEzfzjHDZ" /><path d="m123.923 245.178c-52.969 0-101.338-35.36-111.653-84.118-.837-3.955-1.415-7.974-1.719-11.946l-2.118-27.721s0-.01 0-.015c-.063-.826.555-1.547 1.381-1.61.84-.065 1.547.556 1.61 1.381.317 4.154.923 8.36 1.799 12.5 11.865 56.084 71.722 95.295 133.437 87.414 34.472-4.404 63.483-22.615 79.606-49.967l.027-.047c.422-.713 1.343-.95 2.054-.531.714.42.952 1.339.532 2.054l-14.11 23.967c-15.374 26.112-43.009 43.492-75.82 47.684-5.029.643-10.049.955-15.025.955zm-110.381-96.293c.293 3.841.853 7.728 1.662 11.554 10.969 51.847 66.309 88.095 123.364 80.809 31.884-4.074 58.716-20.924 73.614-46.231l1.803-3.062c-17.042 17.328-40.428 28.696-66.946 32.084-5.429.694-10.85 1.031-16.221 1.031-53.127.002-101.964-32.944-117.554-79.827l.278 3.642z" fill="#071838" id="zQ4qm6MiBhi9tsquBsuSY" /><path d="m238.334 105.013c12.042 56.921-28.917 109.544-91.485 117.537s-123.052-31.67-135.094-88.591c-12.043-56.92 28.917-109.544 91.485-117.537s123.052 31.67 135.094 88.591z" fill="#C5C9E8" id="QyRbljtUj6SdbQGqF_cdU" /><path d="m130.818 225.069c-57.182.002-109.396-38.168-120.531-90.799-5.582-26.386-.092-52.976 15.46-74.87 17.173-24.176 45.349-40.383 77.303-44.465 63.218-8.082 124.565 32.198 136.751 89.768 5.582 26.386.092 52.975-15.46 74.87-17.173 24.177-45.349 40.384-77.303 44.466-5.429.694-10.85 1.031-16.221 1.031zm-11.522-208.167c-5.258 0-10.551.33-15.866 1.008-31.125 3.977-58.548 19.732-75.237 43.227-15.061 21.203-20.378 46.955-14.971 72.512 10.843 51.254 61.779 88.418 117.572 88.422 5.258 0 10.55-.33 15.865-1.008 31.125-3.977 58.548-19.732 75.237-43.228 15.061-21.203 20.377-46.955 14.97-72.511-10.843-51.254-61.777-88.422-117.57-88.422z" fill="#071838" id="Hdj2lJ1qahAAoFlbII4Rx" /><path d="m243.968 93.538c12.368 58.46-29.699 112.506-93.959 120.715s-126.379-32.526-138.746-90.986c-12.368-58.46 29.699-112.506 93.958-120.715 64.26-8.209 126.379 32.527 138.747 90.986z" fill="#939ED8" id="diek8IXM5aRiOKtVgCxS" /><path d="m133.544 216.8c-58.709 0-112.317-39.187-123.75-93.222-5.73-27.089-.094-54.386 15.873-76.863 17.631-24.821 46.558-41.46 79.365-45.651 64.911-8.292 127.898 33.052 140.405 92.164 5.73 27.089.094 54.386-15.873 76.863-17.631 24.82-46.558 41.459-79.364 45.65-5.574.712-11.14 1.059-16.655 1.059zm-11.834-213.796c-5.401 0-10.838.338-16.299 1.036-31.978 4.085-60.152 20.273-77.298 44.413-15.476 21.786-20.938 48.246-15.383 74.504 12.19 57.621 73.687 97.904 137.09 89.809 31.977-4.085 60.151-20.273 77.298-44.412 15.474-21.785 20.937-48.247 15.383-74.505-11.141-52.659-63.471-90.845-120.791-90.845z" fill="#071838" id="p07S_puTD_V5Iaam4t" /><path d="m23.92 50.964 6.692-8.292c-17.785 22.036-25.666 50.74-19.349 80.595 12.368 58.46 74.487 99.196 138.747 90.986s106.327-62.256 93.959-120.715l2.371 10.452c12.893 60.943-30.961 117.285-97.95 125.843s-131.748-33.908-144.641-94.851c-6.585-31.124 1.631-61.047 20.171-84.019" fill="#6B79B2" id="poZewJF3XC5sGNSWEA8cC" /><path d="m131.224 232.424c-61.173 0-117.031-40.829-128.943-97.131-6.476-30.608.794-60.891 20.47-85.271l6.678-8.274c.005-.006.01-.012.014-.018.519-.645 1.464-.746 2.109-.226.645.521.746 1.465.226 2.109-18.308 22.687-25.073 50.865-19.048 79.344 12.19 57.621 73.687 97.904 137.09 89.809 31.977-4.085 60.151-20.273 77.298-44.412 15.475-21.786 20.938-48.246 15.383-74.505-.17-.806.342-1.599 1.146-1.776.811-.175 1.602.331 1.784 1.133l2.371 10.453c5.976 28.243.103 56.681-16.53 80.099-18.37 25.861-48.51 43.197-82.693 47.564-5.809.742-11.608 1.103-17.355 1.103zm-117.914-162.318c-9.964 19.776-12.85 42.082-8.094 64.566 11.62 54.924 66.201 94.75 125.985 94.754 5.634 0 11.304-.353 16.999-1.08 33.354-4.261 62.741-21.146 80.626-46.326 12.232-17.221 18.468-37.24 18.249-57.847-1.744 16.354-7.662 32.052-17.512 45.917-17.631 24.82-46.558 41.459-79.364 45.65-5.574.712-11.14 1.059-16.655 1.059-58.709.002-112.317-39.187-123.749-93.222-3.89-18.383-2.613-36.644 3.515-53.472z" fill="#071838" id="JvGEcIrh38aJ_Ty375X-8" /><path d="m37.861 52.215 4.693-6.348c-13.908 18.811-19.849 42.653-14.613 67.401 10.795 51.025 65.014 86.58 121.101 79.415 55.202-7.052 91.64-52.858 82.485-102.949l1.42 7.767c9.451 51.711-28.166 98.999-85.154 106.279-57.902 7.397-113.875-29.308-125.019-81.984-5.405-25.549.728-50.163 15.086-69.582" fill="#071838" id="LG_7dipFf-etwbZ8UZQMD" /><path d="m132.958 206.223c-52.968.001-101.335-35.359-111.651-84.116-5.306-25.082.146-50.222 15.348-70.784l4.693-6.348c.492-.667 1.432-.807 2.098-.314.667.492.807 1.432.314 2.098-14.218 19.23-19.314 42.741-14.352 66.199 10.62 50.198 64.195 85.293 119.444 78.238 27.779-3.549 51.447-16.946 66.643-37.723 13.495-18.452 18.665-40.992 14.557-63.469-.148-.815.391-1.596 1.206-1.745.806-.15 1.596.39 1.745 1.206l1.42 7.767c4.393 24.035-1.135 48.139-15.565 67.869-16.188 22.132-41.357 36.397-70.874 40.167-5.029.643-10.049.955-15.025.955zm-106.364-129.211c-4.698 14.114-5.561 29.304-2.352 44.474 10.024 47.381 57.112 81.736 108.692 81.739 4.861 0 9.755-.305 14.669-.932 28.691-3.666 53.136-17.503 68.832-38.963 8.516-11.643 13.822-24.862 15.694-38.68-2.597 10.876-7.373 21.241-14.213 30.594-15.688 21.449-40.08 35.273-68.685 38.928-4.874.623-9.738.925-14.56.925-51.33.001-98.202-34.267-108.198-81.518-2.618-12.372-2.535-24.758.12-36.566z" fill="#071838" id="fAkEuTvybhTe-G96h0ZuZ" /><path d="m231.052 87.32c10.795 51.025-25.922 98.198-82.009 105.363s-110.306-28.39-121.101-79.415c-10.796-51.025 25.921-98.197 82.008-105.363 56.087-7.165 110.306 28.39 121.101 79.415z" fill="#939ED8" id="aMiGUh1agWzF9f-Y_QO9i" /><path d="m134.672 195.096c-51.33.001-98.202-34.267-108.198-81.518-5.014-23.696-.083-47.575 13.884-67.237 15.419-21.707 40.716-36.259 69.403-39.924 56.75-7.245 111.823 28.903 122.759 80.592 5.013 23.696.082 47.575-13.885 67.237-15.419 21.707-40.715 36.259-69.402 39.924-4.874.623-9.738.925-14.56.925zm-10.328-186.605c-4.707 0-9.446.295-14.204.902-27.858 3.559-52.401 17.66-67.336 38.686-13.476 18.971-18.233 42.012-13.396 64.879 9.706 45.875 55.297 79.138 105.24 79.141 4.707 0 9.446-.295 14.204-.903 27.858-3.559 52.401-17.66 67.337-38.686 13.476-18.971 18.232-42.012 13.395-64.879-9.705-45.875-55.297-79.14-105.24-79.14z" fill="#071838" id="Gzk7i-PRR1FEw5GItmF0p" /><path d="m134.599 172.455c-41.344 0-78.303-27.326-85.969-63.564-3.688-17.434-.069-34.99 10.19-49.435 11.767-16.565 31.38-27.71 53.811-30.575 3.886-.496 7.844-.748 11.761-.748 41.346 0 78.305 27.326 85.971 63.563 3.688 17.435.069 34.991-10.191 49.436-11.767 16.565-31.38 27.709-53.81 30.574-3.892.497-7.85.749-11.763.749z" fill="#6B79B2" id="E8qDJ0VR8fedHlQ5oINC" /><path d="m134.599 173.956c-42.038 0-79.627-27.838-87.437-64.754-3.776-17.849-.071-35.824 10.435-50.614 12.009-16.906 31.999-28.276 54.844-31.194 3.951-.504 7.972-.76 11.951-.76 42.039 0 79.629 27.838 87.439 64.753 3.776 17.85.069 35.825-10.437 50.615-12.009 16.906-31.998 28.275-54.842 31.193-3.954.505-7.976.761-11.953.761zm-10.207-144.323c-3.853 0-7.746.248-11.571.736-22.016 2.812-41.253 13.731-52.778 29.956-10.014 14.099-13.546 31.236-9.946 48.255 7.522 35.56 43.851 62.375 84.502 62.375 3.851 0 7.745-.248 11.573-.737 22.015-2.812 41.252-13.73 52.777-29.955 10.015-14.099 13.547-31.236 9.946-48.256-7.522-35.559-43.851-62.374-84.503-62.374z" fill="#071838" id="LHY5USiVzRjweozaaoPwC" /></g></g></svg>