<?xml version='1.0' encoding='utf-8'?>
<svg xmlns="http://www.w3.org/2000/svg" fill="none" viewBox="0 0 2300 2000" width="2300" height="2000"><defs><clipPath id="assetClipPath_Fm_kDpPZ"><path d="m0 0 h 415.992 v 451.955 h -415.992 v -451.955 z" id="path_x66_KSTy" fill="#ffffff" /></clipPath><clipPath id="assetClipPath_w2anwFYH"><path d="m0 0 h 631.007 v 478.944 h -631.007 v -478.944 z" id="path_uGXk1jxr" fill="#ffffff" /></clipPath><clipPath id="assetClipPath_CW4rEwkM"><path d="m0 0 h 1017.583 v 1100.441 h -1017.583 v -1100.441 z" id="path_nEPZNSrb" fill="#ffffff" /></clipPath><clipPath id="assetClipPath_cKGzWeKC"><path d="m0 0 h 228.26 v 221.242 h -228.26 v -221.242 z" id="path_CE-gPEo6" fill="#ffffff" /></clipPath><clipPath id="assetClipPath_RaUm3dVq"><path d="m0 0 h 155.222 v 179.859 h -155.222 v -179.859 z" id="path_aDQ-Dzpw" fill="#ffffff" /></clipPath><clipPath id="assetClipPath_rBxpfx3M"><path d="m0 0 h 271.389 v 219.456 h -271.389 v -219.456 z" id="path_XWDcfvXT" fill="#ffffff" /></clipPath><clipPath id="assetClipPath_N_EfJGNi"><path d="m0 0 h 319.453 v 315.277 h -319.453 v -315.277 z" id="path_Tt1mvehF" fill="#ffffff" /></clipPath><clipPath id="assetClipPath_fIeJCeQ_"><path d="m0 0 h 306.535 v 199.61 h -306.535 v -199.61 z" id="path_YQ1MWogn" fill="#ffffff" /></clipPath><clipPath id="assetClipPath_LQWeD_rY"><path d="m0 0 h 228.013 v 213.552 h -228.013 v -213.552 z" id="path_B1cw1Ntw" fill="#ffffff" /></clipPath><clipPath id="assetClipPath_etZmI4zl"><path d="m0 0 h 304.931 v 226.468 h -304.931 v -226.468 z" id="path_KUyR5hi6" fill="#ffffff" /></clipPath></defs><g transform="translate(1537 867)" data-asset-index="0"><g clip-path="url(#assetClipPath_Fm_kDpPZ)" transform="scale(1.0024231235216061 1.000099567434811)" data-asset-index="0"><defs>
    <linearGradient id="linearGradient_uhwm7pvg" x1="40.892" y1="39.282" x2="343.849" y2="471.792" gradientUnits="userSpaceOnUse">
      <stop offset=".012" stop-color="#91FFEF" />
      <stop offset="1" stop-color="#79EED9" />
    </linearGradient>
  </defs><g id="nICav6j0QJ4ZCg9It9tMe">
    <polygon points="372.934 450.455 1.5 445.533 55.369 4.142 311.714 1.5 414.492 110.156 372.934 450.455" fill="url(#linearGradient_uhwm7pvg)" id="p2OA58RtN1pg7olRJvb3y" />
    <path d="M372.935,451.955h-.021L1.48,447.033c-.426-.006-.829-.192-1.109-.513s-.411-.746-.359-1.168L53.88,3.96c.091-.747.721-1.311,1.473-1.318L311.699,0c.424-.008.818.165,1.105.469l102.777,108.656c.307.325.453.769.399,1.212l-41.558,340.298c-.092.753-.731,1.318-1.488,1.318ZM3.192,444.055l368.417,4.882,41.309-338.263L311.075,3.007,56.698,5.628,3.192,444.055Z" fill="#002619" id="zYt2uPRwcwT7rQewICwV" />
  </g><g id="kEzPLLHzZFZNGxQPj3S">
    <polygon points="298.383 110.687 414.492 110.156 311.714 1.5 298.383 110.687" fill="#52C9B5" id="nhK5Fh7lYhwjHJleofLaJ" />
    <path d="M298.383,112.187c-.428,0-.836-.183-1.121-.503-.287-.322-.42-.751-.368-1.179L310.226,1.318c.07-.577.468-1.062,1.02-1.243.551-.183,1.16-.029,1.559.394l102.777,108.656c.411.435.524,1.071.289,1.621-.235.55-.774.907-1.372.91l-116.109.53h-.007ZM312.817,4.848l-12.739,104.331,110.945-.507L312.817,4.848Z" fill="#002619" id="DcWw6SSSKY_Rz9D97jFbM" />
  </g><g id="nTY8ufmWaEjeJ-W5NncTD">
    <g id="w7qoF5EuQAC2gHYEQ7ZVN">
      <polygon points="338.564 221.041 89.307 220.733 91.945 199.122 341.238 199.143 338.564 221.041" fill="#A0FFFE" id="CnCbBMwH2_IARoPXR4CTV" />
      <path d="M338.564,222.541h-.002l-249.256-.307c-.429,0-.837-.185-1.122-.506-.285-.321-.417-.75-.365-1.175l2.638-21.611c.092-.752.73-1.318,1.489-1.318h0l249.292.021c.43,0,.838.184,1.123.506.285.321.418.75.366,1.176l-2.674,21.897c-.092.753-.731,1.318-1.489,1.318ZM91.001,219.235l246.235.304,2.307-18.896-246.27-.021-2.272,18.613Z" fill="#002619" id="lYWlzauubDQ_Ceh3_nbLM" />
    </g>
    <g id="sT8jpr9P3VxKlQRakOYGH">
      <polygon points="330.468 287.34 81.321 286.166 83.959 264.555 333.142 265.443 330.468 287.34" fill="#A0FFFE" id="d0Tt-FKD1JVBvgO7vLoy" />
      <path d="M330.468,288.84h-.007l-249.147-1.175c-.429-.002-.835-.187-1.119-.508s-.416-.749-.363-1.173l2.638-21.61c.092-.753.731-1.318,1.489-1.318h.005l249.183.888c.429.001.836.187,1.12.508.283.321.416.749.364,1.174l-2.674,21.897c-.092.753-.731,1.318-1.489,1.318ZM83.014,284.673l246.126,1.161,2.308-18.896-246.162-.877-2.272,18.613Z" fill="#002619" id="Up9me2xWMrbaUwz3Se0ge" />
    </g>
    <g id="lqqdArbgobtKxFRfDze26">
      <polygon points="230.126 352.882 73.335 351.596 75.972 329.986 232.786 331.092 230.126 352.882" fill="#A0FFFE" id="q4fsG765A4x_lbDTP5Hqj" />
      <path d="M230.126,354.382h-.012l-156.791-1.286c-.427-.003-.833-.189-1.115-.51-.282-.321-.414-.747-.362-1.171l2.638-21.61c.092-.753.731-1.318,1.489-1.318h.011l156.813,1.105c.427.003.833.188,1.116.51.283.321.414.748.362,1.172l-2.66,21.79c-.092.753-.731,1.318-1.489,1.318ZM75.027,350.11l153.772,1.261,2.294-18.791-153.794-1.084-2.272,18.614Z" fill="#002619" id="vZG6fZmxiHikeJG2KNDb" />
    </g>
  </g></g></g><g transform="translate(200 388)" data-asset-index="1"><g clip-path="url(#assetClipPath_w2anwFYH)" transform="scale(1.0015736750939372 1.000116923899245)" data-asset-index="1"><defs>
    <linearGradient id="linearGradient_pZN65X0N" x1="64.364" y1="27.367" x2="573.672" y2="452.549" gradientUnits="userSpaceOnUse">
      <stop offset="0" stop-color="#A6B2DD" />
      <stop offset="1" stop-color="#66749B" />
    </linearGradient>
  </defs><g id="oiN92dsBygce3Wq693ySg">
    <path d="M524.367,477.444l-465.532-1.077c-11.159-.026-21.038-3.735-28.732-10.028-4.541-3.714-19.196-22.031-19.196-22.031-4.722-8.813,1.228-11.084,2.629-22.594L54.818,82.494c3.666-30.122,29.927-55.097,58.744-55.785l467.065-11.146c7.967-.19,18.689-1.762,25.161,1.173,0,0,10.007,11.423,14.585,17.725,6.999,9.635,10.398,22.246,8.704,36.153l-42.708,350.597c-3.792,31.128-31.594,56.304-62.002,56.234Z" fill="#3E4D72" id="T8OJ-PfaZiOzFbSg7yU7" />
    <path d="M524.494,478.944h-.13l-465.532-1.077c-11.155-.026-21.417-3.61-29.678-10.366-4.611-3.771-18.816-21.502-19.418-22.255-.057-.071-.108-.148-.151-.229-3.246-6.06-1.898-9.488-.192-13.829,1.004-2.555,2.142-5.45,2.654-9.656L53.329,82.312c3.746-30.784,30.751-56.4,60.197-57.103l467.065-11.146c1.75-.042,3.623-.151,5.607-.266,6.957-.404,14.842-.862,20.209,1.572.194.088.368.217.509.378.41.468,10.104,11.547,14.67,17.832,7.463,10.273,10.652,23.49,8.979,37.216l-42.708,350.596c-3.869,31.762-32.279,57.553-63.364,57.553ZM524.371,475.944h.124c29.622,0,56.694-24.607,60.385-54.916l42.708-350.596c1.58-12.971-1.413-25.433-8.429-35.09-4.113-5.661-12.791-15.658-14.281-17.367-4.708-1.984-12.031-1.559-18.507-1.183-2.01.117-3.909.227-5.709.27L113.597,28.208c-28.017.668-53.717,25.102-57.291,54.466L15.025,421.896c-.558,4.585-1.823,7.804-2.841,10.391-1.575,4.006-2.531,6.437-.019,11.194,1.218,1.517,14.698,18.271,18.888,21.698,7.72,6.314,17.329,9.664,27.786,9.688l465.532,1.077Z" fill="#011938" id="F8z20Closek3_AJOfdKuG" />
  </g><g id="lnGNW3Lc-A5ck1UpxMSr">
    <path d="M512.76,463.397l-465.532-1.077c-28.722-.066-48.964-24.535-45.299-54.653L43.21,68.447c3.666-30.122,29.927-55.097,58.744-55.785L569.019,1.516c30.508-.728,52.243,23.918,48.451,55.051l-42.708,350.597c-3.792,31.128-31.594,56.304-62.002,56.234Z" fill="url(#linearGradient_pZN65X0N)" id="Y2S_KP0r-wsS0R54YDIo0" />
    <path d="M512.887,464.897h-.13l-465.532-1.077c-13.77-.032-26.196-5.53-34.988-15.48-9.504-10.756-13.694-25.265-11.797-40.854L41.721,68.266c3.746-30.785,30.751-56.401,60.197-57.104L568.983.016c14.94-.349,28.359,5.175,37.792,15.575,9.776,10.778,14.103,25.394,12.183,41.157l-42.708,350.597c-3.869,31.762-32.278,57.553-63.364,57.553ZM512.764,461.897h.124c29.621,0,56.694-24.607,60.385-54.915l42.708-350.597c1.813-14.885-2.245-28.656-11.427-38.779-8.839-9.745-21.44-14.934-35.499-14.591L101.99,14.161c-28.016.668-53.717,25.102-57.291,54.467L3.418,407.849c-1.792,14.726,2.138,28.4,11.067,38.505,8.216,9.299,19.846,14.436,32.747,14.466l465.532,1.077Z" fill="#011938" id="udVadFv7IPyY78wbfsbjv" />
  </g><g id="KMg6Jyx23D_7mDm5Rnq1">
    <polygon points="373.417 234.769 255.211 301.527 271.178 170.382 373.417 234.769" fill="#CFDCFF" id="qhwuhZvqa8Q-5If6xd-X" />
    <path d="M255.211,303.027c-.291,0-.582-.084-.833-.253-.47-.314-.724-.867-.656-1.428l15.966-131.146c.062-.51.381-.953.845-1.173.464-.22,1.009-.188,1.443.085l102.24,64.387c.447.281.713.777.7,1.305-.013.528-.302,1.01-.762,1.27l-118.206,66.759c-.229.129-.484.194-.738.194ZM272.381,172.912l-15.322,125.849,113.432-64.063-98.11-61.786Z" fill="#011938" id="l1bKDWVD4nIlBbv-PNI5R" />
  </g></g></g><g transform="translate(518 488)" data-asset-index="2"><g clip-path="url(#assetClipPath_CW4rEwkM)" transform="scale(1.001392515401692 1.0014167047574563)" data-asset-index="2"><defs>
    <linearGradient id="linearGradient_-f6nX40v" x1="121.597" y1="1002.994" x2="998.576" y2="747.873" gradientUnits="userSpaceOnUse">
      <stop offset="0" stop-color="#939ED8" />
      <stop offset="1" stop-color="#C5C9E8" />
    </linearGradient>
    <linearGradient id="linearGradient_P8p4jNzO" x1="49.85" y1="96.146" x2="819.2" y2="819.655" gradientUnits="userSpaceOnUse">
      <stop offset="0" stop-color="#E9ECFF" />
      <stop offset="1" stop-color="#9FBAFC" />
    </linearGradient>
    <linearGradient id="linearGradient_jaZKjPm_" x1="236.363" y1="782.229" x2="1067.501" y2="1131.027" gradientUnits="userSpaceOnUse">
      <stop offset="0" stop-color="#E9ECFF" />
      <stop offset="1" stop-color="#C5C9E8" />
    </linearGradient>
  </defs><g id="l5AM9RS4lK_uKs-xoxN8D">
    <path d="M52.091,717.326L129.51,81.68c3.771-30.961,31.383-56.201,61.769-56.377l771.318-4.456c11.737-.068,15.875-8.188,24.451-2.551,0,0,16.57,19.534,20.218,24.87,6.804,9.955,10.056,22.528,8.386,36.221l-81.734,670.056-881.826-32.117Z" fill="#5C7DE5" id="DyEKMFNqX8nVQX8f2L1LK" />
    <path d="M933.918,750.943c-.019,0-.037,0-.056,0l-881.826-32.116c-.419-.015-.813-.206-1.086-.525-.272-.319-.398-.738-.348-1.155L128.021,81.499c3.853-31.634,32.226-57.517,63.249-57.695l771.317-4.456c4.605-.027,8.021-1.39,11.034-2.593,4.419-1.764,8.593-3.43,14.25.289.12.079.228.174.32.283.679.8,16.663,19.654,20.312,24.994,7.317,10.706,10.303,23.586,8.636,37.249l-81.734,670.055c-.092.755-.733,1.318-1.488,1.318ZM53.777,715.887l878.817,32.006,81.567-668.688c1.577-12.929-1.236-25.099-8.135-35.193-3.385-4.952-18.354-22.656-19.981-24.578-4.25-2.713-7.072-1.587-11.312.106-3.26,1.301-6.956,2.777-12.128,2.807l-771.317,4.456c-29.567.17-56.612,24.869-60.288,55.058L53.777,715.887Z" fill="#071838" id="OTg9M0EMTFg5MdIAJUS0" />
  </g><g id="ozG3hyVXwYAPHakE2A4Ot">
    <path d="M52.091,717.326l-34.329,281.858c-1.035,8.496-7.571,13.151-5.161,20.54,0,0,12.401,15.122,16.293,19.932,8.629,10.665,21.499,17.663,36.58,18.465l765.639,40.732c32.975,1.754,63.009-23.172,66.974-55.681l35.829-293.73-15.83-19.347-865.996-12.77Z" fill="url(#linearGradient_-f6nX40v)" id="M0Zl8dKRW3sShZa_NLfvu" />
    <path d="M834.383,1100.441c-1.113,0-2.229-.029-3.35-.089l-765.64-40.732c-15.013-.799-28.39-7.554-37.667-19.02-3.844-4.751-16.163-19.773-16.287-19.924-.118-.144-.208-.309-.266-.486-1.592-4.879.293-8.778,2.115-12.549,1.269-2.625,2.581-5.339,2.983-8.638l34.329-281.857c.092-.754.731-1.319,1.488-1.319h.022l865.996,12.77c.442.007.859.208,1.139.55l15.83,19.347c.259.316.377.725.328,1.131l-35.829,293.73c-3.918,32.121-32.789,57.086-65.193,57.086ZM13.946,1018.999c1.563,1.906,12.523,15.276,16.114,19.714,8.735,10.796,21.34,17.157,35.494,17.911l765.64,40.732c32.204,1.714,61.54-22.675,65.406-54.365l35.752-293.094-14.983-18.311-863.951-12.74-34.166,280.519c-.462,3.794-1.948,6.869-3.26,9.582-1.736,3.591-3.115,6.446-2.045,10.053Z" fill="#071838" id="gEgCCgi3qO8TtcgS14bOr" />
  </g><g id="fV_7AA3Y8LUdCuGPeEfEX">
    <path d="M815.283,1079.507l-765.639-40.732c-30.162-1.605-51.481-27.99-47.712-58.938L113.68,62.334c3.771-30.961,31.383-56.201,61.769-56.377L946.766,1.501c33.22-.192,57.022,26.017,53.055,58.54l-117.564,963.785c-3.965,32.509-33.999,57.436-66.974,55.681Z" fill="url(#linearGradient_P8p4jNzO)" id="MYQ3Lls4cH8zkI09fNTAF" />
    <path d="M818.553,1081.094c-1.113,0-2.229-.029-3.35-.089l-765.639-40.732c-14.658-.78-27.825-7.279-37.074-18.301-9.687-11.542-13.965-26.57-12.047-42.316L112.191,62.152c3.853-31.634,32.226-57.516,63.249-57.695L946.757,0c.125,0,.251,0,.375,0,16.539,0,31.272,6.325,41.525,17.837,10.108,11.351,14.602,26.403,12.652,42.385l-117.563,963.785c-3.918,32.121-32.789,57.086-65.193,57.086ZM947.131,3c-.119,0-.237,0-.357,0L175.457,7.457c-29.566.17-56.611,24.87-60.288,55.058L3.421,980.018c-1.816,14.913,2.221,29.127,11.367,40.025,8.709,10.378,21.116,16.498,34.935,17.233l765.639,40.732c32.211,1.723,61.54-22.675,65.406-54.365L998.332,59.859c1.843-15.114-2.388-29.329-11.915-40.027-9.674-10.862-23.615-16.833-39.286-16.833Z" fill="#071838" id="B6b-5aydn7dJQdayO_83p" />
  </g><g id="ijhBXYDuiJ2wFwrJ-WhWJ">
    <path d="M815.283,1079.507l-765.639-40.732c-30.162-1.605-51.481-27.99-47.712-58.938l34.057-279.627,882.098,29.886-35.829,293.73c-3.965,32.509-33.999,57.436-66.974,55.681Z" fill="url(#linearGradient_jaZKjPm_)" id="hua9BB0tiAlzARdSoJSq_" />
    <path d="M818.553,1081.094c-1.113,0-2.229-.029-3.35-.089l-765.639-40.732c-14.658-.78-27.825-7.279-37.074-18.301-9.687-11.542-13.965-26.57-12.047-42.316l34.057-279.626c.094-.772.761-1.359,1.54-1.318l882.098,29.885c.42.014.815.204,1.089.524.273.319.4.739.349,1.157l-35.83,293.73c-3.918,32.121-32.789,57.086-65.193,57.086ZM37.312,701.757L3.421,980.018c-1.816,14.913,2.221,29.127,11.367,40.026,8.709,10.377,21.116,16.498,34.935,17.233l765.639,40.732c32.211,1.723,61.54-22.675,65.406-54.365l35.631-292.104-879.088-29.783Z" fill="#071838" id="DCY5uilIcDIQ-LWvtY5q4" />
  </g><g id="t1BFVddiYPr0_GUQhkVK_">
    <g id="hV4L1gAn6fTQa4tL4sW2i">
      <polygon points="234.892 941.745 61.322 933.56 82.819 757.077 256.608 763.513 234.892 941.745" fill="#FFD74C" id="XMaFn5Ndy_SEWwFYyhsse" />
      <path d="M234.893,943.245c-.024,0-.048,0-.072-.001l-173.57-8.185c-.417-.02-.806-.212-1.075-.531s-.394-.735-.343-1.149l21.497-176.482c.094-.774.769-1.346,1.544-1.318l173.79,6.436c.419.016.813.206,1.085.525s.398.738.348,1.155l-21.716,178.232c-.092.755-.734,1.318-1.488,1.318ZM63.006,932.138l170.565,8.043,21.35-175.229-170.781-6.324-21.135,173.51Z" fill="#071838" id="s1CVJOJJikCFM15GXWaj2" />
    </g>
    <g id="BbAEvqX0mQfwgU_z1vTw7">
      <g id="oIRQgadF_ARwhsm33cP9E">
        <polygon points="787.106 861.67 292.268 841.214 298.291 791.79 793.302 810.868 787.106 861.67" fill="#939ED8" id="HBpx_gH5NDMzuBfMhULVr" />
        <path d="M787.107,863.17c-.021,0-.042,0-.063-.001l-494.838-20.456c-.418-.017-.81-.208-1.081-.527-.271-.319-.396-.737-.346-1.153l6.022-49.424c.094-.774.783-1.337,1.546-1.317l495.011,19.077c.419.016.812.207,1.084.526s.397.738.347,1.154l-6.196,50.802c-.092.755-.734,1.318-1.488,1.318ZM293.954,839.783l491.831,20.332,5.831-47.811-492.003-18.961-5.659,46.44Z" fill="#071838" id="gdp0a-__YLSKQTePv4WF3" />
      </g>
      <g id="hQ0VmM5fg8kjkfwJ31xor">
        <polygon points="589.396 931.235 283.003 917.249 289.025 867.827 595.526 880.959 589.396 931.235" fill="#939ED8" id="h4J9tEEkSkDPdrRW-g0lP" />
        <path d="M589.397,932.735c-.023,0-.046,0-.069-.001l-306.393-13.986c-.417-.019-.808-.211-1.077-.53s-.394-.736-.343-1.15l6.022-49.422c.095-.776.757-1.345,1.553-1.317l306.5,13.132c.417.018.809.209,1.08.528s.396.736.345,1.152l-6.129,50.276c-.092.755-.734,1.318-1.488,1.318ZM284.688,915.825l303.388,13.849,5.765-47.285-303.493-13.003-5.659,46.439Z" fill="#071838" id="EhSA06h8ByvlCIJ9nbtg_" />
      </g>
    </g>
  </g></g></g><g transform="translate(1386 599)" data-asset-index="3"><g clip-path="url(#assetClipPath_cKGzWeKC)" transform="scale(1.0032419171120652 0.9989061751385361)" data-asset-index="3"><g id="ImUxNXnxglJKb-GTrGod_">
    <path d="M225.957,111.319C233.355,50.687,188.773,1.519,126.76,1.5,65.161,1.481,9.604,50.027,2.298,109.928c-7.305,59.899,36.334,109.058,97.841,109.806,61.921.752,118.421-47.784,125.818-108.414Z" fill="#8FE2BE" id="oM3t7NfB0Tj_YZProjOkr" />
    <path d="M101.559,221.242c-.482,0-.956-.003-1.438-.009-30.486-.371-57.608-12.388-76.37-33.838C5.408,166.423-2.74,138.847.81,109.746c3.58-29.357,18.628-56.928,42.374-77.632C66.932,11.405,96.602,0,126.724,0h.036c30.85.009,58.342,11.881,77.415,33.428,18.587,20.999,26.851,48.726,23.271,78.073l-1.489-.182,1.489.182c-7.417,60.798-63.725,109.741-125.887,109.741ZM126.725,3C66.136,3,10.991,51.042,3.787,110.109c-3.444,28.243,4.448,54.989,22.222,75.311,18.193,20.8,44.526,32.454,74.148,32.813.467.006.938.009,1.405.009,60.697.002,115.667-47.764,122.906-107.104,3.475-28.483-4.53-55.375-22.54-75.721C183.434,14.522,156.738,3.009,126.759,3h-.035Z" fill="#071838" id="iGITabitvj56oE5j2T46B" />
  </g><g id="UUs7KzmVCW80rfUZhyJFF">
    <path d="M101.974,170.167c-3.009-.028-5.919-1.011-8.212-2.987l-44.033-37.93c-5.4-4.653-5.385-13.128.034-18.938,5.423-5.812,14.203-6.76,19.617-2.109l34.878,29.966,72.643-69.273c5.826-5.554,14.711-5.987,19.841-.959,5.136,5.032,4.567,13.62-1.271,19.177l-82.634,78.659c-3.088,2.939-7.056,4.429-10.862,4.393Z" fill="#FFFFFF" id="xnLQEhPMc9Ix2Wcgr4Tbt" />
    <path d="M102.107,171.668c-.049,0-.097,0-.146,0h0c-3.449-.033-6.708-1.223-9.177-3.351l-44.033-37.93c-2.726-2.349-4.338-5.674-4.54-9.364-.228-4.177,1.396-8.454,4.456-11.734,5.957-6.385,15.688-7.382,21.691-2.223l33.849,29.082,71.66-68.336c6.398-6.1,16.234-6.524,21.925-.945,2.58,2.527,3.986,5.971,3.959,9.697-.031,4.251-1.942,8.493-5.246,11.637l-82.634,78.659c-3.215,3.06-7.495,4.808-11.764,4.808ZM101.988,168.667c3.54.045,7.122-1.417,9.814-3.98l82.634-78.659c2.717-2.586,4.289-6.043,4.314-9.486.021-2.905-1.065-5.581-3.059-7.533-4.55-4.46-12.515-4.024-17.755.973l-72.643,69.273c-.558.533-1.428.554-2.013.052l-34.878-29.966c-4.799-4.123-12.669-3.229-17.542,1.994-2.506,2.687-3.837,6.158-3.654,9.524.157,2.866,1.4,5.442,3.502,7.254l44.033,37.93c1.961,1.69,4.467,2.597,7.247,2.624h0Z" fill="#071838" id="Jv0EfKpDHfRjgMGlvlHcW" />
  </g></g></g><g transform="translate(783 1447) rotate(90 -82 95) scale(-1 1)" data-asset-index="4"><g clip-path="url(#assetClipPath_RaUm3dVq)" transform="scale(1.0565512620633672 1.0563830556157878)" data-asset-index="4"><linearGradient id="linearGradient_og7D0GM0" gradientUnits="userSpaceOnUse" x1="-2.872" x2="132.833" y1="143.414" y2="57.815"><stop offset="0" stop-color="#FF92C4" /><stop offset="1" stop-color="#D62978" /></linearGradient><linearGradient id="linearGradient_VLz5AI95" gradientUnits="userSpaceOnUse" x1="153.856" x2="38.772" y1="36.468" y2="168.693"><stop offset="0" stop-color="#FF92C4" /><stop offset=".742" stop-color="#FFCFE7" /></linearGradient><path d="m152.043 112.827s-4.644-10.563-6.869-15.95c-4.162-10.08-15.093-16.185-30.57-15.055 12.425-15.05 23.521-32.17 23.638-47.202 0 0-4.924-11.289-6.832-15.843-1.134-2.707-2.627-5.193-4.493-7.402-15.377-18.203-49.631-10.735-74.957 18.233-25.193 28.817-50.46 117.558-50.46 117.558l6.689 15.497c20.809 5.636 67.237 3.425 85.628-.891 23.787-5.581 52.612-28.669 58.226-48.945z" fill="url(#linearGradient_og7D0GM0)" id="Asvs0a2z2A6f919j64DOG" /><path d="m44.667 167.573c-14.148 0-27.805-1.007-36.87-3.463-.441-.119-.804-.434-.985-.853l-6.689-15.497c-.137-.318-.16-.673-.065-1.005 1.035-3.636 25.648-89.395 50.774-118.134 15.797-18.07 35.727-28.771 53.377-28.62 9.926.084 18.175 3.682 23.855 10.406 1.93 2.285 3.521 4.906 4.73 7.79 1.882 4.492 6.774 15.71 6.824 15.823.084.193.126.401.125.611-.097 12.394-7.259 27.318-21.877 45.56h.296c13.696 0 24.171 5.874 28.399 16.115 2.192 5.31 6.809 15.813 6.855 15.919.139.316.165.671.073 1.004-5.592 20.197-33.87 44.031-59.329 50.005-10.841 2.543-30.603 4.34-49.493 4.34zm-35.39-6.176c20.74 5.294 66.165 3.145 84.197-1.086 23.899-5.607 51.38-28.516 56.977-47.377-.946-2.158-4.734-10.81-6.664-15.485-4.079-9.88-14.95-15.161-29.073-14.132-.595.044-1.167-.274-1.442-.808-.276-.533-.207-1.18.176-1.643 15.446-18.708 23.068-33.742 23.291-45.944-.792-1.816-4.994-11.468-6.711-15.567-1.09-2.602-2.522-4.962-4.255-7.013-5.098-6.035-12.563-9.265-21.588-9.342-16.75-.127-35.864 10.174-51.094 27.594-23.701 27.11-47.888 109.189-50.001 116.471l6.187 14.333z" fill="#071838" id="JSGMCc_q5__18RPOTiZtq" /><path d="m152.396 131.442c5.691-20.555-7.355-35.857-31.103-34.123 19.727-23.894 25.837-54.44 12.314-70.447-15.379-18.203-49.632-10.735-74.958 18.233-25.193 28.817-50.46 117.557-50.46 117.557s66.814 20.59 92.317 14.606c23.787-5.581 46.277-25.551 51.89-45.827z" fill="url(#linearGradient_VLz5AI95)" id="p3WC0hh0rkrlntlL7R4Bc" /><path d="m88.959 179.862c-29.659 0-78.828-15.032-81.212-15.766-.78-.24-1.224-1.06-1.001-1.844 1.035-3.637 25.648-89.395 50.774-118.134 15.689-17.945 35.478-28.621 53.014-28.621.122 0 .243 0 .364.001 9.926.084 18.175 3.682 23.855 10.406 13.213 15.64 8.731 45.198-10.238 69.782 10.843-.081 19.683 3.444 25.142 10.101 5.495 6.702 6.981 15.955 4.185 26.055l-1.446-.4 1.446.4c-5.815 21.006-28.598 41.163-52.993 46.887-3.363.789-7.406 1.133-11.89 1.133zm-78.915-18.208c9.765 2.905 67.333 19.501 90.119 14.154 23.024-5.402 45.333-25.066 50.787-44.766 2.529-9.134 1.246-17.427-3.613-23.353-5.372-6.552-14.586-9.703-25.935-8.875-.592.045-1.167-.274-1.442-.808-.276-.533-.207-1.18.176-1.643 19.785-23.963 25.083-53.422 12.325-68.524-5.099-6.035-12.564-9.265-21.589-9.342-16.783-.156-35.864 10.174-51.094 27.594-22.952 26.253-46.362 104.066-49.734 115.562z" fill="#071838" id="kyzOw0dEenmM8vnHb2o0E" /></g></g><g transform="translate(1192 1460)" data-asset-index="5"><g clip-path="url(#assetClipPath_rBxpfx3M)" transform="scale(0.9985666331354623 0.9979221347331584)" data-asset-index="5"><g id="ykcRAaKC6yv2CeuG0IyCv">
    <path d="M269.315,107.47C276.155,51.288,221.102,3.873,146.935,1.586,73.404-.682,8.801,42.334,2.07,97.646c-6.731,55.311,46.872,102.669,120.294,105.804,20.481.874,40.353-1.786,58.54-7.282l47.311,21.788-9.859-38.551c28.098-17.45,47.429-42.954,50.957-71.934Z" fill="#E9ECFF" id="C6QcUqCAczpC-3NLVYug" />
    <path d="M228.216,219.456c-.213,0-.427-.045-.627-.138l-46.796-21.55c-18.816,5.619-38.493,8.036-58.492,7.181-42.205-1.802-79.301-18.029-101.775-44.521C4.731,141.809-2.165,120.037.581,97.465c3.312-27.215,20.373-52.321,48.042-70.691C76.208,8.458,111.14-1.014,146.981.086c42.856,1.322,80.596,17.41,103.543,44.139,16.044,18.688,23.057,40.621,20.28,63.427l-1.489-.181,1.489.181c-3.441,28.266-21.441,53.957-50.722,72.443l9.587,37.489c.143.561-.049,1.153-.493,1.524-.275.229-.616.348-.96.348ZM180.905,194.668c.215,0,.429.046.627.138l44.45,20.47-9.078-35.499c-.162-.634.105-1.3.662-1.646,29.045-18.038,46.894-43.197,50.26-70.841,2.672-21.947-4.098-43.078-19.578-61.11C225.848,20.088,188.904,4.381,146.888,3.085,74.481.841,10.188,43.353,3.56,97.828c-2.643,21.72,4.015,42.695,19.254,60.659,21.934,25.856,58.242,41.699,99.615,43.465,19.857.848,39.384-1.581,58.043-7.22.142-.042.288-.064.434-.064Z" fill="#071838" id="ohwz_3t-qr8aeUGRaGfk1" />
  </g><g id="WpFM4UnIIhszruRPYTSQL">
    <g id="F_8eMq7Ib7MzxcmhJSbut">
      <path d="M151.367,103.135c1.181-9.704-5.351-17.838-14.582-18.168-9.22-.329-17.643,7.255-18.822,16.94-1.179,9.685,5.331,17.818,14.549,18.167,9.228.349,17.673-7.235,18.855-16.939Z" fill="#C5C9E8" id="fpQ5DChHUJISQ9F7CrWNX" />
      <path d="M133.12,121.584c-.221,0-.442-.004-.664-.012-4.705-.178-8.952-2.219-11.96-5.747-3.238-3.798-4.666-8.806-4.021-14.1,1.269-10.423,10.41-18.608,20.365-18.258,4.713.168,8.97,2.205,11.985,5.735,3.245,3.799,4.677,8.811,4.032,14.113h0c-1.243,10.212-10.021,18.269-19.737,18.269ZM136.206,86.457c-8.237,0-15.691,6.9-16.753,15.631-.542,4.452.639,8.64,3.326,11.792,2.457,2.882,5.934,4.549,9.79,4.695,8.449.322,16.221-6.688,17.309-15.621h0c.543-4.458-.642-8.65-3.335-11.802-2.463-2.883-5.948-4.547-9.811-4.686-.175-.006-.352-.009-.526-.009ZM151.367,103.135h.01-.01Z" fill="#071838" id="Ra5yXe4mYZ0aeXJnpZNHj" />
    </g>
    <g id="t1vYTOTIfn2b6kLwCUpuQ">
      <path d="M203.296,105.044c1.185-9.733-5.39-17.893-14.676-18.225-9.276-.331-17.747,7.275-18.93,16.99-1.182,9.714,5.37,17.873,14.643,18.224,9.284.351,17.778-7.255,18.963-16.988Z" fill="#C5C9E8" id="J6dBXAydqf836tzTEQnXX" />
      <path d="M184.946,123.543c-.222,0-.445-.004-.669-.013-4.74-.179-9.017-2.233-12.044-5.783-3.245-3.807-4.677-8.821-4.032-14.121,1.272-10.453,10.453-18.655,20.472-18.307,4.749.169,9.035,2.219,12.07,5.771,3.253,3.808,4.688,8.827,4.042,14.134-1.247,10.24-10.069,18.319-19.84,18.319ZM188.035,88.309c-8.291,0-15.79,6.922-16.856,15.681-.542,4.457.643,8.651,3.337,11.812,2.476,2.904,5.982,4.584,9.874,4.731,8.501.339,16.326-6.708,17.417-15.67.543-4.463-.645-8.662-3.345-11.823-2.482-2.906-5.997-4.583-9.896-4.722-.177-.006-.355-.009-.531-.009Z" fill="#071838" id="jbZV54NU47zzSUYLY9adh" />
    </g>
    <g id="jGWOgaodV4gn5hKdqV5u2">
      <path d="M99.751,101.237c1.178-9.675-5.313-17.784-14.488-18.112-9.165-.327-17.54,7.235-18.715,16.891-1.175,9.656,5.293,17.764,14.455,18.11,9.172.347,17.57-7.215,18.747-16.89Z" fill="#C5C9E8" id="k75aGHbbO_9rXzPUtrA3y" />
      <path d="M81.605,119.638c-.219,0-.438-.004-.657-.012-4.67-.177-8.887-2.205-11.877-5.711-3.184-3.734-4.646-8.866-4.011-14.08,1.265-10.394,10.361-18.555,20.258-18.209,4.678.167,8.905,2.191,11.902,5.7,3.191,3.735,4.656,8.872,4.021,14.092-1.24,10.184-9.972,18.22-19.635,18.22ZM84.69,84.615c-8.184,0-15.593,6.88-16.652,15.583-.541,4.447.636,8.627,3.316,11.771,2.438,2.86,5.886,4.515,9.707,4.659,8.402.307,16.118-6.668,17.202-15.572.542-4.454-.638-8.638-3.324-11.781-2.445-2.862-5.9-4.514-9.729-4.65-.173-.006-.347-.009-.52-.009Z" fill="#071838" id="T4TBkm9j5wVyWKgRAHhBZ" />
    </g>
  </g></g></g><g transform="translate(234 1364)" data-asset-index="6"><g clip-path="url(#assetClipPath_N_EfJGNi)" transform="scale(0.9985819510225292 0.9991214075241772)" data-asset-index="6"><g id="bJoKy98YcF1OpjDeD-9m0">
    <path d="M252.634,313.711l-223.503-14.347c-17.348-1.114-29.588-16.775-27.372-34.983L29.919,33.037C32.136,14.827,48.001.722,65.386,1.533l223.991,10.458c17.879.835,30.572,16.523,28.317,35.039l-28.648,235.232c-2.255,18.514-18.572,32.593-36.412,31.448Z" fill="#5C7DE5" id="A4hll1SSwNr1H6q5_UpE" />
    <path d="M254.657,315.276c-.705,0-1.409-.022-2.119-.068l-223.503-14.347c-8.481-.544-16.13-4.432-21.538-10.946-5.825-7.018-8.392-16.15-7.227-25.715L28.43,32.856C30.736,13.913,47.335-.805,65.456.035l223.99,10.458c8.826.412,16.772,4.292,22.375,10.924,5.919,7.006,8.534,16.167,7.361,25.795l-28.648,235.232c-2.256,18.525-18.115,32.832-35.878,32.832ZM252.73,312.214c17.044,1.097,32.67-12.423,34.827-30.132l28.648-235.232c1.071-8.79-1.3-17.135-6.675-23.497-5.058-5.987-12.24-9.49-20.223-9.863L65.316,3.032c-16.564-.78-31.787,12.767-33.908,30.186L3.248,264.562c-1.063,8.737,1.265,17.061,6.558,23.437,4.875,5.873,11.772,9.378,19.421,9.869l223.503,14.347Z" fill="#071838" id="QrsrB4l-uxiw-jQ11a_qF" />
  </g><g id="iPKMjBb-qmk4mU0rXD8IO">
    <g id="kTvJ7vA5mzajw9fnfh157">
      <g id="BMlDmH9oXHqudfdyahw90">
        <path d="M129.671,160.1l-24.593-1.37c-31.778-1.771-60.729,23.7-64.768,56.885l-1.558,12.799,139.978,8.4,1.571-12.903c4.074-33.456-18.642-62.028-50.63-63.811Z" fill="#2F48B2" id="LMGgJcoCtvkHmYpw-aC0r" />
        <path d="M178.732,238.314c-.03,0-.061,0-.091-.003l-139.979-8.4c-.413-.024-.797-.219-1.062-.537-.265-.318-.387-.731-.337-1.142l1.558-12.799c4.127-33.901,33.89-60.021,66.341-58.202l24.593,1.371c15.365.856,29.22,7.771,39.014,19.47,10.485,12.525,15.11,28.868,13.021,46.019l-1.571,12.903c-.092.757-.735,1.319-1.488,1.319ZM40.434,227.012l136.978,8.22,1.401-11.502c1.987-16.318-2.397-31.849-12.344-43.731-9.256-11.056-22.353-17.591-36.881-18.401l-24.593-1.371c-30.915-1.721-59.256,23.207-63.196,55.569l-1.365,11.216Z" fill="#071838" id="USM1erB5L-eAisGhr0q9c" />
      </g>
      <g id="qagjtKQ-ANgTQcgbnINfm">
        <path d="M156.186,112.143c2.308-18.956-10.549-35.072-28.682-35.995-18.095-.92-34.6,13.644-36.899,32.528-2.299,18.884,10.471,34.995,28.557,35.988,18.124.994,34.716-13.565,37.024-32.521Z" fill="#2F48B2" id="JtyolmCd3dgTSNd_nTAXI" />
        <path d="M120.906,146.212c-.607,0-1.215-.017-1.826-.05-8.856-.486-16.837-4.458-22.473-11.184-6.033-7.201-8.694-16.605-7.491-26.482,2.389-19.62,19.648-34.806,38.464-33.845,8.888.452,16.902,4.41,22.567,11.143,6.06,7.204,8.734,16.626,7.528,26.531h0c-2.321,19.058-18.608,33.888-36.769,33.888ZM125.883,77.607c-16.672,0-31.654,13.701-33.79,31.25-1.101,9.044,1.318,17.636,6.813,24.193,5.097,6.083,12.32,9.675,20.338,10.115,17.34.935,33.241-13.047,35.453-31.205,1.104-9.07-1.327-17.677-6.845-24.237-5.123-6.089-12.377-9.669-20.424-10.078-.516-.026-1.031-.039-1.544-.039ZM156.186,112.143h.01-.01Z" fill="#071838" id="GPKdhI3Bt-yC8lKJMLa_B" />
      </g>
    </g>
    <g id="bxv3R9aFFDUh_BS2wAVEi">
      <polygon points="271.396 151.354 248.22 150.085 251.144 126.079 229.125 124.904 226.206 148.879 203.151 147.617 200.374 170.42 223.426 171.713 220.506 195.688 242.513 196.953 245.436 172.947 268.608 174.247 271.396 151.354" fill="#2F48B2" id="STJvAcN6f5pEBpQVJSPSH" />
      <path d="M242.514,198.453c-.029,0-.058,0-.087-.002l-22.007-1.265c-.414-.024-.799-.218-1.065-.536-.266-.318-.388-.732-.338-1.143l2.726-22.386-21.452-1.204c-.414-.023-.8-.217-1.066-.535-.266-.318-.389-.732-.339-1.144l2.776-22.803c.095-.784.779-1.38,1.571-1.316l21.654,1.186,2.75-22.582c.095-.783.775-1.351,1.569-1.317l22.018,1.175c.415.022.802.215,1.069.534.267.318.39.733.34,1.146l-2.729,22.415,21.575,1.182c.415.022.801.216,1.068.534s.389.732.339,1.145l-2.788,22.894c-.096.784-.779,1.349-1.573,1.316l-21.769-1.221-2.753,22.61c-.092.756-.735,1.319-1.488,1.319ZM222.189,194.282l19.006,1.093,2.753-22.608c.095-.785.785-1.362,1.573-1.316l21.769,1.221,2.424-19.907-21.575-1.182c-.415-.022-.801-.216-1.068-.534s-.389-.732-.339-1.145l2.729-22.413-19.015-1.015-2.75,22.584c-.095.784-.787,1.363-1.571,1.316l-21.654-1.186-2.413,19.82,21.452,1.204c.414.023.8.217,1.066.535.266.318.389.732.339,1.144l-2.726,22.388Z" fill="#071838" id="tyPsnzH2Ux7qyT83QV-i" />
    </g>
  </g></g></g><g transform="translate(1174 231) rotate(0.29276675277161357 153.5 100.5)" data-asset-index="7"><g clip-path="url(#assetClipPath_fIeJCeQ_)" transform="scale(1.0015169556494363 1.006963578979009)" data-asset-index="7"><g id="SrZoxpz-U2qJ9H1LYnCW7">
    <path d="M222.787,196.602l-164.422,1.505c-35.476.325-60.667-27.843-56.392-62.913l8.003-65.652C14.252,34.471,46.413,5.471,81.936,4.769L246.578,1.513c36.312-.718,62.329,27.592,57.982,63.234l-8.138,66.719c-4.347,35.641-37.373,64.803-73.636,65.135Z" fill="#E9ECFF" id="eP4WDpcc5KxWOxJoCkFy9" />
    <path d="M57.753,199.611c-17.36,0-32.841-6.638-43.649-18.731C3.202,168.681-1.635,152.392.484,135.012l8.003-65.652C12.842,33.632,45.778,3.984,81.906,3.269L246.548.014c18.194-.369,34.396,6.311,45.662,18.784,11.06,12.245,15.975,28.627,13.839,46.132l-8.138,66.719c-4.427,36.304-38.122,66.115-75.111,66.454l-164.422,1.505c-.208.002-.417.003-.625.003ZM247.94,3c-.443,0-.886.004-1.332.013l-164.643,3.255C47.273,6.955,15.647,35.421,11.465,69.724L3.462,135.376c-2.012,16.509,2.562,31.959,12.879,43.505,10.353,11.585,25.279,17.867,42.01,17.727l164.422-1.505.014,1.5-.014-1.5c35.538-.325,67.909-28.954,72.161-63.817l8.138-66.719c2.028-16.628-2.62-32.168-13.088-43.758-10.399-11.513-25.289-17.809-42.044-17.809Z" fill="#071838" id="KdEC8Ia4HjYw_ylC4qoM" />
  </g><g id="WFQVlDXGk0WD7d9NzFx9w">
    <g id="jfcsXQ7n5JUombSk_m1FO">
      <path d="M190.672,46.876c-3.778.066-7.484.719-11.026,1.859-1.429-13.921-12.805-24.144-27.921-23.863-17.435.324-33.24,14.499-35.333,31.66-.4,3.283-.267,6.436.327,9.391-.485-.019-.975-.028-1.47-.02-14.339.235-27.345,11.892-29.07,26.036-1.725,14.145,8.481,25.454,22.815,25.259l73.223-.994c19.488-.264,37.212-16.029,39.551-35.211,2.339-19.182-11.6-34.457-31.097-34.119Z" fill="#6B79B2" id="Wws8rhojGTaSkjEf7Sgut" />
      <path d="M108.627,118.701c-7.239,0-13.697-2.761-18.22-7.799-4.571-5.092-6.601-11.891-5.716-19.144,1.797-14.745,15.335-26.956,30.252-27.349-.359-2.624-.374-5.327-.04-8.059,2.176-17.848,18.681-32.642,36.793-32.979,14.906-.289,26.905,9.474,29.203,23.424,3.223-.887,6.494-1.363,9.746-1.42h0c9.943-.151,18.815,3.507,24.991,10.36,6.091,6.76,8.798,15.795,7.621,25.44-2.423,19.868-20.824,36.254-41.02,36.529l-73.223.994c-.13.001-.26.002-.389.002ZM115.624,67.4c-.117,0-.234,0-.352.003-13.586.222-25.97,11.311-27.604,24.718-.778,6.381.988,12.339,4.972,16.777,4.017,4.474,9.807,6.901,16.334,6.8l73.223-.994c18.751-.254,35.834-15.458,38.083-33.892,1.069-8.771-1.371-16.963-6.872-23.069-5.585-6.199-13.648-9.545-22.71-9.368h0c-3.536.061-7.099.662-10.592,1.787-.43.138-.9.076-1.28-.172-.379-.248-.625-.652-.672-1.103-1.388-13.521-12.222-22.765-26.401-22.517-16.675.311-31.87,13.922-33.872,30.343-.372,3.046-.268,6.045.309,8.914.09.451-.031.918-.329,1.269s-.746.535-1.2.526c-.343-.014-.688-.021-1.036-.021ZM190.672,46.876h.01-.01Z" fill="#071838" id="VDo4DJz7Byav8SMPcGMRu" />
    </g>
    <g id="y9wbccVfpMfwRxm1RVSvn">
      <g id="IBAUoQkg6mzKkdeZvtml">
        <path d="M123.405,154.592c-1.107.013-2.194-.253-3.15-.825-2.901-1.74-3.49-5.662-1.315-8.761l7.661-10.914c2.179-3.1,6.298-4.205,9.204-2.47,2.907,1.738,3.497,5.664,1.318,8.766l-7.67,10.919c-1.461,2.079-3.795,3.259-6.049,3.285Z" fill="#5C7DE5" id="GXupO5IdnxvTSF5tiFgdb" />
        <path d="M123.328,156.092c-1.38,0-2.707-.358-3.843-1.039-1.655-.993-2.79-2.59-3.195-4.499-.454-2.139.064-4.475,1.422-6.411l7.662-10.914c2.616-3.722,7.64-5.022,11.201-2.896,1.658.992,2.795,2.59,3.202,4.5.456,2.14-.064,4.479-1.425,6.417l-7.669,10.919c-1.679,2.387-4.46,3.89-7.259,3.922h0c-.032,0-.063,0-.095,0ZM132.726,132.294c-1.801,0-3.704.963-4.897,2.66l-7.661,10.914c-.881,1.256-1.225,2.737-.943,4.063.234,1.101.857,1.982,1.802,2.549.685.41,1.517.647,2.36.611h0c1.852-.021,3.706-1.036,4.839-2.647l7.669-10.918c.883-1.258,1.228-2.74.946-4.068-.234-1.101-.859-1.982-1.807-2.549-.698-.417-1.494-.615-2.31-.615Z" fill="#071838" id="Sbaai0sW8Y5M2F19CMlc" />
      </g>
      <g id="zeYI63bji7JxPYC3LimUl">
        <path d="M161.169,154.157c-1.111.013-2.203-.253-3.163-.827-2.914-1.744-3.505-5.674-1.323-8.779l7.691-10.937c2.187-3.107,6.323-4.214,9.242-2.475,2.92,1.742,3.513,5.676,1.326,8.784l-7.699,10.942c-1.467,2.083-3.81,3.266-6.073,3.292Z" fill="#5C7DE5" id="YP0CXJ1b7klpu44BZsCg2" />
        <path d="M161.091,155.657c-1.383,0-2.714-.358-3.854-1.039-1.663-.996-2.802-2.598-3.209-4.512-.455-2.141.065-4.48,1.428-6.418l7.69-10.938c2.625-3.726,7.665-5.028,11.236-2.901,1.666.994,2.807,2.595,3.215,4.51.457,2.144-.064,4.485-1.429,6.426l-7.7,10.941c-1.684,2.391-4.474,3.896-7.282,3.929h0c-.031,0-.063,0-.095,0ZM170.522,131.81c-1.811,0-3.724.966-4.922,2.668l-7.69,10.937c-.884,1.257-1.229,2.741-.947,4.069.231,1.089.875,1.998,1.813,2.56.689.411,1.499.632,2.375.614h0c1.862-.021,3.726-1.039,4.864-2.656l7.699-10.941c.886-1.26,1.232-2.745.949-4.075-.235-1.105-.864-1.99-1.817-2.559-.703-.418-1.503-.617-2.324-.617Z" fill="#071838" id="M4HDwq42C4vgrcCJNebH" />
      </g>
      <g id="TKJElFfvlTe5XfuH6LjkK">
        <path d="M133.842,175.907c-1.108.011-2.197-.256-3.154-.83-2.905-1.745-3.494-5.671-1.317-8.77l7.671-10.915c2.182-3.102,6.305-4.202,9.216-2.461,2.911,1.743,3.502,5.673,1.321,8.775l-7.679,10.919c-1.463,2.079-3.8,3.257-6.057,3.281Z" fill="#5C7DE5" id="Gh15-cRKtGjQeY_hIr5_C" />
        <path d="M133.776,177.407c-1.387,0-2.719-.36-3.859-1.043-1.658-.996-2.794-2.598-3.199-4.51-.453-2.139.066-4.475,1.425-6.409l7.671-10.915c2.619-3.723,7.649-5.019,11.212-2.886,1.661.994,2.799,2.596,3.205,4.509.455,2.141-.065,4.479-1.427,6.416l-7.679,10.919c-1.681,2.388-4.465,3.889-7.268,3.918h0c-.027,0-.054,0-.081,0ZM133.842,175.907h.01-.01ZM143.164,153.599c-1.802,0-3.704.961-4.896,2.656l-7.671,10.914c-.881,1.255-1.226,2.736-.944,4.063.23,1.088.873,1.997,1.808,2.559.686.411,1.505.648,2.366.615h0c1.854-.019,3.711-1.032,4.846-2.644l7.678-10.918c.884-1.257,1.229-2.739.947-4.067-.231-1.089-.875-1.998-1.811-2.558-.702-.42-1.502-.62-2.322-.62Z" fill="#071838" id="Uxdx_gxeAeU1VBhFBJyKd" />
      </g>
    </g>
  </g></g></g><g transform="translate(999 164) rotate(30.62962046379091 -127.5 119) scale(-1 1)" data-asset-index="8"><g clip-path="url(#assetClipPath_LQWeD_rY)" transform="scale(1.1183572866459368 1.1144826552783398)" data-asset-index="8"><g id="gvnY45gmf6Xyk9QzdBJvU">
	<g id="Qjc_TxzIEwYjtYnp4TPFq">
		<polygon points="66.02,19.642 122.575,49.582 192.815,32.74 176.422,93.271 226.513,153.505     142.795,154.277 91.583,212.052 66.732,140.867 1.5,115.753 59.273,77.049   " fill="#E0B122" id="VPrgEgxlUOHqrYXIg7Df" />
		<path d="M91.582,213.552c-0.096,0-0.193-0.009-0.29-0.028c-0.522-0.103-0.951-0.475-1.126-0.977    l-24.621-70.53L0.961,117.153c-0.522-0.201-0.889-0.677-0.952-1.233c-0.062-0.556,0.19-1.101,0.656-1.413l57.199-38.319    l6.666-56.721c0.058-0.491,0.354-0.923,0.792-1.153c0.438-0.23,0.962-0.229,1.399,0.002l56.055,29.674l69.689-16.709    c0.515-0.125,1.057,0.034,1.426,0.414c0.369,0.38,0.51,0.926,0.372,1.437l-16.19,59.779l49.593,59.635    c0.371,0.445,0.451,1.064,0.208,1.59c-0.243,0.525-0.768,0.864-1.347,0.869l-83.051,0.766l-50.771,57.276    C92.417,213.371,92.007,213.552,91.582,213.552z M4.735,115.392l62.536,24.075c0.411,0.158,0.732,0.489,0.877,0.906l24.008,68.771    l49.517-55.862c0.282-0.317,0.685-0.501,1.109-0.505l80.557-0.743l-48.07-57.804c-0.312-0.375-0.422-0.879-0.294-1.351    l15.732-58.091L122.925,51.04c-0.354,0.085-0.728,0.038-1.051-0.133l-54.62-28.915l-6.491,55.232    c-0.051,0.436-0.291,0.827-0.655,1.071L4.735,115.392z M59.273,77.049h0.01H59.273z" fill="#071838" id="dIArRkdw3SnMN_8j4vtiw" />
	</g>
	<g id="X1P6gslyweyhnM30PHFt">
		<polygon points="192.815,14.598 192.815,32.74 176.422,93.271 176.422,75.129   " fill="#071838" id="xExgmFsORviqkw86Cdr9S" />
		<path d="M176.423,94.771c-0.065,0-0.132-0.004-0.199-0.013c-0.746-0.099-1.302-0.735-1.302-1.487V75.129    c0-0.132,0.018-0.264,0.052-0.392l16.394-60.531c0.196-0.726,0.899-1.19,1.646-1.095c0.746,0.099,1.302,0.735,1.302,1.487V32.74    c0,0.132-0.018,0.264-0.052,0.392l-16.394,60.531C177.691,94.324,177.091,94.771,176.423,94.771z M177.922,75.329v6.666    l13.394-49.454v-6.666L177.922,75.329z" fill="#071838" id="ArFhCETkUI7nfMzoG68vs" />
	</g>
	<g id="t0X8oFxhNnhuQH4r5Jc7p">
		<polygon points="226.513,135.362 226.513,153.505 142.795,154.277 142.795,136.135   " fill="#E0B122" id="i0KipmGKxZyHj87MypDKa" />
		<path d="M142.795,155.777c-0.395,0-0.775-0.156-1.056-0.435c-0.284-0.282-0.444-0.665-0.444-1.065v-18.142    c0-0.823,0.663-1.492,1.486-1.5l83.717-0.773c0.41-0.002,0.785,0.153,1.069,0.435s0.444,0.665,0.444,1.065v18.143    c0,0.823-0.663,1.492-1.486,1.5l-83.717,0.772C142.804,155.777,142.8,155.777,142.795,155.777z M144.295,137.621v15.142    l80.717-0.745v-15.143L144.295,137.621z" fill="#071838" id="IsLyDkdZ5RSwGJjqbSR8B" />
	</g>
	<g id="T-YVygvShflJTGl2LTYjk">
		<polygon points="91.583,212.052 91.583,193.91 142.795,136.135 142.795,154.277   " fill="#E0B122" id="KvEpEVus8es-tWHX0k7ru" />
		<path d="M91.582,213.552c-0.178,0-0.358-0.032-0.532-0.098c-0.583-0.221-0.968-0.779-0.968-1.402V193.91    c0-0.367,0.134-0.721,0.377-0.995l51.213-57.775c0.413-0.467,1.071-0.63,1.655-0.407c0.583,0.221,0.968,0.779,0.968,1.402v18.142    c0,0.367-0.134,0.721-0.377,0.995l-51.213,57.775C92.414,213.375,92.003,213.552,91.582,213.552z M93.082,194.479v13.619    l48.213-54.391v-13.619L93.082,194.479z" fill="#071838" id="k7GlkCBL10oOyaiOjcC73" />
	</g>
	<g id="WUFR5mllz5kf6KBvmY1tJ">
		<polygon points="1.5,115.753 1.5,97.611 66.732,122.724 66.732,140.867   " fill="#E0B122" id="FIEwQp4IMBWtHFXVjl5ah" />
		<path d="M66.732,142.367c-0.182,0-0.365-0.033-0.539-0.1L0.961,117.153C0.382,116.93,0,116.374,0,115.753    V97.611c0-0.494,0.244-0.957,0.651-1.237c0.408-0.28,0.927-0.34,1.388-0.163l65.232,25.113c0.579,0.223,0.961,0.779,0.961,1.4    v18.142c0,0.494-0.244,0.957-0.651,1.237C67.328,142.277,67.031,142.367,66.732,142.367z M3,114.724l62.232,23.958v-14.928    L3,99.796V114.724z" fill="#071838" id="jWiIPopwk4MIakvP8I9x8" />
	</g>
	<g id="P2SsjRTPq6li1r9AFm229">
		<polygon points="91.583,212.052 91.583,193.91 66.732,122.724 66.732,140.867   " fill="#E0B122" id="t6D1STsiGBd-yX0bhsnpk" />
		<path d="M91.581,213.552c-0.628,0-1.202-0.396-1.415-1.006l-24.85-71.186    c-0.056-0.159-0.084-0.326-0.084-0.494v-18.142c0-0.731,0.528-1.356,1.25-1.479c0.717-0.121,1.425,0.294,1.667,0.985l24.85,71.186    c0.056,0.159,0.084,0.326,0.084,0.494v18.142c0,0.731-0.528,1.356-1.25,1.479C91.749,213.545,91.664,213.552,91.581,213.552z     M68.232,140.612l21.85,62.592v-9.04l-21.85-62.592V140.612z" fill="#071838" id="vgD30VqrZUIDt3HoZJYtS" />
	</g>
	<g id="nvNC2ODtKCxzKDg5_klX">
		<linearGradient id="linearGradient_o8do0Z1B" gradientUnits="userSpaceOnUse" x1="67.8744" y1="185.6848" x2="183.8841" y2="11.6701">
			<stop offset="0" stop-color="#FFF0C2" />
			<stop offset="1" stop-color="#FFD74C" />
		</linearGradient>
		<polygon points="66.02,1.5 122.575,31.439 192.815,14.598 176.422,75.129 226.513,135.362     142.795,136.135 91.583,193.91 66.732,122.724 1.5,97.611 59.273,58.907   " fill="url(#linearGradient_o8do0Z1B)" id="vR91jRBeCWZ3Uk_edZ9yd" />
		<path d="M91.582,195.41c-0.096,0-0.193-0.009-0.29-0.028c-0.522-0.103-0.951-0.475-1.126-0.977    l-24.621-70.53L0.961,99.011c-0.522-0.201-0.889-0.677-0.952-1.233c-0.062-0.556,0.19-1.101,0.656-1.413l57.199-38.319    L64.53,1.325c0.058-0.491,0.354-0.923,0.792-1.153c0.438-0.23,0.962-0.229,1.399,0.002l56.055,29.674l69.689-16.709    c0.515-0.124,1.057,0.034,1.426,0.414c0.369,0.38,0.51,0.926,0.372,1.437l-16.19,59.779l49.593,59.634    c0.371,0.445,0.451,1.064,0.208,1.59c-0.243,0.525-0.768,0.864-1.347,0.869l-83.051,0.767l-50.771,57.276    C92.417,195.229,92.007,195.41,91.582,195.41z M4.735,97.249l62.536,24.075c0.411,0.158,0.732,0.489,0.877,0.906l24.008,68.771    l49.517-55.862c0.282-0.317,0.685-0.501,1.109-0.505l80.557-0.744l-48.07-57.804c-0.312-0.375-0.422-0.879-0.294-1.351    l15.732-58.091l-67.782,16.252c-0.354,0.085-0.728,0.038-1.051-0.133L67.253,3.85l-6.491,55.232    c-0.051,0.436-0.291,0.827-0.655,1.071L4.735,97.249z M59.273,58.907h0.01H59.273z" fill="#071838" id="GiGcBNb2L-rMJig8apAT" />
	</g>
</g></g></g><g transform="translate(1446 1114)" data-asset-index="9"><g clip-path="url(#assetClipPath_etZmI4zl)" transform="scale(1.0035057111280914 1.002349117756151)" data-asset-index="9"><g id="u4YOrpCtK4F2UgUYzO5tJ">
    <g id="BLJWubfiB8bUXR3ThY03">
      <path d="M242.447,105.73l-122.432-1.419c-29.455-.341-50.465-23.566-47.011-51.875h0C76.459,24.126,103.086,1.322,132.562,1.501l122.516.745c29.958.182,51.478,23.563,47.979,52.222h0c-3.498,28.658-30.673,51.608-60.611,51.261Z" fill="#5C7DE5" id="lcI-rPVPwkFUN28N2Yirx" />
      <path d="M243.113,107.234c-.228,0-.456-.001-.684-.004h0l-122.432-1.419c-14.982-.174-28.287-6.044-37.463-16.53-8.793-10.047-12.706-23.197-11.019-37.026C75.04,23.372,102.232,0,132.22,0c.118,0,.233,0,.351,0l122.517.745c15.326.093,28.93,6.013,38.306,16.668,8.89,10.103,12.851,23.327,11.152,37.235-3.556,29.129-31.035,52.584-61.433,52.584ZM242.465,104.23c29.196.342,55.701-22.066,59.104-49.943,1.593-13.048-2.11-25.439-10.427-34.891-8.803-10.004-21.614-15.562-36.073-15.65l-122.517-.745c-.11,0-.224,0-.334,0-28.524,0-54.378,22.19-57.726,49.617-1.583,12.972,2.075,25.291,10.298,34.688,8.607,9.835,21.123,15.342,35.241,15.506l122.432,1.419Z" fill="#071838" id="dsqMZ1kXqrpPWa6lFFMpj" />
    </g>
    <g id="l0DoZDmxWwE3CAnS1QGNZ">
      <path d="M288.513,54.34c2.561-20.982-13.185-38.112-35.123-38.262-21.887-.149-41.661,16.668-44.211,37.561-2.55,20.893,13.08,38.022,34.956,38.26,21.927.238,41.817-16.577,44.378-37.559Z" fill="#E9ECFF" id="jj054zTrjWrD842xG5Prs" />
      <path d="M244.592,93.401c-.159,0-.314,0-.473-.002-11.291-.123-21.309-4.529-28.208-12.408-6.554-7.484-9.474-17.263-8.22-27.533,2.636-21.592,23.179-39.034,45.71-38.879,11.336.077,21.401,4.466,28.341,12.357,6.584,7.489,9.518,17.286,8.261,27.586-2.628,21.531-22.945,38.88-45.41,38.88ZM253.102,17.577c-20.984,0-39.987,16.204-42.434,36.244-1.148,9.413,1.515,18.36,7.5,25.194,6.331,7.228,15.558,11.271,25.984,11.384.147.001.296.002.443.002,20.998,0,39.979-16.171,42.43-36.243,1.152-9.44-1.524-18.404-7.536-25.242-6.367-7.24-15.639-11.267-26.108-11.338-.093,0-.186,0-.278,0Z" fill="#071838" id="OqzIhu_-28-1xUc0eEYKt" />
    </g>
  </g><g id="OQ8MpQct0ojKb9YcrL4xs">
    <g id="TqdZ8TNaVMsSCmOPZQ4sa">
      <path d="M61.043,120.28l121.671,1.519c29.75.371,51.11,23.833,47.623,52.403h0c-3.487,28.569-30.484,51.293-60.214,50.758l-121.586-2.188c-29.253-.526-50.108-23.83-46.664-52.051h0c3.443-28.222,29.898-50.805,59.171-50.44Z" fill="#E9ECFF" id="duPM35Ek7ODHPB7kt6siD" />
      <path d="M171.147,226.468c-.351,0-.7-.003-1.051-.01l-121.586-2.188c-14.844-.268-28.034-6.183-37.141-16.657C2.598,197.527-1.304,184.359.383,170.538c3.527-28.913,30.741-52.141,60.678-51.758l121.671,1.519c15.183.19,28.668,6.155,37.973,16.798,8.868,10.143,12.817,23.385,11.12,37.287-3.531,28.925-30.63,52.086-60.679,52.086ZM60.346,121.775c-28.18,0-53.664,21.903-56.985,49.126-1.582,12.967,2.066,25.307,10.272,34.745,8.542,9.825,20.948,15.374,34.931,15.625l121.586,2.188c29,.507,55.307-21.658,58.698-49.44,1.592-13.044-2.102-25.456-10.401-34.949-8.736-9.992-21.433-15.594-35.752-15.772l-121.671-1.519c-.226-.003-.453-.004-.678-.004Z" fill="#071838" id="nv-23VxWFrmcJT-V2WrfU" />
    </g>
    <g id="Ue6qDv-Nmqd6Bnlt9H">
      <path d="M15.988,170.935c-2.525,20.693,12.776,37.768,34.22,38.138,21.494.371,41.01-16.173,43.546-36.953,2.536-20.78-12.878-37.857-34.382-38.141-21.455-.284-40.858,16.262-43.383,36.956Z" fill="#5C7DE5" id="k_sA_RN-Drxa8erePeNt5" />
      <path d="M50.913,210.578c-.244,0-.487-.002-.731-.006-10.999-.19-20.776-4.57-27.531-12.333-6.507-7.479-9.402-17.24-8.152-27.486l1.489.182-1.489-.182c2.61-21.397,22.8-38.562,44.892-38.274,11.043.146,20.866,4.508,27.659,12.284,6.537,7.482,9.446,17.262,8.192,27.539-2.593,21.25-22.395,38.277-44.33,38.277ZM58.83,135.475c-20.453,0-38.942,15.885-41.353,35.641h0c-1.146,9.392,1.496,18.325,7.438,25.154,6.19,7.113,15.182,11.127,25.319,11.302.228.004.456.006.683.006,20.464,0,38.933-15.854,41.348-35.641,1.149-9.419-1.505-18.369-7.474-25.202-6.225-7.125-15.26-11.123-25.439-11.257-.174-.002-.348-.003-.521-.003Z" fill="#071838" id="gWV6zCxYxxNFlhGVaUkc" />
    </g>
  </g></g></g></svg>