<svg fill="#5bb6ea" xmlns="http://www.w3.org/2000/svg"  viewBox="0 0 16.933 16.933" width="136px" height="136px"><path d="M 25.992188 1.9746094 C 22.690294 1.9746094 19.992188 4.672986 19.992188 7.9746094 A 1.000107 1.0000203 0 0 0 20.044922 8.3066406 C 17.693736 9.1199862 15.992188 11.354794 15.992188 13.974609 C 15.992188 14.147972 16.003032 14.318421 16.017578 14.488281 C 15.927373 14.568777 15.835192 14.647223 15.75 14.732422 C 14.665312 15.81693 13.992188 17.321945 13.992188 18.972656 C 13.992188 20.738723 14.768648 22.327645 15.992188 23.427734 L 15.992188 23.984375 C 15.992188 26.65205 17.678356 28.96022 20.021484 29.712891 A 1.000107 1.0000203 0 0 0 19.992188 29.972656 C 19.992188 33.27418 22.690294 35.972656 25.992188 35.972656 C 28.074632 35.972656 29.915435 34.89824 30.992188 33.277344 C 32.06894 34.89824 33.909743 35.972656 35.992188 35.972656 C 39.294081 35.972656 41.992188 33.27418 41.992188 29.972656 A 1.000107 1.0000203 0 0 0 41.960938 29.712891 C 44.304997 28.960821 45.992188 26.652729 45.992188 23.984375 L 45.992188 23.427734 C 47.215727 22.327645 47.992188 20.738723 47.992188 18.972656 C 47.992188 17.321945 47.319043 15.815076 46.234375 14.730469 C 46.148975 14.645076 46.057218 14.566407 45.966797 14.486328 C 45.981234 14.317098 45.992188 14.147314 45.992188 13.974609 C 45.992188 11.354794 44.290639 9.1199862 41.939453 8.3066406 A 1.000107 1.0000203 0 0 0 41.992188 7.9746094 C 41.992188 4.672986 39.294081 1.9746094 35.992188 1.9746094 C 33.909743 1.9746094 32.06894 3.0490298 30.992188 4.6699219 C 29.915435 3.0490298 28.074632 1.9746094 25.992188 1.9746094 z M 25.992188 3.9746094 C 28.213173 3.9746094 29.992188 5.7537936 29.992188 7.9746094 L 29.992188 29.972656 C 29.992188 32.193372 28.213173 33.972656 25.992188 33.972656 C 23.771202 33.972656 21.992188 32.193372 21.992188 29.972656 A 1.000107 1.0000203 0 0 0 21.992188 29.955078 C 23.445275 29.868534 24.76004 29.208687 25.710938 28.195312 A 1.0003956 1.0003089 0 1 0 24.251953 26.826172 C 23.578648 27.543777 22.676322 27.972656 21.671875 27.972656 C 19.866059 27.972656 18.346101 26.561357 18.054688 24.644531 C 18.66396 24.854155 19.313776 24.972656 19.992188 24.972656 C 22.956016 24.972656 25.426118 22.797705 25.902344 19.964844 C 25.92894 19.965375 25.953753 19.972656 25.980469 19.972656 L 26.978516 19.972656 A 1.000107 1.0000203 0 1 0 26.978516 17.974609 L 25.980469 17.974609 C 24.869331 17.974609 23.992188 17.096089 23.992188 15.988281 A 1.000107 1.0000203 0 0 0 22.976562 14.974609 A 1.000107 1.0000203 0 0 0 21.992188 15.988281 C 21.992188 17.435645 22.786116 18.696087 23.951172 19.394531 C 23.740064 21.411771 22.068698 22.972656 19.992188 22.972656 C 17.771202 22.972656 15.992188 21.193372 15.992188 18.972656 C 15.992188 18.141417 16.243771 17.376521 16.673828 16.740234 C 16.958274 17.286021 17.319658 17.786487 17.75 18.216797 A 1.000107 1.0000203 0 1 0 19.164062 16.802734 C 18.439067 16.077829 17.992188 15.085017 17.992188 13.974609 C 17.992188 11.753794 19.771202 9.9746094 21.992188 9.9746094 C 23.102705 9.9746094 24.095347 10.421479 24.820312 11.146484 A 1.000107 1.0000203 0 1 0 26.234375 9.7324219 C 25.149697 8.6477142 23.643109 7.9746094 21.992188 7.9746094 C 21.992188 5.7537936 23.771202 3.9746094 25.992188 3.9746094 z M 35.992188 3.9746094 C 38.213173 3.9746094 39.992188 5.7537936 39.992188 7.9746094 C 38.341266 7.9746094 36.834688 8.6458611 35.75 9.7304688 A 1.000107 1.0000203 0 1 0 37.164062 11.144531 C 37.889048 10.419626 38.88167 9.9746094 39.992188 9.9746094 C 42.213173 9.9746094 43.992188 11.753794 43.992188 13.974609 C 43.992188 15.085017 43.545298 16.077829 42.820312 16.802734 A 1.000107 1.0000203 0 1 0 44.234375 18.216797 C 44.664709 17.786487 45.0261 17.286021 45.310547 16.740234 C 45.740603 17.376521 45.992188 18.141417 45.992188 18.972656 C 45.992188 21.193372 44.213173 22.972656 41.992188 22.972656 A 1.000107 1.0000203 0 1 0 41.992188 24.972656 C 42.670599 24.972656 43.320415 24.854155 43.929688 24.644531 C 43.638274 26.561357 42.118316 27.972656 40.3125 27.972656 C 39.308053 27.972656 38.405727 27.543777 37.732422 26.826172 A 1.0003956 1.0003089 0 1 0 36.273438 28.195312 C 37.224335 29.208687 38.5391 29.868534 39.992188 29.955078 A 1.000107 1.0000203 0 0 0 39.992188 29.972656 C 39.992188 32.193372 38.213173 33.972656 35.992188 33.972656 C 33.771202 33.972656 31.992188 32.193372 31.992188 29.972656 L 31.992188 26.074219 A 1.000107 1.0000203 0 0 0 32.005859 25.894531 C 32.005859 24.786623 32.884956 23.910156 33.996094 23.910156 L 34.992188 23.910156 A 1.000107 1.0000203 0 1 0 34.992188 21.910156 L 33.996094 21.910156 C 33.263901 21.910156 32.584407 22.124034 31.992188 22.472656 L 31.992188 14.410156 C 32.584529 14.759284 33.263677 14.974609 33.996094 14.974609 L 34.992188 14.974609 A 1.000107 1.0000203 0 1 0 34.992188 12.974609 L 33.996094 12.974609 C 32.884956 12.974609 32.005859 12.096089 32.005859 10.988281 A 1.000107 1.0000203 0 0 0 31.992188 10.818359 L 31.992188 7.9746094 C 31.992188 5.7537936 33.771202 3.9746094 35.992188 3.9746094 z M 40.964844 11.974609 A 1.000107 1.0000203 0 0 0 39.978516 12.988281 C 39.978516 15.274397 38.424704 16.974609 36.669922 16.974609 C 36.231199 16.974609 35.818023 16.872595 35.431641 16.683594 A 1.0001515 1.0000649 0 1 0 34.552734 18.480469 C 35.042557 18.720146 35.577073 18.879974 36.134766 18.943359 C 36.568883 20.673874 38.132684 21.972656 39.992188 21.972656 A 1.000107 1.0000203 0 1 0 39.992188 19.972656 C 39.147243 19.972656 38.439959 19.464852 38.148438 18.734375 C 40.397439 18.003122 41.978516 15.654614 41.978516 12.988281 A 1.000107 1.0000203 0 0 0 40.964844 11.974609 z M 2.9921875 27.974609 L 2.9921875 27.978516 C 1.3471858 27.978516 -0.0078125 29.333604 -0.0078125 30.978516 L -0.0078125 40.976562 C -0.0077524996 41.241764 0.097624921 41.496092 0.28515625 41.683594 L 9.2851562 50.683594 C 9.3750069 50.773094 9.4810554 50.844531 9.5976562 50.894531 L 15.992188 53.634766 L 15.992188 55.976562 L 14.992188 55.976562 C 14.439924 55.976663 13.992248 56.424359 13.992188 56.976562 L 13.992188 60.974609 C 13.992248 61.526813 14.439924 61.974509 14.992188 61.974609 L 28.992188 61.974609 C 29.544451 61.974509 29.992127 61.526813 29.992188 60.974609 C 29.992188 56.609878 29.992198 52.252797 29.992188 47.884766 C 29.992167 43.449434 26.449987 39.830078 22.066406 39.830078 L 16.804688 39.830078 L 12.324219 38.167969 C 11.906876 38.013568 11.476404 37.953562 11.056641 37.976562 C 9.8881623 38.041263 8.8090617 38.757327 8.2988281 39.865234 L 5.9921875 37.558594 L 5.9921875 30.972656 C 5.9921875 29.327745 4.6371892 27.974609 2.9921875 27.974609 z M 60.992188 27.974609 C 59.347186 27.974609 57.992188 29.327745 57.992188 30.972656 L 57.992188 37.558594 L 55.685547 39.865234 C 55.175313 38.757327 54.096213 38.041263 52.927734 37.976562 C 52.507971 37.953562 52.077499 38.013568 51.660156 38.167969 L 47.179688 39.830078 L 41.917969 39.830078 C 37.534388 39.830078 33.992208 43.449434 33.992188 47.884766 C 33.992177 52.252797 33.992188 56.609878 33.992188 60.974609 C 33.992248 61.526813 34.439924 61.974509 34.992188 61.974609 L 48.992188 61.974609 C 49.544451 61.974509 49.992127 61.526813 49.992188 60.974609 L 49.992188 56.976562 C 49.992127 56.424359 49.544451 55.976663 48.992188 55.976562 L 47.992188 55.976562 L 47.992188 53.634766 L 54.386719 50.894531 C 54.50332 50.844531 54.609368 50.773094 54.699219 50.683594 L 63.699219 41.683594 C 63.88675 41.496092 63.992127 41.241764 63.992188 40.976562 L 63.992188 30.978516 C 63.992188 29.333604 62.637189 27.978516 60.992188 27.978516 L 60.992188 27.974609 z M 2.9921875 29.974609 C 3.5563415 29.974609 3.9921875 30.410405 3.9921875 30.974609 L 3.9921875 37.972656 C 3.9922475 38.237858 4.0976249 38.492186 4.2851562 38.679688 C 5.6514559 40.045897 7.0233709 41.440687 8.4003906 42.779297 C 8.7805033 43.488502 9.4018307 44.072645 10.191406 44.373047 L 18.388672 47.492188 C 19.634811 47.967391 20.347701 46.09835 19.101562 45.623047 L 10.904297 42.503906 C 10.264132 42.260305 9.8406515 41.425233 10.064453 40.798828 C 10.308255 40.116123 10.980552 39.802467 11.628906 40.042969 L 16.277344 41.767578 C 16.388605 41.808578 16.506329 41.830078 16.625 41.830078 L 22.066406 41.830078 C 25.35634 41.830078 27.992167 44.502942 27.992188 47.884766 L 27.992188 55.970703 L 17.992188 55.970703 L 17.992188 52.972656 C 17.992608 52.572453 17.754431 52.210535 17.386719 52.052734 L 10.5625 49.128906 L 1.9921875 40.558594 L 1.9921875 30.972656 C 1.9921875 30.408452 2.4280335 29.974609 2.9921875 29.974609 z M 60.992188 29.974609 C 61.556341 29.974609 61.992188 30.408452 61.992188 30.972656 L 61.992188 40.558594 L 53.421875 49.128906 L 46.597656 52.052734 C 46.229944 52.210535 45.991767 52.572453 45.992188 52.972656 L 45.992188 55.970703 L 35.992188 55.970703 L 35.992188 47.884766 C 35.992208 44.502942 38.628035 41.830078 41.917969 41.830078 L 47.359375 41.830078 C 47.478046 41.830078 47.59577 41.808578 47.707031 41.767578 L 52.355469 40.042969 C 53.003823 39.802467 53.67612 40.116123 53.919922 40.798828 C 54.143723 41.425233 53.720243 42.260305 53.080078 42.503906 L 44.882812 45.623047 C 43.636674 46.09835 44.349564 47.967391 45.595703 47.492188 L 53.792969 44.373047 C 54.582544 44.072745 55.203872 43.488502 55.583984 42.779297 C 56.961004 41.440687 58.332919 40.045897 59.699219 38.679688 C 59.88675 38.492186 59.992127 38.237858 59.992188 37.972656 L 59.992188 30.974609 C 59.992188 30.410405 60.428034 29.974609 60.992188 29.974609 z M 15.992188 57.970703 L 27.992188 57.970703 L 27.992188 59.970703 L 15.992188 59.970703 L 15.992188 57.970703 z M 35.992188 57.970703 L 47.992188 57.970703 L 47.992188 59.970703 L 35.992188 59.970703 L 35.992188 57.970703 z" transform="scale(.26458)"/></svg>