<?xml version="1.0"?><svg fill="#5bb6ea" xmlns="http://www.w3.org/2000/svg"  viewBox="0 0 80 80" width="240px" height="240px">    <path d="M 40 7 C 21.786448 7 7 21.786448 7 40 C 7 58.213552 21.786448 73 40 73 C 58.213552 73 73 58.213552 73 40 C 73 21.786448 58.213552 7 40 7 z M 40 9 A 1 1 0 0 0 39 10 A 1 1 0 0 0 40 11 A 1 1 0 0 0 41 10 A 1 1 0 0 0 40.070312 9.0019531 C 41.809476 9.0058301 43.513441 9.1589368 45.173828 9.4375 A 1 1 0 0 0 45 10 A 1 1 0 0 0 46 11 A 1 1 0 0 0 47 10 A 1 1 0 0 0 46.978516 9.796875 C 49.512491 10.379115 51.925814 11.269094 54.179688 12.429688 A 1 1 0 0 0 54 13 A 1 1 0 0 0 55 14 A 1 1 0 0 0 55.917969 13.392578 C 60.301553 16.018974 63.980794 19.696649 66.607422 24.080078 A 1 1 0 0 0 66 25 A 1 1 0 0 0 67 26 A 1 1 0 0 0 67.570312 25.822266 C 68.730517 28.075698 69.621019 30.488088 70.203125 33.021484 A 1 1 0 0 0 70 33 A 1 1 0 0 0 69 34 A 1 1 0 0 0 70 35 A 1 1 0 0 0 70.5625 34.826172 C 70.84484 36.509072 71 38.236329 71 40 A 1 1 0 0 0 70 39 A 1 1 0 0 0 69 40 A 1 1 0 0 0 70 41 A 1 1 0 0 0 70.998047 40.070312 C 70.99417 41.809476 70.841063 43.513441 70.5625 45.173828 A 1 1 0 0 0 70 45 A 1 1 0 0 0 69 46 A 1 1 0 0 0 70 47 A 1 1 0 0 0 70.203125 46.978516 C 69.620885 49.512491 68.730906 51.925814 67.570312 54.179688 A 1 1 0 0 0 67 54 A 1 1 0 0 0 66 55 A 1 1 0 0 0 66.607422 55.917969 C 63.981026 60.301553 60.303351 63.980794 55.919922 66.607422 A 1 1 0 0 0 55 66 A 1 1 0 0 0 54 67 A 1 1 0 0 0 54.177734 67.570312 C 51.924302 68.730517 49.511912 69.621019 46.978516 70.203125 A 1 1 0 0 0 47 70 A 1 1 0 0 0 46 69 A 1 1 0 0 0 45 70 A 1 1 0 0 0 45.173828 70.5625 C 43.490928 70.84484 41.763671 71 40 71 A 1 1 0 0 0 41 70 A 1 1 0 0 0 40 69 A 1 1 0 0 0 39 70 A 1 1 0 0 0 39.929688 70.998047 C 38.190531 70.993963 36.486597 70.841069 34.826172 70.5625 A 1 1 0 0 0 35 70 A 1 1 0 0 0 34 69 A 1 1 0 0 0 33 70 A 1 1 0 0 0 33.021484 70.203125 C 30.4884 69.62109 28.075614 68.727857 25.822266 67.568359 A 1 1 0 0 0 26 67 A 1 1 0 0 0 25 66 A 1 1 0 0 0 24.085938 66.597656 C 23.180029 66.055194 22.301681 65.471032 21.458984 64.841797 A 1 1 0 0 0 22 65 A 1 1 0 0 0 23 64 A 1 1 0 0 0 22 63 A 1 1 0 0 0 21 64 A 1 1 0 0 0 21.378906 64.783203 C 19.055192 63.036544 16.989051 60.968557 15.238281 58.648438 A 1 1 0 0 0 16 59 A 1 1 0 0 0 17 58 A 1 1 0 0 0 16 57 A 1 1 0 0 0 15 58 A 1 1 0 0 0 15.173828 58.564453 C 14.537248 57.714847 13.944604 56.83207 13.396484 55.917969 A 1 1 0 0 0 14 55 A 1 1 0 0 0 13 54 A 1 1 0 0 0 12.425781 54.181641 C 11.264357 51.927482 10.373433 49.511376 9.7910156 46.976562 A 1 1 0 0 0 10 47 A 1 1 0 0 0 11 46 A 1 1 0 0 0 10 45 A 1 1 0 0 0 9.4335938 45.175781 C 9.1510519 43.492732 9 41.76409 9 40 A 1 1 0 0 0 10 41 A 1 1 0 0 0 11 40 A 1 1 0 0 0 10 39 A 1 1 0 0 0 9.0019531 39.929688 C 9.0058301 38.190524 9.1589368 36.486559 9.4375 34.826172 A 1 1 0 0 0 10 35 A 1 1 0 0 0 11 34 A 1 1 0 0 0 10 33 A 1 1 0 0 0 9.796875 33.021484 C 10.379115 30.487509 11.269094 28.074186 12.429688 25.820312 A 1 1 0 0 0 13 26 A 1 1 0 0 0 14 25 A 1 1 0 0 0 13.392578 24.082031 C 16.018974 19.698447 19.696649 16.019206 24.080078 13.392578 A 1 1 0 0 0 25 14 A 1 1 0 0 0 26 13 A 1 1 0 0 0 25.822266 12.429688 C 28.075698 11.269483 30.488088 10.378981 33.021484 9.796875 A 1 1 0 0 0 33 10 A 1 1 0 0 0 34 11 A 1 1 0 0 0 35 10 A 1 1 0 0 0 34.826172 9.4375 C 36.509072 9.1551599 38.236329 9 40 9 z M 31 12 A 1 1 0 0 0 30 13 A 1 1 0 0 0 31 14 A 1 1 0 0 0 32 13 A 1 1 0 0 0 31 12 z M 37 12 A 1 1 0 0 0 36 13 A 1 1 0 0 0 37 14 A 1 1 0 0 0 38 13 A 1 1 0 0 0 37 12 z M 43 12 A 1 1 0 0 0 42 13 A 1 1 0 0 0 43 14 A 1 1 0 0 0 44 13 A 1 1 0 0 0 43 12 z M 49 12 A 1 1 0 0 0 48 13 A 1 1 0 0 0 49 14 A 1 1 0 0 0 50 13 A 1 1 0 0 0 49 12 z M 22 15 A 1 1 0 0 0 21 16 A 1 1 0 0 0 22 17 A 1 1 0 0 0 23 16 A 1 1 0 0 0 22 15 z M 28 15 A 1 1 0 0 0 27 16 A 1 1 0 0 0 28 17 A 1 1 0 0 0 29 16 A 1 1 0 0 0 28 15 z M 34 15 A 1 1 0 0 0 33 16 A 1 1 0 0 0 34 17 A 1 1 0 0 0 35 16 A 1 1 0 0 0 34 15 z M 40 15 A 1 1 0 0 0 39 16 A 1 1 0 0 0 40 17 A 1 1 0 0 0 41 16 A 1 1 0 0 0 40 15 z M 46 15 A 1 1 0 0 0 45 16 A 1 1 0 0 0 46 17 A 1 1 0 0 0 47 16 A 1 1 0 0 0 46 15 z M 52 15 A 1 1 0 0 0 51 16 A 1 1 0 0 0 52 17 A 1 1 0 0 0 53 16 A 1 1 0 0 0 52 15 z M 58 15 A 1 1 0 0 0 57 16 A 1 1 0 0 0 58 17 A 1 1 0 0 0 59 16 A 1 1 0 0 0 58 15 z M 19 18 A 1 1 0 0 0 18 19 A 1 1 0 0 0 19 20 A 1 1 0 0 0 20 19 A 1 1 0 0 0 19 18 z M 25 18 A 1 1 0 0 0 24 19 A 1 1 0 0 0 25 20 A 1 1 0 0 0 26 19 A 1 1 0 0 0 25 18 z M 31 18 A 1 1 0 0 0 30 19 A 1 1 0 0 0 31 20 A 1 1 0 0 0 32 19 A 1 1 0 0 0 31 18 z M 37 18 A 1 1 0 0 0 36 19 A 1 1 0 0 0 37 20 A 1 1 0 0 0 38 19 A 1 1 0 0 0 37 18 z M 43 18 A 1 1 0 0 0 42 19 A 1 1 0 0 0 43 20 A 1 1 0 0 0 44 19 A 1 1 0 0 0 43 18 z M 49 18 A 1 1 0 0 0 48 19 A 1 1 0 0 0 49 20 A 1 1 0 0 0 50 19 A 1 1 0 0 0 49 18 z M 55 18 A 1 1 0 0 0 54 19 A 1 1 0 0 0 55 20 A 1 1 0 0 0 56 19 A 1 1 0 0 0 55 18 z M 61 18 A 1 1 0 0 0 60 19 A 1 1 0 0 0 61 20 A 1 1 0 0 0 62 19 A 1 1 0 0 0 61 18 z M 16 21 A 1 1 0 0 0 15 22 A 1 1 0 0 0 16 23 A 1 1 0 0 0 17 22 A 1 1 0 0 0 16 21 z M 22 21 A 1 1 0 0 0 21 22 A 1 1 0 0 0 22 23 A 1 1 0 0 0 23 22 A 1 1 0 0 0 22 21 z M 28 21 A 1 1 0 0 0 27 22 A 1 1 0 0 0 28 23 A 1 1 0 0 0 29 22 A 1 1 0 0 0 28 21 z M 34 21 A 1 1 0 0 0 33 22 A 1 1 0 0 0 34 23 A 1 1 0 0 0 35 22 A 1 1 0 0 0 34 21 z M 40 21 A 1 1 0 0 0 39 22 A 1 1 0 0 0 40 23 A 1 1 0 0 0 41 22 A 1 1 0 0 0 40 21 z M 46 21 A 1 1 0 0 0 45 22 A 1 1 0 0 0 46 23 A 1 1 0 0 0 47 22 A 1 1 0 0 0 46 21 z M 52 21 A 1 1 0 0 0 51 22 A 1 1 0 0 0 52 23 A 1 1 0 0 0 53 22 A 1 1 0 0 0 52 21 z M 58 21 A 1 1 0 0 0 57 22 A 1 1 0 0 0 58 23 A 1 1 0 0 0 59 22 A 1 1 0 0 0 58 21 z M 64 21 A 1 1 0 0 0 63 22 A 1 1 0 0 0 64 23 A 1 1 0 0 0 65 22 A 1 1 0 0 0 64 21 z M 19 24 A 1 1 0 0 0 18 25 A 1 1 0 0 0 19 26 A 1 1 0 0 0 20 25 A 1 1 0 0 0 19 24 z M 25 24 A 1 1 0 0 0 24 25 A 1 1 0 0 0 25 26 A 1 1 0 0 0 26 25 A 1 1 0 0 0 25 24 z M 31 24 A 1 1 0 0 0 30 25 A 1 1 0 0 0 31 26 A 1 1 0 0 0 32 25 A 1 1 0 0 0 31 24 z M 37 24 A 1 1 0 0 0 36 25 A 1 1 0 0 0 37 26 A 1 1 0 0 0 38 25 A 1 1 0 0 0 37 24 z M 43 24 A 1 1 0 0 0 42 25 A 1 1 0 0 0 43 26 A 1 1 0 0 0 44 25 A 1 1 0 0 0 43 24 z M 49 24 A 1 1 0 0 0 48 25 A 1 1 0 0 0 49 26 A 1 1 0 0 0 50 25 A 1 1 0 0 0 49 24 z M 55 24 A 1 1 0 0 0 54 25 A 1 1 0 0 0 55 26 A 1 1 0 0 0 56 25 A 1 1 0 0 0 55 24 z M 61 24 A 1 1 0 0 0 60 25 A 1 1 0 0 0 61 26 A 1 1 0 0 0 62 25 A 1 1 0 0 0 61 24 z M 16 27 A 1 1 0 0 0 15 28 A 1 1 0 0 0 16 29 A 1 1 0 0 0 17 28 A 1 1 0 0 0 16 27 z M 22 27 A 1 1 0 0 0 21 28 A 1 1 0 0 0 22 29 A 1 1 0 0 0 23 28 A 1 1 0 0 0 22 27 z M 28 27 A 1 1 0 0 0 27 28 A 1 1 0 0 0 28 29 A 1 1 0 0 0 29 28 A 1 1 0 0 0 28 27 z M 34 27 A 1 1 0 0 0 33 28 A 1 1 0 0 0 34 29 A 1 1 0 0 0 35 28 A 1 1 0 0 0 34 27 z M 40 27 A 1 1 0 0 0 39 28 A 1 1 0 0 0 40 29 A 1 1 0 0 0 41 28 A 1 1 0 0 0 40 27 z M 46 27 A 1 1 0 0 0 45 28 A 1 1 0 0 0 46 29 A 1 1 0 0 0 47 28 A 1 1 0 0 0 46 27 z M 52 27 A 1 1 0 0 0 51 28 A 1 1 0 0 0 52 29 A 1 1 0 0 0 53 28 A 1 1 0 0 0 52 27 z M 58 27 A 1 1 0 0 0 57 28 A 1 1 0 0 0 58 29 A 1 1 0 0 0 59 28 A 1 1 0 0 0 58 27 z M 64 27 A 1 1 0 0 0 63 28 A 1 1 0 0 0 64 29 A 1 1 0 0 0 65 28 A 1 1 0 0 0 64 27 z M 13 30 A 1 1 0 0 0 12 31 A 1 1 0 0 0 13 32 A 1 1 0 0 0 14 31 A 1 1 0 0 0 13 30 z M 19 30 A 1 1 0 0 0 18 31 A 1 1 0 0 0 19 32 A 1 1 0 0 0 20 31 A 1 1 0 0 0 19 30 z M 25 30 A 1 1 0 0 0 24 31 A 1 1 0 0 0 25 32 A 1 1 0 0 0 26 31 A 1 1 0 0 0 25 30 z M 31 30 A 1 1 0 0 0 30 31 A 1 1 0 0 0 31 32 A 1 1 0 0 0 32 31 A 1 1 0 0 0 31 30 z M 37 30 A 1 1 0 0 0 36 31 A 1 1 0 0 0 37 32 A 1 1 0 0 0 38 31 A 1 1 0 0 0 37 30 z M 43 30 A 1 1 0 0 0 42 31 A 1 1 0 0 0 43 32 A 1 1 0 0 0 44 31 A 1 1 0 0 0 43 30 z M 49 30 A 1 1 0 0 0 48 31 A 1 1 0 0 0 49 32 A 1 1 0 0 0 50 31 A 1 1 0 0 0 49 30 z M 55 30 A 1 1 0 0 0 54 31 A 1 1 0 0 0 55 32 A 1 1 0 0 0 56 31 A 1 1 0 0 0 55 30 z M 61 30 A 1 1 0 0 0 60 31 A 1 1 0 0 0 61 32 A 1 1 0 0 0 62 31 A 1 1 0 0 0 61 30 z M 67 30 A 1 1 0 0 0 66 31 A 1 1 0 0 0 67 32 A 1 1 0 0 0 68 31 A 1 1 0 0 0 67 30 z M 16 33 A 1 1 0 0 0 15 34 A 1 1 0 0 0 16 35 A 1 1 0 0 0 17 34 A 1 1 0 0 0 16 33 z M 22 33 A 1 1 0 0 0 21 34 A 1 1 0 0 0 22 35 A 1 1 0 0 0 23 34 A 1 1 0 0 0 22 33 z M 28 33 A 1 1 0 0 0 27 34 A 1 1 0 0 0 28 35 A 1 1 0 0 0 29 34 A 1 1 0 0 0 28 33 z M 34 33 A 1 1 0 0 0 33 34 A 1 1 0 0 0 34 35 A 1 1 0 0 0 35 34 A 1 1 0 0 0 34 33 z M 40 33 A 1 1 0 0 0 39 34 A 1 1 0 0 0 40 35 A 1 1 0 0 0 41 34 A 1 1 0 0 0 40 33 z M 46 33 A 1 1 0 0 0 45 34 A 1 1 0 0 0 46 35 A 1 1 0 0 0 47 34 A 1 1 0 0 0 46 33 z M 52 33 A 1 1 0 0 0 51 34 A 1 1 0 0 0 52 35 A 1 1 0 0 0 53 34 A 1 1 0 0 0 52 33 z M 58 33 A 1 1 0 0 0 57 34 A 1 1 0 0 0 58 35 A 1 1 0 0 0 59 34 A 1 1 0 0 0 58 33 z M 64 33 A 1 1 0 0 0 63 34 A 1 1 0 0 0 64 35 A 1 1 0 0 0 65 34 A 1 1 0 0 0 64 33 z M 13 36 A 1 1 0 0 0 12 37 A 1 1 0 0 0 13 38 A 1 1 0 0 0 14 37 A 1 1 0 0 0 13 36 z M 19 36 A 1 1 0 0 0 18 37 A 1 1 0 0 0 19 38 A 1 1 0 0 0 20 37 A 1 1 0 0 0 19 36 z M 25 36 A 1 1 0 0 0 24 37 A 1 1 0 0 0 25 38 A 1 1 0 0 0 26 37 A 1 1 0 0 0 25 36 z M 31 36 A 1 1 0 0 0 30 37 A 1 1 0 0 0 31 38 A 1 1 0 0 0 32 37 A 1 1 0 0 0 31 36 z M 37 36 A 1 1 0 0 0 36 37 A 1 1 0 0 0 37 38 A 1 1 0 0 0 38 37 A 1 1 0 0 0 37 36 z M 43 36 A 1 1 0 0 0 42 37 A 1 1 0 0 0 43 38 A 1 1 0 0 0 44 37 A 1 1 0 0 0 43 36 z M 49 36 A 1 1 0 0 0 48 37 A 1 1 0 0 0 49 38 A 1 1 0 0 0 50 37 A 1 1 0 0 0 49 36 z M 55 36 A 1 1 0 0 0 54 37 A 1 1 0 0 0 55 38 A 1 1 0 0 0 56 37 A 1 1 0 0 0 55 36 z M 61 36 A 1 1 0 0 0 60 37 A 1 1 0 0 0 61 38 A 1 1 0 0 0 62 37 A 1 1 0 0 0 61 36 z M 67 36 A 1 1 0 0 0 66 37 A 1 1 0 0 0 67 38 A 1 1 0 0 0 68 37 A 1 1 0 0 0 67 36 z M 16 39 A 1 1 0 0 0 15 40 A 1 1 0 0 0 16 41 A 1 1 0 0 0 17 40 A 1 1 0 0 0 16 39 z M 22 39 A 1 1 0 0 0 21 40 A 1 1 0 0 0 22 41 A 1 1 0 0 0 23 40 A 1 1 0 0 0 22 39 z M 28 39 A 1 1 0 0 0 27 40 A 1 1 0 0 0 28 41 A 1 1 0 0 0 29 40 A 1 1 0 0 0 28 39 z M 34 39 A 1 1 0 0 0 33 40 A 1 1 0 0 0 34 41 A 1 1 0 0 0 35 40 A 1 1 0 0 0 34 39 z M 40 39 A 1 1 0 0 0 39 40 A 1 1 0 0 0 40 41 A 1 1 0 0 0 41 40 A 1 1 0 0 0 40 39 z M 46 39 A 1 1 0 0 0 45 40 A 1 1 0 0 0 46 41 A 1 1 0 0 0 47 40 A 1 1 0 0 0 46 39 z M 52 39 A 1 1 0 0 0 51 40 A 1 1 0 0 0 52 41 A 1 1 0 0 0 53 40 A 1 1 0 0 0 52 39 z M 58 39 A 1 1 0 0 0 57 40 A 1 1 0 0 0 58 41 A 1 1 0 0 0 59 40 A 1 1 0 0 0 58 39 z M 64 39 A 1 1 0 0 0 63 40 A 1 1 0 0 0 64 41 A 1 1 0 0 0 65 40 A 1 1 0 0 0 64 39 z M 13 42 A 1 1 0 0 0 12 43 A 1 1 0 0 0 13 44 A 1 1 0 0 0 14 43 A 1 1 0 0 0 13 42 z M 19 42 A 1 1 0 0 0 18 43 A 1 1 0 0 0 19 44 A 1 1 0 0 0 20 43 A 1 1 0 0 0 19 42 z M 25 42 A 1 1 0 0 0 24 43 A 1 1 0 0 0 25 44 A 1 1 0 0 0 26 43 A 1 1 0 0 0 25 42 z M 31 42 A 1 1 0 0 0 30 43 A 1 1 0 0 0 31 44 A 1 1 0 0 0 32 43 A 1 1 0 0 0 31 42 z M 37 42 A 1 1 0 0 0 36 43 A 1 1 0 0 0 37 44 A 1 1 0 0 0 38 43 A 1 1 0 0 0 37 42 z M 43 42 A 1 1 0 0 0 42 43 A 1 1 0 0 0 43 44 A 1 1 0 0 0 44 43 A 1 1 0 0 0 43 42 z M 49 42 A 1 1 0 0 0 48 43 A 1 1 0 0 0 49 44 A 1 1 0 0 0 50 43 A 1 1 0 0 0 49 42 z M 55 42 A 1 1 0 0 0 54 43 A 1 1 0 0 0 55 44 A 1 1 0 0 0 56 43 A 1 1 0 0 0 55 42 z M 61 42 A 1 1 0 0 0 60 43 A 1 1 0 0 0 61 44 A 1 1 0 0 0 62 43 A 1 1 0 0 0 61 42 z M 67 42 A 1 1 0 0 0 66 43 A 1 1 0 0 0 67 44 A 1 1 0 0 0 68 43 A 1 1 0 0 0 67 42 z M 16 45 A 1 1 0 0 0 15 46 A 1 1 0 0 0 16 47 A 1 1 0 0 0 17 46 A 1 1 0 0 0 16 45 z M 22 45 A 1 1 0 0 0 21 46 A 1 1 0 0 0 22 47 A 1 1 0 0 0 23 46 A 1 1 0 0 0 22 45 z M 28 45 A 1 1 0 0 0 27 46 A 1 1 0 0 0 28 47 A 1 1 0 0 0 29 46 A 1 1 0 0 0 28 45 z M 34 45 A 1 1 0 0 0 33 46 A 1 1 0 0 0 34 47 A 1 1 0 0 0 35 46 A 1 1 0 0 0 34 45 z M 40 45 A 1 1 0 0 0 39 46 A 1 1 0 0 0 40 47 A 1 1 0 0 0 41 46 A 1 1 0 0 0 40 45 z M 46 45 A 1 1 0 0 0 45 46 A 1 1 0 0 0 46 47 A 1 1 0 0 0 47 46 A 1 1 0 0 0 46 45 z M 52 45 A 1 1 0 0 0 51 46 A 1 1 0 0 0 52 47 A 1 1 0 0 0 53 46 A 1 1 0 0 0 52 45 z M 58 45 A 1 1 0 0 0 57 46 A 1 1 0 0 0 58 47 A 1 1 0 0 0 59 46 A 1 1 0 0 0 58 45 z M 64 45 A 1 1 0 0 0 63 46 A 1 1 0 0 0 64 47 A 1 1 0 0 0 65 46 A 1 1 0 0 0 64 45 z M 13 48 A 1 1 0 0 0 12 49 A 1 1 0 0 0 13 50 A 1 1 0 0 0 14 49 A 1 1 0 0 0 13 48 z M 19 48 A 1 1 0 0 0 18 49 A 1 1 0 0 0 19 50 A 1 1 0 0 0 20 49 A 1 1 0 0 0 19 48 z M 25 48 A 1 1 0 0 0 24 49 A 1 1 0 0 0 25 50 A 1 1 0 0 0 26 49 A 1 1 0 0 0 25 48 z M 31 48 A 1 1 0 0 0 30 49 A 1 1 0 0 0 31 50 A 1 1 0 0 0 32 49 A 1 1 0 0 0 31 48 z M 37 48 A 1 1 0 0 0 36 49 A 1 1 0 0 0 37 50 A 1 1 0 0 0 38 49 A 1 1 0 0 0 37 48 z M 43 48 A 1 1 0 0 0 42 49 A 1 1 0 0 0 43 50 A 1 1 0 0 0 44 49 A 1 1 0 0 0 43 48 z M 49 48 A 1 1 0 0 0 48 49 A 1 1 0 0 0 49 50 A 1 1 0 0 0 50 49 A 1 1 0 0 0 49 48 z M 55 48 A 1 1 0 0 0 54 49 A 1 1 0 0 0 55 50 A 1 1 0 0 0 56 49 A 1 1 0 0 0 55 48 z M 61 48 A 1 1 0 0 0 60 49 A 1 1 0 0 0 61 50 A 1 1 0 0 0 62 49 A 1 1 0 0 0 61 48 z M 67 48 A 1 1 0 0 0 66 49 A 1 1 0 0 0 67 50 A 1 1 0 0 0 68 49 A 1 1 0 0 0 67 48 z M 16 51 A 1 1 0 0 0 15 52 A 1 1 0 0 0 16 53 A 1 1 0 0 0 17 52 A 1 1 0 0 0 16 51 z M 22 51 A 1 1 0 0 0 21 52 A 1 1 0 0 0 22 53 A 1 1 0 0 0 23 52 A 1 1 0 0 0 22 51 z M 28 51 A 1 1 0 0 0 27 52 A 1 1 0 0 0 28 53 A 1 1 0 0 0 29 52 A 1 1 0 0 0 28 51 z M 34 51 A 1 1 0 0 0 33 52 A 1 1 0 0 0 34 53 A 1 1 0 0 0 35 52 A 1 1 0 0 0 34 51 z M 40 51 A 1 1 0 0 0 39 52 A 1 1 0 0 0 40 53 A 1 1 0 0 0 41 52 A 1 1 0 0 0 40 51 z M 46 51 A 1 1 0 0 0 45 52 A 1 1 0 0 0 46 53 A 1 1 0 0 0 47 52 A 1 1 0 0 0 46 51 z M 52 51 A 1 1 0 0 0 51 52 A 1 1 0 0 0 52 53 A 1 1 0 0 0 53 52 A 1 1 0 0 0 52 51 z M 58 51 A 1 1 0 0 0 57 52 A 1 1 0 0 0 58 53 A 1 1 0 0 0 59 52 A 1 1 0 0 0 58 51 z M 64 51 A 1 1 0 0 0 63 52 A 1 1 0 0 0 64 53 A 1 1 0 0 0 65 52 A 1 1 0 0 0 64 51 z M 19 54 A 1 1 0 0 0 18 55 A 1 1 0 0 0 19 56 A 1 1 0 0 0 20 55 A 1 1 0 0 0 19 54 z M 25 54 A 1 1 0 0 0 24 55 A 1 1 0 0 0 25 56 A 1 1 0 0 0 26 55 A 1 1 0 0 0 25 54 z M 31 54 A 1 1 0 0 0 30 55 A 1 1 0 0 0 31 56 A 1 1 0 0 0 32 55 A 1 1 0 0 0 31 54 z M 37 54 A 1 1 0 0 0 36 55 A 1 1 0 0 0 37 56 A 1 1 0 0 0 38 55 A 1 1 0 0 0 37 54 z M 43 54 A 1 1 0 0 0 42 55 A 1 1 0 0 0 43 56 A 1 1 0 0 0 44 55 A 1 1 0 0 0 43 54 z M 49 54 A 1 1 0 0 0 48 55 A 1 1 0 0 0 49 56 A 1 1 0 0 0 50 55 A 1 1 0 0 0 49 54 z M 55 54 A 1 1 0 0 0 54 55 A 1 1 0 0 0 55 56 A 1 1 0 0 0 56 55 A 1 1 0 0 0 55 54 z M 61 54 A 1 1 0 0 0 60 55 A 1 1 0 0 0 61 56 A 1 1 0 0 0 62 55 A 1 1 0 0 0 61 54 z M 22 57 A 1 1 0 0 0 21 58 A 1 1 0 0 0 22 59 A 1 1 0 0 0 23 58 A 1 1 0 0 0 22 57 z M 28 57 A 1 1 0 0 0 27 58 A 1 1 0 0 0 28 59 A 1 1 0 0 0 29 58 A 1 1 0 0 0 28 57 z M 34 57 A 1 1 0 0 0 33 58 A 1 1 0 0 0 34 59 A 1 1 0 0 0 35 58 A 1 1 0 0 0 34 57 z M 40 57 A 1 1 0 0 0 39 58 A 1 1 0 0 0 40 59 A 1 1 0 0 0 41 58 A 1 1 0 0 0 40 57 z M 46 57 A 1 1 0 0 0 45 58 A 1 1 0 0 0 46 59 A 1 1 0 0 0 47 58 A 1 1 0 0 0 46 57 z M 52 57 A 1 1 0 0 0 51 58 A 1 1 0 0 0 52 59 A 1 1 0 0 0 53 58 A 1 1 0 0 0 52 57 z M 58 57 A 1 1 0 0 0 57 58 A 1 1 0 0 0 58 59 A 1 1 0 0 0 59 58 A 1 1 0 0 0 58 57 z M 64 57 A 1 1 0 0 0 63 58 A 1 1 0 0 0 64 59 A 1 1 0 0 0 65 58 A 1 1 0 0 0 64 57 z M 19 60 A 1 1 0 0 0 18 61 A 1 1 0 0 0 19 62 A 1 1 0 0 0 20 61 A 1 1 0 0 0 19 60 z M 25 60 A 1 1 0 0 0 24 61 A 1 1 0 0 0 25 62 A 1 1 0 0 0 26 61 A 1 1 0 0 0 25 60 z M 31 60 A 1 1 0 0 0 30 61 A 1 1 0 0 0 31 62 A 1 1 0 0 0 32 61 A 1 1 0 0 0 31 60 z M 37 60 A 1 1 0 0 0 36 61 A 1 1 0 0 0 37 62 A 1 1 0 0 0 38 61 A 1 1 0 0 0 37 60 z M 43 60 A 1 1 0 0 0 42 61 A 1 1 0 0 0 43 62 A 1 1 0 0 0 44 61 A 1 1 0 0 0 43 60 z M 49 60 A 1 1 0 0 0 48 61 A 1 1 0 0 0 49 62 A 1 1 0 0 0 50 61 A 1 1 0 0 0 49 60 z M 55 60 A 1 1 0 0 0 54 61 A 1 1 0 0 0 55 62 A 1 1 0 0 0 56 61 A 1 1 0 0 0 55 60 z M 61 60 A 1 1 0 0 0 60 61 A 1 1 0 0 0 61 62 A 1 1 0 0 0 62 61 A 1 1 0 0 0 61 60 z M 28 63 A 1 1 0 0 0 27 64 A 1 1 0 0 0 28 65 A 1 1 0 0 0 29 64 A 1 1 0 0 0 28 63 z M 34 63 A 1 1 0 0 0 33 64 A 1 1 0 0 0 34 65 A 1 1 0 0 0 35 64 A 1 1 0 0 0 34 63 z M 40 63 A 1 1 0 0 0 39 64 A 1 1 0 0 0 40 65 A 1 1 0 0 0 41 64 A 1 1 0 0 0 40 63 z M 46 63 A 1 1 0 0 0 45 64 A 1 1 0 0 0 46 65 A 1 1 0 0 0 47 64 A 1 1 0 0 0 46 63 z M 52 63 A 1 1 0 0 0 51 64 A 1 1 0 0 0 52 65 A 1 1 0 0 0 53 64 A 1 1 0 0 0 52 63 z M 58 63 A 1 1 0 0 0 57 64 A 1 1 0 0 0 58 65 A 1 1 0 0 0 59 64 A 1 1 0 0 0 58 63 z M 31 66 A 1 1 0 0 0 30 67 A 1 1 0 0 0 31 68 A 1 1 0 0 0 32 67 A 1 1 0 0 0 31 66 z M 37 66 A 1 1 0 0 0 36 67 A 1 1 0 0 0 37 68 A 1 1 0 0 0 38 67 A 1 1 0 0 0 37 66 z M 43 66 A 1 1 0 0 0 42 67 A 1 1 0 0 0 43 68 A 1 1 0 0 0 44 67 A 1 1 0 0 0 43 66 z M 49 66 A 1 1 0 0 0 48 67 A 1 1 0 0 0 49 68 A 1 1 0 0 0 50 67 A 1 1 0 0 0 49 66 z"/></svg>