<svg fill="#5bb6ea" xmlns="http://www.w3.org/2000/svg"  viewBox="0 0 512 512" width="256px" height="256px"><path d="M256,21A235,235,0,0,0,89.83,422.17,235,235,0,1,0,422.17,89.83,233.459,233.459,0,0,0,256,21ZM92.061,149.5a194.159,194.159,0,0,0-34.6,98.893,5,5,0,0,1-4.985,4.682c-.107,0-.215,0-.324-.011a5,5,0,0,1-4.671-5.308A204.162,204.162,0,0,1,83.865,143.774a5,5,0,0,1,8.2,5.729Zm34.85-38a197.258,197.258,0,0,0-18.542,17.7,5,5,0,1,1-7.363-6.767,207.278,207.278,0,0,1,19.485-18.6,5,5,0,1,1,6.42,7.667Z"/></svg>