<?xml version="1.0"?><svg fill="#5bb6ea" xmlns="http://www.w3.org/2000/svg"  viewBox="0 0 64 64" width="256px" height="256px">    <path d="M 32 3 C 16.009 3 3 16.009 3 32 C 3 47.991 16.009 61 32 61 C 47.991 61 61 47.991 61 32 C 61 16.009 47.991 3 32 3 z M 32 5 C 46.888 5 59 17.112 59 32 C 59 46.888 46.888 59 32 59 C 17.112 59 5 46.888 5 32 C 5 17.112 17.112 5 32 5 z M 36.369141 8.3964844 C 35.826141 8.2964844 35.305078 8.6572188 35.205078 9.1992188 C 35.105078 9.7422188 35.464813 10.263281 36.007812 10.363281 C 42.878812 11.624281 48.789359 16.128156 51.818359 22.410156 C 51.990359 22.767156 52.34675 22.974609 52.71875 22.974609 C 52.86475 22.974609 53.012344 22.943953 53.152344 22.876953 C 53.649344 22.636953 53.859141 22.039016 53.619141 21.541016 C 50.313141 14.687016 43.864141 9.7724844 36.369141 8.3964844 z M 54.066406 24.150391 C 53.937203 24.137594 53.803375 24.150156 53.671875 24.191406 C 53.144875 24.354406 52.847719 24.914406 53.011719 25.441406 C 53.355719 26.551406 53.612344 27.700516 53.777344 28.853516 C 53.848344 29.352516 54.275625 29.712891 54.765625 29.712891 C 54.812625 29.712891 54.861203 29.709172 54.908203 29.701172 C 55.455203 29.623172 55.835813 29.117313 55.757812 28.570312 C 55.578813 27.312313 55.296875 26.060609 54.921875 24.849609 C 54.799625 24.453609 54.454016 24.188781 54.066406 24.150391 z M 10.162109 34.632812 L 8.1875 34.958984 C 7.6425 35.048984 7.2752344 35.565375 7.3652344 36.109375 C 7.4462344 36.599375 7.8696094 36.945312 8.3496094 36.945312 C 8.4036094 36.945313 8.458625 36.940641 8.515625 36.931641 L 10.488281 36.605469 C 11.032281 36.515469 11.4025 36.000078 11.3125 35.455078 C 11.2215 34.911078 10.704109 34.544812 10.162109 34.632812 z M 11.548828 38.990234 C 11.418812 38.986516 11.2855 39.008594 11.15625 39.058594 L 9.2949219 39.787109 C 8.7799219 39.988109 8.5255625 40.567031 8.7265625 41.082031 C 8.8805625 41.477031 9.2582031 41.71875 9.6582031 41.71875 C 9.7782031 41.71875 9.9014844 41.697391 10.021484 41.650391 L 11.884766 40.921875 C 12.399766 40.720875 12.652172 40.141953 12.451172 39.626953 C 12.301172 39.241453 11.938875 39.001391 11.548828 38.990234 z M 13.412109 43.042969 C 13.284297 43.066172 13.160422 43.113703 13.044922 43.189453 L 11.371094 44.285156 C 10.909094 44.587156 10.779031 45.207922 11.082031 45.669922 C 11.273031 45.962922 11.593922 46.121094 11.919922 46.121094 C 12.107922 46.121094 12.297797 46.068984 12.466797 45.958984 L 14.138672 44.863281 C 14.600672 44.561281 14.730734 43.940516 14.427734 43.478516 C 14.201234 43.132016 13.795547 42.973359 13.412109 43.042969 z M 16.443359 46.556641 C 16.187609 46.556641 15.931828 46.654109 15.736328 46.849609 L 14.322266 48.263672 C 13.931266 48.654672 13.931266 49.286734 14.322266 49.677734 C 14.517266 49.872734 14.773297 49.970703 15.029297 49.970703 C 15.285297 49.970703 15.541328 49.872734 15.736328 49.677734 L 17.150391 48.263672 C 17.541391 47.872672 17.541391 47.240609 17.150391 46.849609 C 16.954891 46.654109 16.699109 46.556641 16.443359 46.556641 z M 20.152344 49.423828 C 19.768906 49.354453 19.363219 49.515578 19.136719 49.861328 L 18.042969 51.533203 C 17.740969 51.995203 17.868078 52.615969 18.330078 52.917969 C 18.499078 53.028969 18.690906 53.082031 18.878906 53.082031 C 19.204906 53.082031 19.522844 52.922906 19.714844 52.628906 L 20.810547 50.955078 C 21.112547 50.493078 20.983484 49.874266 20.521484 49.572266 C 20.405984 49.496516 20.280156 49.446953 20.152344 49.423828 z M 23.980469 51.480469 C 23.590656 51.491484 23.228875 51.729734 23.078125 52.115234 L 22.349609 53.978516 C 22.148609 54.492516 22.402969 55.072437 22.917969 55.273438 C 23.036969 55.320437 23.16025 55.34375 23.28125 55.34375 C 23.68125 55.34375 24.058891 55.101078 24.212891 54.705078 L 24.941406 52.84375 C 25.142406 52.32975 24.888047 51.749828 24.373047 51.548828 C 24.243797 51.498578 24.110406 51.476797 23.980469 51.480469 z M 28.544922 52.689453 C 27.999922 52.597453 27.484531 52.967719 27.394531 53.511719 L 27.066406 55.484375 C 26.976406 56.029375 27.345625 56.544766 27.890625 56.634766 C 27.946625 56.644766 28.000688 56.648438 28.054688 56.648438 C 28.535688 56.648437 28.958063 56.3025 29.039062 55.8125 L 29.367188 53.839844 C 29.457188 53.294844 29.089922 52.779453 28.544922 52.689453 z"/></svg>