<svg fill="#5bb6ea" xmlns="http://www.w3.org/2000/svg"  viewBox="0 0 32 32" width="192px" height="192px"><path d="M 12 3 A 3 3 0 0 0 9 6 L 9 6.1738281 A 3 3 0 0 0 7 9 L 7 10.173828 A 3 3 0 0 0 5 13 L 5 26 A 3 3 0 0 0 8 29 L 24 29 A 3 3 0 0 0 27 26 L 27 13 A 3 3 0 0 0 25 10.175781 L 25 9 A 3 3 0 0 0 23 6.1757812 L 23 6 A 3 3 0 0 0 20 3 L 12 3 z M 12 5 L 20 5 A 1 1 0 0 1 21 6 L 11 6 A 1 1 0 0 1 12 5 z M 10 8 L 22 8 A 1 1 0 0 1 23 9 L 23 10 L 9 10 L 9 9 A 1 1 0 0 1 10 8 z M 8 12 L 24 12 A 1 1 0 0 1 25 13 L 25 26 A 1 1 0 0 1 24 27 L 8 27 A 1 1 0 0 1 7 26 L 7 13 A 1 1 0 0 1 8 12 z"/></svg>