<svg xmlns="http://www.w3.org/2000/svg" xmlns:xlink="http://www.w3.org/1999/xlink" viewBox="0,0,256,256" width="200px" height="200px" fill-rule="nonzero"><g fill="none" fill-rule="nonzero" stroke="none" stroke-width="1" stroke-linecap="none" stroke-linejoin="none" stroke-miterlimit="10" stroke-dasharray="" stroke-dashoffset="0" font-family="none" font-weight="none" font-size="none" text-anchor="none" style="mix-blend-mode: normal"><g transform="scale(2.56,2.56)"><circle cx="50" cy="50" r="36.5" fill="#95d8ff" stroke="none" stroke-linecap="butt" stroke-linejoin="miter"></circle><path d="M44.062,75.662c7.621,-5.9 5.034,-15.029 5.034,-15.029c5.465,-5.087 11.136,-12.403 7.572,-16.101c-2.923,-3.033 -6.582,-1.544 -9.522,0.608c-2.94,2.152 -10.497,9.444 -10.497,9.444c-1.866,1.437 -7.409,6.216 -9.431,9.631" fill="none" stroke="#231f20" stroke-linecap="round" stroke-linejoin="round"></path><path d="M15.107,75.931c0,0 3.632,-7.714 11.578,-18.292" fill="none" stroke="#231f20" stroke-linecap="round" stroke-linejoin="round"></path><path d="M50.501,94.362c0,0 5.202,-12.765 11.958,-23.465" fill="none" stroke="#231f20" stroke-linecap="round" stroke-linejoin="round"></path><path d="M57.787,62.147l-0.865,2.671c-0.803,2.479 2.233,9.472 10.303,4.056c5.752,-3.86 5.513,-12.623 -0.433,-13.901" fill="none" stroke="#231f20" stroke-linecap="round" stroke-linejoin="round"></path><path d="M66.945,48.856c0.592,1.02 0.845,2.455 0.171,5.064c-1.965,7.603 -9.639,8.284 -9.639,8.284c-3.064,0.47 -5.73,-2.386 -4.984,-5.034" fill="none" stroke="#231f20" stroke-linecap="round" stroke-linejoin="round"></path><path d="M57.404,49.541c0.531,3.285 7.291,3.612 10.074,-1.541c2.665,-4.934 0.984,-9.927 -2.084,-10.685" fill="none" stroke="#231f20" stroke-linecap="round" stroke-linejoin="round"></path><path d="M2.174,59.972l80.313,-32.667l13.47,-5.479l-74.087,5.609l-7.827,9.13l46.981,-7.805l-51.415,13.479z" fill="none" stroke="#231f20" stroke-linecap="round" stroke-linejoin="round"></path><path d="M54.508,42.972l35.597,-18.766" fill="none" stroke="#231f20" stroke-linecap="round" stroke-linejoin="round"></path><path d="M17.743,53.639l4.518,6.333l19.721,-10.397" fill="none" stroke="#231f20" stroke-linecap="round" stroke-linejoin="round"></path><path d="M14.043,36.565l2.004,4.035" fill="none" stroke="#231f20" stroke-linecap="round" stroke-linejoin="round"></path></g></g></svg>