<svg fill="#5bb6ea" xmlns="http://www.w3.org/2000/svg"  viewBox="0 0 50 50" width="150px" height="150px"><path d="M 7 2 L 7 43 L 11 43 L 11 47 L 33 47 L 33 45 L 13 45 L 13 8 L 41 8 L 41 31.091797 L 43 31.091797 L 43 6 L 39 6 L 39 2 L 7 2 z M 9 4 L 37 4 L 37 6 L 11 6 L 11 41 L 9 41 L 9 4 z M 20.519531 11 C 18.339531 11.04 18.155078 12.730375 18.580078 14.359375 C 18.580078 14.359375 18.353234 14.588109 18.365234 14.912109 C 18.387234 15.524109 18.794922 15.71875 18.794922 15.71875 C 18.872922 16.28775 19.374687 16.797578 19.554688 16.892578 C 19.554688 17.255578 19.590688 17.532688 19.554688 17.929688 C 19.123687 19.088687 16.245328 18.763 16.111328 21 L 25 21 C 24.866 18.763 21.986688 19.089687 21.554688 17.929688 C 21.518687 17.532688 21.554688 17.255578 21.554688 16.892578 C 21.802688 16.773578 22.210969 16.29675 22.292969 15.71875 C 22.292969 15.71875 22.720703 15.447141 22.720703 14.994141 C 22.720703 14.678141 22.61625 14.443422 22.53125 14.357422 C 22.76125 13.665422 23.155672 11.550781 21.638672 11.550781 C 21.475672 11.263781 21.064531 11 20.519531 11 z M 30 13 A 1.0001 1.0001 0 1 0 30 15 L 37 15 A 1.0001 1.0001 0 1 0 37 13 L 30 13 z M 30 18 A 1.0001 1.0001 0 1 0 30 20 L 37 20 A 1.0001 1.0001 0 1 0 37 18 L 30 18 z M 17 27 A 1.0001 1.0001 0 1 0 17 29 L 30 29 A 1.0001 1.0001 0 1 0 30 27 L 17 27 z M 35 27 A 1.0001 1.0001 0 1 0 35 29 L 37 29 A 1.0001 1.0001 0 1 0 37 27 L 35 27 z M 17 33 A 1.0001 1.0001 0 1 0 17 35 L 27 35 A 1.0001 1.0001 0 1 0 27 33 L 17 33 z M 35 33 L 35 34 L 35 50 L 50 50 L 50 33 L 35 33 z M 37 35 L 48 35 L 48 38 L 37 38 L 37 35 z M 17 39 A 1.0001 1.0001 0 1 0 17 41 L 30 41 A 1.0001 1.0001 0 1 0 30 39 L 17 39 z M 37 40 L 48 40 L 48 43 L 37 43 L 37 40 z M 37 45 L 48 45 L 48 48 L 37 48 L 37 45 z"/></svg>