<svg xmlns="http://www.w3.org/2000/svg" xmlns:xlink="http://www.w3.org/1999/xlink" viewBox="0,0,256,256" width="200px" height="200px" fill-rule="nonzero"><g fill="none" fill-rule="nonzero" stroke="none" stroke-width="1" stroke-linecap="none" stroke-linejoin="none" stroke-miterlimit="10" stroke-dasharray="" stroke-dashoffset="0" font-family="none" font-weight="none" font-size="none" text-anchor="none" style="mix-blend-mode: normal"><g transform="scale(2.56,2.56)"><circle cx="50" cy="50" r="36.5" fill="#e0f4ff" stroke="none" stroke-linecap="butt" stroke-linejoin="miter"></circle><path d="M53.343,54.161c7.617,0.341 10.417,-1.447 16.149,-3.934c5.244,-2.275 6.72,3.257 6.072,5.038" fill="none" stroke="#231f20" stroke-linecap="round" stroke-linejoin="round"></path><path d="M7.404,60.809c0,0 16.482,-11.138 34.958,-8" fill="none" stroke="#231f20" stroke-linecap="round" stroke-linejoin="round"></path><path d="M78.94,63.208c4.093,-5.473 -1.869,-9.132 -4.747,-7.45c0,0 -9.67,5.03 -16.258,5.725" fill="none" stroke="#231f20" stroke-linecap="round" stroke-linejoin="round"></path><path d="M59.261,68.747c0,0 7.77,-0.992 13.859,-4.862c5.921,-3.763 11.593,2.722 5.131,7.441c-5.925,4.327 -13.215,7.726 -33.214,10.584c-18.649,2.665 -22.26,5.177 -25.056,7.087" fill="none" stroke="#231f20" stroke-linecap="round" stroke-linejoin="round"></path><path d="M28.748,59.963c0,0 4.077,-0.501 9.27,3.532c3.482,2.326 5.904,1.688 8.419,0.452c4.658,-2.29 9.922,3.91 2.595,8.999c-7.327,5.09 -18.281,6.196 -18.281,6.196" fill="none" stroke="#231f20" stroke-linecap="round" stroke-linejoin="round"></path><circle cx="47.963" cy="52.818" r="5.41" fill="none" stroke="#231f20" stroke-linecap="round" stroke-linejoin="round"></circle><path d="M65.166,22.891c0.612,-8.771 -7.515,-14.551 -15.382,-14.551c-5.376,0 -10.08,1.999 -13.314,5.998l6.767,8.349c3.861,-4.118 8.543,-3.801 9.949,-1.446c1.168,1.956 0.556,4.659 -2.912,6.801c-4.318,2.667 -8.16,7.009 -8.16,12.085v3.633h10.927v-2.068c-0.031,-7.757 11.307,-7.082 12.125,-18.801z" fill="none" stroke="#231f20" stroke-linecap="round" stroke-linejoin="round"></path></g></g></svg>