<svg fill="#5bb6ea" xmlns="http://www.w3.org/2000/svg"  viewBox="0 0 80 80" width="240px" height="240px"><path d="M 42.953125 6.988281 C 42.589844 7.007813 42.265625 7.222656 42.105469 7.554688 L 38.257813 15.25 C 37.4375 15.457031 33.035156 16.6875 30.203125 22.144531 L 30.175781 22.1875 L 29.429688 24.0625 C 29.3125 24.019531 29.1875 24 29.0625 24 C 26.335938 24 23.914063 25.367188 22.453125 27.449219 L 14.371094 38.175781 L 9.628906 40.074219 C 9.28125 40.195313 9.03125 40.496094 8.972656 40.859375 C 8.914063 41.222656 9.0625 41.585938 9.351563 41.808594 C 9.644531 42.035156 10.035156 42.078125 10.371094 41.925781 L 15.371094 39.925781 C 15.539063 39.859375 15.6875 39.746094 15.796875 39.601563 L 24.074219 28.625 C 24.082031 28.613281 24.085938 28.605469 24.09375 28.59375 C 25.117188 27.132813 26.761719 26.152344 28.648438 26.027344 L 24.6875 35.953125 L 17.953125 43.203125 L 18.660156 43.882813 C 18.660156 43.882813 19.394531 44.589844 20.628906 45.777344 C 22.386719 47.460938 24.992188 47.617188 27.476563 46.949219 C 29.960938 46.28125 32.449219 44.796875 34.328125 42.84375 C 34.777344 42.371094 35.367188 41.53125 36.207031 40.328125 C 37.050781 39.125 38.0625 37.640625 39.035156 36.195313 C 40.832031 33.527344 42.242188 31.382813 42.496094 31 L 65 31 C 65.003906 31 65.003906 31 65.007813 31 C 67.222656 31.003906 69 32.78125 69 35 C 69 37.21875 67.21875 39 65 39 L 63 39 C 62.453125 39.007813 62.015625 39.453125 62.015625 40 C 62.015625 40.546875 62.453125 40.992188 63 41 C 65.21875 41 67 42.78125 67 45 C 67 47.21875 65.21875 49 63 49 L 62 49 C 61.453125 49.007813 61.015625 49.453125 61.015625 50 C 61.015625 50.546875 61.453125 50.992188 62 51 C 64.21875 51 66 52.78125 66 55 C 66 56.90625 64.675781 58.476563 62.902344 58.886719 C 62.519531 58.976563 62.222656 59.277344 62.148438 59.664063 C 62.070313 60.046875 62.222656 60.441406 62.542969 60.671875 C 63.425781 61.3125 64 62.328125 64 63.5 C 64 65.445313 62.445313 67 60.5 67 L 55 67 L 55 64 C 55 61.25 52.75 59 50 59 C 48.324219 59 46.910156 59.886719 46 61.160156 C 45.089844 59.886719 43.675781 59 42 59 C 40.324219 59 38.910156 59.886719 38 61.160156 C 37.089844 59.886719 35.675781 59 34 59 C 32.324219 59 30.910156 59.886719 30 61.160156 C 29.089844 59.886719 27.675781 59 26 59 C 23.25 59 21 61.25 21 64 L 21 67 L 10 67 C 9.640625 66.996094 9.304688 67.183594 9.121094 67.496094 C 8.941406 67.808594 8.941406 68.191406 9.121094 68.503906 C 9.304688 68.816406 9.640625 69.003906 10 69 L 21.425781 69 C 22.203125 70.761719 23.960938 72 26 72 C 27.675781 72 29.089844 71.113281 30 69.839844 C 30.910156 71.113281 32.324219 72 34 72 C 35.675781 72 37.089844 71.113281 38 69.839844 C 38.910156 71.113281 40.324219 72 42 72 C 43.675781 72 45.089844 71.113281 46 69.839844 C 46.910156 71.113281 48.324219 72 50 72 C 52.039063 72 53.796875 70.761719 54.574219 69 L 60.5 69 C 63.527344 69 66 66.527344 66 63.5 C 66 62.242188 65.46875 61.175781 64.753906 60.25 C 66.664063 59.246094 68 57.300781 68 55 C 68 53.078125 67.027344 51.4375 65.609375 50.339844 C 67.597656 49.355469 69 47.355469 69 45 C 69 43.242188 68.203125 41.695313 66.992188 40.59375 C 69.308594 39.765625 71 37.597656 71 35 C 71 32.15625 69 29.769531 66.335938 29.15625 L 66.808594 27.734375 C 67.558594 25.484375 67.207031 23.070313 66.046875 21.015625 L 67.949219 15.316406 C 68.054688 15.011719 68.007813 14.675781 67.824219 14.410156 C 67.636719 14.144531 67.335938 13.988281 67.011719 13.984375 C 66.574219 13.984375 66.183594 14.265625 66.050781 14.683594 L 63.613281 22 L 64.335938 22 C 65.210938 23.558594 65.484375 25.394531 64.910156 27.105469 L 64.28125 29 L 42.136719 29 C 41.734375 28.933594 41.332031 29.113281 41.121094 29.457031 C 41.121094 29.457031 39.316406 32.195313 37.375 35.078125 C 36.40625 36.519531 35.398438 37.996094 34.570313 39.179688 C 33.742188 40.363281 33 41.335938 32.886719 41.457031 C 31.273438 43.132813 29.035156 44.460938 26.957031 45.015625 C 24.882813 45.574219 23.089844 45.363281 22.015625 44.332031 C 21.226563 43.574219 21.074219 43.425781 20.753906 43.121094 L 26.40625 37.042969 L 31.984375 23.054688 C 34.703125 17.835938 39.195313 16.980469 39.195313 16.980469 L 39.675781 16.886719 L 43.894531 8.445313 C 44.058594 8.128906 44.042969 7.746094 43.847656 7.445313 C 43.652344 7.144531 43.3125 6.96875 42.953125 6.988281 Z M 57 17 C 56.449219 17 56 17.449219 56 18 C 56 18.550781 56.449219 19 57 19 C 57.550781 19 58 18.550781 58 18 C 58 17.449219 57.550781 17 57 17 Z M 61 18 C 60.449219 18 60 18.449219 60 19 C 60 19.550781 60.449219 20 61 20 C 61.550781 20 62 19.550781 62 19 C 62 18.449219 61.550781 18 61 18 Z M 55 39 C 54.449219 39 54 39.449219 54 40 C 54 40.550781 54.449219 41 55 41 C 55.550781 41 56 40.550781 56 40 C 56 39.449219 55.550781 39 55 39 Z M 59 39 C 58.449219 39 58 39.449219 58 40 C 58 40.550781 58.449219 41 59 41 C 59.550781 41 60 40.550781 60 40 C 60 39.449219 59.550781 39 59 39 Z M 58 49 C 57.449219 49 57 49.449219 57 50 C 57 50.550781 57.449219 51 58 51 C 58.550781 51 59 50.550781 59 50 C 59 49.449219 58.550781 49 58 49 Z M 59 59 C 58.449219 59 58 59.449219 58 60 C 58 60.550781 58.449219 61 59 61 C 59.550781 61 60 60.550781 60 60 C 60 59.449219 59.550781 59 59 59 Z M 26 61 C 27.667969 61 29 62.332031 29 64 C 29.007813 64.546875 29.453125 64.984375 30 64.984375 C 30.546875 64.984375 30.992188 64.546875 31 64 C 31 62.332031 32.332031 61 34 61 C 35.667969 61 37 62.332031 37 64 C 37 64.035156 37.003906 64.066406 37.003906 64.097656 C 37.011719 64.164063 37.027344 64.230469 37.046875 64.296875 C 37.070313 64.359375 37.097656 64.421875 37.128906 64.480469 C 37.160156 64.535156 37.199219 64.589844 37.246094 64.640625 C 37.355469 64.769531 37.492188 64.863281 37.652344 64.921875 C 37.714844 64.945313 37.777344 64.964844 37.84375 64.972656 C 37.875 64.980469 37.910156 64.984375 37.941406 64.984375 C 38.011719 64.988281 38.078125 64.984375 38.140625 64.976563 C 38.175781 64.972656 38.207031 64.964844 38.238281 64.957031 C 38.304688 64.941406 38.367188 64.917969 38.429688 64.890625 C 38.460938 64.875 38.488281 64.859375 38.515625 64.84375 C 38.601563 64.789063 38.679688 64.726563 38.746094 64.652344 C 38.789063 64.601563 38.828125 64.546875 38.863281 64.488281 C 38.929688 64.375 38.976563 64.246094 38.992188 64.113281 C 38.996094 64.074219 39 64.039063 39 64 C 39 62.332031 40.332031 61 42 61 C 43.667969 61 45 62.332031 45 64 C 45 64.035156 45.003906 64.066406 45.003906 64.097656 C 45.011719 64.132813 45.015625 64.167969 45.023438 64.199219 C 45.082031 64.464844 45.242188 64.691406 45.46875 64.835938 C 45.5 64.851563 45.527344 64.867188 45.558594 64.882813 C 45.589844 64.898438 45.617188 64.910156 45.652344 64.921875 C 45.714844 64.945313 45.777344 64.964844 45.84375 64.972656 C 45.875 64.980469 45.910156 64.984375 45.941406 64.984375 C 45.976563 64.984375 46.011719 64.984375 46.042969 64.984375 C 46.109375 64.980469 46.175781 64.972656 46.238281 64.957031 C 46.304688 64.941406 46.367188 64.917969 46.429688 64.890625 C 46.488281 64.859375 46.546875 64.824219 46.597656 64.785156 C 46.625 64.765625 46.652344 64.746094 46.675781 64.722656 C 46.777344 64.632813 46.855469 64.523438 46.910156 64.402344 C 46.925781 64.371094 46.9375 64.339844 46.949219 64.308594 C 46.957031 64.273438 46.96875 64.242188 46.972656 64.210938 C 46.980469 64.179688 46.988281 64.144531 46.992188 64.113281 C 46.996094 64.074219 47 64.039063 47 64 C 47 62.332031 48.332031 61 50 61 C 51.667969 61 53 62.332031 53 64 L 53 67 C 53 68.667969 51.667969 70 50 70 C 48.332031 70 47 68.667969 47 67 C 47 66.964844 46.996094 66.933594 46.996094 66.902344 C 46.988281 66.835938 46.972656 66.769531 46.953125 66.703125 C 46.929688 66.640625 46.902344 66.578125 46.871094 66.519531 C 46.839844 66.464844 46.800781 66.410156 46.753906 66.359375 C 46.691406 66.285156 46.613281 66.21875 46.53125 66.164063 C 46.5 66.148438 46.472656 66.132813 46.441406 66.117188 C 46.410156 66.101563 46.382813 66.089844 46.347656 66.078125 C 46.316406 66.066406 46.285156 66.054688 46.253906 66.046875 C 46.15625 66.023438 46.058594 66.011719 45.957031 66.015625 C 45.890625 66.019531 45.824219 66.027344 45.761719 66.042969 C 45.726563 66.050781 45.695313 66.0625 45.664063 66.074219 C 45.632813 66.082031 45.601563 66.097656 45.570313 66.109375 C 45.480469 66.152344 45.394531 66.210938 45.324219 66.277344 C 45.25 66.347656 45.1875 66.425781 45.136719 66.511719 C 45.121094 66.539063 45.105469 66.570313 45.089844 66.597656 C 45.074219 66.628906 45.0625 66.660156 45.050781 66.691406 C 45.042969 66.726563 45.03125 66.757813 45.027344 66.789063 C 45.011719 66.855469 45 66.917969 45 66.984375 C 45 66.992188 45 66.996094 45 67 C 45 68.667969 43.667969 70 42 70 C 40.332031 70 39 68.667969 39 67 C 39 66.964844 38.996094 66.933594 38.996094 66.902344 C 38.988281 66.867188 38.984375 66.832031 38.976563 66.800781 C 38.960938 66.734375 38.941406 66.671875 38.917969 66.609375 C 38.835938 66.425781 38.699219 66.269531 38.53125 66.164063 C 38.269531 66.003906 37.953125 65.96875 37.664063 66.074219 C 37.601563 66.09375 37.539063 66.125 37.484375 66.15625 C 37.425781 66.191406 37.371094 66.230469 37.324219 66.277344 C 37.273438 66.324219 37.230469 66.375 37.1875 66.425781 C 37.171875 66.453125 37.152344 66.484375 37.136719 66.511719 C 37.121094 66.539063 37.105469 66.570313 37.089844 66.597656 C 37.0625 66.660156 37.039063 66.722656 37.027344 66.789063 C 37.011719 66.855469 37 66.917969 37 66.984375 C 37 66.992188 37 66.996094 37 67 C 37 68.667969 35.667969 70 34 70 C 32.332031 70 31 68.667969 31 67 C 30.992188 66.453125 30.546875 66.015625 30 66.015625 C 29.453125 66.015625 29.007813 66.453125 29 67 C 29 68.667969 27.667969 70 26 70 C 24.332031 70 23 68.667969 23 67 L 23 64 C 23 62.332031 24.332031 61 26 61 Z"/></svg>