<svg xmlns="http://www.w3.org/2000/svg" xmlns:xlink="http://www.w3.org/1999/xlink" viewBox="0,0,256,256" width="200px" height="200px" fill-rule="nonzero"><g fill="none" fill-rule="nonzero" stroke="none" stroke-width="1" stroke-linecap="none" stroke-linejoin="none" stroke-miterlimit="10" stroke-dasharray="" stroke-dashoffset="0" font-family="none" font-weight="none" font-size="none" text-anchor="none" style="mix-blend-mode: normal"><g transform="scale(2.56,2.56)"><circle cx="50" cy="50" r="36.5" fill="#d5f0ff" stroke="none" stroke-linecap="butt" stroke-linejoin="miter"></circle><path d="M13.143,59.243c0,0 17.102,-11.032 35.577,-7.895c16.352,2.777 18.731,0.688 26.511,-2.688c5.244,-2.275 6.72,3.257 6.072,5.038" fill="none" stroke="#231f20" stroke-linecap="round" stroke-linejoin="round"></path><path d="M84.679,61.642c4.093,-5.473 -1.869,-9.132 -4.747,-7.45c0,0 -9.67,5.03 -16.258,5.725" fill="none" stroke="#231f20" stroke-linecap="round" stroke-linejoin="round"></path><path d="M65,67.181c0,0 7.77,-0.992 13.859,-4.862c5.921,-3.763 11.593,2.722 5.131,7.441c-5.925,4.327 -13.215,7.726 -33.214,10.584c-18.649,2.665 -22.26,5.177 -25.056,7.087" fill="none" stroke="#231f20" stroke-linecap="round" stroke-linejoin="round"></path><path d="M34.487,58.397c0,0 4.077,-0.501 9.27,3.532c3.482,2.326 5.904,1.688 8.419,0.452c4.658,-2.29 9.922,3.91 2.595,8.999c-7.327,5.09 -18.281,6.196 -18.281,6.196" fill="none" stroke="#231f20" stroke-linecap="round" stroke-linejoin="round"></path><path d="M40.5,33.5h-9c-1.105,0 -2,-0.895 -2,-2v-9c0,-1.105 0.895,-2 2,-2h9c1.105,0 2,0.895 2,2v9c0,1.105 -0.895,2 -2,2z" fill="none" stroke="#231f20" stroke-linecap="round" stroke-linejoin="round"></path><path d="M64.5,21.5h-9c-1.105,0 -2,-0.895 -2,-2v-9c0,-1.105 0.895,-2 2,-2h9c1.105,0 2,0.895 2,2v9c0,1.105 -0.895,2 -2,2z" fill="none" stroke="#231f20" stroke-linecap="round" stroke-linejoin="round"></path><path d="M64.5,45.5h-9c-1.105,0 -2,-0.895 -2,-2v-9c0,-1.105 0.895,-2 2,-2h9c1.105,0 2,0.895 2,2v9c0,1.105 -0.895,2 -2,2z" fill="none" stroke="#231f20" stroke-linecap="round" stroke-linejoin="round"></path><path d="M42.5,26.5l11,-12" fill="none" stroke="#231f20" stroke-linecap="round" stroke-linejoin="round"></path><path d="M53.5,39.5l-11,-12" fill="none" stroke="#231f20" stroke-linecap="round" stroke-linejoin="round"></path></g></g></svg>