<svg xmlns="http://www.w3.org/2000/svg"  viewBox="0 0 64 64" width="128px" height="128px"><circle cx="25.275" cy="33.417" r="9.725" fill="#54FEBD"/><circle cx="47" cy="11.244" r="7.875" fill="#54FEBD"/><path fill="#1D1B4C" d="M53.58887,45.73047c-0.51953,0-0.95801-0.40137-0.99609-0.92773 c-0.04004-0.55078,0.37402-1.0293,0.9248-1.06934C57.15234,43.46875,60,40.40137,60,36.75 c0-0.81055-0.14063-1.60254-0.41797-2.35352c-0.16797-0.4541,0.01367-0.96387,0.43066-1.20898 C61.25684,32.45605,62,31.1709,62,29.75c0-1.44336-0.79492-2.77832-2.07324-3.48535 c-0.28027-0.1543-0.46875-0.43359-0.50879-0.75098s0.0752-0.63477,0.30859-0.85352C60.54785,23.88965,61,22.85645,61,21.75 c0-1.34473-0.67285-2.5918-1.80078-3.33496c-0.36133-0.23828-0.52832-0.68359-0.41309-1.10156 C58.92773,16.7998,59,16.27344,59,15.75c0-3.30859-2.69141-6-6-6c-0.43457,0-0.87207,0.04883-1.2998,0.14551 c-0.4834,0.1123-0.97656-0.15527-1.1543-0.61914C49.51465,6.56836,46.88379,4.75,44,4.75 c-1.90723,0-3.68652,0.75488-5.01172,2.125c-0.21582,0.22168-0.52441,0.33203-0.83008,0.29883 c-0.30762-0.03516-0.58301-0.20996-0.74316-0.47559C36.67383,5.47852,35.39746,4.75,34,4.75 c-1.0957,0-2.12109,0.44043-2.88867,1.24121c-0.36035,0.37598-0.94629,0.41309-1.35059,0.08594 C28.70215,5.22168,27.36621,4.75,26,4.75c-2.67285,0-4.98047,1.71777-5.74219,4.27539 c-0.08984,0.30273-0.31738,0.54492-0.61328,0.65332c-0.29785,0.1084-0.62695,0.07129-0.8916-0.10059 C17.92383,9.03613,16.97168,8.75,16,8.75c-2.4502,0-4.57031,1.82129-4.93066,4.2373 c-0.0625,0.4209-0.38477,0.75586-0.80273,0.83496C8.37402,14.18164,7,15.83301,7,17.75c0,0.26074,0.03223,0.54492,0.09961,0.86816 c0.05566,0.26855-0.00195,0.54883-0.15918,0.77441c-0.1582,0.22559-0.40137,0.37598-0.67285,0.41699 C3.83496,20.1709,2,22.29492,2,24.75c0,1.2041,0.43359,2.36133,1.22168,3.26074c0.26172,0.29883,0.32227,0.72363,0.15332,1.08398 C3.12598,29.62598,3,30.18262,3,30.75c0,2.20605,1.79395,4,4,4c0.31348,0,0.63867-0.05176,1.08594-0.1748 c0.49609-0.13379,1.0127,0.12695,1.19727,0.60645c0.76758,2.00098,2.97559,3.12207,5.14063,2.29395 c0.44141-0.16699,0.94531-0.00293,1.2002,0.39844C16.37109,39.04883,17.63281,39.75,19,39.75 c1.32031,0,2.55566-0.65527,3.30371-1.75391c0.18652-0.27344,0.49512-0.43652,0.82617-0.43652c0.00391,0,0.00684,0,0.01074,0 c0.33398,0.00391,0.64453,0.17383,0.82715,0.4541C25.08301,39.72754,26.96387,40.75,29,40.75 c1.03223,0,2.05859-0.27246,2.96582-0.78906c0.24414-0.13867,0.5332-0.16992,0.80078-0.08301 c0.2666,0.08594,0.48535,0.28027,0.60254,0.53516C34.02051,41.83301,35.44629,42.75,37,42.75 c1.66406,0,3.16699-1.05762,3.74023-2.63184c0.18848-0.51855,0.76465-0.78613,1.28125-0.59766 c0.51953,0.18848,0.78711,0.7627,0.59766,1.28125C41.75977,43.16309,39.50098,44.75,37,44.75 c-1.98828,0-3.83594-0.99902-4.94336-2.61133C31.08789,42.54004,30.04688,42.75,29,42.75 c-2.27734,0-4.4082-0.95801-5.91309-2.61328C21.98828,41.16309,20.5332,41.75,19,41.75c-1.79492,0-3.4668-0.7998-4.60449-2.17285 c-2.66113,0.66016-5.34277-0.60742-6.61133-2.88965C7.54102,36.72461,7.27734,36.75,7,36.75c-3.30859,0-6-2.69141-6-6 c0-0.65332,0.1084-1.29492,0.32422-1.91406C0.4668,27.65527,0,26.22656,0,24.75c0-3.10449,2.09473-5.83203,5.00879-6.7041 C5.00293,17.94629,5,17.84766,5,17.75c0-2.64453,1.74023-4.95313,4.22461-5.72559C9.99609,8.97461,12.7959,6.75,16,6.75 c0.95508,0,1.89551,0.19629,2.77051,0.57422C20.07129,4.5459,22.84473,2.75,26,2.75c1.53418,0,3.03809,0.44531,4.31934,1.26758 C31.36914,3.19531,32.64844,2.75,34,2.75c1.70215,0,3.28223,0.71289,4.40918,1.95215C39.99023,3.43652,41.9375,2.75,44,2.75 c3.43066,0,6.58301,2,8.08398,5.05371C52.38867,7.76758,52.69434,7.75,53,7.75c4.41113,0,8,3.58887,8,8 c0,0.47461-0.04395,0.9502-0.13086,1.41992C62.21484,18.30273,63,19.96875,63,21.75c0,1.2373-0.39453,2.44727-1.1084,3.4541 C63.21387,26.33008,64,27.98535,64,29.75c0,1.86621-0.84766,3.57422-2.30176,4.70605C61.89844,35.2002,62,35.96875,62,36.75 c0,4.69434-3.66211,8.63867-8.33789,8.97754C53.6377,45.72949,53.61328,45.73047,53.58887,45.73047z"/><path fill="#1D1B4C" d="M53,23.75c-0.55273,0-1-0.44727-1-1s0.44727-1,1-1c2.70605,0,5.08789-1.82129,5.79199-4.42871 c0.14453-0.53418,0.69629-0.84863,1.22656-0.70508c0.5332,0.14453,0.84863,0.69336,0.70508,1.22656 C59.7832,21.32129,56.60742,23.75,53,23.75z"/><path fill="#1D1B4C" d="M40.88574,20.12109c-0.12988,0-0.26172-0.02539-0.38867-0.0791 c-1.07031-0.45215-2.0332-1.10059-2.86133-1.92676c-0.82715-0.8291-1.47559-1.79199-1.92773-2.8623 C35.23828,14.14453,35,12.96582,35,11.75c0-0.59863,0.05957-1.19727,0.17578-1.7793 c0.11621-0.57324,0.28613-1.13281,0.50684-1.66406c0.21777-0.52637,0.48828-1.03516,0.80273-1.51074 c0.30859-0.46875,0.66602-0.91309,1.06152-1.31934c0.38574-0.39453,1.01855-0.40527,1.41406-0.01953 c0.39551,0.38477,0.4043,1.01855,0.01953,1.41406c-0.30762,0.31641-0.58496,0.66113-0.82617,1.02637 c-0.24512,0.37109-0.4541,0.76563-0.62402,1.1748c-0.1709,0.41309-0.30371,0.84766-0.39355,1.29297 C37.0459,10.81641,37,11.2832,37,11.75c0,0.94629,0.18457,1.86328,0.5498,2.72461 c0.35156,0.83203,0.85645,1.58105,1.50098,2.22559c0.64355,0.64355,1.39258,1.14844,2.22363,1.5 c0.50879,0.21484,0.74707,0.80176,0.53223,1.30957C41.64551,19.8916,41.27539,20.12109,40.88574,20.12109z"/><path fill="#1D1B4C" d="M60.5293,35.04004c-0.41016,0-0.79395-0.25391-0.94141-0.66211 c-0.11914-0.33105-0.2666-0.65918-0.4375-0.97363c-0.16797-0.30762-0.36133-0.60645-0.5752-0.8877 s-0.44922-0.54688-0.69824-0.78809c-0.25-0.24316-0.52246-0.4707-0.81055-0.67773c-0.28711-0.2041-0.5918-0.38965-0.90625-0.54883 c-0.31543-0.16016-0.64844-0.29785-0.98828-0.40918c-0.3457-0.1123-0.70117-0.19824-1.05664-0.25488 c-0.83008-0.13281-1.70801-0.11426-2.52539,0.05469c-0.45117,0.0918-0.89258,0.22949-1.31543,0.40723 c-0.41113,0.17383-0.81055,0.3916-1.1875,0.64551c-0.36816,0.24805-0.71777,0.53613-1.03809,0.85547 c-0.3916,0.38965-1.02441,0.38965-1.41406-0.00195c-0.38965-0.39063-0.38965-1.02441,0.00195-1.41406 c0.41016-0.40918,0.8584-0.77832,1.33203-1.09766c0.4834-0.32617,0.99805-0.60547,1.52832-0.8291 c0.54297-0.23047,1.1123-0.40625,1.69043-0.52441c1.0498-0.21777,2.1748-0.24121,3.24414-0.07031 c0.45703,0.07324,0.91406,0.18359,1.36035,0.32813c0.4375,0.14355,0.86523,0.32031,1.27344,0.52734 c0.4043,0.20508,0.7959,0.44238,1.16406,0.70605c0.37109,0.26563,0.7207,0.55762,1.04102,0.86914 c0.31836,0.30859,0.62109,0.64941,0.89648,1.01172c0.27441,0.36133,0.52344,0.74512,0.73926,1.1416 c0.2207,0.40527,0.41016,0.82715,0.56445,1.25488c0.18652,0.51953-0.08301,1.0918-0.60352,1.2793 C60.75586,35.02148,60.6416,35.04004,60.5293,35.04004z"/><path fill="#1D1B4C" d="M22,14.75c-0.55273,0-1-0.44727-1-1c0-1.68652-0.8418-3.24805-2.25293-4.17773 c-0.46094-0.30371-0.58789-0.92383-0.28418-1.38574c0.30371-0.45898,0.92285-0.58691,1.38574-0.28418 C21.82227,9.20313,23,11.38965,23,13.75C23,14.30273,22.55273,14.75,22,14.75z"/><path fill="#1D1B4C" d="M23.13281,39.56738c-0.32617,0-0.64551-0.15918-0.83789-0.45215 c-0.2041-0.3125-0.38867-0.64355-0.54883-0.98535c-0.15918-0.34277-0.29492-0.7002-0.40527-1.06543 c-0.1123-0.36719-0.19727-0.74902-0.25391-1.13281C21.0293,35.54102,21,35.14355,21,34.75 c0-1.07715,0.21191-2.125,0.62891-3.11328c0.40332-0.95313,0.97949-1.80859,1.71387-2.54297 c0.73438-0.73535,1.59082-1.31152,2.54297-1.71484c0.50879-0.21484,1.0957,0.02246,1.31055,0.53125 s-0.02246,1.0957-0.53125,1.31055c-0.71387,0.30273-1.35645,0.73535-1.9082,1.28711 c-0.55078,0.55176-0.9834,1.19336-1.28613,1.90723C23.1582,33.15527,23,33.94141,23,34.75 c0,0.2959,0.02246,0.5957,0.06543,0.89063c0.04199,0.28613,0.10547,0.56934,0.18945,0.84375 c0.08301,0.27637,0.18555,0.54492,0.30371,0.7998c0.11914,0.25488,0.25781,0.50293,0.41016,0.73535 c0.30176,0.46191,0.17285,1.08203-0.28906,1.38477C23.51074,39.51465,23.32031,39.56738,23.13281,39.56738z"/><path fill="#1D1B4C" d="M15.10059,24.74023c-0.05957,0-0.11914-0.00488-0.17969-0.01563 c-0.54297-0.09863-0.9043-0.61914-0.80566-1.16309C14.63379,20.70508,16.97656,17.75,20,17.75c0.55273,0,1,0.44727,1,1 s-0.44727,1-1,1c-1.88965,0-3.55078,2.15527-3.91602,4.16895C15.99609,24.40137,15.5752,24.74023,15.10059,24.74023z"/><path fill="#1D1B4C" d="M23,25.75h-3.75098c-3.13965,0-6.19824-1.52344-8.39063-4.17969C9.9043,20.41309,8.49805,19.75,7,19.75 c-0.24902,0-0.49316,0.01758-0.73145,0.05371c-0.55762,0.0752-1.05566-0.29492-1.1377-0.84082 c-0.08105-0.54688,0.29492-1.05566,0.84082-1.1377C6.30664,17.77539,6.65234,17.75,7,17.75 c2.09668,0,4.06543,0.92871,5.40137,2.54688c1.81055,2.19434,4.30664,3.45313,6.84766,3.45313H23c1.10254,0,2-0.89746,2-2 c0-0.55273,0.44727-1,1-1s1,0.44727,1,1C27,23.95605,25.20605,25.75,23,25.75z"/><path fill="#1D1B4C" d="M28,35.75c-0.26855,0-0.53613-0.10742-0.73242-0.31934c-1.2627-1.35938-3.05469-1.94141-4.79395-1.56445 c-0.54492,0.11816-1.07324-0.22363-1.19043-0.7627c-0.11816-0.54004,0.22363-1.07324,0.7627-1.19043 c2.43945-0.5332,4.93848,0.27246,6.68652,2.15625c0.37598,0.40527,0.35254,1.03809-0.05176,1.41309 C28.48828,35.66113,28.24414,35.75,28,35.75z"/><path fill="#1D1B4C" d="M49.93066,30.36035c-0.28516,0-0.56836-0.12109-0.7666-0.35645C46.99023,27.41992,44.17871,25.75,42,25.75 c-0.55273,0-1-0.44727-1-1s0.44727-1,1-1c2.78613,0,6.11816,1.90332,8.69531,4.9668 c0.35547,0.42285,0.30078,1.05371-0.12207,1.40918C50.38574,30.2832,50.15723,30.36035,49.93066,30.36035z"/><path fill="#1D1B4C" d="M34.00586,16.75195c-1.75781,0-3.49609-0.81445-4.77734-2.36523 c-0.35156-0.42578-0.29102-1.05664,0.13477-1.4082c0.42773-0.35059,1.05664-0.29004,1.4082,0.13477 c1.43164,1.73438,3.58105,2.13477,5.34668,0.99609c0.46484-0.29883,1.08203-0.16602,1.38281,0.29883 c0.29883,0.46484,0.16504,1.08301-0.29883,1.38281C36.19824,16.4375,35.09863,16.75195,34.00586,16.75195z"/><path fill="#1D1B4C" d="M47.61426,49.72754c-0.1084,0-0.21777-0.00293-0.32617-0.00977 c-1.04102-0.06445-2.04102-0.42773-2.97168-1.07813c-2.20605-1.53125-2.68164-3.8252-3.10156-5.84863 c-0.1416-0.67871-0.28711-1.37988-0.49023-2.03418c-0.16406-0.52734,0.13086-1.08789,0.6582-1.25195 c0.5293-0.16113,1.08789,0.13184,1.25195,0.6582c0.23242,0.74609,0.3877,1.49609,0.53809,2.2207 c0.39355,1.89746,0.7334,3.53613,2.28711,4.61523c0.62793,0.43848,1.2832,0.68066,1.95215,0.72266 c1.7373,0.0957,3.74805-1.22266,5.35352-3.55762c0.31348-0.45508,0.93652-0.57031,1.39063-0.25781 c0.45508,0.31348,0.57031,0.93555,0.25781,1.39063C52.46582,48.12988,50.00488,49.72754,47.61426,49.72754z"/><path fill="#1D1B4C" d="M46.11621,60.99805c-1.83691,0-3.57813-1.0752-4.35352-2.81836l-1.19629-2.69336 c-0.40625-0.90723-1.01367-1.72852-1.75293-2.37109c-0.74805-0.65234-1.61914-1.12402-2.59082-1.4043 c-2.50098-0.70996-4.5498-2.49023-5.61621-4.88379l-2.08008-4.69141c-0.22363-0.50488,0.00391-1.0957,0.50879-1.31934 c0.50684-0.22559,1.09668,0.00391,1.31934,0.50879l2.0791,4.68945c0.82422,1.84863,2.40625,3.22461,4.33984,3.77344 c1.25781,0.3623,2.38477,0.97461,3.35352,1.81836c0.95605,0.83105,1.74023,1.89063,2.26563,3.06445l1.19824,2.69629 c0.55273,1.24414,1.95508,1.9043,3.2666,1.52637c0.74121-0.21191,1.34277-0.70703,1.69336-1.39355 c0.34961-0.68652,0.39746-1.46387,0.13379-2.18848l-2.27441-6.25c-0.18945-0.51855,0.07813-1.09277,0.59766-1.28125 c0.51563-0.18848,1.09277,0.07813,1.28125,0.59766l2.27441,6.25c0.44922,1.23242,0.36523,2.61133-0.23145,3.78027 c-0.59668,1.16992-1.66309,2.04785-2.92578,2.40918C46.97852,60.93945,46.54492,60.99805,46.11621,60.99805z"/><path fill="#1D1B4C" d="M8.35059,36.56543c-0.43652,0-0.83789-0.28809-0.96191-0.73047 c-0.14941-0.53125,0.16113-1.08301,0.69336-1.23242C9.7998,34.12109,11,32.53711,11,30.75c0-0.55273,0.44727-1,1-1s1,0.44727,1,1 c0,2.67969-1.80078,5.05566-4.37891,5.77832C8.53125,36.55371,8.44043,36.56543,8.35059,36.56543z"/><path fill="#1D1B4C" d="M55,33.75c-0.55273,0-1-0.44727-1-1c0-1.56738,0.73828-3.04883,1.97559-3.96387 c0.44434-0.33008,1.07031-0.2334,1.39844,0.20898c0.3291,0.44434,0.23535,1.07031-0.20898,1.39844 C56.4248,30.94141,56,31.7998,56,32.75C56,33.30273,55.55273,33.75,55,33.75z"/><path fill="#1D1B4C" d="M53.58887,45.73047c-0.19238,0-0.38672-0.05566-0.55859-0.1709 c-0.45801-0.30957-0.57813-0.93066-0.26953-1.38867c0.92969-1.37695,0.1748-3.79688-0.40137-4.27832 c-0.42383-0.35352-0.48145-0.98438-0.12695-1.4082c0.35254-0.42383,0.98242-0.48242,1.4082-0.12695 c1.37891,1.14941,2.27539,4.71289,0.77832,6.93262C54.22559,45.57617,53.91016,45.73047,53.58887,45.73047z"/></svg>