<svg fill="#5bb6ea" xmlns="http://www.w3.org/2000/svg"  viewBox="0 0 48 48" width="144px" height="144px"><path d="M 19.320312 4 C 16.120313 4 13.439063 6.2103906 12.789062 9.1503906 C 8.7890625 9.7803906 5.7304688 13.189531 5.7304688 17.269531 C 5.7304688 17.639531 5.7603125 18.020391 5.8203125 18.400391 C 4.6203125 20.070391 4 21.99 4 24 C 4 25.85 4.390625 27.529219 5.140625 28.949219 C 6.270625 26.979219 8.1392188 25.449297 10.199219 25.029297 C 11.009219 24.869297 11.810703 25.389219 11.970703 26.199219 C 12.130703 27.009219 11.610781 27.810703 10.800781 27.970703 C 9.2707813 28.280703 7.8002344 29.860078 7.2402344 31.580078 L 7.25 31.589844 C 7.12 32.139844 7.0507812 32.69 7.0507812 33.25 C 7.0507812 36.35 9.0207813 39.019375 11.800781 40.109375 C 11.780781 39.909375 11.769531 39.7 11.769531 39.5 C 11.769531 38.19 12.119297 36.909297 12.779297 35.779297 C 13.209297 35.059297 14.129844 34.83 14.839844 35.25 C 15.549844 35.67 15.789141 36.590781 15.369141 37.300781 C 14.969141 37.970781 14.769531 38.73 14.769531 39.5 C 14.769531 39.96 14.840469 40.400547 14.980469 40.810547 L 14.980469 40.830078 C 15.940469 42.730078 17.929688 44 20.179688 44 C 23.389688 44 26 41.440781 26 38.300781 L 26 22.429688 C 24.52 23.959688 22.61 25 20.5 25 C 19.67 25 19 24.33 19 23.5 C 19 22.67 19.67 22 20.5 22 C 23.41 22 26 18.37 26 15.5 L 26 10.550781 C 26 6.9407812 23.000312 4 19.320312 4 z M 37 6 A 4 4 0 0 0 33.671875 12.208984 L 30.609375 15.269531 C 30.179375 15.699531 29.61 15.960234 29 15.990234 L 29 18.990234 C 30.41 18.960234 31.730469 18.390625 32.730469 17.390625 L 36.203125 13.916016 A 4 4 0 0 0 37 14 A 4 4 0 0 0 37 6 z M 17.507812 12.001953 C 18.199063 12.005508 18.830703 12.493437 18.970703 13.210938 C 19.130703 14.020938 18.609063 14.810703 17.789062 14.970703 C 14.359063 15.660703 14.900703 18.840938 14.970703 19.210938 C 15.130703 20.020937 14.609063 20.810703 13.789062 20.970703 C 13.699063 20.990703 13.6 21 13.5 21 C 12.8 21 12.169297 20.509063 12.029297 19.789062 C 11.509297 17.189062 12.460937 12.979297 17.210938 12.029297 C 17.310938 12.009297 17.409063 12.001445 17.507812 12.001953 z M 41 20 A 4 4 0 0 0 37.294922 22.5 L 29 22.5 L 29 25.5 L 37.296875 25.5 A 4 4 0 0 0 41 28 A 4 4 0 0 0 41 20 z M 16.5625 28.996094 C 16.661074 29.000293 16.759375 29.014063 16.859375 29.039062 C 18.729375 29.509062 21.980703 31.729063 20.970703 36.789062 C 20.830703 37.509062 20.2 38 19.5 38 C 19.4 38 19.300937 37.990703 19.210938 37.970703 C 18.390937 37.810703 17.869297 37.020938 18.029297 36.210938 C 18.699297 32.850938 16.549141 32.069219 16.119141 31.949219 C 15.329141 31.729219 14.850547 30.909141 15.060547 30.119141 C 15.244297 29.427891 15.87248 28.966699 16.5625 28.996094 z M 29 29.009766 L 29 32.009766 C 29.61 32.039766 30.179375 32.300469 30.609375 32.730469 L 33.669922 35.789062 A 4 4 0 0 0 37 42 A 4 4 0 0 0 37 34 A 4 4 0 0 0 36.201172 34.082031 L 32.730469 30.609375 C 31.730469 29.609375 30.41 29.039766 29 29.009766 z"/></svg>