<svg xmlns="http://www.w3.org/2000/svg" xmlns:xlink="http://www.w3.org/1999/xlink" viewBox="0,0,256,256" width="200px" height="200px" fill-rule="nonzero"><g fill="none" fill-rule="nonzero" stroke="none" stroke-width="1" stroke-linecap="none" stroke-linejoin="none" stroke-miterlimit="10" stroke-dasharray="" stroke-dashoffset="0" font-family="none" font-weight="none" font-size="none" text-anchor="none" style="mix-blend-mode: normal"><g transform="scale(2.56,2.56)"><circle cx="50" cy="50" r="36.5" fill="#5bb6ea" stroke="none" stroke-linecap="butt" stroke-linejoin="miter"></circle><path d="M52.41,50.751v-30.66c-5.705,4.381 -9.546,6.57 -11.522,6.57c-0.943,0 -1.78,-0.376 -2.51,-1.129c-0.73,-0.752 -1.096,-1.622 -1.096,-2.611c0,-1.145 0.359,-1.987 1.078,-2.526c0.719,-0.539 1.988,-1.235 3.808,-2.089c2.718,-1.28 4.891,-2.628 6.52,-4.043c1.628,-1.415 3.071,-2.998 4.329,-4.75c1.258,-1.752 2.077,-2.83 2.459,-3.234c0.382,-0.404 1.101,-0.607 2.156,-0.607c1.19,0 2.146,0.461 2.864,1.382c0.718,0.921 1.078,2.19 1.078,3.808v38.576c0,4.515 -1.539,6.771 -4.616,6.771c-1.37,0 -2.471,-0.46 -3.301,-1.381c-0.832,-0.922 -1.247,-2.28 -1.247,-4.077z" fill="none" stroke="#231f20" stroke-linecap="round" stroke-linejoin="round"></path><path d="M60.498,63.034c-6.989,2.584 -14.266,-2.73 -9.59,-10.443c4.691,-7.739 -2.903,-11.788 -8.053,-7.479c-7.134,5.969 -2.577,15.235 -11.511,20.49c-6.309,3.711 -11.34,5.489 -11.34,5.489" fill="none" stroke="#231f20" stroke-linecap="round" stroke-linejoin="round"></path><path d="M64.078,60.495c2.25,-1.867 3.128,-7.213 0.128,-9.223c-4.517,-3.027 -1.787,-9.798 4.149,-7.309c4.523,1.897 9.405,9.396 4.984,17.411" fill="none" stroke="#231f20" stroke-linecap="round" stroke-linejoin="round"></path><path d="M61.864,67.869c-1.471,-1.576 -3.446,-7.227 4.414,-7.672c7.252,-0.411 11.561,4.204 13.032,6.937c1.471,2.733 0.671,8.299 -3.35,9.256" fill="none" stroke="#231f20" stroke-linecap="round" stroke-linejoin="round"></path><path d="M67.855,79.262c0,0 -3.525,-0.427 -6.411,-1.829c-3.678,-1.787 -5.045,-9.459 2.838,-9.669c7.883,-0.21 13.558,6.201 11.141,13.768c-1.481,4.635 -7.379,9.232 -16.099,12.798" fill="none" stroke="#231f20" stroke-linecap="round" stroke-linejoin="round"></path></g></g></svg>