<svg xmlns="http://www.w3.org/2000/svg" xmlns:xlink="http://www.w3.org/1999/xlink" viewBox="0,0,256,256" width="200px" height="200px" fill-rule="nonzero"><g fill="none" fill-rule="nonzero" stroke="none" stroke-width="1" stroke-linecap="none" stroke-linejoin="none" stroke-miterlimit="10" stroke-dasharray="" stroke-dashoffset="0" font-family="none" font-weight="none" font-size="none" text-anchor="none" style="mix-blend-mode: normal"><g transform="scale(2.56,2.56)"><circle cx="50" cy="50" r="36.5" fill="#def3ff" stroke="none" stroke-linecap="butt" stroke-linejoin="miter"></circle><path d="M48.574,56.621c0.087,-0.745 0.381,-1.67 0.883,-2.775c0.606,-1.336 1.269,-2.387 1.988,-3.15c2.986,-3.1 5.682,-5.756 8.086,-7.968c2.402,-2.212 4.121,-3.667 5.154,-4.363c1.842,-1.303 3.374,-2.611 4.599,-3.925c1.225,-1.314 2.156,-2.662 2.797,-4.043c0.64,-1.382 0.96,-2.734 0.96,-4.061c0,-1.437 -0.343,-2.723 -1.027,-3.857c-0.686,-1.134 -1.617,-2.016 -2.797,-2.645c-1.179,-0.629 -2.465,-0.943 -3.857,-0.943c-2.942,0 -5.256,1.292 -6.94,3.875c-0.225,0.336 -0.602,1.258 -1.129,2.762c-0.527,1.506 -1.123,2.662 -1.785,3.471c-0.663,0.809 -1.634,1.213 -2.915,1.213c-1.123,0 -2.055,-0.371 -2.796,-1.111c-0.741,-0.742 -1.112,-1.752 -1.112,-3.033c0,-1.549 0.349,-3.166 1.045,-4.852c0.696,-1.684 1.735,-3.211 3.116,-4.582c1.382,-1.369 3.134,-2.476 5.256,-3.318c2.123,-0.842 4.61,-1.264 7.463,-1.264c3.437,0 6.368,0.539 8.794,1.617c1.571,0.72 2.953,1.708 4.144,2.965c1.19,1.259 2.117,2.713 2.779,4.363c0.662,1.651 0.994,3.364 0.994,5.139c0,2.785 -0.69,5.317 -2.072,7.597c-1.381,2.28 -2.791,4.065 -4.228,5.357c-1.438,1.292 -3.847,3.318 -7.228,6.081c-3.381,2.763 -5.699,4.908 -6.957,6.436c-0.539,0.605 -1.09,1.336 -1.651,2.189h17.588c1.752,0 3.088,0.359 4.009,1.078c0.921,0.719 1.382,1.696 1.382,2.932c0,1.101 -0.366,2.032 -1.096,2.796c-0.73,0.764 -1.836,1.146 -3.318,1.146h-5.147" fill="none" stroke="#231f20" stroke-linecap="round" stroke-linejoin="round"></path><path d="M19.709,87.949c9.708,-0.139 26.607,-1.896 29.812,-3.128c7.066,-2.716 4.15,-7.024 4.15,-7.024" fill="none" stroke="#231f20" stroke-linecap="round" stroke-linejoin="round"></path><path d="M46.998,78.731c0,0 13.888,-0.28 10.029,-9.747" fill="none" stroke="#231f20" stroke-linecap="round" stroke-linejoin="round"></path><path d="M16.885,52.312c12.888,0.269 22.914,-4.717 27.786,-3.147c1.739,0.56 3.563,1.265 5.49,2.583" fill="none" stroke="#231f20" stroke-linecap="round" stroke-linejoin="round"></path><path d="M51.036,69.416c0,0 13.972,-0.598 18.969,-2.499c4.997,-1.901 4.62,-7.909 -1.62,-8.702c-6.24,-0.793 -18.143,-0.502 -26.486,-2.704" fill="none" stroke="#231f20" stroke-linecap="round" stroke-linejoin="round"></path></g></g></svg>