<svg xmlns="http://www.w3.org/2000/svg" xmlns:xlink="http://www.w3.org/1999/xlink" viewBox="0,0,256,256" width="200px" height="200px" fill-rule="nonzero"><g fill="none" fill-rule="nonzero" stroke="none" stroke-width="1" stroke-linecap="none" stroke-linejoin="none" stroke-miterlimit="10" stroke-dasharray="" stroke-dashoffset="0" font-family="none" font-weight="none" font-size="none" text-anchor="none" style="mix-blend-mode: normal"><g transform="scale(2.56,2.56)"><circle cx="50" cy="50" r="36.5" fill="#cef8ff" stroke="none" stroke-linecap="butt" stroke-linejoin="miter"></circle><path d="M56.312,47.627c-0.802,1.624 -1.9,3.089 -3.295,4.395c-1.595,1.494 -3.487,2.661 -5.677,3.504c-2.19,0.842 -4.61,1.263 -7.261,1.263c-2.695,0 -5.11,-0.482 -7.244,-1.448c-2.134,-0.966 -3.891,-2.173 -5.272,-3.622c-1.381,-1.448 -2.426,-2.947 -3.133,-4.498c-0.708,-1.549 -1.062,-2.83 -1.062,-3.84c0,-1.303 0.421,-2.354 1.264,-3.15c0.842,-0.797 1.892,-1.196 3.15,-1.196c0.628,0 1.234,0.186 1.818,0.556c0.584,0.371 0.966,0.814 1.146,1.331c1.167,3.122 2.42,5.441 3.756,6.957c1.336,1.517 3.218,2.274 5.644,2.274c1.393,0 2.734,-0.342 4.026,-1.027c1.291,-0.686 2.358,-1.701 3.2,-3.049c0.843,-1.348 1.264,-2.909 1.264,-4.684c0,-2.628 -0.719,-4.688 -2.156,-6.183c-1.438,-1.493 -3.437,-2.24 -5.997,-2.24c-0.449,0 -1.146,0.045 -2.089,0.135c-0.943,0.09 -1.55,0.135 -1.819,0.135c-1.235,0 -2.189,-0.309 -2.863,-0.927c-0.674,-0.617 -1.012,-1.477 -1.012,-2.577c0,-1.078 0.404,-1.948 1.213,-2.611c0.809,-0.662 2.011,-0.993 3.605,-0.993h1.382c2.066,0 3.847,-0.607 5.341,-1.82c1.493,-1.213 2.24,-2.953 2.24,-5.222c0,-1.729 -0.596,-3.218 -1.786,-4.464c-1.19,-1.247 -2.796,-1.87 -4.817,-1.87c-1.37,0 -2.499,0.191 -3.386,0.573c-0.888,0.382 -1.59,0.887 -2.105,1.516c-0.518,0.629 -1.006,1.438 -1.466,2.426c-0.461,0.988 -0.882,1.92 -1.264,2.797c-0.225,0.471 -0.629,0.842 -1.213,1.111c-0.584,0.269 -1.258,0.404 -2.021,0.404c-0.898,0 -1.724,-0.365 -2.477,-1.095c-0.753,-0.73 -1.128,-1.702 -1.128,-2.915c0,-1.167 0.354,-2.396 1.061,-3.688c0.708,-1.292 1.74,-2.521 3.1,-3.689c1.36,-1.168 3.049,-2.105 5.07,-2.813c2.021,-0.707 4.279,-1.061 6.772,-1.061c2.179,0 4.166,0.298 5.964,0.893c1.796,0.595 3.357,1.454 4.683,2.577c1.326,1.123 2.325,2.426 2.999,3.908c0.674,1.482 1.01,3.077 1.01,4.784c0,2.246 -0.488,4.173 -1.465,5.778c-0.978,1.605 -2.375,3.173 -4.195,4.7c1.752,0.943 3.229,2.021 4.431,3.234c1.201,1.213 2.106,2.555 2.712,4.025c0.607,1.472 0.91,3.061 0.91,4.768c0,1.222 -0.146,2.419 -0.439,3.592" fill="none" stroke="#231f20" stroke-linecap="round" stroke-linejoin="round"></path><path d="M85.544,71.333c0,0 -12.853,-4.322 -18.085,-22.294c-2.502,-10.464 -12.626,-7.507 -11.033,1.82c1.303,7.632 -1.139,12.096 -8.758,12.284c-6.738,0.167 -16.185,-4.939 -19.823,-10.365c-4.562,-6.803 -10.451,-1.812 -8.617,3.255c2.47,6.824 8.761,12.397 16.714,14.778" fill="none" stroke="#231f20" stroke-linecap="round" stroke-linejoin="round"></path><path d="M40.944,81.202c0,0 -13.13,0.274 -22.964,-4.409c-7.166,-3.412 -2.161,-11.943 3.981,-8.645c5.356,2.876 14.009,2.694 14.009,2.694" fill="none" stroke="#231f20" stroke-linecap="round" stroke-linejoin="round"></path><path d="M40.844,81.248c0,0 -5.652,1.689 -12.791,2.074c-5.494,0.296 -7.539,7.612 -0.518,9.055c8.303,1.706 18.882,-4.664 28.095,-2.389c3.196,0.789 6.487,2.194 9.423,3.692" fill="none" stroke="#231f20" stroke-linecap="round" stroke-linejoin="round"></path></g></g></svg>