<svg xmlns="http://www.w3.org/2000/svg"  viewBox="0 0 100 100" width="200px" height="200px"><circle cx="50" cy="50" r="36.5" fill="#e8f5ff"/><path fill="none" stroke="#231f20" stroke-linecap="round" stroke-linejoin="round" stroke-miterlimit="10" d="M36.515,59.124 c-0.013-0.207-0.02-0.422-0.02-0.644v-6.266H19.582c-2.135,0-3.735-0.483-4.802-1.449s-1.601-2.279-1.601-3.941 c0-0.427,0.079-0.859,0.236-1.298c0.157-0.438,0.393-0.897,0.707-1.381s0.641-0.949,0.978-1.398s0.752-0.999,1.247-1.651 l17.855-23.887c1.168-1.572,2.128-2.712,2.881-3.42c0.753-0.707,1.656-1.061,2.713-1.061c3.413,0,5.121,1.953,5.121,5.861v26.078 h1.448c1.729,0,3.116,0.235,4.161,0.707c1.044,0.472,1.566,1.505,1.566,3.1c0,1.303-0.427,2.252-1.28,2.847 c-0.854,0.596-2.134,0.894-3.841,0.894h-2.055v6.266c0,0.589-0.044,1.126-0.133,1.611 M22.008,44.668h14.486V25.093L22.008,44.668 z"/><path fill="none" stroke="#231f20" stroke-linecap="round" stroke-linejoin="round" stroke-miterlimit="10" d="M86.82,84.272 C86.615,68.4,81.386,57.423,78.177,52.45c-9.041-14.014-21.332-12.977-25.72-10.467"/><path fill="none" stroke="#231f20" stroke-linecap="round" stroke-linejoin="round" stroke-miterlimit="10" d="M68.145,47.165 c0,0-9.73-9.738-23.035-2.743"/><path fill="none" stroke="#231f20" stroke-linecap="round" stroke-linejoin="round" stroke-miterlimit="10" d="M45.011,55.267 c9.9-2.536,12.329,12.222,6.36,9.2c-3.926-2.334-6.905-5.073-13.091-5.196c-6.457-0.128-10.691,8.529-2.627,11.851 c5.857,2.412,8.787,7.727,8.98,16.149"/><path fill="none" stroke="#231f20" stroke-linecap="round" stroke-linejoin="round" stroke-miterlimit="10" d="M62.251,50.285 c0,0-7.693-7.34-17.12-5.655"/></svg>