<svg xmlns="http://www.w3.org/2000/svg"  viewBox="0 0 64 64" width="256px" height="256px"><path d="M 26.498047 7.9882812 C 26.196504 7.9760849 25.896123 7.9919739 25.601562 8.0351562 C 25.012443 8.1215213 24.445349 8.3183248 23.935547 8.6308594 C 22.915944 9.2559284 22.160269 10.374296 22.005859 11.763672 C 21.534836 16.002886 19.344332 20.20695 17.199219 24.25 C 15.054105 28.29305 12.917969 32.163957 12.917969 36.029297 C 12.917969 37.301763 13.234615 38.31919 13.667969 39.197266 C 13.235805 40.003218 12.917969 40.918644 12.917969 42.029297 C 12.917969 46.477896 14.763052 50.08649 17.921875 52.464844 C 21.080698 54.843198 25.476259 56.029297 30.630859 56.029297 L 49 56.029297 C 51.953922 56.029297 53.80964 53.772788 54.050781 51.46875 C 54.223923 49.814433 53.555784 48.049755 52.158203 46.96875 C 53.341288 45.968817 54 44.494657 54 43.029297 C 54 41.536924 53.32581 40.028324 52.099609 39.029297 C 53.325669 38.030265 54 36.521582 54 35.029297 C 54 33.527222 53.319993 32.006249 52.078125 31.007812 C 53.347004 29.913891 53.981002 28.207216 53.873047 26.587891 C 53.797207 25.450245 53.379986 24.316824 52.552734 23.449219 C 51.725483 22.581613 50.483333 22.029297 49 22.029297 L 40.630859 22.029297 C 37.24197 22.029297 35.165385 24.2243 35.007812 26.587891 C 34.897199 28.247089 35.716908 29.925567 37.207031 31.001953 C 35.737444 31.980665 34.880859 33.476676 34.880859 35.029297 C 34.880859 36.581996 35.737304 38.079888 37.207031 39.058594 C 35.717044 40.134989 34.897205 41.811582 35.007812 43.470703 C 35.112117 45.035274 36.122448 46.463929 37.732422 47.292969 C 37.369135 47.591723 36.976548 47.874378 36.738281 48.242188 C 36.027556 49.339328 35.882498 50.627045 36.173828 51.75 A 1.0001 1.0001 0 1 0 38.109375 51.246094 C 37.953705 50.646049 38.030995 49.924438 38.416016 49.330078 C 38.80104 48.735719 39.484317 48.209245 40.775391 48.019531 A 1.0001 1.0001 0 0 0 40.630859 46.029297 C 38.019748 46.029297 37.09438 44.7243 37.001953 43.337891 C 36.909523 41.951482 37.766176 40.421765 39.826172 40.009766 A 1.0001 1.0001 0 0 0 39.826172 38.048828 C 37.703318 37.624257 36.880859 36.303106 36.880859 35.029297 C 36.880859 33.755487 37.703318 32.434336 39.826172 32.009766 A 1.0001 1.0001 0 0 0 39.826172 30.048828 C 37.766176 29.636829 36.909526 28.107112 37.001953 26.720703 C 37.094383 25.334294 38.019748 24.029297 40.630859 24.029297 L 49 24.029297 C 50.016667 24.029297 50.649517 24.353933 51.103516 24.830078 C 51.557514 25.306223 51.827796 25.983349 51.876953 26.720703 C 51.975263 28.195412 51.225185 29.693704 49.757812 30.060547 A 1.0001 1.0001 0 0 0 49.757812 32 C 51.301275 32.385866 52 33.660249 52 35.029297 C 52 36.398344 51.301275 37.674681 49.757812 38.060547 A 1.0001 1.0001 0 0 0 49.757812 40 C 51.301275 40.385866 52 41.660249 52 43.029297 C 52 44.398344 51.301275 45.674681 49.757812 46.060547 A 1.0001 1.0001 0 0 0 49.806641 48.011719 C 51.571114 48.359786 52.216608 49.789257 52.0625 51.261719 C 51.908391 52.734181 50.997078 54.029297 49 54.029297 L 30.630859 54.029297 C 25.785459 54.029297 21.822677 52.898333 19.125 50.867188 C 16.427323 48.836042 14.917969 45.942697 14.917969 42.029297 C 14.917969 41.64743 15.114114 41.464616 15.185547 41.148438 C 15.652769 41.491036 16.153701 41.744968 16.673828 41.875 C 17.652097 42.119567 18.657357 42.016444 19.482422 41.535156 C 20.307487 41.053868 20.917969 40.11263 20.917969 39.029297 C 20.917969 37.945964 20.248729 36.999218 19.384766 36.615234 C 18.520802 36.231251 17.5413 36.268783 16.601562 36.582031 C 16.133828 36.737943 15.670053 36.97365 15.238281 37.285156 C 15.136721 36.85179 14.917969 36.615698 14.917969 36.029297 C 14.917969 32.938636 16.82041 29.23295 18.966797 25.1875 C 21.113184 21.14205 23.465164 16.747114 23.994141 11.986328 C 24.086731 11.153204 24.45376 10.658837 24.980469 10.335938 C 25.507178 10.013037 26.2307 9.8946193 26.96875 10.058594 C 28.44485 10.386539 30 11.732429 30 14.875 C 30 20.430556 26.3125 23.929688 26.3125 23.929688 A 1.0001 1.0001 0 0 0 26.724609 25.617188 C 29.674303 26.459957 31.224708 29.715415 31.001953 32.833984 C 30.890576 34.393269 30.332961 35.861537 29.359375 36.914062 C 28.385789 37.966589 27.009259 38.65625 25 38.65625 A 1.0001 1.0001 0 1 0 25 40.65625 C 27.490741 40.65625 29.489211 39.720911 30.828125 38.273438 C 32.167039 36.825963 32.859424 34.917278 32.998047 32.976562 C 33.243547 29.539566 31.64347 25.94463 28.484375 24.333984 C 29.543703 23.156617 32 20.128593 32 14.875 C 32 11.017571 29.802743 8.6407236 27.402344 8.1074219 C 27.102294 8.0407591 26.79959 8.0004776 26.498047 7.9882812 z M 18.015625 38.347656 C 18.248412 38.347709 18.4437 38.385353 18.574219 38.443359 C 18.835255 38.559376 18.917969 38.61263 18.917969 39.029297 C 18.917969 39.445964 18.776499 39.631678 18.476562 39.806641 C 18.176627 39.981603 17.681887 40.06598 17.160156 39.935547 C 16.816836 39.849717 16.492824 39.519743 16.164062 39.244141 C 16.51145 38.943695 16.852903 38.605022 17.232422 38.478516 C 17.512553 38.385138 17.782838 38.347603 18.015625 38.347656 z"/></svg>