<svg xmlns="http://www.w3.org/2000/svg"  viewBox="0 0 100 100" width="100px" height="100px"><path d="M 70.113281 10.480469 C 70.007031 10.469531 69.900781 10.475 69.800781 10.5 C 53.800781 15 37.799609 19.000781 21.599609 22.300781 C 16.999609 23.200781 12.400781 24.100781 7.8007812 24.800781 C 7.3007812 24.900781 6.9996094 25.6 7.0996094 26 C 17.899609 68.2 19.500781 82.300781 20.800781 89.300781 C 21.000781 90.400781 22.099219 91.100391 23.199219 90.900391 C 44.199219 86.300391 68.1 81.4 88 74.5 C 93.2 72.7 95.8 69.999609 96 68.599609 C 96.179351 67.433829 93.2304 64.432319 91.103516 62.8125 C 93.609957 60.273936 95.695379 57.343405 97.099609 54 C 97.299609 53.5 97.2 52.6 96.5 52.5 C 93.1 52 90.099219 50.099219 87.699219 47.699219 C 85.649462 45.649462 84.40153 43.195629 83.232422 40.634766 C 85.402431 38.206008 87.493273 35.835429 89.400391 33.615234 C 89.962001 33.157438 90.890365 32.512724 91.228516 31.314453 C 91.340014 31.002913 91.357719 30.686461 91.328125 30.398438 C 92.029788 29.703774 93.466652 28.191056 95.019531 25.972656 A 1.0001 1.0001 0 0 0 95.09375 25.847656 C 95.09375 25.847656 95.381379 25.214468 95.261719 24.476562 C 95.142253 23.73986 94.647424 22.859268 93.589844 22.09375 C 92.471213 21.270902 91.390857 21.058573 90.599609 21.128906 C 89.807409 21.199326 89.230469 21.578125 89.230469 21.578125 A 1.0001 1.0001 0 0 0 89.111328 21.673828 C 89.111328 21.673828 87.3471 23.355462 85.417969 25.541016 C 85.039871 25.501597 84.660969 25.524472 84.283203 25.650391 A 1.0001 1.0001 0 0 0 84.152344 25.705078 C 83.71383 25.924335 83.492969 26.192578 83.292969 26.392578 L 82.212891 27.474609 C 81.418949 28.226764 80.259503 29.48278 79.0625 30.802734 C 76.325153 24.186318 73.651683 17.511391 70.900391 11 C 70.750391 10.7 70.432031 10.513281 70.113281 10.480469 z M 69.404297 12.523438 C 70.52141 15.14423 71.611675 17.779295 72.691406 20.421875 C 70.69598 21.109578 58.55835 25.259946 45.933594 28.736328 C 27.378039 33.880443 14.290571 36.212938 12.246094 36.566406 C 11.289951 33.215487 10.319001 29.883119 9.3027344 26.519531 C 25.260108 23.740984 41.027685 20.113778 56.699219 16 C 60.934205 14.87067 65.169311 13.73612 69.404297 12.523438 z M 73.453125 22.275391 C 74.827214 25.656153 76.190794 29.048531 77.574219 32.441406 C 76.254126 33.917564 74.931714 35.412899 74.173828 36.212891 A 1.0001 1.0001 0 0 0 74.15625 36.232422 C 67.077145 44.109172 59.579134 51.707416 52.361328 59.626953 A 1.0001 1.0001 0 0 0 52.148438 59.992188 C 51.152487 63.07963 50.052879 66.28002 49.048828 69.392578 A 1.0001 1.0001 0 0 0 50.412109 70.611328 C 52.521399 69.657126 54.65444 68.653349 56.392578 67.796875 C 57.831141 67.088018 58.855905 66.549778 59.578125 66.109375 A 1.0001 1.0001 0 0 0 60.439453 65.458984 C 66.795934 58.598272 74.69341 50.137606 81.802734 42.228516 C 83.025012 44.848985 84.420979 47.305554 86.599609 49.400391 C 88.901504 51.613751 91.674677 53.430453 94.708984 54.166016 C 90.654096 62.417604 82.381604 67.588163 74.099609 71.300781 C 63.999609 76.100781 52.999219 79.299219 42.199219 82.199219 C 36.22978 83.81002 30.257634 85.239426 24.203125 86.576172 C 20.860105 70.684337 17.31633 54.796865 13 39.199219 C 12.933456 38.963754 12.865386 38.733014 12.798828 38.498047 C 15.334506 38.055136 28.254534 35.71236 46.464844 30.664062 C 59.323469 27.123282 71.691689 22.883349 73.453125 22.275391 z M 91.060547 23.119141 C 91.383229 23.144535 91.821302 23.274065 92.40625 23.705078 A 1.0001 1.0001 0 0 0 92.414062 23.710938 C 93.152913 24.244552 93.25677 24.609781 93.287109 24.796875 C 93.310999 24.944189 93.303041 24.921667 93.300781 24.919922 C 92.051596 26.680251 91.073784 27.76551 90.378906 28.488281 C 89.677377 27.624417 88.805453 26.888741 87.810547 26.353516 L 90.822266 23.121094 C 90.894998 23.116255 90.970666 23.112067 91.060547 23.119141 z M 86.445312 27.908203 C 87.481358 28.370283 88.406294 29.141822 89.072266 30.068359 C 89.143483 30.188859 89.172995 30.257415 89.222656 30.351562 A 1.0001 1.0001 0 0 0 89.222656 30.353516 A 1.0001 1.0001 0 0 0 89.359375 30.662109 A 1.0001 1.0001 0 0 0 89.330078 30.757812 C 89.253728 31.06323 88.69413 31.602873 88.060547 32.130859 A 1.0001 1.0001 0 0 0 87.941406 32.248047 C 86.0559 34.444107 83.983832 36.792379 81.832031 39.201172 C 81.451609 39.305618 81.118734 39.647694 81.042969 40.089844 C 74.226636 47.693182 66.666833 55.797562 60.314453 62.646484 C 60.304855 62.578066 60.299708 62.516468 60.289062 62.447266 A 1.0001 1.0001 0 0 0 59.441406 61.609375 C 58.366004 61.455746 57.794308 61.470062 57.259766 61.458984 C 57.243806 61.369114 57.249969 61.376694 57.230469 61.279297 C 57.142208 60.837991 57.056872 60.36516 56.818359 59.882812 C 57.882195 58.826592 64.115046 52.598251 70.699219 45.099609 C 77.410603 37.549302 85.317656 29.110482 86.445312 27.908203 z M 54 61.066406 C 54.203317 61.040996 54.682467 61.069804 55.095703 61.083984 C 55.164293 61.288815 55.21684 61.408421 55.269531 61.671875 C 55.360731 62.127875 55.40625 62.517578 55.40625 62.517578 A 1.0001 1.0001 0 0 0 56.400391 63.400391 C 56.400391 63.400391 57.47305 63.465751 58.375 63.535156 C 58.40764 63.942201 58.421977 64.134214 58.447266 64.451172 C 57.887688 64.78108 56.893413 65.321147 55.507812 66.003906 C 54.902901 66.301979 54.134243 66.653304 53.416016 66.988281 C 53.121317 66.664254 52.750749 66.296327 52.277344 65.984375 C 52.820097 64.348297 53.36699 62.710166 53.894531 61.083984 C 53.939879 61.076084 53.892253 61.07987 54 61.066406 z"/></svg>