<svg xmlns="http://www.w3.org/2000/svg"  viewBox="0 0 100 100" width="400px" height="400px"><path d="M 12.005859 16 A 1.0001 1.0001 0 0 0 11.003906 16.916016 L 9.0039062 40.916016 A 1.0001 1.0001 0 0 0 9.046875 41.300781 L 11.951172 50.5 L 9.046875 59.699219 A 1.0001 1.0001 0 0 0 9.0039062 60.083984 L 11.003906 84.083984 A 1.0001 1.0001 0 0 0 12.394531 84.917969 L 90.394531 51.417969 A 1.0001 1.0001 0 0 0 90.394531 49.582031 L 12.394531 16.082031 A 1.0001 1.0001 0 0 0 12.005859 16 z M 12.880859 18.464844 L 87.46875 50.5 L 12.880859 82.535156 L 11.013672 60.113281 L 13.890625 51 L 20.378906 51 A 0.50005 0.50005 0 0 0 20.630859 51 L 26.878906 51 A 0.50005 0.50005 0 0 0 27.130859 51 L 33.378906 51 A 0.50005 0.50005 0 0 0 33.630859 51 L 39.878906 51 A 0.50005 0.50005 0 0 0 40.130859 51 L 46.378906 51 A 0.50005 0.50005 0 0 0 46.630859 51 L 52.878906 51 A 0.50005 0.50005 0 0 0 53.130859 51 L 59.378906 51 A 0.50005 0.50005 0 0 0 59.630859 51 L 65.878906 51 A 0.50005 0.50005 0 0 0 66.130859 51 L 73.9375 51 L 29.433594 56.914062 A 0.50005 0.50005 0 1 0 29.566406 57.904297 L 81.566406 50.996094 A 0.50005 0.50005 0 0 0 81.566406 50.003906 L 65.455078 47.863281 A 0.50005 0.50005 0 0 0 65.308594 47.84375 L 58.679688 46.962891 A 0.50005 0.50005 0 0 0 58.525391 46.941406 L 58.523438 46.941406 A 0.50005 0.50005 0 0 0 58.519531 46.941406 L 51.886719 46.060547 A 0.50005 0.50005 0 0 0 51.740234 46.041016 L 45.103516 45.158203 A 0.50005 0.50005 0 0 0 44.955078 45.138672 A 0.50005 0.50005 0 0 0 44.951172 45.138672 L 38.3125 44.257812 A 0.50005 0.50005 0 0 0 38.173828 44.238281 L 31.535156 43.355469 A 0.50005 0.50005 0 0 0 31.386719 43.335938 L 31.384766 43.335938 A 0.50005 0.50005 0 0 0 31.382812 43.335938 L 24.748047 42.455078 A 0.50005 0.50005 0 0 0 24.607422 42.435547 L 17.962891 41.552734 A 0.50005 0.50005 0 0 0 17.814453 41.533203 L 11.035156 40.632812 L 12.880859 18.464844 z M 11.261719 41.671875 L 17.447266 42.494141 L 19.818359 50 L 13.890625 50 L 11.261719 41.671875 z M 18.541016 42.640625 L 24.232422 43.396484 L 26.318359 50 L 20.865234 50 L 18.541016 42.640625 z M 25.326172 43.541016 L 31.017578 44.296875 L 32.818359 50 L 27.365234 50 L 25.326172 43.541016 z M 32.111328 44.443359 L 37.800781 45.199219 L 39.318359 50 L 33.865234 50 L 32.111328 44.443359 z M 38.894531 45.34375 L 44.585938 46.099609 L 45.818359 50 L 40.365234 50 L 38.894531 45.34375 z M 45.679688 46.246094 L 51.371094 47.001953 L 52.318359 50 L 46.865234 50 L 45.679688 46.246094 z M 52.464844 47.146484 L 58.154297 47.902344 L 58.818359 50 L 53.365234 50 L 52.464844 47.146484 z M 59.25 48.048828 L 64.939453 48.804688 L 65.318359 50 L 59.867188 50 L 59.25 48.048828 z M 66.035156 48.949219 L 73.935547 50 L 66.365234 50 L 66.035156 48.949219 z M 22.519531 57.837891 A 0.50005 0.50005 0 0 0 22.433594 57.84375 L 18.433594 58.375 A 0.50051874 0.50051874 0 1 0 18.566406 59.367188 L 22.566406 58.833984 A 0.50005 0.50005 0 0 0 22.519531 57.837891 z M 15.519531 58.767578 A 0.50005 0.50005 0 0 0 15.433594 58.773438 L 14.433594 58.90625 A 0.50051874 0.50051874 0 1 0 14.566406 59.898438 L 15.566406 59.763672 A 0.50005 0.50005 0 0 0 15.519531 58.767578 z"/></svg>