<svg xmlns="http://www.w3.org/2000/svg"  viewBox="0 0 80 80" width="160px" height="160px"><path d="M 40 7 C 21.837213 7 7 20.387638 7 37 C 7 46.369318 11.796525 54.673067 19.166016 60.160156 C 18.229036 63.519949 16.678089 65.690235 15.220703 67.277344 C 14.448232 68.118573 13.712552 68.81185 13.115234 69.519531 C 12.517917 70.227213 12 71.014987 12 72 L 12 73 L 13 73 C 19.821919 73 26.667333 68.791354 30.8125 65.787109 C 33.733869 66.557471 36.808752 67 40 67 C 58.162787 67 73 53.612362 73 37 C 73 20.387638 58.162787 7 40 7 z M 40 9 C 57.183213 9 71 21.580362 71 37 C 71 52.419638 57.183213 65 40 65 C 36.819076 65 33.753535 64.565586 30.867188 63.761719 L 30.398438 63.630859 L 30.005859 63.919922 C 26.406537 66.56383 20.379601 70.097082 14.705078 70.746094 C 15.187728 70.183787 15.894044 69.501496 16.695312 68.628906 C 18.346621 66.830615 20.317495 64.232202 21.318359 60.113281 L 21.478516 59.453125 L 20.923828 59.060547 C 13.648506 53.919384 9 45.952296 9 37 C 9 21.580362 22.816787 9 40 9 z M 40.056641 12 C 39.504641 11.999 39.055687 12.446047 39.054688 12.998047 C 39.053687 13.550047 39.500734 13.999 40.052734 14 C 40.604734 14.001 41.053688 13.553953 41.054688 13.001953 C 41.055687 12.449953 40.608641 12.001 40.056641 12 z M 34.591797 12.529297 C 34.049797 12.636297 33.697687 13.161125 33.804688 13.703125 C 33.911687 14.245125 34.436516 14.597234 34.978516 14.490234 C 35.520516 14.383234 35.872625 13.858406 35.765625 13.316406 C 35.659625 12.774406 35.133797 12.422297 34.591797 12.529297 z M 45.119141 12.548828 C 44.737578 12.626828 44.419641 12.925531 44.337891 13.332031 C 44.228891 13.873031 44.580094 14.401766 45.121094 14.509766 C 45.662094 14.618766 46.190828 14.267562 46.298828 13.726562 C 46.407828 13.185562 46.056625 12.656828 45.515625 12.548828 C 45.380375 12.521828 45.246328 12.522828 45.119141 12.548828 z M 29.726562 14.037109 C 29.596672 14.035875 29.463688 14.058828 29.335938 14.111328 C 28.824938 14.321328 28.582969 14.907969 28.792969 15.417969 C 29.002969 15.928969 29.587656 16.170938 30.097656 15.960938 C 30.608656 15.750937 30.850625 15.16625 30.640625 14.65625 C 30.483125 14.273 30.116234 14.040812 29.726562 14.037109 z M 50.376953 14.076172 C 49.987047 14.078422 49.616031 14.308906 49.457031 14.691406 C 49.245031 15.201406 49.486094 15.787 49.996094 16 C 50.506094 16.213 51.091687 15.970937 51.304688 15.460938 C 51.516688 14.950938 51.275625 14.365344 50.765625 14.152344 C 50.638125 14.099344 50.506922 14.075422 50.376953 14.076172 z M 24.859375 16.539062 C 24.731781 16.563109 24.605234 16.612953 24.490234 16.689453 C 24.030234 16.995453 23.906891 17.615219 24.212891 18.074219 C 24.518891 18.533219 25.138656 18.659516 25.597656 18.353516 C 26.057656 18.047516 26.182953 17.42775 25.876953 16.96875 C 25.647453 16.6245 25.242156 16.466922 24.859375 16.539062 z M 55.234375 16.595703 C 54.851406 16.521828 54.445094 16.677984 54.214844 17.021484 C 53.906844 17.480484 54.028328 18.100203 54.486328 18.408203 C 54.944328 18.716203 55.567 18.594719 55.875 18.136719 C 56.183 17.677719 56.059563 17.056047 55.601562 16.748047 C 55.486812 16.671047 55.362031 16.620328 55.234375 16.595703 z M 20.947266 19.871094 C 20.691391 19.870594 20.436234 19.967109 20.240234 20.162109 C 19.849234 20.552109 19.846328 21.185172 20.236328 21.576172 C 20.626328 21.967172 21.259391 21.968125 21.650391 21.578125 C 22.041391 21.188125 22.044297 20.555062 21.654297 20.164062 C 21.459797 19.968063 21.203141 19.871594 20.947266 19.871094 z M 59.130859 19.945312 C 58.874984 19.944813 58.619328 20.043281 58.423828 20.238281 C 58.032828 20.628281 58.031875 21.261344 58.421875 21.652344 C 58.811875 22.043344 59.444938 22.044297 59.835938 21.654297 C 60.226937 21.264297 60.227891 20.631234 59.837891 20.240234 C 59.642891 20.044234 59.386734 19.945812 59.130859 19.945312 z M 17.388672 23.972656 C 17.137422 24.022156 16.904 24.167484 16.75 24.396484 C 16.442 24.855484 16.565437 25.477156 17.023438 25.785156 C 17.481437 26.093156 18.102156 25.969719 18.410156 25.511719 C 18.718156 25.053719 18.596672 24.431047 18.138672 24.123047 C 17.909672 23.969047 17.639922 23.923156 17.388672 23.972656 z M 62.292969 24.0625 C 62.165297 24.086578 62.040781 24.136641 61.925781 24.212891 C 61.465781 24.518891 61.340484 25.140609 61.646484 25.599609 C 61.952484 26.059609 62.574203 26.184906 63.033203 25.878906 C 63.493203 25.572906 63.6185 24.951188 63.3125 24.492188 C 63.08375 24.147188 62.675984 23.990266 62.292969 24.0625 z M 15.070312 28.617188 C 14.680641 28.619438 14.312094 28.849922 14.152344 29.232422 C 13.940344 29.742422 14.181406 30.328016 14.691406 30.541016 C 15.201406 30.753016 15.785047 30.511953 15.998047 30.001953 C 16.211047 29.491953 15.970937 28.906359 15.460938 28.693359 C 15.333438 28.640359 15.200203 28.616437 15.070312 28.617188 z M 64.972656 28.720703 C 64.842812 28.719469 64.711484 28.744375 64.583984 28.796875 C 64.072984 29.006875 63.829063 29.591563 64.039062 30.101562 C 64.249062 30.612562 64.835703 30.854531 65.345703 30.644531 C 65.856703 30.434531 66.098672 29.849844 65.888672 29.339844 C 65.731172 28.956594 65.362188 28.724406 64.972656 28.720703 z M 25 30 L 25 32 L 45 32 L 45 30 L 25 30 z M 49 30 L 49 32 L 55 32 L 55 30 L 49 30 z M 13.328125 33.699219 C 12.946562 33.777313 12.630578 34.076672 12.548828 34.482422 C 12.439828 35.023422 12.789078 35.550203 13.330078 35.658203 C 13.871078 35.767203 14.399812 35.417953 14.507812 34.876953 C 14.615813 34.335953 14.265609 33.807219 13.724609 33.699219 C 13.589359 33.671969 13.455312 33.673187 13.328125 33.699219 z M 66.298828 33.806641 C 65.756828 33.913641 65.404719 34.438469 65.511719 34.980469 C 65.618719 35.522469 66.143547 35.876531 66.685547 35.769531 C 67.227547 35.662531 67.579656 35.137703 67.472656 34.595703 C 67.366656 34.054703 66.840828 33.700641 66.298828 33.806641 z M 23 36 L 23 38 L 36 38 L 36 36 L 23 36 z M 41 36 L 41 38 L 57 38 L 57 36 L 41 36 z M 13.001953 38.945312 C 12.449953 38.944313 12.001 39.391359 12 39.943359 C 11.999 40.495359 12.446047 40.944312 12.998047 40.945312 C 13.550047 40.946313 13.999 40.499266 14 39.947266 C 14.001 39.395266 13.553953 38.946312 13.001953 38.945312 z M 67.003906 39.052734 C 66.451906 39.051734 66.002953 39.498781 66.001953 40.050781 C 66.000953 40.602781 66.446047 41.051734 66.998047 41.052734 C 67.550047 41.053734 68.000953 40.606688 68.001953 40.054688 C 68.002953 39.502688 67.555906 39.053734 67.003906 39.052734 z M 26 42 L 26 44 L 44 44 L 44 42 L 26 42 z M 49 42 L 49 44 L 54 44 L 54 42 L 49 42 z M 14.263672 43.779297 C 14.133828 43.778547 14.00225 43.802469 13.875 43.855469 C 13.365 44.067469 13.123937 44.654062 13.335938 45.164062 C 13.547937 45.674062 14.134531 45.915125 14.644531 45.703125 C 15.154531 45.491125 15.395594 44.904531 15.183594 44.394531 C 15.023844 44.012031 14.653203 43.781547 14.263672 43.779297 z M 65.734375 43.779297 C 65.344469 43.781547 64.975406 44.013984 64.816406 44.396484 C 64.604406 44.906484 64.845469 45.490125 65.355469 45.703125 C 65.865469 45.916125 66.449109 45.674062 66.662109 45.164062 C 66.875109 44.654063 66.633047 44.070422 66.123047 43.857422 C 65.995547 43.804422 65.864344 43.778547 65.734375 43.779297 z M 62.970703 48.330078 C 62.587969 48.256203 62.180219 48.412359 61.949219 48.755859 C 61.641219 49.214859 61.764656 49.834578 62.222656 50.142578 C 62.681656 50.450578 63.303328 50.327141 63.611328 49.869141 C 63.919328 49.410141 63.795891 48.790422 63.337891 48.482422 C 63.223141 48.405422 63.098281 48.354703 62.970703 48.330078 z M 17.029297 48.335938 C 16.901719 48.360641 16.776859 48.409328 16.662109 48.486328 C 16.203109 48.794328 16.080672 49.416 16.388672 49.875 C 16.696672 50.334 17.318344 50.456437 17.777344 50.148438 C 18.236344 49.840438 18.358781 49.218766 18.050781 48.759766 C 17.819781 48.415516 17.412031 48.261828 17.029297 48.335938 z M 20.873047 52.054688 C 20.617172 52.054187 20.360063 52.150703 20.164062 52.345703 C 19.773063 52.735703 19.770156 53.368766 20.160156 53.759766 C 20.550156 54.150766 21.183219 54.153672 21.574219 53.763672 C 21.965219 53.373672 21.968125 52.740609 21.578125 52.349609 C 21.383625 52.153609 21.128922 52.055188 20.873047 52.054688 z M 59.054688 52.128906 C 58.798812 52.128281 58.543156 52.226875 58.347656 52.421875 C 57.956656 52.811875 57.955703 53.444938 58.345703 53.835938 C 58.735703 54.226937 59.368766 54.227891 59.759766 53.837891 C 60.150766 53.447891 60.151719 52.814828 59.761719 52.423828 C 59.566719 52.228328 59.310563 52.129531 59.054688 52.128906 z M 54.769531 55.498047 C 54.641859 55.522172 54.517344 55.571938 54.402344 55.648438 C 53.942344 55.954437 53.817047 56.576156 54.123047 57.035156 C 54.429047 57.495156 55.050766 57.620453 55.509766 57.314453 C 55.969766 57.008453 56.093109 56.386734 55.787109 55.927734 C 55.558359 55.582734 55.152547 55.425672 54.769531 55.498047 z M 50.289062 57.96875 C 50.159172 57.967563 50.028141 57.992172 49.900391 58.044922 C 49.389391 58.254922 49.145469 58.839609 49.355469 59.349609 C 49.565469 59.860609 50.150156 60.102578 50.660156 59.892578 C 51.170156 59.682578 51.415078 59.097891 51.205078 58.587891 C 51.047578 58.204641 50.678734 57.972312 50.289062 57.96875 z M 34.478516 59.488281 C 34.096953 59.566375 33.780969 59.865734 33.699219 60.271484 C 33.590219 60.812484 33.941422 61.339266 34.482422 61.447266 C 35.023422 61.556266 35.550203 61.205062 35.658203 60.664062 C 35.767203 60.123063 35.417953 59.596281 34.876953 59.488281 C 34.741703 59.461031 34.605703 59.46225 34.478516 59.488281 z M 45.021484 59.513672 C 44.479484 59.620672 44.125422 60.1455 44.232422 60.6875 C 44.339422 61.2295 44.86425 61.583563 45.40625 61.476562 C 45.94825 61.369563 46.302312 60.844734 46.195312 60.302734 C 46.088313 59.761734 45.563484 59.407672 45.021484 59.513672 z M 39.949219 60.001953 C 39.397219 60.000953 38.948266 60.446047 38.947266 60.998047 C 38.946266 61.550047 39.393313 62.000953 39.945312 62.001953 C 40.497312 62.002953 40.946266 61.555906 40.947266 61.003906 C 40.948266 60.451906 40.501219 60.002953 39.949219 60.001953 z"/></svg>