<svg xmlns="http://www.w3.org/2000/svg"  viewBox="0 0 100 100" width="400px" height="400px"><path d="M 56.984375 15 A 1.0001 1.0001 0 0 0 56.292969 15.292969 L 49.292969 22.292969 A 1.0001 1.0001 0 0 0 49.292969 23.707031 L 61.716797 36.130859 C 36.41494 36.829708 16 57.533036 16 83 L 16 84 A 1.0001 1.0001 0 0 0 17 85 L 27 85 A 1.0001 1.0001 0 0 0 28 84 L 28 83 C 28 64.229818 42.862813 48.999864 61.427734 48.158203 L 49.292969 60.292969 A 1.0001 1.0001 0 0 0 49.292969 61.707031 L 56.292969 68.707031 A 1.0001 1.0001 0 0 0 57.707031 68.707031 L 83.707031 42.707031 A 1.0001 1.0001 0 0 0 83.707031 41.292969 L 57.707031 15.292969 A 1.0001 1.0001 0 0 0 56.984375 15 z M 57 17.414062 L 81.585938 42 L 57 66.585938 L 51.414062 61 L 64.707031 47.707031 A 1.0001 1.0001 0 0 0 64 46 L 63 46 C 42.60666 46 26 62.60666 26 83 L 18 83 C 18 58.178396 38.178396 38 63 38 L 64 38 A 1.0001 1.0001 0 0 0 64.707031 36.292969 L 51.414062 23 L 57 17.414062 z M 57.994141 22.994141 A 0.50005 0.50005 0 0 0 57.646484 23.853516 L 64.646484 30.853516 A 0.50005 0.50005 0 1 0 65.353516 30.146484 L 58.353516 23.146484 A 0.50005 0.50005 0 0 0 57.994141 22.994141 z M 69.994141 34.994141 A 0.50005 0.50005 0 0 0 69.646484 35.853516 L 72.146484 38.353516 A 0.50005 0.50005 0 1 0 72.853516 37.646484 L 70.353516 35.146484 A 0.50005 0.50005 0 0 0 69.994141 34.994141 z M 74.994141 39.994141 A 0.50005 0.50005 0 0 0 74.646484 40.853516 L 76.146484 42.353516 A 0.50005 0.50005 0 1 0 76.853516 41.646484 L 75.353516 40.146484 A 0.50005 0.50005 0 0 0 74.994141 39.994141 z M 71.990234 45.996094 A 0.50005 0.50005 0 0 0 71.646484 46.146484 L 57.646484 60.146484 A 0.50005 0.50005 0 1 0 58.353516 60.853516 L 72.353516 46.853516 A 0.50005 0.50005 0 0 0 71.990234 45.996094 z"/></svg>